G04 FAB 3000 Version 8.1.40 - Gerber/CAM Software*
G04 RS274-X Output*
%FSLAX35Y35*%
%MIA0B0*%
%MOIN*%
%SFA1.000000B1.000000*%

%IPPOS*%
%AMRECT_ROUNDED85*
4,1,38,0.000000,0.012500,
-0.010250,0.012500,
-0.011549,0.012363,
-0.012792,0.011960,
-0.013924,0.011306,
-0.014895,0.010432,
-0.015663,0.009375,
-0.016194,0.008181,
-0.016466,0.006903,
-0.016500,0.006250,
-0.016500,-0.006250,
-0.016363,-0.007549,
-0.015960,-0.008792,
-0.015306,-0.009924,
-0.014432,-0.010895,
-0.013375,-0.011663,
-0.012181,-0.012194,
-0.010903,-0.012466,
-0.010250,-0.012500,
0.010250,-0.012500,
0.011549,-0.012363,
0.012792,-0.011960,
0.013924,-0.011306,
0.014895,-0.010432,
0.015663,-0.009375,
0.016194,-0.008181,
0.016466,-0.006903,
0.016500,-0.006250,
0.016500,0.006250,
0.016363,0.007549,
0.015960,0.008792,
0.015306,0.009924,
0.014432,0.010895,
0.013375,0.011663,
0.012181,0.012194,
0.010903,0.012466,
0.010250,0.012500,
0.000000,0.012500,
0.000000,0.012500,0.0*
%
%AMRECT_ROUNDED179*
4,1,38,0.000000,0.007874,
-0.008858,0.007874,
-0.009677,0.007788,
-0.010460,0.007534,
-0.011172,0.007122,
-0.011784,0.006571,
-0.012268,0.005906,
-0.012603,0.005154,
-0.012774,0.004349,
-0.012795,0.003937,
-0.012795,-0.003937,
-0.012709,-0.004756,
-0.012455,-0.005538,
-0.012043,-0.006251,
-0.011493,-0.006863,
-0.010827,-0.007347,
-0.010075,-0.007681,
-0.009270,-0.007852,
-0.008858,-0.007874,
0.008858,-0.007874,
0.009677,-0.007788,
0.010460,-0.007534,
0.011172,-0.007122,
0.011784,-0.006571,
0.012268,-0.005906,
0.012603,-0.005154,
0.012774,-0.004349,
0.012795,-0.003937,
0.012795,0.003937,
0.012709,0.004756,
0.012455,0.005538,
0.012043,0.006251,
0.011493,0.006863,
0.010827,0.007347,
0.010075,0.007681,
0.009270,0.007852,
0.008858,0.007874,
0.000000,0.007874,
0.000000,0.007874,0.0*
%
%AMRECT_ROUNDED201*
4,1,38,0.000000,0.040500,
-0.020250,0.040500,
-0.024460,0.040057,
-0.028486,0.038749,
-0.032153,0.036633,
-0.035299,0.033800,
-0.037787,0.030375,
-0.039509,0.026508,
-0.040389,0.022367,
-0.040500,0.020250,
-0.040500,-0.020250,
-0.040057,-0.024460,
-0.038749,-0.028486,
-0.036633,-0.032153,
-0.033800,-0.035299,
-0.030375,-0.037787,
-0.026508,-0.039509,
-0.022367,-0.040389,
-0.020250,-0.040500,
0.020250,-0.040500,
0.024460,-0.040057,
0.028486,-0.038749,
0.032153,-0.036633,
0.035299,-0.033800,
0.037787,-0.030375,
0.039509,-0.026508,
0.040389,-0.022367,
0.040500,-0.020250,
0.040500,0.020250,
0.040057,0.024460,
0.038749,0.028486,
0.036633,0.032153,
0.033800,0.035299,
0.030375,0.037787,
0.026508,0.039509,
0.022367,0.040389,
0.020250,0.040500,
0.000000,0.040500,
0.000000,0.040500,0.0*
%
%AMOCTAGON212*
4,1,9,-0.011000,0.022000,
-0.022000,0.011000,
-0.022000,-0.011000,
-0.011000,-0.022000,
0.011000,-0.022000,
0.022000,-0.011000,
0.022000,0.011000,
0.011000,0.022000,
-0.011000,0.022000,
-0.011000,0.022000,0.0*
%
%AMRECT_ROUNDED256*
4,1,38,0.000000,0.026500,
-0.013250,0.026500,
-0.016005,0.026210,
-0.018639,0.025354,
-0.021038,0.023969,
-0.023097,0.022116,
-0.024725,0.019875,
-0.025851,0.017344,
-0.026427,0.014635,
-0.026500,0.013250,
-0.026500,-0.013250,
-0.026210,-0.016005,
-0.025354,-0.018639,
-0.023969,-0.021038,
-0.022116,-0.023097,
-0.019875,-0.024725,
-0.017344,-0.025851,
-0.014635,-0.026427,
-0.013250,-0.026500,
0.013250,-0.026500,
0.016005,-0.026210,
0.018639,-0.025354,
0.021038,-0.023969,
0.023097,-0.022116,
0.024725,-0.019875,
0.025851,-0.017344,
0.026427,-0.014635,
0.026500,-0.013250,
0.026500,0.013250,
0.026210,0.016005,
0.025354,0.018639,
0.023969,0.021038,
0.022116,0.023097,
0.019875,0.024725,
0.017344,0.025852,
0.014635,0.026427,
0.013250,0.026500,
0.000000,0.026500,
0.000000,0.026500,0.0*
%
%AMRECT_ROUNDED257*
4,1,38,0.000000,0.028500,
-0.014250,0.028500,
-0.017213,0.028189,
-0.020046,0.027268,
-0.022626,0.025778,
-0.024840,0.023785,
-0.026591,0.021375,
-0.027803,0.018653,
-0.028422,0.015740,
-0.028500,0.014250,
-0.028500,-0.014250,
-0.028189,-0.017213,
-0.027268,-0.020046,
-0.025778,-0.022626,
-0.023785,-0.024840,
-0.021375,-0.026591,
-0.018653,-0.027803,
-0.015740,-0.028422,
-0.014250,-0.028500,
0.014250,-0.028500,
0.017213,-0.028189,
0.020046,-0.027268,
0.022626,-0.025778,
0.024840,-0.023785,
0.026591,-0.021375,
0.027803,-0.018654,
0.028422,-0.015740,
0.028500,-0.014250,
0.028500,0.014250,
0.028189,0.017213,
0.027268,0.020046,
0.025778,0.022626,
0.023785,0.024840,
0.021375,0.026591,
0.018653,0.027803,
0.015740,0.028422,
0.014250,0.028500,
0.000000,0.028500,
0.000000,0.028500,0.0*
%
%AMoval83x68.189_55*
4,1,41,0.023600,0.025600,
0.032100,0.013400,
0.035005,0.008346,
0.037004,0.002870,
0.038037,-0.002867,
0.038074,-0.008696,
0.037115,-0.014446,
0.035187,-0.019947,
0.032348,-0.025038,
0.028680,-0.029569,
0.024291,-0.033406,
0.019311,-0.036437,
0.013887,-0.038572,
0.008178,-0.039748,
0.002351,-0.039931,
-0.003420,-0.039116,
-0.008969,-0.037326,
-0.014129,-0.034615,
-0.018750,-0.031061,
-0.022695,-0.026770,
-0.023600,-0.025600,
-0.032100,-0.013400,
-0.035005,-0.008346,
-0.037004,-0.002870,
-0.038037,0.002867,
-0.038074,0.008696,
-0.037115,0.014446,
-0.035187,0.019948,
-0.032348,0.025038,
-0.028680,0.029569,
-0.024291,0.033406,
-0.019311,0.036437,
-0.013887,0.038572,
-0.008178,0.039748,
-0.002351,0.039931,
0.003420,0.039116,
0.008969,0.037326,
0.014129,0.034615,
0.018750,0.031061,
0.022695,0.026770,
0.023600,0.025600,
0.023600,0.025600,0.0*
%
%AMoval85x68.189_25*
4,1,41,0.006700,0.034400,
0.022000,0.027300,
0.027051,0.024386,
0.031530,0.020653,
0.035305,0.016209,
0.038265,0.011185,
0.040323,0.005730,
0.041419,0.000002,
0.041520,-0.005827,
0.040624,-0.011589,
0.038756,-0.017113,
0.035972,-0.022236,
0.032353,-0.026808,
0.028006,-0.030695,
0.023059,-0.033782,
0.017658,-0.035978,
0.011961,-0.037219,
0.006135,-0.037468,
0.000352,-0.036719,
-0.005217,-0.034992,
-0.006700,-0.034400,
-0.022000,-0.027300,
-0.027051,-0.024386,
-0.031530,-0.020653,
-0.035305,-0.016209,
-0.038265,-0.011185,
-0.040323,-0.005730,
-0.041419,-0.000002,
-0.041520,0.005827,
-0.040624,0.011589,
-0.038756,0.017113,
-0.035972,0.022236,
-0.032353,0.026808,
-0.028006,0.030695,
-0.023059,0.033782,
-0.017658,0.035978,
-0.011961,0.037219,
-0.006135,0.037468,
-0.000352,0.036719,
0.005217,0.034992,
0.006700,0.034400,
0.006700,0.034400,0.0*
%
%AMoval85x68.189_335*
4,1,41,-0.022000,0.027300,
-0.006700,0.034400,
-0.001214,0.036388,
0.004531,0.037410,
0.010366,0.037436,
0.016120,0.036465,
0.021623,0.034526,
0.026715,0.031676,
0.031245,0.027999,
0.035081,0.023602,
0.038110,0.018614,
0.040243,0.013183,
0.041417,0.007467,
0.041597,0.001635,
0.040780,-0.004143,
0.038987,-0.009696,
0.036273,-0.014861,
0.032717,-0.019487,
0.028423,-0.023439,
0.023518,-0.026598,
0.022000,-0.027300,
0.006700,-0.034400,
0.001214,-0.036388,
-0.004531,-0.037410,
-0.010366,-0.037436,
-0.016120,-0.036465,
-0.021623,-0.034526,
-0.026715,-0.031676,
-0.031245,-0.027999,
-0.035081,-0.023602,
-0.038110,-0.018614,
-0.040243,-0.013183,
-0.041417,-0.007467,
-0.041597,-0.001635,
-0.040780,0.004143,
-0.038987,0.009696,
-0.036273,0.014861,
-0.032717,0.019487,
-0.028423,0.023439,
-0.023518,0.026598,
-0.022000,0.027300,
-0.022000,0.027300,0.0*
%
%AMoval83x68.189_305*
4,1,41,-0.032100,0.013400,
-0.023600,0.025600,
-0.019843,0.030061,
-0.015379,0.033814,
-0.010340,0.036750,
-0.004873,0.038782,
0.000860,0.039850,
0.006692,0.039923,
0.012450,0.038999,
0.017967,0.037104,
0.023078,0.034295,
0.027634,0.030654,
0.031501,0.026289,
0.034566,0.021326,
0.036738,0.015914,
0.037953,0.010210,
0.038176,0.004382,
0.037400,-0.001398,
0.035648,-0.006961,
0.032972,-0.012143,
0.032100,-0.013400,
0.023600,-0.025600,
0.019843,-0.030061,
0.015379,-0.033815,
0.010340,-0.036750,
0.004873,-0.038782,
-0.000860,-0.039850,
-0.006692,-0.039923,
-0.012450,-0.038999,
-0.017967,-0.037104,
-0.023078,-0.034295,
-0.027634,-0.030654,
-0.031501,-0.026289,
-0.034566,-0.021326,
-0.036738,-0.015914,
-0.037953,-0.010209,
-0.038176,-0.004381,
-0.037400,0.001398,
-0.035648,0.006961,
-0.032972,0.012143,
-0.032100,0.013400,
-0.032100,0.013400,0.0*
%
%AMRECT_ROUNDED368*
4,1,38,0.000000,0.021654,
-0.005906,0.021654,
-0.007133,0.021524,
-0.008308,0.021143,
-0.009377,0.020526,
-0.010294,0.019700,
-0.011020,0.018701,
-0.011522,0.017573,
-0.011779,0.016365,
-0.011811,0.015748,
-0.011811,-0.015748,
-0.011682,-0.016976,
-0.011300,-0.018150,
-0.010683,-0.019219,
-0.009857,-0.020137,
-0.008858,-0.020862,
-0.007730,-0.021365,
-0.006523,-0.021621,
-0.005906,-0.021654,
0.005906,-0.021654,
0.007133,-0.021524,
0.008307,-0.021143,
0.009377,-0.020526,
0.010294,-0.019700,
0.011020,-0.018701,
0.011522,-0.017573,
0.011779,-0.016365,
0.011811,-0.015748,
0.011811,0.015748,
0.011682,0.016976,
0.011300,0.018150,
0.010683,0.019219,
0.009857,0.020137,
0.008858,0.020862,
0.007730,0.021365,
0.006523,0.021621,
0.005906,0.021654,
0.000000,0.021654,
0.000000,0.021654,0.0*
%
%AMRECT_ROUNDED374*
4,1,42,0.000000,0.052165,
-0.065453,0.052165,
-0.070535,0.051665,
-0.075423,0.050185,
-0.079929,0.047780,
-0.083879,0.044543,
-0.087123,0.040598,
-0.089536,0.036097,
-0.091026,0.031212,
-0.091535,0.026131,
-0.091535,0.026083,
-0.091535,-0.026083,
-0.091035,-0.031165,
-0.089555,-0.036053,
-0.087150,-0.040558,
-0.083913,-0.044509,
-0.079968,-0.047753,
-0.075467,-0.050166,
-0.070582,-0.051656,
-0.065501,-0.052165,
-0.065453,-0.052165,
0.065453,-0.052165,
0.070535,-0.051665,
0.075423,-0.050185,
0.079929,-0.047780,
0.083879,-0.044543,
0.087123,-0.040598,
0.089536,-0.036097,
0.091026,-0.031212,
0.091535,-0.026131,
0.091535,-0.026083,
0.091535,0.026083,
0.091035,0.031165,
0.089555,0.036053,
0.087150,0.040558,
0.083913,0.044509,
0.079968,0.047753,
0.075467,0.050166,
0.070582,0.051656,
0.065501,0.052165,
0.065453,0.052165,
0.000000,0.052165,
0.000000,0.052165,0.0*
%
%ADD10C,0.005000*%
%ADD11C,0.010000*%
%ADD12C,0.009843*%
%ADD14C,0.007874*%
%ADD15C,0.006000*%
%ADD16C,0.020000*%
%ADD18C,0.008000*%
%ADD21R,0.010875X0.005512*%
%ADD22R,0.005512X0.010876*%
%ADD23C,0.006938*%
%ADD26R,0.007350X0.014500*%
%ADD27R,0.014500X0.007350*%
%ADD30C,0.009250*%
%ADD47R,0.056850X0.078650*%
%ADD48R,0.026564X0.013465*%
%ADD54R,0.024157X0.007914*%
%ADD58R,0.003910X0.018470*%
%ADD59C,0.005990*%
%ADD60C,0.012314*%
%ADD61C,0.012355*%
%ADD62R,0.003910X0.029037*%
%ADD63C,0.032906*%
%ADD64C,0.027414*%
%ADD75R,0.011625X0.057675*%
%ADD84R,0.033000X0.025000*%
%ADD85RECT_ROUNDED85*%
%ADD86R,0.137795X0.086614*%
%ADD110R,0.023622X0.043307*%
%ADD112R,0.033465X0.023622*%
%ADD129R,0.055118X0.061024*%
%ADD130R,0.055118X0.059055*%
%ADD136R,0.039370X0.043307*%
%ADD145R,0.055118X0.043307*%
%ADD150R,0.043307X0.039370*%
%ADD154R,0.090551X0.090551*%
%ADD158R,0.059055X0.114173*%
%ADD162R,0.047244X0.051181*%
%ADD163R,0.051181X0.047244*%
%ADD164R,0.114173X0.059055*%
%ADD169R,0.039370X0.062992*%
%ADD178R,0.043307X0.055118*%
%ADD179RECT_ROUNDED179*%
%ADD180R,0.025591X0.015748*%
%ADD184R,0.023622X0.033465*%
%ADD190C,0.150000*%
%ADD193C,0.062000*%
%ADD194R,0.062000X0.062000*%
%ADD195C,0.039370*%
%ADD198C,0.064000*%
%ADD200C,0.059055*%
%ADD201RECT_ROUNDED201*%
%ADD204C,0.065000*%
%ADD205R,0.065000X0.065000*%
%ADD206C,0.314961*%
%ADD211C,0.044000*%
%ADD212OCTAGON212*%
%ADD213C,0.058000*%
%ADD214R,0.058000X0.058000*%
%ADD215C,0.160000*%
%ADD216C,0.055000*%
%ADD217C,0.045000*%
%ADD219C,0.090000*%
%ADD220R,0.057000X0.057000*%
%ADD221C,0.057000*%
%ADD222C,0.096000*%
%ADD223R,0.080000X0.080000*%
%ADD224C,0.080000*%
%ADD226C,0.128500*%
%ADD227C,0.146000*%
%ADD228C,0.208661*%
%ADD229C,0.069000*%
%ADD230R,0.069000X0.069000*%
%ADD231C,0.050000*%
%ADD232C,0.032000*%
%ADD234C,0.040000*%
%ADD235C,0.060000*%
%ADD236C,0.030000*%
%ADD237C,0.015000*%
%ADD238C,0.075000*%
%ADD239C,0.018000*%
%ADD240C,0.025000*%
%ADD241C,0.014000*%
%ADD242C,0.023000*%
%ADD244C,0.100000*%
%ADD246C,0.022000*%
%ADD247C,0.017000*%
%ADD255R,0.060000X0.060000*%
%ADD256RECT_ROUNDED256*%
%ADD257RECT_ROUNDED257*%
%ADD258C,0.053000*%
%ADD259oval83x68.189_55*%
%ADD260oval85x68.189_25*%
%ADD261oval85x68.189_335*%
%ADD262oval83x68.189_305*%
%ADD263C,0.195000*%
%ADD264C,0.128000*%
%ADD265C,0.027000*%
%ADD277R,0.022186X0.024154*%
%ADD278R,0.032025X0.059587*%
%ADD280R,0.047775X0.047776*%
%ADD281R,0.071394X0.045806*%
%ADD282C,0.166802*%
%ADD283C,0.167808*%
%ADD285C,0.100863*%
%ADD286R,0.024153X0.022185*%
%ADD287C,0.047921*%
%ADD293C,0.149219*%
%ADD296C,0.082707*%
%ADD298C,0.060676*%
%ADD299R,0.038501X0.038498*%
%ADD301R,0.082000X0.082000*%
%ADD305R,0.024154X0.030057*%
%ADD306R,0.030060X0.024154*%
%ADD309R,0.028092X0.026120*%
%ADD311R,0.019000X0.015001*%
%ADD312R,0.019233X0.014309*%
%ADD314C,0.059507*%
%ADD316C,0.060517*%
%ADD317C,0.070605*%
%ADD318R,0.022187X0.033995*%
%ADD320C,0.084724*%
%ADD321R,0.026120X0.028091*%
%ADD324C,0.079737*%
%ADD325C,0.080691*%
%ADD326R,0.030058X0.032028*%
%ADD327C,0.229369*%
%ADD328C,0.116561*%
%ADD329C,0.077664*%
%ADD330R,0.089000X0.089000*%
%ADD331R,0.077000X0.077000*%
%ADD356C,0.089768*%
%ADD361C,0.078673*%
%ADD362R,0.100000X0.100000*%
%ADD363R,0.078000X0.078000*%
%ADD367R,0.029000X0.161000*%
%ADD368RECT_ROUNDED368*%
%ADD369R,0.070000X0.200000*%
%ADD370R,0.094488X0.129921*%
%ADD371R,0.053150X0.129921*%
%ADD372C,0.267717*%
%ADD373R,0.433071X0.433071*%
%ADD374RECT_ROUNDED374*%
%ADD375R,0.183071X0.104331*%
%ADD376C,0.125000*%
%ADD377R,0.219036X0.219033*%
%ADD378R,0.134173X0.079055*%
%ADD379R,0.014314X0.019230*%
%ADD380C,0.288606*%
%ADD385R,0.579625X0.156017*%
%ADD386R,0.038944X0.021454*%
%ADD387R,0.494885X0.112822*%
%ADD388R,0.009343X0.070440*%
%ADD389R,0.026564X0.008702*%
%ADD390R,0.023175X0.062105*%
%ADD391R,0.405774X0.130015*%
%ADD392R,0.011894X0.089666*%
%ADD393R,0.033815X0.011077*%
%ADD394R,0.466047X0.123006*%
%ADD395R,0.418150X0.114700*%
%ADD396R,0.011024X0.057675*%
%ADD397R,0.417901X0.131531*%
%ADD398C,0.036380*%
%ADD399C,0.001959*%
%ADD400R,0.000370X0.000710*%
%ADD401C,0.001359*%
%ADD402R,0.730506X0.156017*%
%ADD403R,0.072876X0.024836*%
%ADD404R,0.029499X0.079055*%
%ADD405R,0.384320X0.130015*%
%ADD406R,0.289400X0.118700*%
%ADD407C,0.018500*%
%ADD408R,0.231250X0.098950*%
%ADD409R,0.240325X0.098950*%
%ADD410R,0.508535X0.111815*%
%ADD411R,0.030594X0.016854*%
%ADD412R,0.377673X0.130015*%
%LNbottom_paste_0*%
%LPD*%
G54D154*
X930408Y201792D03*
X896752Y302362D03*
G54D150*
X897400Y101476D03*
Y108169D03*
G54D158*
X914671Y287261D03*
X902860D03*
G54D154*
X914469Y302362D03*
X912692Y201792D03*
G54D136*
X908209Y274761D03*
X922446Y168400D03*
G54D158*
X928406Y183900D03*
G54D150*
X913425Y101969D03*
Y108661D03*
G54D136*
X914902Y274761D03*
X915753Y168400D03*
G54D158*
X916595Y183900D03*
G54D136*
X841830Y149705D03*
Y142422D03*
X848523Y149705D03*
Y142422D03*
G54D84*
X877756Y142421D03*
G54D85*
Y133621D03*
G54D150*
X869941Y108464D03*
Y101772D03*
X868406Y140847D03*
Y134154D03*
X877854Y101575D03*
Y108268D03*
G54D136*
X803953Y473200D03*
X800874Y360000D03*
X804353Y313100D03*
G54D158*
X801476Y141339D03*
G54D136*
X800492Y130413D03*
G54D150*
X739100Y331746D03*
Y325053D03*
Y414446D03*
Y407753D03*
G54D136*
X425146Y270708D03*
X418453D03*
G54D154*
X689665Y159350D03*
G54D112*
X715586Y146752D03*
G54D162*
X714272Y133057D03*
G54D136*
X730413Y149705D03*
Y142422D03*
X723720Y149705D03*
Y142422D03*
G54D164*
X700886Y121647D03*
Y133458D03*
G54D112*
X707122Y143012D03*
Y150492D03*
G54D162*
X714272Y121639D03*
G54D136*
X619154Y317800D03*
X495400Y469700D03*
Y477200D03*
G54D178*
X494853Y461600D03*
G54D136*
X653347Y132972D03*
X674678Y105216D03*
X675689Y130413D03*
X682382D03*
G54D158*
X683366Y141339D03*
G54D136*
X660040Y132972D03*
X667985Y105216D03*
G54D158*
X671555Y141339D03*
G54D154*
X671949Y159350D03*
G54D150*
X659100Y331746D03*
G54D136*
X665934Y365978D03*
X639961Y369586D03*
Y385433D03*
X640060Y376968D03*
X645276Y423327D03*
X638583D03*
G54D150*
X659100Y325053D03*
G54D136*
X650646Y313000D03*
X643953D03*
X625847Y317800D03*
X659241Y365978D03*
X646752Y376968D03*
X646654Y385433D03*
Y369586D03*
G54D368*
X520540Y388421D03*
X516800D03*
G54D110*
X513060D03*
G54D154*
X571555Y159350D03*
G54D112*
X589012Y143012D03*
G54D164*
X582776Y133458D03*
Y121647D03*
G54D136*
X605610Y142422D03*
Y149705D03*
X612303Y142422D03*
Y149705D03*
G54D112*
X589012Y150492D03*
G54D162*
X596161Y121639D03*
Y133057D03*
G54D112*
X597476Y146752D03*
G54D368*
X557600Y411821D03*
Y401979D03*
G54D150*
X557185Y454133D03*
Y447440D03*
G54D368*
X561340Y411821D03*
Y401979D03*
G54D136*
X590238Y401695D03*
X583545D03*
G54D368*
X572840Y395141D03*
G54D110*
X565360D03*
G54D368*
X569100D03*
G54D136*
X535236Y132972D03*
X556568Y105216D03*
X557579Y130413D03*
X564272D03*
G54D158*
X565256Y141339D03*
G54D136*
X541929Y132972D03*
X549875Y105216D03*
G54D158*
X553445Y141339D03*
G54D154*
X553839Y159350D03*
G54D368*
X531940Y395779D03*
G54D110*
X524460Y405621D03*
G54D368*
X528200D03*
X531940D03*
X553860Y401979D03*
G54D110*
Y411821D03*
G54D368*
X528200Y395779D03*
X524460D03*
G54D136*
X503603Y410883D03*
X496911D03*
X502093Y469700D03*
Y477200D03*
G54D150*
X513800Y532454D03*
X543397Y539105D03*
X535897D03*
X521497D03*
X513800Y539147D03*
X543397Y532412D03*
X535897D03*
X521497D03*
X769882D03*
G54D136*
X771457Y132972D03*
G54D150*
X758800Y409653D03*
Y416346D03*
X766100Y409453D03*
Y416146D03*
X748327Y539105D03*
X769882D03*
X748327Y532412D03*
X791437D03*
G54D136*
X793799Y130413D03*
X792591Y105020D03*
X778150Y132972D03*
X785899Y105020D03*
G54D158*
X789665Y141339D03*
G54D154*
X790059Y159350D03*
G54D136*
X800153Y401600D03*
X800453Y380300D03*
G54D150*
X791437Y539105D03*
X526500Y327846D03*
Y321153D03*
G54D136*
X528076Y367340D03*
G54D368*
X513060Y378579D03*
X516800D03*
X520540D03*
G54D136*
X521383Y367340D03*
G54D112*
X529837Y295160D03*
Y302641D03*
X538301Y298900D03*
G54D136*
X595305Y281800D03*
X588612D03*
X595305Y296400D03*
Y289000D03*
X588612Y296400D03*
Y289000D03*
G54D371*
X574374Y358400D03*
X583626D03*
G54D368*
X572840Y385299D03*
X565360D03*
G54D145*
X565800Y356047D03*
Y361953D03*
G54D368*
X569100Y385299D03*
G54D130*
X416116Y300708D03*
G54D136*
X436746Y331600D03*
X430053D03*
G54D150*
X426843Y345818D03*
X426800Y370747D03*
Y364054D03*
G54D136*
X436746Y324200D03*
Y311500D03*
X430053D03*
Y324200D03*
X436746Y304000D03*
X430053D03*
G54D150*
X426843Y352511D03*
G54D136*
X216274Y457852D03*
G54D154*
X192400Y436642D03*
Y454358D03*
G54D136*
X209582Y457852D03*
G54D372*
X315109Y464177D03*
X413709Y464677D03*
G54D112*
X386568Y530760D03*
G54D150*
X421949Y532412D03*
G54D112*
X395032Y534500D03*
X386568Y538240D03*
G54D150*
X421949Y539105D03*
G54D136*
X479391Y476098D03*
X479292Y468125D03*
X472698Y476098D03*
G54D178*
X479678Y436595D03*
X485583D03*
X488947Y461600D03*
G54D184*
X460591Y475261D03*
X456851Y466796D03*
X453111Y475261D03*
G54D136*
X472599Y468125D03*
G54D180*
X472141Y491800D03*
G54D179*
X464660Y489241D03*
G54D180*
Y491800D03*
Y494360D03*
X472141Y489241D03*
G54D150*
X465748Y532412D03*
X443898Y539105D03*
X465748D03*
X443898Y532412D03*
G54D180*
X472141Y494360D03*
G54D150*
X702600Y327854D03*
G54D112*
X702768Y314160D03*
Y321640D03*
G54D150*
X702600Y401747D03*
G54D112*
X711232Y317900D03*
G54D150*
X702600Y395054D03*
Y334547D03*
X705217Y539105D03*
Y532412D03*
X700400Y479146D03*
Y472453D03*
G54D136*
X730646Y313100D03*
X723953D03*
X724353Y395700D03*
X731046D03*
G54D150*
X727067Y539105D03*
Y532412D03*
G54D164*
X464665Y121647D03*
Y133458D03*
G54D162*
X478051Y133057D03*
G54D112*
X479366Y146752D03*
G54D136*
X487500Y142422D03*
Y149705D03*
X494193Y142422D03*
Y149705D03*
G54D112*
X470901Y143012D03*
Y150492D03*
G54D162*
X478051Y121639D03*
G54D136*
X227584Y400313D03*
X234277D03*
X210138Y322933D03*
X184154Y337106D03*
G54D154*
X180942Y392464D03*
G54D136*
X177461Y337106D03*
G54D154*
X198658Y392464D03*
G54D136*
X203445Y322933D03*
G54D154*
X198698Y416973D03*
X180981D03*
G54D136*
X227584Y410248D03*
X234277D03*
G54D154*
X435728Y159350D03*
G54D136*
X438261Y105020D03*
X439468Y130413D03*
X446161D03*
G54D158*
X447146Y141339D03*
G54D154*
X453445Y159350D03*
G54D158*
X435335Y141339D03*
G54D136*
X417126Y131988D03*
X423819D03*
X431568Y105020D03*
G54D112*
X833697Y146752D03*
G54D162*
X832382Y133057D03*
Y121639D03*
G54D112*
X825232Y150492D03*
Y143012D03*
G54D164*
X818996Y133458D03*
Y121647D03*
G54D154*
X807776Y159350D03*
G54D136*
X811046Y313100D03*
G54D150*
X819100Y325053D03*
Y331746D03*
G54D136*
X806846Y401600D03*
X807146Y380300D03*
X807567Y360000D03*
G54D150*
X812984Y539105D03*
Y532412D03*
G54D136*
X810646Y473200D03*
X399546Y282700D03*
X392853D03*
G54D150*
X398300Y312062D03*
Y318755D03*
G54D178*
X408947Y311408D03*
X414853D03*
G54D136*
X408354Y290008D03*
G54D129*
X408084Y300708D03*
G54D136*
X415047Y290008D03*
G54D150*
X369578Y352411D03*
Y345718D03*
X388639Y352511D03*
Y345818D03*
G54D145*
X380175Y351920D03*
Y346015D03*
G54D178*
X411353Y345200D03*
X405448D03*
G54D136*
X333258Y393157D03*
X339951D03*
G54D150*
X358569Y345552D03*
Y352245D03*
G54D154*
X335335Y159350D03*
G54D164*
X346555Y133458D03*
Y121647D03*
G54D136*
X369389Y142422D03*
Y149705D03*
X376082Y142422D03*
Y149705D03*
G54D112*
X352791Y143012D03*
Y150492D03*
G54D162*
X359941Y121639D03*
Y133057D03*
G54D112*
X361256Y146752D03*
G54D136*
X299114Y132776D03*
X320150Y105020D03*
X321358Y130413D03*
X328051D03*
G54D158*
X329035Y141339D03*
G54D136*
X305807Y132776D03*
X313458Y105020D03*
G54D158*
X317224Y141339D03*
G54D154*
X317618Y159350D03*
X217224D03*
G54D112*
X234681Y143012D03*
G54D164*
X228445Y133458D03*
Y121647D03*
G54D136*
X251279Y142422D03*
Y149705D03*
X257972Y142422D03*
Y149705D03*
G54D112*
X234681Y150492D03*
G54D162*
X241831Y121639D03*
Y133057D03*
G54D112*
X243146Y146752D03*
G54D369*
X1309260Y148917D03*
X1283260D03*
G54D370*
X1282579D03*
X1309941D03*
X1392520D03*
G54D369*
X1393201D03*
X1419201D03*
G54D370*
X1419882D03*
G54D84*
X1576083Y145513D03*
G54D85*
Y136713D03*
G54D150*
X1567323Y144587D03*
Y137894D03*
G54D136*
X1106920Y211599D03*
X1107179Y219993D03*
X1113613Y211599D03*
X1113872Y219993D03*
G54D164*
X953866Y165930D03*
Y177741D03*
G54D150*
X959449Y204246D03*
Y210939D03*
G54D162*
X966071Y166173D03*
Y177590D03*
G54D373*
X1399902Y436417D03*
G54D163*
X1631801Y458499D03*
X1620384D03*
G54D150*
X1457452Y179134D03*
Y185827D03*
X1567164Y178740D03*
Y185433D03*
X1673857Y179429D03*
Y186122D03*
X1026287Y108169D03*
X941138Y109252D03*
X934158D03*
X1271413Y108366D03*
X1251642Y109472D03*
X1244260D03*
X1142323Y108366D03*
X1496858Y107346D03*
X1374902Y108661D03*
X1382087Y108563D03*
X1391158Y108858D03*
X1640256Y108366D03*
X1618602D03*
X1611319D03*
X1596252Y108571D03*
X1588969Y108669D03*
X1632874Y108366D03*
X934158Y102559D03*
X941138D03*
X1026287Y101476D03*
X1271413Y101673D03*
X1251642Y102779D03*
X1244260D03*
X1142323Y101673D03*
X1640256D03*
X1588969Y101976D03*
X1596252Y101878D03*
X1611319Y101673D03*
X1618602D03*
X1632874D03*
X1391158Y102165D03*
X1382087Y101870D03*
X1374902Y101968D03*
X1496858Y100653D03*
X1249508Y469488D03*
Y476181D03*
X1292125Y206791D03*
Y213484D03*
X1296063Y224213D03*
Y230906D03*
X1299409Y206791D03*
Y213484D03*
X1350389Y179134D03*
Y185827D03*
G54D136*
X1188354Y357900D03*
X1195047D03*
X1144328Y264379D03*
G54D150*
X1146200Y236654D03*
Y243347D03*
X1148802Y217905D03*
Y224597D03*
G54D169*
X1238067Y241339D03*
X1229406D03*
G54D136*
X1151020Y264379D03*
G54D367*
X1250303Y518629D03*
X1255303D03*
X1260303D03*
X1265303D03*
X1270303Y538129D03*
X1265303D03*
X1250303D03*
X1255303D03*
X1260303D03*
X1270303Y518629D03*
X1235303D03*
X1230303D03*
X1225303D03*
X1245303D03*
X1240303Y538129D03*
X1235303D03*
X1230303D03*
X1225303D03*
X1245303D03*
X1240303Y518629D03*
G54D150*
X1218406Y482874D03*
Y476181D03*
X1241831Y469488D03*
X1234154D03*
X1226476D03*
X1241831Y476181D03*
G54D184*
X1232874Y487106D03*
X1225394D03*
X1229134Y495571D03*
X1241634Y487697D03*
X1245374Y496161D03*
G54D150*
X1226476Y476181D03*
X1234154D03*
X1164898Y466831D03*
G54D136*
X1171046Y493300D03*
Y485800D03*
G54D150*
X1164898Y473524D03*
G54D136*
X1164354Y493300D03*
Y485800D03*
G54D150*
X1145472Y460728D03*
Y454035D03*
G54D184*
X1151280Y449902D03*
X1155020Y441437D03*
X1158760Y449902D03*
X1168209D03*
X1171949Y441437D03*
X1175689Y449902D03*
G54D150*
X1176392Y466831D03*
Y473524D03*
X1210335Y466831D03*
X1202671D03*
X1193589D03*
X1185926D03*
Y473524D03*
G54D184*
X1188878Y441437D03*
X1192618Y449902D03*
X1202067D03*
X1205807Y441437D03*
X1209547Y449902D03*
G54D150*
X1202671Y473524D03*
X1210335D03*
G54D184*
X1185138Y449902D03*
G54D150*
X1193589Y473524D03*
X1276279Y469488D03*
X1257185Y476181D03*
G54D184*
X1264961Y487697D03*
X1249114D03*
X1257480D03*
X1261221Y496161D03*
G54D150*
X1264862Y476181D03*
X1276279D03*
X1251969Y431791D03*
Y438484D03*
X1257185Y469488D03*
X1264862D03*
G54D86*
X1391535Y495472D03*
X1364961D03*
Y473425D03*
X1391535D03*
G54D375*
X1363091Y426417D03*
G54D374*
Y446417D03*
G54D136*
X195347Y105020D03*
X180414Y131693D03*
X187107D03*
X209941Y130413D03*
G54D158*
X210925Y141339D03*
X199114D03*
G54D154*
X199508Y159350D03*
G54D136*
X202040Y105020D03*
X203248Y130413D03*
X62894Y131693D03*
X69587D03*
X77237Y105019D03*
G54D158*
X81004Y141339D03*
G54D154*
X99114Y159350D03*
G54D158*
X92815Y141339D03*
G54D136*
X91831Y130413D03*
X85138D03*
X83930Y105019D03*
G54D154*
X81398Y159350D03*
G54D164*
X110335Y133458D03*
Y121647D03*
G54D112*
X116571Y150492D03*
G54D162*
X123720Y121639D03*
Y133057D03*
G54D136*
X133169Y149705D03*
X139862Y142422D03*
Y149705D03*
G54D112*
X116571Y143012D03*
X125035Y146752D03*
G54D136*
X133169Y142422D03*
M02*