M48
INCH
VER,1
FMAT,2
;FILE_FORMAT=3:5
T01C0.01
T02C0.015
T03C0.02
T04C0.024
T05C0.028
T06C0.035
T07C0.038
T08C0.04
T09C0.041
T10C0.04724
T11C0.05118
T12C0.0595
T13C0.0635
T14C0.067
T15C0.0781
T16C0.12
T17C0.1285
T18C0.13
T19C0.1417
T20C0.1614
T21C0.1693
T22C0.039
T23C0.04016
T24C0.047
T25C0.05
T27C0.147
T28C0.196
DETECT,ON
ATC,ON
%
G90
T01
X00057972Y00131693
X00062008Y00137894
X00074311Y00131791
X00077040Y00111811
X00077237Y00098720
X00077559Y00119488
X00082300Y00097500
X00084127Y00111811
X00088386Y00175178
X00109744Y00150787
X00110510Y00142763
X00112913Y00175178
X00116472Y00138945
Y00154061
X00122435Y00150243
X00122539Y00179279
X00128439Y00146752
X00130272Y00183252
X00135630Y00191142
X00136920Y00116845
X00143126Y00191194
X00144562Y00142421
Y00149705
X00145187Y00166050
Y00182956
Y00174492
X00175393Y00131595
X00180118Y00137894
X00191732Y00131693
X00195150Y00111811
X00195347Y00098720
X00195669Y00119488
X00200400Y00097400
X00202237Y00111811
X00206496Y00175178
X00227854Y00150787
X00228620Y00142763
X00231023Y00175178
X00234583Y00138945
Y00154061
X00236024Y00112894
X00240545Y00150243
X00240650Y00179279
X00246549Y00146752
X00248382Y00183252
X00253740Y00191142
X00255031Y00116845
X00261236Y00191194
X00262672Y00142421
Y00149705
X00263297Y00166050
Y00182956
Y00174492
X00294094Y00132677
X00298228Y00137894
X00310433Y00132776
X00313261Y00111811
X00313457Y00098720
X00313779Y00119488
X00319000Y00098600
X00320151Y00111319
X00324606Y00175178
X00345965Y00150787
X00346730Y00142763
X00349133Y00175178
X00352693Y00138945
Y00154061
X00354134Y00112894
X00358655Y00150243
X00358760Y00179279
X00364659Y00146752
X00366493Y00183252
X00371850Y00191142
X00373141Y00116845
X00379134Y00194882
X00379347Y00191194
X00380782Y00142422
Y00149705
X00381407Y00166050
Y00182956
X00381408Y00174492
X00412106Y00131890
X00416339Y00137894
X00428444Y00131989
X00431371Y00111811
X00431568Y00098720
X00431890Y00119488
X00437100Y00098200
X00438457Y00111811
X00442717Y00175178
X00464075Y00150787
X00464840Y00142763
X00467244Y00175178
X00470803Y00138945
Y00154061
X00472244Y00112894
X00476766Y00150243
X00476870Y00179279
X00482770Y00146752
X00484603Y00183252
X00489961Y00191142
X00491251Y00116845
X00497457Y00191194
X00498893Y00142422
Y00149705
X00499517Y00166050
Y00182956
X00499518Y00174492
X00522100Y00166100
X00530216Y00132875
X00534449Y00137894
X00546555Y00132973
X00549481Y00111811
X00549678Y00098720
X00550000Y00119488
X00555300Y00098100
X00556568Y00111811
X00560827Y00175178
X00581221Y00171121
X00582185Y00150787
X00582951Y00142763
X00585354Y00175178
X00588913Y00138945
Y00154061
X00590354Y00112894
X00594876Y00150243
X00594980Y00179279
X00600880Y00146752
X00602713Y00183252
X00608071Y00191142
X00609361Y00116845
X00613850Y00110350
X00615567Y00191194
X00617003Y00142422
Y00149705
X00617628Y00166050
Y00182956
Y00174492
X00626800Y00180506
X00648327Y00132874
X00652559Y00137894
X00664665Y00132972
X00667591Y00111811
X00667788Y00098720
X00668110Y00119488
X00673400Y00098600
X00674678Y00111811
X00678937Y00175178
X00700295Y00150787
X00701061Y00142763
X00703464Y00175178
X00707023Y00138945
Y00154061
X00708465Y00112894
X00712986Y00150243
X00713091Y00179279
X00718990Y00146752
X00720823Y00183252
X00726181Y00191142
X00727472Y00116845
X00733677Y00191194
X00735113Y00142422
Y00149705
X00735738Y00166050
Y00182956
Y00174492
X00754400Y00168800
X00766437Y00132875
X00770669Y00137894
X00782775Y00132973
X00785702Y00111811
X00785898Y00098721
X00786220Y00119488
X00791400Y00098500
X00792788Y00111811
X00797047Y00175178
X00818406Y00150787
X00819171Y00142763
X00821574Y00175178
X00825134Y00138945
Y00154061
X00826575Y00112894
X00831096Y00150243
X00831201Y00179279
X00837100Y00146752
X00838933Y00183252
X00844291Y00191142
X00845134Y00174703
X00845582Y00116845
X00848700Y00155900
X00851788Y00191194
X00853223Y00142422
Y00149705
X00853848Y00166050
Y00182956
Y00174492
X00863484Y00140847
X00865019Y00108465
X00870374Y00096555
X00872106Y00113485
X00874000Y00159314
X00875846Y00113485
X00877854Y00096653
X00882776Y00108267
X00883268Y00133957
Y00141437
X00887500Y00159000
X00890700Y00101600
X00897400Y00113484
X00897401Y00096555
X00902322Y00108169
X00903200Y00175300
X00903346Y00141142
X00908504Y00108761
X00908700Y00141200
X00912500Y00133500
X00913600Y00158900
X00914000Y00096400
X01012400Y00100200
X00918900Y00097048
X00918917Y00112935
X00921200Y00147028
X00935158Y00097638
X00936100Y00126000
X00938703Y00159019
X00939918Y00113900
X00942638Y00097736
X00943300Y00115700
X00944400Y00152900
X00944850Y00185992
X00947835Y00140157
X00952400Y00159600
X00952600Y00141000
X00955950Y00193732
X00957016Y00158843
X00957864Y00103436
X00958810Y00193732
X00963550Y00160992
X00967520Y00149705
X00973000Y00144500
X01022300Y00095100
X01024200Y00159019
X01026287Y00113484
X01026288Y00096556
X01031100Y00107900
X01033669Y00140157
X01092982Y00156600
X01097401Y00177153
X01098758Y00190158
X01102000Y00130100
X01102158Y00172234
X01106890Y00169600
X01108800Y00160100
X01113058Y00177134
X01113158Y00185248
X01113404Y00194772
X01146555Y00108366
X01147400Y00101600
X01147542Y00151929
X01150200Y00176520
X01153400Y00144500
X01157876Y00165905
X01157975Y00174173
X01182975Y00169941
X01188978Y00172106
X01189668Y00152126
X01190061Y00181555
X01194884Y00187264
X01196300Y00106200
X01200199Y00166102
X01200691Y00174370
X01206650Y00108750
X01208467Y00194744
X01225495Y00170138
X01240028Y00108972
X01245500Y00113900
X01246850Y00096654
X01252161Y00113961
X01252854Y00096654
X01257874Y00107972
X01266725Y00108100
X01267900Y00169300
X01276100Y00101400
Y00108100
X01348600Y00108700
X01349073Y00191724
X01352688Y00171662
X01361252Y00164969
X01368300Y00136100
X01370114Y00163400
X01374396Y00194327
X01374593Y00186257
X01375197Y00096260
X01382299
X01390158Y00097736
X01390400Y00116700
X01443338Y00112138
X01453200Y00097600
X01456136Y00191724
X01459751Y00171662
X01468314Y00164969
X01475729Y00108071
X01481459Y00194327
X01481500Y00170300
X01481656Y00186257
X01493500Y00095329
X01562894Y00144587
X01565849Y00191330
X01567500Y00113600
X01569464Y00171268
X01571800Y00163700
X01577991Y00164736
X01580315Y00137500
X01580413Y00144980
X01584180Y00108546
X01588900Y00165000
X01590300Y00096300
X01591073Y00194032
X01591107Y00178150
X01591266Y00113565
X01591270Y00185961
X01595006Y00113565
X01597015Y00096734
X01601936Y00108348
X01606120Y00108841
X01611475Y00096931
X01613206Y00113861
X01616947
X01618955Y00097029
X01623876Y00108643
X01627487Y00108546
X01633500Y00096100
X01634573Y00113565
X01638313
X01640322Y00096734
X01645243Y00108348
X01661938Y00141338
X01670895Y00151918
X01671400Y00120900
X01672541Y00192019
X01676157Y00171957
X01679100Y00121671
X01679163Y00153099
X01684621Y00165363
X01693484Y00165716
X01621500Y00256500
X01687800Y00256300
X01692657Y00201257
X01571900Y00271700
X01582300Y00262500
X01589800Y00265600
X01395738Y00214907
X01396600Y00232076
X01410900Y00198900
X01296063Y00219882
Y00235236
X01299410Y00202066
X01300726Y00235100
X01304134Y00213484
X01369538Y00206976
X01380200Y00214700
X01387900Y00242900
X01194543Y00249679
X01194843Y00242779
Y00259679
Y00269379
X01198800Y00212400
X01206443Y00246779
X01209943Y00215179
X01213585Y00200551
X01214042Y00241679
X01222643Y00237179
X01229753Y00236282
X01236446Y00265600
X01240646Y00270701
X01242337Y00241338
X01249213Y00238029
X01250243Y00211879
X01265100Y00195300
X01273400Y00231000
Y00235000
X01273500Y00203200
X01287400Y00213484
X01291400Y00235100
X01292126Y00202066
X01098721Y00213600
X01099304Y00202543
X01106890Y00207171
X01110335Y00286024
X01113612Y00207366
X01117701Y00211502
X01118105Y00219993
X01130443Y00256979
X01135643Y00272479
X01138400Y00233900
X01139943Y00258179
X01141543Y00227579
X01144600Y00232200
X01144743Y00249979
X01147474Y00259745
X01148802Y00211883
X01149243Y00249479
X01149643Y00272679
X01150000Y00230900
X01153700Y00271400
X01158143Y00265779
X01158943Y00227079
X01169043Y00259079
X01170700Y00213500
X01178496Y00282232
X01178943Y00212343
X01189100Y00212000
X01012407Y00271753
X01019782Y00285361
X01027744Y00271235
X01042234Y00269387
X01047944Y00286745
X01051345Y00268821
X01062245Y00273721
X01062344Y00281835
X01067914Y00291047
X01090108Y00256502
X00894900Y00250500
X00896350Y00244792
X00902697Y00244839
X00915158Y00237500
Y00244980
X00917174Y00249692
X00932186Y00237500
Y00244980
X00944908Y00290339
X00945650Y00218092
X00946250Y00253592
X00948150Y00196992
X00951004Y00254445
X00953550Y00204092
X00953571Y00244500
X00953921Y00290241
X00959154Y00214961
X00959547Y00200197
X00961978Y00243338
X00962021Y00290301
X00962450Y00221892
X00964700Y00256500
X00966750Y00232992
X00967520Y00215000
X00794800Y00274500
X00805047Y00256500
X00808034Y00212403
X00810827Y00206203
X00818647Y00238500
X00826400Y00268500
X00826643Y00198417
X00832647Y00235487
X00837017Y00294049
X00837600Y00286500
X00841100Y00235400
Y00241500
X00842489Y00209736
X00850300Y00235500
X00851700Y00206890
X00858700Y00205200
X00867400
X00875200Y00244500
X00878200Y00226500
X00881500Y00247500
X00885000Y00241400
X00888100Y00223500
X00891600Y00229500
X00708532Y00198417
X00710000Y00262500
X00712450Y00274500
X00719800Y00253500
X00720500Y00271500
X00723500Y00235500
X00724379Y00209736
X00729665Y00256500
X00735700Y00262500
X00738287Y00202264
Y00235487
X00740900Y00244500
X00746000
X00746200Y00256500
X00748900Y00284000
X00751900Y00250500
X00756853Y00247500
X00759500Y00259500
X00762598Y00262500
X00766437Y00265500
X00770177Y00201350
X00770753Y00241500
X00776980Y00201350
X00779900Y00268500
X00791138Y00206203
X00600700Y00281800
Y00289000
X00606269Y00209736
X00607500Y00229500
X00611100Y00238500
X00614700Y00247500
X00620177Y00202264
Y00247500
X00620300Y00256500
X00623900Y00209500
X00639700Y00217700
Y00289900
X00643700Y00265500
X00644488Y00256500
X00648327Y00271500
X00652067Y00201350
X00654800Y00217500
X00656700Y00226500
X00658870Y00201350
X00660100Y00235500
X00663500Y00244500
X00666900Y00253500
X00673028Y00206203
X00689923Y00212403
X00692716Y00206203
X00525469Y00295100
X00502067Y00202264
Y00250500
X00506630Y00262931
Y00267426
Y00271921
Y00276415
Y00280910
Y00289900
X00506728Y00285175
X00512700Y00259500
X00517800Y00271500
X00519000Y00214500
X00526378Y00253500
Y00259500
X00526512Y00284191
X00530216Y00256500
X00531000Y00262500
X00533957Y00201350
Y00280900
X00540760Y00201350
X00547700Y00274500
X00549878Y00284012
Y00291263
X00554918Y00206203
X00571813Y00212403
X00571880Y00277976
X00574606Y00206203
X00583900Y00281700
X00590422Y00198417
X00405469Y00277775
X00408268Y00244500
X00408353Y00295061
X00412106Y00247500
X00415046Y00295061
X00415846Y00201350
X00418388Y00277865
X00420700Y00289477
X00422650Y00201350
X00425818Y00289477
X00429437Y00283671
X00429477Y00270584
X00435100Y00272902
X00436807Y00206203
X00442700Y00293208
Y00272855
X00450300Y00272655
X00453703Y00212403
X00456496Y00206203
X00472312Y00198417
X00477535Y00294800
X00478874Y00266474
X00483598Y00289408
X00485960Y00267065
X00488158Y00209736
X00294193Y00238500
X00297736Y00201350
X00304539
X00314800Y00263700
X00318697Y00206203
X00319900Y00260600
X00335593Y00212403
X00338386Y00206203
X00354202Y00198417
X00370048Y00209736
X00383957Y00202264
Y00241500
X00389200Y00282600
X00200587Y00206203
X00217483Y00212403
X00220275Y00206203
X00236091Y00198417
X00251938Y00209736
X00265846Y00202264
Y00232500
X00290157Y00235500
X00099372Y00212403
X00102165Y00206203
X00117981Y00198417
X00133828Y00209736
X00147736Y00202264
Y00223500
X00172173Y00226500
X00176083Y00229500
X00179626Y00201350
X00183100Y00252700
X00186429Y00201350
X00017821Y00233300
X00028031Y00219069
X00031100Y00242300
X00053937Y00220480
X00057974Y00217500
X00061516Y00201350
X00064402Y00243415
X00068319Y00201350
X00071300Y00224500
X00082477Y00206203
X00171494Y00337106
X00175689Y00350572
Y00358020
Y00365467
Y00372914
X00183759Y00332804
X00209350Y00361792
X00212795Y00329007
X00214370Y00375867
X00214665Y00335300
X00222146
X00222638Y00329337
X00228140Y00387658
X00229626Y00335300
X00230200Y00359200
X00232000Y00364800
X00324423Y00337727
X00329150Y00384796
X00329161Y00393160
X00334800Y00344953
X00343945Y00393353
X00357215Y00365500
X00358575Y00340621
Y00356821
X00365800Y00393100
X00369575Y00341621
X00369578Y00355918
X00371015Y00386747
X00372700Y00358600
X00375356Y00344965
X00380170Y00356411
X00380200Y00341000
X00381100Y00385700
X00381198Y00375602
X00383038Y00323254
X00388635Y00356609
Y00341720
X00395298Y00365606
Y00390606
X00397790Y00345828
X00398438Y00307084
X00402800Y00319008
X00403387Y00300670
X00408500Y00306208
X00415200
X00415600Y00318808
X00419890Y00345810
X00419973Y00365598
Y00390598
X00420400Y00306008
X00420700Y00318808
X00420813Y00300746
X00424900Y00306308
X00426824Y00356609
X00433200Y00370700
Y00375700
X00435404Y00342150
X00436746Y00317183
Y00337283
X00439000Y00372800
X00455700Y00368900
X00457300Y00308400
X00465100Y00300800
X00469392Y00313229
X00476700Y00370200
X00480702Y00317135
X00481500Y00365300
X00484712Y00391012
X00485900Y00368400
X00488280Y00317135
X00489300Y00387200
X00491100Y00371600
X00497500Y00322513
X00502400Y00367000
X00509835Y00317135
X00516800Y00374300
X00517446Y00368000
X00517973Y00393462
X00518800Y00332100
X00519000Y00316800
X00526500Y00313000
X00528153Y00371170
X00528200Y00391400
X00529669Y00305800
X00529826Y00381710
X00533100Y00366700
X00533712Y00382273
X00534500Y00386823
X00534569Y00298900
X00535700Y00370500
X00539700
X00541586Y00382273
X00543555Y00370500
X00545523Y00385523
X00547500Y00367200
X00548500Y00393900
X00549879Y00298822
X00550500Y00305100
X00555400Y00391900
X00556600Y00370100
X00559000Y00349900
X00559600Y00391800
X00560600Y00345600
X00560700Y00387400
X00561322Y00381710
X00565158Y00371063
X00567000Y00350000
X00567127Y00335406
X00569100Y00380980
X00575900Y00349800
X00575956Y00334980
X00581200Y00346000
X00582996Y00375200
X00584100Y00388100
X00592057Y00301300
X00592454Y00391339
X00596900Y00359600
X00598750Y00310169
X00598800Y00394400
X00600700Y00296400
X00601450Y00383957
X00614021Y00311680
X00614645Y00324559
X00614743Y00317866
X00616551Y00383957
X00620300Y00339000
X00623400Y00376200
X00626161Y00327020
X00628300Y00299000
X00629300Y00307100
X00629704Y00317866
X00631100Y00311500
X00633366Y00369685
X00633768Y00376968
X00636346Y00322000
X00639594Y00326134
X00639764Y00390551
X00642940Y00330169
X00644023Y00317571
X00646090Y00333811
X00652945Y00385433
Y00369586
Y00376968
X00654948Y00314323
X00655900Y00297400
X00657180Y00319441
X00657300Y00302400
X00658700Y00373228
X00659100Y00336562
X00664500Y00339900
X00667400Y00336500
X00670520Y00365991
X00684400Y00370400
X00690100Y00319500
X00693700Y00336400
X00694021Y00311680
X00694682Y00317866
X00701300Y00362559
X00705000Y00349500
Y00366094
X00706900Y00391000
X00706953Y00334546
X00707600Y00302600
X00709800Y00309120
X00712938Y00314224
X00716284Y00322000
Y00318063
X00719533Y00326135
X00722879Y00330169
X00722900Y00388300
X00723961Y00317571
X00726028Y00333811
X00734887Y00314323
X00737119Y00319441
X00738635Y00297398
X00738900Y00336400
X00740035Y00302398
X00740600Y00315200
X00744300Y00360000
X00752403Y00309009
Y00301529
Y00316293
X00752649Y00322872
X00755890Y00394565
X00759500Y00355000
X00766100Y00337400
X00772086Y00377425
X00774434Y00322198
X00775221Y00330072
X00779053Y00376400
Y00384200
X00789500Y00362559
X00792937Y00308873
X00793600Y00376500
Y00384300
X00794400Y00301529
X00794600Y00380300
X00796285Y00322001
X00796544Y00360000
X00797300Y00311873
X00799533Y00326135
X00800481Y00349519
X00802879Y00330170
X00803962Y00317572
X00806029Y00333812
X00811898Y00360000
X00813255Y00380420
X00814887Y00314324
X00817119Y00319442
X00819100Y00337400
X00823600Y00389900
X00824989Y00349500
X00828500Y00392900
X00829400Y00361700
X00836900Y00374500
Y00386500
X00836973Y00359883
X00837017Y00316391
Y00301529
Y00309108
X00848856Y00357000
X00883392Y00334531
X00889932Y00334673
X00906004Y00325787
Y00333268
X00907922Y00337980
X01016158Y00362894
X00923032Y00325787
Y00333268
X00929600Y00360600
X00935734Y00304463
X00936998Y00341880
X00939370Y00380470
X00941849Y00341619
X00944595Y00330865
X00954160Y00308153
X00954455Y00311894
X00957310Y00318783
X00957500Y00363153
X00960934Y00304563
X00961936Y00330594
X00970500Y00344500
X00991500Y00370900
X01024359Y00344510
X01058417Y00362900
X01059695Y00341165
X01072736Y00311520
X01107480Y00317520
X01130954Y00352168
X01150787Y00325479
X01157189Y00311285
X01166343Y00358179
X01169942Y00363279
X01172100Y00378200
X01173242Y00328279
X01176800Y00348409
X01185400Y00386200
X01186704Y00364071
X01189843Y00345279
X01190143Y00371879
X01193743Y00370379
X01195243Y00326579
X01197343Y00320079
X01199043Y00302679
X01199600Y00356336
X01200043Y00345279
X01205943Y00316379
X01206742Y00308183
X01207468Y00357432
X01210100Y00332800
X01211300Y00345800
X01221700Y00357100
X01223601Y00352000
X01227512Y00318779
X01232600Y00335100
X01258400Y00342800
X01262300Y00328900
X01266000Y00389300
X01271400Y00366715
X01272762Y00312700
Y00323209
X01274704Y00381792
X01276500Y00318200
X01280200Y00360100
X01280600Y00312700
Y00323209
X01284616Y00385433
X01284900Y00316732
X01288769Y00322441
X01291821Y00343898
X01298553Y00371988
X01303435Y00378217
X01308202Y00364961
X01310226Y00391043
X01316919Y00374929
X01322500Y00314900
X01335000Y00328838
X01343297Y00374929
X01372700Y00323200
X01382408Y00323209
X01390183
X01394261Y00385433
X01394546Y00316732
X01398415Y00322441
X01401466Y00343898
X01408198Y00371988
X01413080Y00378217
X01416798Y00364961
X01419872Y00391043
X01426565Y00376929
X01452943
X01492254Y00323390
X01495488Y00316732
X01500030Y00323390
X01503927Y00385433
X01511313Y00344079
X01517864Y00371988
X01522746Y00378217
X01523600Y00357900
X01526150Y00365000
X01526664Y00390888
X01533952Y00364370
X01534000Y00355100
X01536092Y00376791
X01548135Y00364173
X01562470Y00376791
X01581099Y00386795
X01586500Y00342700
X01598947Y00324079
X01602181Y00317421
X01606722Y00324079
X01610620Y00386122
X01618006Y00344768
X01624557Y00372677
X01629439Y00378906
X01633050Y00365600
X01633357Y00391577
X01636700Y00361700
X01642785Y00377480
X01669163
X01692100Y00319800
X01621800Y00465000
X01631897Y00463280
X01636700Y00408800
X01512600Y00464000
X01518257Y00448228
X01522694Y00429429
Y00436713
X01526870Y00416594
X01529300Y00408000
X01546584Y00475984
X01548159Y00432087
X01550620Y00442323
X01553671Y00429528
X01554458Y00475985
X01562332Y00475984
X01564498Y00437303
X01418200Y00408169
X01472319Y00444882
X01301407Y00458291
X01301505Y00425075
X01303248Y00484154
X01307706Y00442991
X01308951Y00471746
X01309734Y00408268
X01315945Y00485123
X01316600Y00434300
X01319592Y00482677
X01320675Y00463189
X01331722Y00432949
X01348848Y00467594
X01193589Y00459154
Y00479036
X01194923Y00444095
X01195571Y00420571
X01201575Y00459154
X01202671Y00479036
X01205709Y00437598
X01206988Y00459252
X01210335Y00479036
X01211516Y00420571
X01214370Y00482874
X01225295Y00482972
X01226083Y00464173
X01229921Y00480020
X01230118Y00465650
X01233662Y00482972
X01234055Y00464173
X01241280Y00482972
X01241437Y00463976
X01245276Y00479823
X01245472Y00465453
X01248819Y00443504
X01249272Y00482972
X01249410Y00463976
X01251083Y00415256
X01253052Y00399607
X01253150Y00426575
X01255906Y00443504
X01256791Y00428543
X01256988Y00482972
X01257087Y00464075
X01258268Y00456988
X01259402Y00433314
X01260925Y00479921
X01261122Y00465551
X01263536Y00436562
X01265059Y00464075
X01265354Y00482972
X01267717Y00440048
X01268307Y00450394
X01285532Y00483342
X01288200Y00425400
X01121900Y00424500
X01145400Y00449800
X01151589Y00459055
X01154921Y00437598
X01158900Y00493200
X01159252Y00485600
X01159449Y00458943
X01164841Y00479036
X01165510Y00443898
X01168841Y00459055
X01171850Y00437598
X01176392Y00479036
X01176504Y00458943
X01181700Y00488200
X01185925Y00459055
X01185926Y00479035
X01188780Y00437598
X01189075Y00425591
X01000298Y00398622
X01000394Y00444980
X01010433Y00406299
X00994400Y00403642
X00996161Y00411319
X00963405Y00416929
X00966684Y00453935
X00968129Y00398426
Y00405906
X00968430Y00428326
X00992815Y00444980
X00793600Y00398000
Y00405400
X00794600Y00401500
X00795872Y00428478
X00796284Y00482087
X00799300Y00471600
X00799532Y00486221
X00799765Y00466743
X00802600Y00461900
X00802731Y00453866
X00802879Y00490256
X00803822Y00428478
X00803961Y00477658
X00813255Y00401620
X00814887Y00474409
X00815300Y00494000
X00815700Y00465382
Y00470500
X00816600Y00456425
X00817900Y00460400
X00827735Y00467834
X00829036Y00453347
X00693857Y00479457
X00694139Y00407224
X00694300Y00463900
X00694400Y00474300
X00694600Y00491100
X00706099Y00417501
X00706380Y00471780
X00706580Y00483380
X00709789Y00402303
X00712939Y00396989
X00712961Y00461561
X00716285Y00404666
X00716346Y00482087
X00716400Y00421600
X00719533Y00408800
X00719594Y00486221
X00719600Y00427000
X00722879Y00412835
X00722940Y00490256
X00723962Y00400237
X00724023Y00477658
X00725894Y00493898
X00726028Y00416477
X00729700Y00449500
X00733901Y00438049
X00734887Y00396989
X00734948Y00474409
X00735700Y00470500
X00737120Y00402107
X00737180Y00479528
X00737800Y00444700
X00738102Y00464102
X00739100Y00468400
X00740400Y00395800
X00742685Y00431700
X00743625Y00414508
X00745513Y00411196
X00750038Y00399978
X00750100Y00474400
X00750534Y00457224
X00754667Y00409666
X00754744Y00416338
X00755571Y00474085
X00766044Y00420280
X00767465Y00457700
X00768200Y00479500
X00770316Y00409680
X00773419Y00453800
X00773800Y00474482
Y00479600
X00779053Y00397900
X00779054Y00405300
X00786800Y00478904
X00787922Y00428478
X00594176Y00401695
X00595900Y00428200
X00596230Y00442400
X00600100Y00441500
X00601476Y00409154
X00601738Y00471138
X00607800Y00397400
X00632389Y00423326
X00648731Y00405453
X00651468Y00423326
X00656398Y00405913
X00668600Y00473200
X00669900Y00477300
X00671600Y00481200
X00686400Y00417100
X00687500Y00485400
X00692400Y00396100
X00494150Y00395912
X00499384Y00462000
Y00454701
X00506800Y00477300
X00506900Y00469700
X00507433Y00410883
X00507805Y00458305
X00515800Y00455200
X00516000Y00441800
X00517973Y00409210
X00519046Y00464446
X00521766Y00482573
X00522026Y00431900
X00528200Y00410000
X00529900Y00431900
X00530132Y00482671
X00538007Y00482572
X00545400Y00452900
X00546373Y00482572
X00553700Y00396700
X00554641Y00482572
X00555315Y00432874
X00556988Y00443414
X00557185Y00458071
X00557600Y00397600
Y00416200
X00559338Y00428600
X00563189Y00432874
X00565200Y00475283
X00567036Y00408100
X00567400Y00412500
X00569137Y00399469
Y00403406
X00570669Y00479397
X00572400Y00464500
X00579677Y00401733
X00580085Y00471138
X00583169Y00428543
X00592293Y00429963
X00593421Y00479227
X00393659Y00421588
X00395298Y00395606
X00419973Y00395598
X00426753Y00426953
X00432317Y00483200
X00432416Y00475800
X00436000Y00440300
X00442005Y00445605
X00443316Y00411500
Y00419472
X00443513Y00426952
X00446984Y00468300
X00447100Y00401400
X00448182Y00475719
X00450100Y00428500
X00451446Y00464200
Y00468400
X00457347Y00405600
X00461361Y00489256
X00462256Y00466157
X00465100Y00475700
X00468808Y00483875
X00472200Y00398200
X00472402Y00483821
X00472500Y00409500
X00472698Y00480036
X00473100Y00458400
Y00463400
X00474884Y00449401
X00475200Y00432000
X00475396Y00436591
X00475440Y00494345
X00475669Y00490300
X00479710Y00426753
X00483700Y00463200
Y00470800
Y00474900
X00483800Y00456029
X00487300Y00396700
X00489865Y00436600
X00490563Y00477900
X00491200Y00484800
X00491300Y00417700
X00491700Y00425300
X00492934Y00410921
X00492935Y00431000
X00321775Y00480103
X00340237Y00401296
X00369193Y00401526
X00388485Y00406054
X00201587Y00410113
X00201598Y00400113
X00202000Y00461592
X00203600Y00452700
X00203722Y00457852
X00221137Y00395298
Y00405298
X00222135Y00457852
X00222628Y00400313
Y00410249
X00223185Y00418214
X00223808Y00443817
X00224700Y00454000
X00232603Y00491043
X00239233Y00410248
X00239234Y00400212
X00163287Y00399975
X00163357Y00410229
X00167549Y00438600
X00184600Y00438817
X00185218Y00461600
X00185458Y00443817
X00185475Y00452800
X00188441Y00395102
Y00405102
X00026567Y00431995
X00054323Y00439180
X00252756Y00507480
X00395000Y00538600
X00417557Y00539400
X00417654Y00532412
X00426243Y00531400
X00439603Y00539105
X00439604Y00532412
X00448193Y00531688
X00460326Y00514245
X00461453Y00539105
Y00532412
X00465148Y00498045
X00468655Y00513100
X00468794Y00498245
X00470043Y00531528
X00472440Y00498045
X00477426Y00514245
X00491300Y00514000
X00509200Y00532300
X00516096Y00543400
X00518100Y00503300
X00521700Y00499200
X00522700Y00543900
X00526771Y00510817
X00528292Y00532412
X00530900Y00529500
X00534251Y00499605
X00535997Y00543400
X00537991Y00499200
X00542913Y00510719
X00543897Y00543400
X00546400Y00499200
X00550192Y00532412
X00550400Y00499500
X00552700Y00527200
X00554625Y00499200
X00556400Y00539527
X00560000Y00535400
X00571500Y00498400
X00576900Y00509800
X00581600Y00504600
X00582086Y00511398
X00594069Y00498595
X00601800Y00509000
X00604050Y00504550
X00695200Y00498000
X00700922Y00532412
Y00539105
X00709800Y00501100
X00710874Y00530230
X00712938Y00497538
X00722772Y00532412
Y00539105
X00732725Y00530230
X00744032Y00532412
Y00539105
X00753985Y00530230
X00765587Y00532412
Y00539105
X00775540Y00530230
X00787142Y00532412
Y00539105
X00794800Y00512734
X00797095Y00530300
X00803000Y00512734
X00808689Y00532412
Y00539105
X00818945Y00530230
X01225263Y00549818
X01225394Y00506890
X01229134Y00499606
X01230263Y00549818
X01230344Y00506940
X01235263Y00549818
X01235344Y00506940
X01240263Y00549818
X01240344Y00506940
X01245263Y00549818
X01245344Y00506940
X01245374Y00500197
X01250263Y00549818
X01250344Y00506940
X01255263Y00549818
X01255344Y00506940
X01257775Y00568922
X01260263Y00549818
X01260344Y00506940
X01261221Y00500197
X01265263Y00549818
X01265344Y00506940
X01265354Y00568921
X01270263Y00549818
X01270344Y00506940
X01272736Y00568922
X01274925Y00514567
X01275123Y00531692
X01277264Y00504848
X01290182Y00511712
X01322268Y00499804
X01327142Y00496850
X01344020
X01347800Y00499708
X01430170Y00531457
X01431600Y00499700
T02
X00005905Y00019685
X00009941Y00009941
Y00029429
X00019685Y00005905
Y00033465
X00029429Y00009941
Y00029429
X00033465Y00019685
X00242913Y00019684
X00246949Y00009941
Y00029428
X00256693Y00005905
Y00033464
X00266436Y00009941
Y00029428
X00270472Y00019684
X00479142
X00483178Y00009941
Y00029428
X00492921Y00005905
Y00033464
X00502665Y00009941
Y00029428
X00506701Y00019684
X00715362
X00719398Y00009941
Y00029428
X00729142Y00005905
Y00033464
X00738885Y00009941
Y00029428
X00742921Y00019684
X00951583
X00955619Y00009941
Y00029428
X00965362Y00005905
Y00033464
X00975106Y00009941
Y00029428
X00979142Y00019684
X01187803Y00019685
X01191839Y00009941
Y00029429
X01201583Y00005905
Y00033465
X01211326Y00009941
Y00029429
X01215362Y00019685
X01424024
X01428060Y00009941
Y00029429
X01437803Y00005905
Y00033465
X01447547Y00009941
Y00029429
X01451583Y00019685
X01666535
X01670571Y00009941
Y00029429
X01680315Y00005905
Y00033465
X01690059Y00009941
Y00029429
X01694095Y00019685
Y00559055
X01666535
X01670571Y00549312
Y00568799
X01680315Y00545276
Y00572835
X01690059Y00549312
Y00568799
X01364969Y00559055
X01369004Y00549312
Y00568799
X01378748Y00545276
Y00572835
X01388492Y00549312
Y00568799
X01392528Y00559055
X00951583
X00955619Y00549312
Y00568799
X00965362Y00545276
Y00572835
X00975106Y00549312
Y00568799
X00979142Y00559055
X00502665Y00549312
Y00568799
X00506701Y00559055
X00479142
X00483178Y00549312
Y00568799
X00492921Y00545276
Y00572835
X00296358Y00559055
X00300394Y00549312
Y00568799
X00310138Y00545276
Y00572835
X00319881Y00549312
Y00568799
X00323917Y00559055
X00005905
X00009941Y00549312
Y00568799
X00019685Y00545276
Y00572835
X00029429Y00549312
Y00568799
X00033465Y00559055
T03
X00091972Y00125003
X00123720Y00115392
X00210082Y00125003
X00241831Y00115392
X00328193Y00125003
X00359941Y00115392
X00446303Y00125003
X00478051Y00115392
X00564413Y00125003
X00596161Y00115392
X00682523Y00125003
X00714272Y00115392
X00800634Y00125003
X00832382Y00115392
X00998600Y00079900
Y00088119
Y00096337
Y00109563
Y00117781
X01078937Y00077300
X01082593Y00064800
X01089725Y00046300
X01270400Y00033700
X01278619
X01286837
X01303963Y00025100
X01312182
X01320400
X01601639Y00176476
Y00196161
X01606167Y00155413
X01609907Y00140157
X01611876Y00188091
X01612958Y00166142
X01615321Y00145866
X01617289Y00133661
X01634832Y00195669
X01652400Y00129563
Y00137782
Y00146000
X01494947Y00164075
Y00175787
Y00195472
X01499474Y00154724
X01503214Y00139469
X01505183Y00187402
X01506265Y00165453
X01508628Y00145177
X01510596Y00132972
X01393198
Y00161909
X01426575Y00206594
Y00214665
X01433465Y00139124
Y00147343
Y00155561
X01434744Y00206594
Y00214665
X01441535Y00139124
Y00147343
Y00155561
X01442815Y00206594
Y00214665
X01451378Y00206594
Y00214665
X01462009Y00146556
X01474800Y00153600
Y00158600
X01319512Y00206595
Y00214665
X01320650Y00139124
Y00147343
Y00155561
X01327682Y00206595
Y00214665
X01328819Y00155561
X01335752Y00206595
Y00214665
X01336890Y00139124
Y00147343
Y00155561
X01344315Y00206595
Y00214665
X01358268Y00144980
X01382765Y00138583
Y00147441
Y00155807
X01205400Y00211100
X01217200
X01229000
X01239400Y00142476
Y00151334
Y00159700
Y00169000
Y00197800
X01273120Y00138583
Y00147441
Y00155807
X01283553Y00132972
Y00161909
X01028300Y00187300
Y00204900
X01032033Y00222885
X01039283Y00187300
Y00204900
X01068445Y00216364
X00998600Y00126000
X00897929Y00201870
X00910850Y00186992
X00915753Y00175100
X00929300Y00193200
X00932974Y00174394
X00788976Y00130413
X00801634Y00150527
X00781595Y00159449
X00783071Y00138291
Y00144491
X00663484Y00159449
X00664961Y00138291
Y00144491
X00670866Y00130413
X00683523Y00150527
X00545374Y00159449
X00546850Y00138291
Y00144491
X00552756Y00130413
X00565413Y00150527
X00427264Y00159449
X00428740Y00138291
Y00144491
X00434646Y00130413
X00447303Y00150527
X00309154Y00159449
X00310630Y00138291
Y00144491
X00316535Y00130413
X00329193Y00150527
X00191043Y00159449
X00192520Y00138291
Y00144491
X00198425Y00130413
X00211082Y00150527
X00092972
X00072933Y00159449
X00074409Y00138291
Y00144491
X00080315Y00130413
X00028346Y00259744
Y00268209
Y00276673
Y00285138
X00036811Y00259744
Y00285138
X00045276Y00259744
Y00268209
Y00276673
Y00285138
X00053740Y00259744
Y00268209
Y00276673
Y00285138
X00144488Y00247281
X00152362
X00160236
X00167913
X00176181
X00200886Y00307579
X00201476Y00265256
Y00282185
Y00290650
X00209350Y00273721
Y00299114
X00217815Y00265256
Y00307579
X00226280Y00273721
Y00299114
X00234744Y00265256
Y00282185
Y00290650
Y00307579
X00889170Y00302615
X00891082Y00287326
X00896595Y00287359
X00903055Y00274761
X00906891Y00319490
X00914273
X00916046Y00231202
X00921458Y00319490
X00923058Y00281102
Y00286811
Y00292520
X00923428Y00231202
X00930613
X01016287Y00320378
X01037759Y00227734
X01038032Y00301028
X01038072Y00253615
X01046701Y00235714
X01058662Y00320575
X01068406Y00255498
X01089075Y00235911
X01126211Y00298591
X01126411Y00290291
X01162343Y00313579
X01167843Y00320879
X01283957Y00281890
Y00295177
X01295374Y00281890
Y00295177
X01306791Y00281890
Y00295177
X01318209Y00281890
X01329626
Y00295177
X01360364Y00316535
Y00323622
X01393602Y00281890
Y00295177
X01405020Y00281890
Y00295177
X01416437Y00281890
Y00295177
X01427854Y00281890
X01439272
Y00295177
X01470010Y00316634
Y00323720
X01579045Y00314996
Y00322083
X01685738Y00315685
Y00322772
Y00348780
Y00355866
X01587800Y00424300
X01517155Y00418276
X01565578Y00406851
Y00415651
Y00424791
X01579045Y00348091
Y00355177
X01470010Y00349728
Y00356815
X01333592Y00395311
Y00407972
X01335758Y00418913
X01360364Y00349728
Y00356815
X01360532Y00417815
X01114665Y00378445
X01114666Y00362894
Y00370468
X01127657Y00333952
X01037992Y00340161
X00905028Y00400886
X00905126Y00418789
X00905238Y00409880
X00837598Y00381890
X00589200Y00354800
X00568400Y00367500
X00582200Y00370300
X00195078Y00327609
X00203740Y00328219
X00095472Y00375771
X00114377Y00342323
X00164084Y00355116
X00165167Y00367815
X00180947Y00385021
X00180976Y00424416
X00060100Y00328346
X00060691Y00337326
Y00346665
X00061282Y00356004
X00068398Y00369677
X00074796Y00386803
X00014700Y00448600
X00036122Y00479331
X00224425Y00474114
X00310172Y00512697
X00310772Y00495497
X00310784Y00504275
X00905020Y00485138
X00921990Y00427854
X01020321Y00445741
X01145571Y00466732
X01215748
X01270177Y00476181
X01280100Y00433600
Y00446000
Y00458400
X01282700Y00469300
X01327953Y00449114
X01335758Y00427953
X01366634Y00464075
X01377461Y00492913
X01388976Y00464075
X01513285Y00443701
Y00454035
X01517155Y00430937
X01568374Y00444193
T04
X00082741Y00283401
X00089701Y00276441
T05
X00510700Y00339000
Y00344000
Y00349000
Y00354000
Y00359000
X00515700Y00339000
Y00344000
Y00349000
Y00354000
Y00359000
T06
X00064772Y00177363
X00182883
X00300993
X00419103
X00537213
X00655323
X00773434
X00899150Y00220852
X01047900Y00253300
X01135800Y00228900
X01162600Y00253500
X01177243Y00236379
X01246143Y00225679
X01283071Y00182382
X01545734Y00277067
X01634950Y00354429
X01652427Y00277756
X01519000Y00333200
X01418592Y00353642
X01452953Y00281988
X01308947Y00353642
X01343209Y00282480
X01204500Y00331700
X01005217Y00309941
X00883268Y00311024
X00949213Y00367618
X00516600Y00279200
X00534800Y00312000
X00574400Y00370600
X00444900Y00302600
Y00312800
Y00323000
Y00333200
X00450200Y00290600
X00368700Y00285133
Y00296050
Y00306967
Y00317883
X00081791Y00357382
X00093110Y00279921
X00156004Y00288189
X00079331Y00279921
X00083760Y00410433
X00208687Y00384713
Y00420023
X00383900Y00420800
X00463200Y00416500
Y00432700
X00515700Y00469700
X00533000Y00473200
X00613900Y00473800
X00637205Y00411023
X00857156Y00442549
X01053701Y00450753
X01136400Y00424800
X01154400
X01233000Y00388500
X01251000
X01346880Y00458169
X01680709Y00462736
X01413484Y00486713
X01350886Y00490256
X01355512Y00520374
X00485400Y00486500
X00497700Y00493100
X00440700Y00491600
X00453100Y00486900
X00233661Y00566634
T07
X00072085Y00112470
X00086985Y00097570
X00190196Y00112470
X00205096Y00097570
X00308306Y00112470
X00323206Y00097570
X00426416Y00112470
X00441316Y00097570
X00544519Y00112470
X00559419Y00097570
X00662629Y00112470
X00677529Y00097570
X00780739Y00112470
X00795639Y00097570
X00866526
X00881426Y00112470
X00888081Y00097570
X00902982Y00112470
X00909637Y00097570
X00924537Y00112470
X00931192Y00097570
X00946092Y00112470
X01016967Y00097570
X01031867Y00112470
X01135078Y00097570
X01149978Y00112470
X01242410Y00097570
X01257310Y00112470
X01263963Y00097570
X01278863Y00112470
X01371298Y00097570
X01386198Y00112470
X01489408Y00097570
X01504308Y00112470
X01585767Y00097570
X01600667Y00112470
X01607519Y00097570
X01622419Y00112470
X01629074Y00097570
X01643974Y00112470
X00348009Y00470177
X00353509Y00459177
X00358909Y00470177
X00364409Y00459177
X00369809Y00470177
X00375309Y00459177
X00380709Y00470177
X00386209Y00459177
X00342609
X00414499Y00526797
X00429399Y00541697
X00436448Y00526797
X00451348Y00541697
X00458397Y00526797
X00473296Y00541697
X00512546Y00526797
X00527446Y00541697
X00534495Y00526797
X00549395Y00541697
X00697963Y00526797
X00712863Y00541697
X00719519Y00526797
X00734419Y00541697
X00741074Y00526797
X00755974Y00541697
X00762629Y00526797
X00777529Y00541697
X00784184Y00526797
X00799084Y00541697
X00805739Y00526797
X00820639Y00541697
T08
X00870874Y00060787
X00882685Y00045276
Y00057087
X00894496Y00045276
Y00057087
X00906307Y00045276
Y00057087
X00918118Y00045276
Y00057087
X00929929Y00045276
Y00057087
X01006701Y00060787
X01018512Y00045276
Y00057087
X01030323Y00045276
Y00057087
X00941740Y00060787
X01042134
X01124811
X01136622Y00045276
Y00057087
X01148433Y00045276
Y00057087
X01160244Y00060787
X01366937Y00051181
X01378748
X01390559
X01485047Y00060787
X01496858Y00045276
Y00057087
X01508669Y00060787
X01591347
X01603158Y00045275
Y00057086
X01614969Y00045275
Y00057086
X01626780Y00045275
Y00057086
X01638591Y00060787
X01655281Y00157776
X01531595Y00194488
X01421063Y00170768
X01261319Y00245118
X01299700Y00174400
X01184648Y00197401
X01215554Y00184606
X01074100Y00182800
X00939800Y00200800
X00818898Y00160039
X00700787
X00582677
X00464567
X00346457
X00228346
X00110236
X00036909Y00271949
X00084843Y00296850
X00095374Y00315039
Y00325039
Y00335039
X00218209Y00286811
X00338720Y00286063
Y00296063
Y00306063
Y00316063
X00348720Y00286063
Y00296063
Y00306063
Y00316063
X00467300Y00273100
Y00283100
X00953900Y00280500
X00983000Y00280000
X01179142Y00249779
Y00259779
X01248800Y00291400
X01249508Y00260630
X01261319Y00256929
X01273130Y00260630
X01354000Y00251400
X01626870Y00435630
X01178843Y00372579
X01055807Y00373917
X01079528Y00395768
X01017520Y00422303
X01029331Y00406791
Y00418602
X01041142Y00406791
Y00418602
X01052953Y00422303
X00876870Y00400000
X00924409Y00406933
X00936221
X00948032
X00664400Y00398100
X00672400Y00411000
X00675492Y00426968
X00677400Y00373200
X00739100Y00424100
X00610827Y00414409
Y00424409
Y00434409
X00620827Y00414409
Y00424409
Y00434409
X00461400Y00384200
X00451400Y00356300
X00337100Y00358200
X00043799Y00476319
X00055610Y00480020
Y00491831
X00067421Y00480020
Y00491831
X00079232Y00480020
Y00491831
X00091043Y00480020
Y00491831
X00102854Y00476319
X00277165Y00525492
X00590200Y00535138
X00600200
X00610200
X00620200
X00649900
X00659900
X00669900
X00679900
X01290580Y00446850
X01442028Y00449902
T10
X00069692Y00051161
X00079534Y00041318
Y00061003
X00089377Y00051161
X00187804Y00051181
X00197646Y00041339
Y00061024
X00207489Y00051181
X00305912
X00315755Y00041339
Y00061024
X00325597Y00051181
X00424023
X00433865Y00041339
Y00061024
X00443708Y00051181
X00542135
X00551977Y00041339
Y00061024
X00561820Y00051181
X00660245
X00670087Y00041339
Y00061024
X00679930Y00051181
X00778355
X00788198Y00041339
Y00061024
X00798040Y00051181
X00358268Y00535138
X00368110Y00525295
X00377953Y00535138
X01208303Y00520079
X01287303
X00368110Y00544980
T11
X01253945Y00049213
X01256386Y00056890
X01264890
X01267331Y00049213
T12
X00200409Y00500575
Y00484275
X00216709
Y00500575
X00945307
Y00484276
X00961606
Y00500575
X01105650
Y00484276
X01121950
Y00500575
X01138249Y00484276
Y00500575
X01481024Y00485925
X01497323
X01605429Y00500575
Y00484275
X01621728
Y00500575
T13
X00112400Y00255700
X00192028Y00268701
X00373400Y00271100
X01489862Y00231379
X01596752Y00232579
X01603400Y00296800
X01552756Y00404232
X01468002Y00377559
X01358356
X01127600Y00374700
X00610236Y00370965
X00241500Y00441200
X00422006Y00433023
X00922292Y00455343
X01293701Y00469685
X01581988Y00470079
T14
X01365018Y00511123
Y00529823
X01392618Y00511123
Y00529823
T15
X00586000Y00547538
X00645700
T16
X01236032Y00051181
X01285244
T17
X00182890Y00500575
X00927787
X01088131
X01514843Y00485925
X01587909Y00500575
T18
X00315109Y00464177
X00413709Y00464677
T19
X00107094Y00023602
X00225205Y00023622
X00343314
X00461424
X00579536
X00697646
X00815757
X00395669Y00562697
T20
X00051975Y00023602
X00107094Y00078720
X00170087Y00023622
X00225205Y00078740
X00288196Y00023622
X00343314Y00078740
X00406306Y00023622
X00461424Y00078740
X00524418Y00023622
X00579536Y00078740
X00642528Y00023622
X00697646Y00078740
X00760639Y00023622
X00815757Y00078740
X00395669Y00507579
X00340551Y00562697
T21
X00051975Y00078720
X00170087Y00078740
X00288196
X00406306
X00524418
X00642528
X00760639
X00340551Y00507579
T25
X01355126Y00043465
X01402370
X00912598Y00399217
X00959843
T27
X00019685Y00019685
X00256693Y00019684
X00492921
X00729142
X00965362
X01201583Y00019685
X01437803
X01680315
X01541142Y00149606
X01068701
X00637795
X00165354
Y00496063
X00637795
X01068701
X01541142
X01680315Y00559055
X01378748
X00965362
X00492921
X00310138
X00019685
T28
X01378818Y00520473
M30
