G04 FAB 3000 Version 8.1.40 - Gerber/CAM Software*
G04 RS274-X Output*
%FSLAX35Y35*%
%MIA0B0*%
%MOIN*%
%SFA1.000000B1.000000*%

%IPPOS*%
%AMRECT_ROUNDED85*
4,1,38,0.000000,0.012500,
-0.010250,0.012500,
-0.011549,0.012363,
-0.012792,0.011960,
-0.013924,0.011306,
-0.014895,0.010432,
-0.015663,0.009375,
-0.016194,0.008181,
-0.016466,0.006903,
-0.016500,0.006250,
-0.016500,-0.006250,
-0.016363,-0.007549,
-0.015960,-0.008792,
-0.015306,-0.009924,
-0.014432,-0.010895,
-0.013375,-0.011663,
-0.012181,-0.012194,
-0.010903,-0.012466,
-0.010250,-0.012500,
0.010250,-0.012500,
0.011549,-0.012363,
0.012792,-0.011960,
0.013924,-0.011306,
0.014895,-0.010432,
0.015663,-0.009375,
0.016194,-0.008181,
0.016466,-0.006903,
0.016500,-0.006250,
0.016500,0.006250,
0.016363,0.007549,
0.015960,0.008792,
0.015306,0.009924,
0.014432,0.010895,
0.013375,0.011663,
0.012181,0.012194,
0.010903,0.012466,
0.010250,0.012500,
0.000000,0.012500,
0.000000,0.012500,0.0*
%
%AMRECT_ROUNDED179*
4,1,38,0.000000,0.007874,
-0.008858,0.007874,
-0.009677,0.007788,
-0.010460,0.007534,
-0.011172,0.007122,
-0.011784,0.006571,
-0.012268,0.005906,
-0.012603,0.005154,
-0.012774,0.004349,
-0.012795,0.003937,
-0.012795,-0.003937,
-0.012709,-0.004756,
-0.012455,-0.005538,
-0.012043,-0.006251,
-0.011493,-0.006863,
-0.010827,-0.007347,
-0.010075,-0.007681,
-0.009270,-0.007852,
-0.008858,-0.007874,
0.008858,-0.007874,
0.009677,-0.007788,
0.010460,-0.007534,
0.011172,-0.007122,
0.011784,-0.006571,
0.012268,-0.005906,
0.012603,-0.005154,
0.012774,-0.004349,
0.012795,-0.003937,
0.012795,0.003937,
0.012709,0.004756,
0.012455,0.005538,
0.012043,0.006251,
0.011493,0.006863,
0.010827,0.007347,
0.010075,0.007681,
0.009270,0.007852,
0.008858,0.007874,
0.000000,0.007874,
0.000000,0.007874,0.0*
%
%AMRECT_ROUNDED201*
4,1,38,0.000000,0.040500,
-0.020250,0.040500,
-0.024460,0.040057,
-0.028486,0.038749,
-0.032153,0.036633,
-0.035299,0.033800,
-0.037787,0.030375,
-0.039509,0.026508,
-0.040389,0.022367,
-0.040500,0.020250,
-0.040500,-0.020250,
-0.040057,-0.024460,
-0.038749,-0.028486,
-0.036633,-0.032153,
-0.033800,-0.035299,
-0.030375,-0.037787,
-0.026508,-0.039509,
-0.022367,-0.040389,
-0.020250,-0.040500,
0.020250,-0.040500,
0.024460,-0.040057,
0.028486,-0.038749,
0.032153,-0.036633,
0.035299,-0.033800,
0.037787,-0.030375,
0.039509,-0.026508,
0.040389,-0.022367,
0.040500,-0.020250,
0.040500,0.020250,
0.040057,0.024460,
0.038749,0.028486,
0.036633,0.032153,
0.033800,0.035299,
0.030375,0.037787,
0.026508,0.039509,
0.022367,0.040389,
0.020250,0.040500,
0.000000,0.040500,
0.000000,0.040500,0.0*
%
%AMoval87x72.189_55*
4,1,41,0.025300,0.026700,
0.033800,0.014600,
0.036808,0.009402,
0.038912,0.003778,
0.040053,-0.002118,
0.040200,-0.008121,
0.039349,-0.014066,
0.037523,-0.019787,
0.034773,-0.025125,
0.031176,-0.029934,
0.026830,-0.034078,
0.021857,-0.037444,
0.016394,-0.039938,
0.010593,-0.041491,
0.004615,-0.042060,
-0.001375,-0.041629,
-0.007210,-0.040210,
-0.012729,-0.037842,
-0.017778,-0.034591,
-0.022218,-0.030548,
-0.025300,-0.026700,
-0.033800,-0.014600,
-0.036808,-0.009402,
-0.038912,-0.003778,
-0.040053,0.002118,
-0.040200,0.008121,
-0.039349,0.014066,
-0.037523,0.019787,
-0.034773,0.025125,
-0.031176,0.029934,
-0.026830,0.034078,
-0.021857,0.037444,
-0.016394,0.039938,
-0.010593,0.041491,
-0.004615,0.042060,
0.001375,0.041629,
0.007210,0.040210,
0.012729,0.037842,
0.017778,0.034591,
0.022218,0.030548,
0.025300,0.026700,
0.025300,0.026700,0.0*
%
%AMoval89x72.189_25*
4,1,41,0.007600,0.036200,
0.022800,0.029100,
0.028005,0.026121,
0.032643,0.022319,
0.036585,0.017799,
0.039721,0.012687,
0.041964,0.007124,
0.043252,0.001267,
0.043548,-0.004723,
0.042845,-0.010679,
0.041163,-0.016436,
0.038547,-0.021833,
0.035070,-0.026720,
0.030830,-0.030961,
0.025944,-0.034440,
0.020549,-0.037057,
0.014793,-0.038743,
0.008837,-0.039448,
0.002847,-0.039154,
-0.003011,-0.037869,
-0.007600,-0.036200,
-0.022800,-0.029100,
-0.028005,-0.026121,
-0.032643,-0.022319,
-0.036585,-0.017799,
-0.039721,-0.012687,
-0.041964,-0.007124,
-0.043252,-0.001267,
-0.043548,0.004723,
-0.042846,0.010679,
-0.041163,0.016435,
-0.038547,0.021833,
-0.035070,0.026720,
-0.030830,0.030961,
-0.025944,0.034440,
-0.020549,0.037057,
-0.014793,0.038743,
-0.008837,0.039448,
-0.002847,0.039154,
0.003011,0.037869,
0.007600,0.036200,
0.007600,0.036200,0.0*
%
%AMoval89x72.189_335*
4,1,41,-0.022800,0.029100,
-0.007600,0.036200,
-0.001963,0.038269,
0.003940,0.039374,
0.009944,0.039483,
0.015883,0.038596,
0.021592,0.036735,
0.026913,0.033952,
0.031699,0.030324,
0.035816,0.025953,
0.039151,0.020959,
0.041611,0.015481,
0.043128,0.009671,
0.043659,0.003690,
0.043191,-0.002297,
0.041735,-0.008122,
0.039333,-0.013626,
0.036051,-0.018655,
0.031980,-0.023069,
0.027233,-0.026747,
0.022800,-0.029100,
0.007600,-0.036200,
0.001963,-0.038269,
-0.003940,-0.039374,
-0.009944,-0.039483,
-0.015883,-0.038596,
-0.021592,-0.036735,
-0.026913,-0.033952,
-0.031699,-0.030324,
-0.035816,-0.025953,
-0.039151,-0.020959,
-0.041611,-0.015481,
-0.043128,-0.009671,
-0.043659,-0.003690,
-0.043191,0.002296,
-0.041735,0.008122,
-0.039333,0.013626,
-0.036051,0.018655,
-0.031980,0.023069,
-0.027233,0.026747,
-0.022800,0.029100,
-0.022800,0.029100,0.0*
%
%AMoval87x72.189_305*
4,1,41,-0.033800,0.014600,
-0.025300,0.026700,
-0.021454,0.031309,
-0.016897,0.035217,
-0.011754,0.038314,
-0.006169,0.040514,
-0.000296,0.041756,
0.005702,0.042007,
0.011658,0.041257,
0.017407,0.039530,
0.022791,0.036872,
0.027657,0.033358,
0.031874,0.029085,
0.035322,0.024170,
0.037906,0.018752,
0.039556,0.012980,
0.040224,0.007014,
0.039892,0.001020,
0.038570,-0.004835,
0.036295,-0.010391,
0.033800,-0.014600,
0.025300,-0.026700,
0.021454,-0.031309,
0.016897,-0.035217,
0.011754,-0.038314,
0.006169,-0.040514,
0.000296,-0.041756,
-0.005702,-0.042007,
-0.011658,-0.041257,
-0.017407,-0.039530,
-0.022791,-0.036872,
-0.027657,-0.033358,
-0.031873,-0.029085,
-0.035322,-0.024170,
-0.037906,-0.018752,
-0.039556,-0.012980,
-0.040224,-0.007014,
-0.039892,-0.001020,
-0.038570,0.004835,
-0.036295,0.010391,
-0.033800,0.014600,
-0.033800,0.014600,0.0*
%
%AMOCTAGON212*
4,1,9,-0.011000,0.022000,
-0.022000,0.011000,
-0.022000,-0.011000,
-0.011000,-0.022000,
0.011000,-0.022000,
0.022000,-0.011000,
0.022000,0.011000,
0.011000,0.022000,
-0.011000,0.022000,
-0.011000,0.022000,0.0*
%
%AMRECT_ROUNDED256*
4,1,38,0.000000,0.026500,
-0.013250,0.026500,
-0.016005,0.026210,
-0.018639,0.025354,
-0.021038,0.023969,
-0.023097,0.022116,
-0.024725,0.019875,
-0.025851,0.017344,
-0.026427,0.014635,
-0.026500,0.013250,
-0.026500,-0.013250,
-0.026210,-0.016005,
-0.025354,-0.018639,
-0.023969,-0.021038,
-0.022116,-0.023097,
-0.019875,-0.024725,
-0.017344,-0.025851,
-0.014635,-0.026427,
-0.013250,-0.026500,
0.013250,-0.026500,
0.016005,-0.026210,
0.018639,-0.025354,
0.021038,-0.023969,
0.023097,-0.022116,
0.024725,-0.019875,
0.025851,-0.017344,
0.026427,-0.014635,
0.026500,-0.013250,
0.026500,0.013250,
0.026210,0.016005,
0.025354,0.018639,
0.023969,0.021038,
0.022116,0.023097,
0.019875,0.024725,
0.017344,0.025852,
0.014635,0.026427,
0.013250,0.026500,
0.000000,0.026500,
0.000000,0.026500,0.0*
%
%AMRECT_ROUNDED257*
4,1,38,0.000000,0.028500,
-0.014250,0.028500,
-0.017213,0.028189,
-0.020046,0.027268,
-0.022626,0.025778,
-0.024840,0.023785,
-0.026591,0.021375,
-0.027803,0.018653,
-0.028422,0.015740,
-0.028500,0.014250,
-0.028500,-0.014250,
-0.028189,-0.017213,
-0.027268,-0.020046,
-0.025778,-0.022626,
-0.023785,-0.024840,
-0.021375,-0.026591,
-0.018653,-0.027803,
-0.015740,-0.028422,
-0.014250,-0.028500,
0.014250,-0.028500,
0.017213,-0.028189,
0.020046,-0.027268,
0.022626,-0.025778,
0.024840,-0.023785,
0.026591,-0.021375,
0.027803,-0.018654,
0.028422,-0.015740,
0.028500,-0.014250,
0.028500,0.014250,
0.028189,0.017213,
0.027268,0.020046,
0.025778,0.022626,
0.023785,0.024840,
0.021375,0.026591,
0.018653,0.027803,
0.015740,0.028422,
0.014250,0.028500,
0.000000,0.028500,
0.000000,0.028500,0.0*
%
%AMoval83x68.189_55*
4,1,41,0.023600,0.025600,
0.032100,0.013400,
0.035005,0.008346,
0.037004,0.002870,
0.038037,-0.002867,
0.038074,-0.008696,
0.037115,-0.014446,
0.035187,-0.019947,
0.032348,-0.025038,
0.028680,-0.029569,
0.024291,-0.033406,
0.019311,-0.036437,
0.013887,-0.038572,
0.008178,-0.039748,
0.002351,-0.039931,
-0.003420,-0.039116,
-0.008969,-0.037326,
-0.014129,-0.034615,
-0.018750,-0.031061,
-0.022695,-0.026770,
-0.023600,-0.025600,
-0.032100,-0.013400,
-0.035005,-0.008346,
-0.037004,-0.002870,
-0.038037,0.002867,
-0.038074,0.008696,
-0.037115,0.014446,
-0.035187,0.019948,
-0.032348,0.025038,
-0.028680,0.029569,
-0.024291,0.033406,
-0.019311,0.036437,
-0.013887,0.038572,
-0.008178,0.039748,
-0.002351,0.039931,
0.003420,0.039116,
0.008969,0.037326,
0.014129,0.034615,
0.018750,0.031061,
0.022695,0.026770,
0.023600,0.025600,
0.023600,0.025600,0.0*
%
%AMoval85x68.189_25*
4,1,41,0.006700,0.034400,
0.022000,0.027300,
0.027051,0.024386,
0.031530,0.020653,
0.035305,0.016209,
0.038265,0.011185,
0.040323,0.005730,
0.041419,0.000002,
0.041520,-0.005827,
0.040624,-0.011589,
0.038756,-0.017113,
0.035972,-0.022236,
0.032353,-0.026808,
0.028006,-0.030695,
0.023059,-0.033782,
0.017658,-0.035978,
0.011961,-0.037219,
0.006135,-0.037468,
0.000352,-0.036719,
-0.005217,-0.034992,
-0.006700,-0.034400,
-0.022000,-0.027300,
-0.027051,-0.024386,
-0.031530,-0.020653,
-0.035305,-0.016209,
-0.038265,-0.011185,
-0.040323,-0.005730,
-0.041419,-0.000002,
-0.041520,0.005827,
-0.040624,0.011589,
-0.038756,0.017113,
-0.035972,0.022236,
-0.032353,0.026808,
-0.028006,0.030695,
-0.023059,0.033782,
-0.017658,0.035978,
-0.011961,0.037219,
-0.006135,0.037468,
-0.000352,0.036719,
0.005217,0.034992,
0.006700,0.034400,
0.006700,0.034400,0.0*
%
%AMoval85x68.189_335*
4,1,41,-0.022000,0.027300,
-0.006700,0.034400,
-0.001214,0.036388,
0.004531,0.037410,
0.010366,0.037436,
0.016120,0.036465,
0.021623,0.034526,
0.026715,0.031676,
0.031245,0.027999,
0.035081,0.023602,
0.038110,0.018614,
0.040243,0.013183,
0.041417,0.007467,
0.041597,0.001635,
0.040780,-0.004143,
0.038987,-0.009696,
0.036273,-0.014861,
0.032717,-0.019487,
0.028423,-0.023439,
0.023518,-0.026598,
0.022000,-0.027300,
0.006700,-0.034400,
0.001214,-0.036388,
-0.004531,-0.037410,
-0.010366,-0.037436,
-0.016120,-0.036465,
-0.021623,-0.034526,
-0.026715,-0.031676,
-0.031245,-0.027999,
-0.035081,-0.023602,
-0.038110,-0.018614,
-0.040243,-0.013183,
-0.041417,-0.007467,
-0.041597,-0.001635,
-0.040780,0.004143,
-0.038987,0.009696,
-0.036273,0.014861,
-0.032717,0.019487,
-0.028423,0.023439,
-0.023518,0.026598,
-0.022000,0.027300,
-0.022000,0.027300,0.0*
%
%AMoval83x68.189_305*
4,1,41,-0.032100,0.013400,
-0.023600,0.025600,
-0.019843,0.030061,
-0.015379,0.033814,
-0.010340,0.036750,
-0.004873,0.038782,
0.000860,0.039850,
0.006692,0.039923,
0.012450,0.038999,
0.017967,0.037104,
0.023078,0.034295,
0.027634,0.030654,
0.031501,0.026289,
0.034566,0.021326,
0.036738,0.015914,
0.037953,0.010210,
0.038176,0.004382,
0.037400,-0.001398,
0.035648,-0.006961,
0.032972,-0.012143,
0.032100,-0.013400,
0.023600,-0.025600,
0.019843,-0.030061,
0.015379,-0.033815,
0.010340,-0.036750,
0.004873,-0.038782,
-0.000860,-0.039850,
-0.006692,-0.039923,
-0.012450,-0.038999,
-0.017967,-0.037104,
-0.023078,-0.034295,
-0.027634,-0.030654,
-0.031501,-0.026289,
-0.034566,-0.021326,
-0.036738,-0.015914,
-0.037953,-0.010209,
-0.038176,-0.004381,
-0.037400,0.001398,
-0.035648,0.006961,
-0.032972,0.012143,
-0.032100,0.013400,
-0.032100,0.013400,0.0*
%
%AMRECT_ROUNDED368*
4,1,38,0.000000,0.021654,
-0.005906,0.021654,
-0.007133,0.021524,
-0.008308,0.021143,
-0.009377,0.020526,
-0.010294,0.019700,
-0.011020,0.018701,
-0.011522,0.017573,
-0.011779,0.016365,
-0.011811,0.015748,
-0.011811,-0.015748,
-0.011682,-0.016976,
-0.011300,-0.018150,
-0.010683,-0.019219,
-0.009857,-0.020137,
-0.008858,-0.020862,
-0.007730,-0.021365,
-0.006523,-0.021621,
-0.005906,-0.021654,
0.005906,-0.021654,
0.007133,-0.021524,
0.008307,-0.021143,
0.009377,-0.020526,
0.010294,-0.019700,
0.011020,-0.018701,
0.011522,-0.017573,
0.011779,-0.016365,
0.011811,-0.015748,
0.011811,0.015748,
0.011682,0.016976,
0.011300,0.018150,
0.010683,0.019219,
0.009857,0.020137,
0.008858,0.020862,
0.007730,0.021365,
0.006523,0.021621,
0.005906,0.021654,
0.000000,0.021654,
0.000000,0.021654,0.0*
%
%AMRECT_ROUNDED374*
4,1,42,0.000000,0.052165,
-0.065453,0.052165,
-0.070535,0.051665,
-0.075423,0.050185,
-0.079929,0.047780,
-0.083879,0.044543,
-0.087123,0.040598,
-0.089536,0.036097,
-0.091026,0.031212,
-0.091535,0.026131,
-0.091535,0.026083,
-0.091535,-0.026083,
-0.091035,-0.031165,
-0.089555,-0.036053,
-0.087150,-0.040558,
-0.083913,-0.044509,
-0.079968,-0.047753,
-0.075467,-0.050166,
-0.070582,-0.051656,
-0.065501,-0.052165,
-0.065453,-0.052165,
0.065453,-0.052165,
0.070535,-0.051665,
0.075423,-0.050185,
0.079929,-0.047780,
0.083879,-0.044543,
0.087123,-0.040598,
0.089536,-0.036097,
0.091026,-0.031212,
0.091535,-0.026131,
0.091535,-0.026083,
0.091535,0.026083,
0.091035,0.031165,
0.089555,0.036053,
0.087150,0.040558,
0.083913,0.044509,
0.079968,0.047753,
0.075467,0.050166,
0.070582,0.051656,
0.065501,0.052165,
0.065453,0.052165,
0.000000,0.052165,
0.000000,0.052165,0.0*
%
%AMRECT_ROUNDED382*
4,1,38,0.000000,0.020500,
-0.013250,0.020500,
-0.014757,0.020342,
-0.016199,0.019873,
-0.017511,0.019115,
-0.018638,0.018101,
-0.019529,0.016875,
-0.020145,0.015490,
-0.020460,0.014008,
-0.020500,0.013250,
-0.020500,-0.013250,
-0.020342,-0.014757,
-0.019873,-0.016199,
-0.019115,-0.017511,
-0.018101,-0.018638,
-0.016875,-0.019529,
-0.015490,-0.020145,
-0.014008,-0.020460,
-0.013250,-0.020500,
0.013250,-0.020500,
0.014757,-0.020342,
0.016199,-0.019873,
0.017511,-0.019115,
0.018638,-0.018101,
0.019529,-0.016875,
0.020145,-0.015490,
0.020460,-0.014008,
0.020500,-0.013250,
0.020500,0.013250,
0.020342,0.014757,
0.019873,0.016199,
0.019115,0.017511,
0.018101,0.018638,
0.016875,0.019529,
0.015490,0.020145,
0.014008,0.020460,
0.013250,0.020500,
0.000000,0.020500,
0.000000,0.020500,0.0*
%
%AMRECT_ROUNDED383*
4,1,38,0.000000,0.022500,
-0.014250,0.022500,
-0.015965,0.022320,
-0.017606,0.021787,
-0.019099,0.020924,
-0.020381,0.019770,
-0.021395,0.018375,
-0.022096,0.016799,
-0.022455,0.015112,
-0.022500,0.014250,
-0.022500,-0.014250,
-0.022320,-0.015965,
-0.021787,-0.017606,
-0.020924,-0.019099,
-0.019770,-0.020381,
-0.018375,-0.021395,
-0.016799,-0.022096,
-0.015112,-0.022455,
-0.014250,-0.022500,
0.014250,-0.022500,
0.015965,-0.022320,
0.017606,-0.021787,
0.019099,-0.020924,
0.020381,-0.019770,
0.021395,-0.018375,
0.022096,-0.016799,
0.022455,-0.015112,
0.022500,-0.014250,
0.022500,0.014250,
0.022320,0.015965,
0.021787,0.017606,
0.020924,0.019099,
0.019770,0.020381,
0.018375,0.021395,
0.016799,0.022096,
0.015112,0.022455,
0.014250,0.022500,
0.000000,0.022500,
0.000000,0.022500,0.0*
%
%ADD10C,0.005000*%
%ADD11C,0.010000*%
%ADD12C,0.009843*%
%ADD14C,0.007874*%
%ADD15C,0.006000*%
%ADD16C,0.020000*%
%ADD18C,0.008000*%
%ADD21R,0.010875X0.005512*%
%ADD22R,0.005512X0.010876*%
%ADD23C,0.006938*%
%ADD26R,0.007350X0.014500*%
%ADD27R,0.014500X0.007350*%
%ADD30C,0.009250*%
%ADD47R,0.056850X0.078650*%
%ADD48R,0.026564X0.013465*%
%ADD54R,0.024157X0.007914*%
%ADD58R,0.003910X0.018470*%
%ADD59C,0.005990*%
%ADD60C,0.012314*%
%ADD61C,0.012355*%
%ADD62R,0.003910X0.029037*%
%ADD63C,0.032906*%
%ADD64C,0.027414*%
%ADD75R,0.011625X0.057675*%
%ADD84R,0.033000X0.025000*%
%ADD85RECT_ROUNDED85*%
%ADD86R,0.137795X0.086614*%
%ADD110R,0.023622X0.043307*%
%ADD112R,0.033465X0.023622*%
%ADD129R,0.055118X0.061024*%
%ADD130R,0.055118X0.059055*%
%ADD136R,0.039370X0.043307*%
%ADD145R,0.055118X0.043307*%
%ADD150R,0.043307X0.039370*%
%ADD154R,0.090551X0.090551*%
%ADD158R,0.059055X0.114173*%
%ADD162R,0.047244X0.051181*%
%ADD163R,0.051181X0.047244*%
%ADD164R,0.114173X0.059055*%
%ADD169R,0.039370X0.062992*%
%ADD178R,0.043307X0.055118*%
%ADD179RECT_ROUNDED179*%
%ADD180R,0.025591X0.015748*%
%ADD184R,0.023622X0.033465*%
%ADD190C,0.150000*%
%ADD193C,0.062000*%
%ADD194R,0.062000X0.062000*%
%ADD195C,0.039370*%
%ADD196C,0.066000*%
%ADD197R,0.066000X0.066000*%
%ADD198C,0.064000*%
%ADD200C,0.059055*%
%ADD201RECT_ROUNDED201*%
%ADD204C,0.065000*%
%ADD205R,0.065000X0.065000*%
%ADD206C,0.314961*%
%ADD207oval87x72.189_55*%
%ADD208oval89x72.189_25*%
%ADD209oval89x72.189_335*%
%ADD210oval87x72.189_305*%
%ADD211C,0.044000*%
%ADD212OCTAGON212*%
%ADD213C,0.058000*%
%ADD214R,0.058000X0.058000*%
%ADD215C,0.160000*%
%ADD216C,0.055000*%
%ADD217C,0.045000*%
%ADD218C,0.215000*%
%ADD219C,0.090000*%
%ADD220R,0.057000X0.057000*%
%ADD221C,0.057000*%
%ADD222C,0.096000*%
%ADD223R,0.080000X0.080000*%
%ADD224C,0.080000*%
%ADD225C,0.148000*%
%ADD226C,0.128500*%
%ADD227C,0.146000*%
%ADD228C,0.208661*%
%ADD229C,0.069000*%
%ADD230R,0.069000X0.069000*%
%ADD231C,0.050000*%
%ADD232C,0.032000*%
%ADD234C,0.040000*%
%ADD235C,0.060000*%
%ADD236C,0.030000*%
%ADD237C,0.015000*%
%ADD238C,0.075000*%
%ADD239C,0.018000*%
%ADD240C,0.025000*%
%ADD241C,0.014000*%
%ADD242C,0.023000*%
%ADD244C,0.100000*%
%ADD246C,0.022000*%
%ADD247C,0.017000*%
%ADD255R,0.060000X0.060000*%
%ADD256RECT_ROUNDED256*%
%ADD257RECT_ROUNDED257*%
%ADD258C,0.053000*%
%ADD259oval83x68.189_55*%
%ADD260oval85x68.189_25*%
%ADD261oval85x68.189_335*%
%ADD262oval83x68.189_305*%
%ADD263C,0.195000*%
%ADD264C,0.128000*%
%ADD265C,0.027000*%
%ADD277R,0.022186X0.024154*%
%ADD278R,0.032025X0.059587*%
%ADD280R,0.047775X0.047776*%
%ADD281R,0.071394X0.045806*%
%ADD282C,0.166802*%
%ADD283C,0.167808*%
%ADD285C,0.100863*%
%ADD286R,0.024153X0.022185*%
%ADD287C,0.047921*%
%ADD293C,0.149219*%
%ADD296C,0.082707*%
%ADD298C,0.060676*%
%ADD299R,0.038501X0.038498*%
%ADD301R,0.082000X0.082000*%
%ADD305R,0.024154X0.030057*%
%ADD306R,0.030060X0.024154*%
%ADD309R,0.028092X0.026120*%
%ADD311R,0.019000X0.015001*%
%ADD312R,0.019233X0.014309*%
%ADD314C,0.059507*%
%ADD315C,0.170822*%
%ADD316C,0.060517*%
%ADD317C,0.070605*%
%ADD318R,0.022187X0.033995*%
%ADD320C,0.084724*%
%ADD321R,0.026120X0.028091*%
%ADD324C,0.079737*%
%ADD325C,0.080691*%
%ADD326R,0.030058X0.032028*%
%ADD327C,0.229369*%
%ADD328C,0.116561*%
%ADD329C,0.077664*%
%ADD330R,0.089000X0.089000*%
%ADD331R,0.077000X0.077000*%
%ADD356C,0.089768*%
%ADD360R,0.035001X0.035000*%
%ADD361C,0.078673*%
%ADD362R,0.100000X0.100000*%
%ADD363R,0.078000X0.078000*%
%ADD367R,0.029000X0.161000*%
%ADD368RECT_ROUNDED368*%
%ADD369R,0.070000X0.200000*%
%ADD370R,0.094488X0.129921*%
%ADD371R,0.053150X0.129921*%
%ADD372C,0.267717*%
%ADD373R,0.433071X0.433071*%
%ADD374RECT_ROUNDED374*%
%ADD375R,0.183071X0.104331*%
%ADD376C,0.125000*%
%ADD377R,0.219036X0.219033*%
%ADD378R,0.134173X0.079055*%
%ADD379R,0.014314X0.019230*%
%ADD380C,0.288606*%
%ADD381R,0.033000X0.165000*%
%ADD382RECT_ROUNDED382*%
%ADD383RECT_ROUNDED383*%
%ADD384C,0.041000*%
%ADD385R,0.579625X0.156017*%
%ADD386R,0.038944X0.021454*%
%ADD387R,0.494885X0.112822*%
%ADD388R,0.009343X0.070440*%
%ADD389R,0.026564X0.008702*%
%ADD390R,0.023175X0.062105*%
%ADD391R,0.405774X0.130015*%
%ADD392R,0.011894X0.089666*%
%ADD393R,0.033815X0.011077*%
%ADD394R,0.466047X0.123006*%
%ADD395R,0.418150X0.114700*%
%ADD396R,0.011024X0.057675*%
%ADD397R,0.417901X0.131531*%
%ADD398C,0.036380*%
%ADD399C,0.001959*%
%ADD400R,0.000370X0.000710*%
%ADD401C,0.001359*%
%ADD402R,0.730506X0.156017*%
%ADD403R,0.072876X0.024836*%
%ADD404R,0.029499X0.079055*%
%ADD405R,0.384320X0.130015*%
%ADD406R,0.289400X0.118700*%
%ADD407C,0.018500*%
%ADD408R,0.231250X0.098950*%
%ADD409R,0.240325X0.098950*%
%ADD410R,0.508535X0.111815*%
%ADD411R,0.030594X0.016854*%
%ADD412R,0.377673X0.130015*%
%LNhoriz_0*%
%LPD*%
G36*
X1287382Y473600D02*
G01X1287827Y472935D01*
X1287754Y472761D01*
X1287616Y471710D01*
Y470935D01*
X1299786D01*
Y471710D01*
X1299647Y472761D01*
X1299575Y472935D01*
X1300020Y473600D01*
X1546524D01*
X1546584Y473588D01*
X1546643Y473600D01*
X1554401D01*
X1554458Y473588D01*
X1554516Y473600D01*
X1562273D01*
X1562332Y473588D01*
X1562392Y473600D01*
X1576797D01*
Y425801D01*
X1568407D01*
X1568198Y426304D01*
X1567717Y426931D01*
X1567091Y427412D01*
X1566361Y427714D01*
X1565578Y427817D01*
X1564795Y427714D01*
X1564065Y427412D01*
X1563438Y426931D01*
X1562957Y426304D01*
X1562749Y425801D01*
X1553152D01*
X1552846Y426540D01*
X1553476Y427170D01*
X1553671Y427132D01*
X1554588Y427314D01*
X1555365Y427833D01*
X1555885Y428611D01*
X1556067Y429528D01*
X1555885Y430445D01*
X1555365Y431222D01*
X1554588Y431741D01*
X1553671Y431924D01*
X1552754Y431741D01*
X1551977Y431222D01*
X1551457Y430445D01*
X1551275Y429528D01*
X1551314Y429333D01*
X1547781Y425801D01*
X1545081D01*
X1544775Y426540D01*
X1547965Y429729D01*
X1548159Y429691D01*
X1549076Y429873D01*
X1549853Y430392D01*
X1550373Y431170D01*
X1550555Y432087D01*
X1550373Y433004D01*
X1549853Y433781D01*
X1549076Y434300D01*
X1548159Y434483D01*
X1547242Y434300D01*
X1546465Y433781D01*
X1545946Y433004D01*
X1545763Y432087D01*
X1545802Y431892D01*
X1539839Y425929D01*
X1494333D01*
X1483783Y436480D01*
X1483287Y436812D01*
X1482701Y436928D01*
X1330399D01*
X1329813Y436812D01*
X1329317Y436480D01*
X1323267Y430429D01*
X1272000D01*
Y473600D01*
X1287382D01*
G37*
G36*
X1292800Y326100D02*
G01Y310201D01*
X1207953Y310200D01*
X1207660Y310396D01*
X1206742Y310579D01*
X1205826Y310396D01*
X1205532Y310200D01*
X1160180D01*
X1159529Y311000D01*
X1159585Y311285D01*
X1159403Y312202D01*
X1158884Y312979D01*
X1158106Y313499D01*
X1157189Y313681D01*
X1156800Y313604D01*
X1156000Y314206D01*
Y323949D01*
X1194143D01*
X1194728Y324066D01*
X1194981Y324235D01*
X1195243Y324183D01*
X1196160Y324365D01*
X1196937Y324884D01*
X1197456Y325662D01*
X1197543Y326100D01*
X1292800D01*
G37*
G36*
X1271383Y233700D02*
G01X1271645Y232984D01*
X1271544Y232452D01*
X1271186Y231917D01*
X1271004Y231000D01*
X1271186Y230083D01*
X1271706Y229306D01*
X1272483Y228786D01*
X1273400Y228604D01*
X1274317Y228786D01*
X1275094Y229306D01*
X1275614Y230083D01*
X1275796Y231000D01*
X1275614Y231917D01*
X1275256Y232452D01*
X1275155Y232984D01*
X1275417Y233700D01*
X1289509D01*
X1289706Y233406D01*
X1290483Y232886D01*
X1291400Y232704D01*
X1292317Y232886D01*
X1293094Y233406D01*
X1293291Y233700D01*
X1294263D01*
X1294369Y233542D01*
X1295146Y233023D01*
X1296063Y232840D01*
X1296980Y233023D01*
X1297757Y233542D01*
X1297863Y233700D01*
X1298835D01*
X1299032Y233406D01*
X1299809Y232886D01*
X1300726Y232704D01*
X1301643Y232886D01*
X1302420Y233406D01*
X1302617Y233700D01*
X1394010D01*
X1394295Y233166D01*
X1394368Y232900D01*
X1394204Y232076D01*
X1394387Y231159D01*
X1394906Y230382D01*
X1395683Y229863D01*
X1396600Y229680D01*
X1397517Y229863D01*
X1398294Y230382D01*
X1398814Y231159D01*
X1398996Y232076D01*
X1398832Y232900D01*
X1398905Y233166D01*
X1399190Y233700D01*
X1484527D01*
X1484786Y233404D01*
Y229354D01*
X1484890Y228564D01*
X1485195Y227828D01*
X1485680Y227196D01*
X1486312Y226711D01*
X1487048Y226407D01*
X1487837Y226303D01*
X1491887D01*
X1492677Y226407D01*
X1493413Y226711D01*
X1494045Y227196D01*
X1494530Y227828D01*
X1494834Y228564D01*
X1494938Y229354D01*
Y232900D01*
X1495616Y233700D01*
X1591676D01*
Y230554D01*
X1591780Y229764D01*
X1592085Y229028D01*
X1592570Y228396D01*
X1593201Y227911D01*
X1593937Y227607D01*
X1594727Y227503D01*
X1598777D01*
X1599567Y227607D01*
X1600303Y227911D01*
X1600935Y228396D01*
X1601419Y229028D01*
X1601724Y229764D01*
X1601828Y230554D01*
Y233700D01*
X1697961D01*
Y129001D01*
X1655919D01*
X1655426Y129563D01*
X1655323Y130346D01*
X1655021Y131076D01*
X1654540Y131703D01*
X1653913Y132184D01*
X1653183Y132486D01*
X1652400Y132589D01*
X1651617Y132486D01*
X1650887Y132184D01*
X1650260Y131703D01*
X1649780Y131076D01*
X1649477Y130346D01*
X1649374Y129563D01*
X1648881Y129001D01*
X1635162D01*
X1634781Y129381D01*
X1634285Y129713D01*
X1633700Y129829D01*
X1512742D01*
X1512471Y130629D01*
X1512736Y130833D01*
X1513217Y131459D01*
X1513519Y132189D01*
X1513622Y132972D01*
X1513519Y133756D01*
X1513217Y134485D01*
X1512736Y135112D01*
X1512109Y135593D01*
X1511379Y135895D01*
X1510596Y135998D01*
X1509813Y135895D01*
X1509083Y135593D01*
X1508456Y135112D01*
X1507976Y134485D01*
X1507673Y133756D01*
X1507570Y132972D01*
X1507673Y132189D01*
X1507976Y131459D01*
X1508456Y130833D01*
X1508722Y130629D01*
X1508450Y129829D01*
X1395345D01*
X1395073Y130629D01*
X1395338Y130833D01*
X1395819Y131459D01*
X1396121Y132189D01*
X1396224Y132972D01*
X1396121Y133756D01*
X1395819Y134485D01*
X1395338Y135112D01*
X1394711Y135593D01*
X1393982Y135895D01*
X1393198Y135998D01*
X1392415Y135895D01*
X1391686Y135593D01*
X1391059Y135112D01*
X1390578Y134485D01*
X1390276Y133756D01*
X1390172Y132972D01*
X1390276Y132189D01*
X1390578Y131459D01*
X1391059Y130833D01*
X1391324Y130629D01*
X1391052Y129829D01*
X1285699D01*
X1285427Y130629D01*
X1285692Y130833D01*
X1286173Y131459D01*
X1286476Y132189D01*
X1286579Y132972D01*
X1286476Y133756D01*
X1286173Y134485D01*
X1285692Y135112D01*
X1285066Y135593D01*
X1284336Y135895D01*
X1283553Y135998D01*
X1282770Y135895D01*
X1282040Y135593D01*
X1281413Y135112D01*
X1280932Y134485D01*
X1280630Y133756D01*
X1280527Y132972D01*
X1280630Y132189D01*
X1280932Y131459D01*
X1281413Y130833D01*
X1281678Y130629D01*
X1281407Y129829D01*
X1270934D01*
X1262281Y138481D01*
X1261785Y138813D01*
X1261200Y138929D01*
X1231300D01*
Y163571D01*
X1280128D01*
X1280662Y162771D01*
X1280630Y162693D01*
X1280527Y161909D01*
X1280630Y161126D01*
X1280932Y160397D01*
X1281413Y159770D01*
X1282040Y159289D01*
X1282770Y158987D01*
X1283553Y158884D01*
X1284336Y158987D01*
X1285066Y159289D01*
X1285692Y159770D01*
X1286173Y160397D01*
X1286476Y161126D01*
X1286485Y161201D01*
X1286940Y161917D01*
X1287348Y161926D01*
X1358212D01*
X1358699Y161438D01*
X1359196Y161106D01*
X1359781Y160990D01*
X1362819D01*
X1363404Y161106D01*
X1363901Y161438D01*
X1364334Y161871D01*
X1368310D01*
X1368420Y161706D01*
X1369197Y161186D01*
X1370114Y161004D01*
X1371031Y161186D01*
X1371808Y161706D01*
X1372328Y162483D01*
X1372510Y163400D01*
X1372328Y164317D01*
X1371808Y165094D01*
X1371031Y165614D01*
X1370114Y165796D01*
X1369197Y165614D01*
X1368420Y165094D01*
X1368310Y164929D01*
X1363700D01*
X1363115Y164813D01*
X1362619Y164481D01*
X1362186Y164049D01*
X1360414D01*
X1359927Y164536D01*
X1359430Y164868D01*
X1358845Y164984D01*
X1287579D01*
X1286381Y166181D01*
X1285885Y166513D01*
X1285300Y166629D01*
X1231300D01*
Y171671D01*
X1293969D01*
X1296774Y168866D01*
X1297270Y168534D01*
X1297856Y168418D01*
X1301547D01*
X1302133Y168534D01*
X1302629Y168866D01*
X1306345Y172582D01*
X1349660D01*
X1350316Y171782D01*
X1350292Y171662D01*
X1350475Y170745D01*
X1350994Y169968D01*
X1351771Y169448D01*
X1352688Y169266D01*
X1353605Y169448D01*
X1354383Y169968D01*
X1354902Y170745D01*
X1355084Y171662D01*
X1355060Y171782D01*
X1355717Y172582D01*
X1416713D01*
X1417224Y171951D01*
X1417210Y171782D01*
X1417076Y170768D01*
X1417212Y169736D01*
X1417610Y168774D01*
X1418244Y167949D01*
X1419070Y167315D01*
X1420031Y166917D01*
X1421063Y166781D01*
X1422095Y166917D01*
X1423056Y167315D01*
X1423882Y167949D01*
X1424516Y168774D01*
X1424914Y169736D01*
X1425050Y170768D01*
X1424916Y171782D01*
X1424902Y171951D01*
X1425412Y172582D01*
X1456722D01*
X1457379Y171782D01*
X1457355Y171662D01*
X1457537Y170745D01*
X1458057Y169967D01*
X1458834Y169448D01*
X1459751Y169266D01*
X1460668Y169448D01*
X1461445Y169967D01*
X1461965Y170745D01*
X1462147Y171662D01*
X1462123Y171782D01*
X1462780Y172582D01*
X1477055D01*
X1479143Y170494D01*
X1479104Y170300D01*
X1479287Y169383D01*
X1479806Y168606D01*
X1480583Y168086D01*
X1481500Y167904D01*
X1482417Y168086D01*
X1483194Y168606D01*
X1483714Y169383D01*
X1483896Y170300D01*
X1483714Y171217D01*
X1483194Y171994D01*
X1482417Y172514D01*
X1481500Y172696D01*
X1481306Y172657D01*
X1478770Y175193D01*
X1478274Y175525D01*
X1477688Y175641D01*
X1425262D01*
X1425143Y175820D01*
X1425570Y176620D01*
X1491223D01*
X1491925Y175820D01*
X1491921Y175787D01*
X1492024Y175004D01*
X1492326Y174274D01*
X1492807Y173648D01*
X1493434Y173167D01*
X1494163Y172865D01*
X1494947Y172762D01*
X1495730Y172865D01*
X1496459Y173167D01*
X1497086Y173648D01*
X1497567Y174274D01*
X1497869Y175004D01*
X1497972Y175787D01*
X1497968Y175820D01*
X1498670Y176620D01*
X1589303D01*
X1589413Y176455D01*
X1590190Y175936D01*
X1591107Y175754D01*
X1592024Y175936D01*
X1592801Y176455D01*
X1593321Y177233D01*
X1593503Y178150D01*
X1593321Y179066D01*
X1592801Y179844D01*
X1592024Y180363D01*
X1591107Y180546D01*
X1590190Y180363D01*
X1589413Y179844D01*
X1589303Y179679D01*
X1497602D01*
X1497312Y179969D01*
X1496816Y180300D01*
X1496231Y180417D01*
X1493662D01*
X1493077Y180300D01*
X1492581Y179969D01*
X1492291Y179679D01*
X1303484D01*
X1303229Y179934D01*
X1302732Y180266D01*
X1302147Y180382D01*
X1297053D01*
X1296468Y180266D01*
X1295971Y179934D01*
X1295716Y179679D01*
X1287160D01*
X1286651Y180479D01*
X1286767Y181057D01*
Y183707D01*
X1286586Y184614D01*
X1286072Y185383D01*
X1285303Y185897D01*
X1284396Y186077D01*
X1281746D01*
X1280839Y185897D01*
X1280070Y185383D01*
X1279556Y184614D01*
X1279416Y183911D01*
X1231300D01*
Y209169D01*
X1231621Y209587D01*
X1231923Y210317D01*
X1232026Y211100D01*
X1231923Y211883D01*
X1231621Y212613D01*
X1231300Y213031D01*
Y233700D01*
X1271383D01*
G37*
%LNhoriz_1*%
%LPC*%
G36*
X1247468Y229374D02*
G01X1244818D01*
X1243910Y229194D01*
X1243141Y228680D01*
X1242627Y227911D01*
X1242447Y227004D01*
Y224354D01*
X1242627Y223447D01*
X1243141Y222677D01*
X1243910Y222164D01*
X1244818Y221983D01*
X1247468D01*
X1248375Y222164D01*
X1249144Y222677D01*
X1249658Y223447D01*
X1249838Y224354D01*
Y227004D01*
X1249658Y227911D01*
X1249144Y228680D01*
X1248375Y229194D01*
X1247468Y229374D01*
G37*
G54D324*
X1655281Y157776D03*
G54D316*
X1393198Y161909D03*
G36*
X1292451Y468435D02*
G01X1287616D01*
Y467660D01*
X1287754Y466609D01*
X1288160Y465630D01*
X1288805Y464789D01*
X1289646Y464144D01*
X1290625Y463739D01*
X1291676Y463600D01*
X1292451D01*
Y468435D01*
G37*
G54D324*
X1290580Y446850D03*
G54D287*
X1284900Y316732D03*
X1205943Y316379D03*
X1197343Y320079D03*
X1227512Y318779D03*
G54D316*
X1601639Y196161D03*
X1634832Y195669D03*
X1611876Y188091D03*
X1505183Y187402D03*
X1494947Y195472D03*
G54D324*
X1531594Y194488D03*
G54D316*
X1273120Y138583D03*
X1320650Y139124D03*
X1336890D03*
X1433465D03*
X1441535D03*
X1382765Y138583D03*
X1652400Y137781D03*
X1617289Y133661D03*
G54D287*
X1580315Y137500D03*
G54D316*
X1503214Y139468D03*
G54D287*
X1661938Y141337D03*
G54D316*
X1609907Y140157D03*
G54D287*
X1569464Y171268D03*
X1676157Y171957D03*
G36*
X1299786Y468435D02*
G01X1294951D01*
Y463600D01*
X1295726D01*
X1296777Y463739D01*
X1297756Y464144D01*
X1298597Y464789D01*
X1299242Y465630D01*
X1299647Y466609D01*
X1299786Y467660D01*
Y468435D01*
G37*
G54D316*
X1327953Y449114D03*
G54D287*
X1307706Y442991D03*
X1348848Y467594D03*
G36*
X1348205Y461865D02*
G01X1345555D01*
X1344647Y461684D01*
X1343878Y461171D01*
X1343364Y460401D01*
X1343184Y459494D01*
Y456844D01*
X1343364Y455937D01*
X1343878Y455168D01*
X1344647Y454654D01*
X1345555Y454474D01*
X1348205D01*
X1349112Y454654D01*
X1349881Y455168D01*
X1350395Y455937D01*
X1350575Y456844D01*
Y459494D01*
X1350395Y460401D01*
X1349881Y461171D01*
X1349112Y461684D01*
X1348205Y461865D01*
G37*
G54D316*
X1388976Y464075D03*
G54D287*
X1320675Y463189D03*
G54D316*
X1517155Y430937D03*
G54D287*
X1472319Y444882D03*
G54D324*
X1442028Y449902D03*
G54D316*
X1513285Y454035D03*
G54D287*
X1512600Y464000D03*
G54D316*
X1513285Y443701D03*
X1568374Y444193D03*
G54D287*
X1273500Y203200D03*
X1265100Y195300D03*
G54D316*
X1319512Y206595D03*
X1344315D03*
X1327682D03*
X1335752D03*
G36*
X1299410Y204462D02*
G01X1298493Y204280D01*
X1297715Y203760D01*
X1297196Y202983D01*
X1297014Y202066D01*
X1297180Y201229D01*
X1297137Y201007D01*
X1296828Y200429D01*
X1295926D01*
X1294484Y201872D01*
X1294522Y202066D01*
X1294340Y202983D01*
X1293820Y203760D01*
X1293043Y204280D01*
X1292126Y204462D01*
X1291209Y204280D01*
X1290432Y203760D01*
X1289912Y202983D01*
X1289730Y202066D01*
X1289912Y201149D01*
X1290432Y200372D01*
X1291209Y199853D01*
X1292126Y199670D01*
X1292321Y199709D01*
X1294211Y197819D01*
X1294707Y197487D01*
X1295292Y197371D01*
X1409096D01*
X1409206Y197206D01*
X1409983Y196686D01*
X1410900Y196504D01*
X1411817Y196686D01*
X1412594Y197206D01*
X1413114Y197983D01*
X1413296Y198900D01*
X1413114Y199817D01*
X1412594Y200594D01*
X1411817Y201114D01*
X1410900Y201296D01*
X1409983Y201114D01*
X1409206Y200594D01*
X1409096Y200429D01*
X1301991D01*
X1301682Y201007D01*
X1301639Y201229D01*
X1301806Y202066D01*
X1301623Y202983D01*
X1301104Y203760D01*
X1300327Y204280D01*
X1299410Y204462D01*
G37*
G54D316*
X1442815Y206594D03*
X1451378D03*
X1426575D03*
X1434744D03*
X1442815Y214665D03*
X1426575D03*
X1434744D03*
G54D287*
X1380200Y214700D03*
X1395738Y214907D03*
G54D316*
X1451378Y214665D03*
X1335752D03*
X1344315D03*
X1327682D03*
X1319512D03*
X1273120Y147441D03*
Y155807D03*
G54D287*
X1679163Y153099D03*
G54D316*
X1499474Y154724D03*
X1606167Y155413D03*
X1441535Y155561D03*
X1382765Y155807D03*
X1336890Y155561D03*
X1328819D03*
X1433465D03*
X1320650D03*
X1441535Y147342D03*
X1320650Y147343D03*
X1433465Y147342D03*
X1336890Y147343D03*
G54D287*
X1670895Y151918D03*
G54D316*
X1382765Y147441D03*
G54D283*
X1541142Y149606D03*
G54D316*
X1508628Y145177D03*
X1615321Y145866D03*
X1652400Y146000D03*
G54D287*
X1562894Y144587D03*
X1580413Y144980D03*
G54D316*
X1462009Y146556D03*
X1358268Y144980D03*
X1601639Y176476D03*
X1506265Y165453D03*
X1494947Y164075D03*
G54D287*
X1588900Y165000D03*
X1571800Y163700D03*
X1693484Y165716D03*
G54D316*
X1612958Y166142D03*
%LNhoriz_2*%
%LPD*%
G54D265*
X1196300Y106200D03*
G54D236*
X1206650Y108750D02*
G01X1237800Y77600D01*
X1196300Y106200D02*
G01X1233300Y69200D01*
G54D11*
X1026636Y103436D02*
G01X1031100Y107900D01*
X796250Y279350D02*
G01X810100Y265500D01*
X790000Y274500D02*
G01X802000Y262500D01*
X788200Y271500D02*
G01X800200Y259500D01*
X522400D02*
G01X531400Y268500D01*
G54D265*
X826400D03*
X779900D03*
X506630Y267426D03*
G54D11*
X531400Y268500D02*
G01X779900D01*
G54D265*
X175689Y358020D03*
G54D16*
X132708Y315039D02*
G01X175689Y358020D01*
G54D11*
X761100Y357900D02*
G01X762000Y357000D01*
X756100D02*
G01X757000Y357900D01*
X747300Y357000D02*
G01X756100D01*
X744300Y360000D02*
G01X747300Y357000D01*
X601100Y364200D02*
G01X612750Y352550D01*
X762000Y357000D02*
G01X848900D01*
G54D265*
X848856D03*
G54D11*
X735700Y262500D02*
G01X762598D01*
X643700Y265500D02*
G01X766437D01*
X620177Y247500D02*
G01X756853D01*
X502067Y250500D02*
G01X751900D01*
X672800Y241500D02*
G01X770753D01*
X675600Y238500D02*
G01X818647D01*
X526378Y259500D02*
G01X759500D01*
X738287Y235487D02*
G01X832647D01*
X719800Y253500D02*
G01X797100D01*
X736000Y446500D02*
G01X737800Y444700D01*
G54D265*
D03*
X729700Y449500D03*
G54D11*
X714100Y453200D02*
G01X725002Y464102D01*
X711700Y456300D02*
G01X722300Y466900D01*
X684600Y460800D02*
G01X692500Y468700D01*
X737600Y466900D02*
G01X739100Y468400D01*
X627000Y473200D02*
G01X668600D01*
X692500Y468700D02*
G01X707600D01*
D02*
G01X709400Y470500D01*
D02*
G01X735700D01*
X718300Y475000D02*
G01X728800D01*
G54D265*
X668600Y473200D03*
X735700Y470500D03*
X739100Y468400D03*
G54D11*
X725002Y464102D02*
G01X738102D01*
X722300Y466900D02*
G01X737600D01*
G54D265*
X738102Y464102D03*
X669900Y477300D03*
G54D11*
X728800Y475000D02*
G01X730700Y476900D01*
X713843Y479457D02*
G01X718300Y475000D01*
X677800Y464400D02*
G01X692531Y479131D01*
X677092Y468392D02*
G01X709800Y501100D01*
X618200Y482000D02*
G01X627000Y473200D01*
X771100Y476900D02*
G01X773800Y479600D01*
X730700Y476900D02*
G01X771100D01*
X627500Y477300D02*
G01X669900D01*
G54D265*
X796284Y482087D03*
X773800Y479600D03*
G54D11*
X693857Y479457D02*
G01X713843D01*
X693531Y479131D02*
G01X693857Y479457D01*
G54D265*
X716346Y482087D03*
X693857Y479457D03*
X671600Y481200D03*
G54D11*
X716346Y482087D02*
G01X796284D01*
X629300Y481200D02*
G01X671600D01*
X692531Y479131D02*
G01X693531D01*
X619700Y485100D02*
G01X627500Y477300D01*
X682200Y485000D02*
G01X695200Y498000D01*
G54D265*
X719594Y486221D03*
G54D11*
X622300Y488200D02*
G01X629300Y481200D01*
X623800Y492000D02*
G01X630800Y485000D01*
D02*
G01X682200D01*
G54D265*
X799532Y486221D03*
G54D11*
X666600Y241500D02*
G01X669600Y244500D01*
G54D265*
X147736Y223500D03*
G54D11*
X55178Y220306D02*
G01X55373Y220500D01*
X54262Y220306D02*
G01X55178D01*
X53937Y219980D02*
G01X54262Y220306D01*
G54D265*
X53937Y220480D03*
X57974Y217500D03*
G54D11*
D02*
G01X639700D01*
X55373Y220500D02*
G01X664300D01*
G54D265*
X654800Y217500D03*
G54D11*
X688300Y214961D02*
G01X692500D01*
X147736Y223500D02*
G01X660600D01*
G54D265*
X639700Y217700D03*
G54D11*
X569900Y215100D02*
G01X573700D01*
X664300Y220500D02*
G01X679300Y235500D01*
X660600Y223500D02*
G01X675600Y238500D01*
G54D265*
X656700Y226500D03*
X172173D03*
G54D11*
X670000Y339100D02*
G01X760900D01*
X631100Y311500D02*
G01X686900D01*
X651173Y316773D02*
G01X693589D01*
X636346Y322000D02*
G01X716284D01*
X639594Y326134D02*
G01X718432D01*
X642940Y330169D02*
G01X721779D01*
X646090Y333811D02*
G01X702700D01*
X561650Y293950D02*
G01X831650D01*
X627819Y346519D02*
G01X801724D01*
X603350Y279350D02*
G01X796250D01*
X900200Y253500D02*
G01X911600Y242100D01*
X911024Y395700D02*
G01X911107Y395617D01*
G54D16*
X907922Y337980D02*
G01X928398D01*
G54D11*
X1472800Y298900D02*
G01X1506000Y265700D01*
X1675400Y268700D02*
G01X1687800Y256300D01*
X1048024Y265500D02*
G01X1051345Y268821D01*
X969398Y228102D02*
G01X978036Y219464D01*
X1074600Y217200D02*
G01X1158000D01*
G54D265*
X1296063Y219882D03*
G54D11*
X1072336Y219464D02*
G01X1074600Y217200D01*
X953242Y215642D02*
G01X955300Y217700D01*
D02*
G01X971400D01*
X978036Y219464D02*
G01X1072336D01*
X956800Y235050D02*
G01X961978Y240228D01*
X1275555Y262600D02*
G01X1582300D01*
X1266830Y256500D02*
G01X1621500D01*
G54D265*
X1582300Y262500D03*
X1589800Y265600D03*
G54D11*
X1506000Y265700D02*
G01X1589800D01*
G54D265*
X1621500Y256500D03*
X1687800Y256300D03*
G54D11*
X948200Y248400D02*
G01X971800D01*
G54D265*
X961978Y243338D03*
G54D11*
X971800Y248400D02*
G01X972671Y247529D01*
X961978Y240228D02*
G01Y243338D01*
G54D265*
X964700Y256500D03*
G54D11*
X952414D02*
G01X964700D01*
X952018Y256895D02*
G01X952414Y256500D01*
X949989Y256895D02*
G01X952018D01*
X949593Y256500D02*
G01X949989Y256895D01*
X972671Y247529D02*
G01X1147071D01*
X172700Y160000D02*
G01X176713Y155987D01*
G54D234*
X1239400Y159700D03*
G54D11*
X149606Y149705D02*
G01X159902Y160000D01*
X752800Y163600D02*
G01X760600Y155800D01*
X807300D02*
G01X816900Y165400D01*
G54D265*
X1108800Y160100D03*
X1024200Y159019D03*
G54D11*
X1016200Y158500D02*
G01X1020000Y162300D01*
X1018081Y152900D02*
G01X1024200Y159019D01*
G54D234*
X1474800Y158600D03*
G54D11*
X1201900Y208300D02*
G01X1227818Y182382D01*
X1202986Y173200D02*
G01X1294603D01*
X1202649Y165100D02*
G01X1285300D01*
X1190051Y178100D02*
G01X1284868D01*
G54D256*
X1283071Y182382D03*
G54D11*
X1227818D02*
G01X1283071D01*
X1335300Y432300D02*
G01X1481557D01*
X1307800Y368300D02*
G01X1480100D01*
G54D16*
X1394261Y385433D02*
G01X1412367D01*
G54D11*
X1311948Y389300D02*
G01X1418150D01*
X1312400Y338600D02*
G01X1680100D01*
X1336565Y393900D02*
G01X1471700D01*
X1336700Y397300D02*
G01X1477100D01*
X1203218Y301969D02*
G01X1481700D01*
X1205400Y305000D02*
G01X1492000D01*
X1256385Y414315D02*
G01X1471185D01*
X1330399Y435399D02*
G01X1482701D01*
G54D16*
X1286849Y383200D02*
G01X1316919D01*
G54D11*
X1266000Y389300D02*
G01X1308505D01*
G54D237*
X1232600Y335100D02*
G01X1360800D01*
G54D240*
X1262300Y328900D02*
G01X1335000D01*
G54D11*
X1264800Y393900D02*
G01X1330619D01*
X1261300Y428900D02*
G01X1323900D01*
G54D201*
X1293701Y469685D03*
G54D11*
X1228700Y351300D02*
G01X1299700D01*
X1264400Y422300D02*
G01X1325300D01*
X1195535Y424000D02*
G01X1256400D01*
D02*
G01X1261300Y428900D01*
G54D265*
X1256791Y428543D03*
G54D11*
X1246764Y414402D02*
G01X1250068Y417706D01*
X1262806Y420706D02*
G01X1264400Y422300D01*
X1250068Y417706D02*
G01X1252994D01*
X1215906Y420706D02*
G01X1262806D01*
X1212602Y417402D02*
G01X1215906Y420706D01*
X1252994Y417706D02*
G01X1256385Y414315D01*
X1254735Y430600D02*
G01X1256791Y428543D01*
X1246100Y430600D02*
G01X1254735D01*
X1244400Y428900D02*
G01X1246100Y430600D01*
X1000900Y383300D02*
G01X1007500Y389900D01*
G54D265*
X1185400Y386200D03*
G54D11*
X1042620Y378020D02*
G01X1050800Y386200D01*
G54D244*
X987824Y30100D02*
G01X1179120D01*
G54D11*
X1265344Y506940D02*
G01Y511756D01*
X1260344Y506940D02*
G01Y511356D01*
X1258500Y518600D02*
G01X1265344Y511756D01*
G54D265*
Y506940D03*
X1260344D03*
G54D11*
X1256800Y514900D02*
G01X1260344Y511356D01*
X1220100Y514900D02*
G01X1256800D01*
X1218567Y518600D02*
G01X1258500D01*
X1211400Y506200D02*
G01X1220100Y514900D01*
X1209867Y509900D02*
G01X1218567Y518600D01*
G54D265*
X1430170Y531457D03*
X1347800Y499708D03*
G54D256*
X1355512Y520374D03*
G54D236*
X1347800Y499708D02*
G01X1431592D01*
X1355512Y520374D02*
G01Y529912D01*
D02*
G01X1363600Y538000D01*
D02*
G01X1423627D01*
D02*
G01X1430170Y531457D01*
X1431592Y499708D02*
G01X1431600Y499700D01*
G54D265*
D03*
G54D11*
X1100000Y353281D02*
G01X1144981Y308300D01*
X1097000Y350200D02*
G01X1142071Y305129D01*
X1094100Y347200D02*
G01X1143471Y297829D01*
G54D265*
X1172100Y378200D03*
G54D11*
X1046000Y374500D02*
G01X1053400Y381900D01*
X954168Y363868D02*
G01X957015Y366715D01*
X1163706Y356794D02*
G01X1169200Y351300D01*
X1164493Y359794D02*
G01X1165328Y360629D01*
D02*
G01X1167357D01*
D02*
G01X1167886Y360100D01*
G54D265*
X1176800Y348409D03*
G54D11*
D02*
G01X1182410Y342800D01*
G54D265*
X1288769Y322441D03*
X1280600Y323209D03*
X1272762D03*
X1262300Y328900D03*
G54D240*
X1259800D02*
G01X1262300D01*
G54D265*
X1276500Y318200D03*
X1272762Y312700D03*
X1280600D03*
G54D11*
X1202100Y308300D02*
G01X1205400Y305000D01*
X1200057Y305129D02*
G01X1203218Y301969D01*
G54D265*
X1195243Y326579D03*
G54D11*
X1194143Y325479D02*
G01X1195243Y326579D01*
G54D265*
X1232600Y335100D03*
X1266000Y389300D03*
G54D11*
X1252800Y381900D02*
G01X1264800Y393900D01*
G54D265*
X1284616Y385433D03*
G54D16*
D02*
G01X1286849Y383200D01*
G54D265*
X1258400Y342800D03*
G54D11*
X1202786Y360100D02*
G01X1280200D01*
X1271400Y366715D02*
G01X1271443D01*
G54D265*
X1271400D03*
G54D11*
X1202757Y360129D02*
G01X1202786Y360100D01*
X1200728Y360129D02*
G01X1202757D01*
X1200699Y360100D02*
G01X1200728Y360129D01*
G54D265*
X1280200Y360100D03*
G54D11*
X1225500Y354500D02*
G01X1228700Y351300D01*
X1222200Y354500D02*
G01X1225500D01*
X1219000Y351300D02*
G01X1222200Y354500D01*
G54D265*
X720500Y271500D03*
X752403Y301529D03*
G54D11*
X751388Y306559D02*
G01X753417D01*
X752403Y301529D02*
G01X794400D01*
X797484Y284050D02*
G01X807034Y274500D01*
G54D265*
X748900Y284000D03*
G54D11*
Y284050D02*
G01X797484D01*
X831650Y293950D02*
G01X835600Y297900D01*
G54D265*
X794400Y301529D03*
G54D11*
X712450Y274500D02*
G01X790000D01*
X720500Y271500D02*
G01X788200D01*
G54D265*
X712450Y274500D03*
G54D11*
X753417Y306559D02*
G01X755731Y308873D01*
X749074D02*
G01X751388Y306559D01*
X718289Y308873D02*
G01X749074D01*
X712938Y314224D02*
G01X718289Y308873D01*
X755731D02*
G01X792937D01*
G54D265*
D03*
G54D11*
X1076925Y469827D02*
G01X1106704Y440048D01*
X1075512Y463827D02*
G01X1107439Y431900D01*
X1074775Y466827D02*
G01X1106702Y434900D01*
X1070825Y460827D02*
G01X1102752Y428900D01*
X1053000Y509900D02*
G01X1057500Y514400D01*
D02*
G01X1149200D01*
X1058500Y506200D02*
G01X1062800Y510500D01*
D02*
G01X1144500D01*
X1080347Y476968D02*
G01X1104658Y452657D01*
X1144500Y510500D02*
G01X1148800Y506200D01*
X1149200Y514400D02*
G01X1153700Y509900D01*
X1078838Y473327D02*
G01X1105265Y446900D01*
G54D265*
X1181700Y488200D03*
G54D11*
X746900Y419800D02*
G01X758400Y431300D01*
X621241Y382759D02*
G01X771759D01*
X669000Y385800D02*
G01X770500D01*
X684666Y373634D02*
G01X831334D01*
X732886Y435599D02*
G01X849401D01*
X736100Y442000D02*
G01X849200D01*
X701300Y362559D02*
G01X789500D01*
G54D265*
X754744Y416338D03*
G54D11*
X693161Y214300D02*
G01X806239D01*
D02*
G01X806900Y214961D01*
X812000D02*
G01X812761Y214200D01*
D02*
G01X891100D01*
D02*
G01X893600Y211700D01*
G54D265*
X519000Y214500D03*
G54D11*
X569300D02*
G01X569900Y215100D01*
X519000Y214500D02*
G01X569300D01*
X573700Y215100D02*
G01X574300Y214500D01*
D02*
G01X687839D01*
D02*
G01X688300Y214961D01*
X692500D02*
G01X693161Y214300D01*
G54D265*
X1692657Y201257D03*
X1481459Y194327D03*
X1481656Y186257D03*
X1565849Y191330D03*
X1591073Y194032D03*
X1591270Y185961D03*
X1672541Y192019D03*
G54D11*
X840300Y130100D02*
G01X1102000D01*
X827200Y117000D02*
G01X840300Y130100D01*
G54D265*
X1102000D03*
G54D11*
X1261200Y137400D02*
G01X1270300Y128300D01*
X1181200Y265400D02*
G01X1184100Y262500D01*
X1177000Y265400D02*
G01X1181200D01*
X1174100Y262500D02*
G01X1177000Y265400D01*
X1165680Y256500D02*
G01X1174400D01*
X1164930Y257250D02*
G01X1165680Y256500D01*
X1157650Y257250D02*
G01X1164930D01*
X1134100Y259500D02*
G01X1137871Y255729D01*
X1174400Y256500D02*
G01X1176400Y254500D01*
D02*
G01X1182400D01*
D02*
G01X1184500Y256600D01*
X1137871Y255729D02*
G01X1140957D01*
D02*
G01X1141729Y256500D01*
D02*
G01X1156900D01*
D02*
G01X1157650Y257250D01*
X1147071Y247529D02*
G01X1151600Y243000D01*
D02*
G01X1163000D01*
X1184100Y262500D02*
G01X1246983D01*
X1184500Y256600D02*
G01X1255708D01*
X1246983Y262500D02*
G01X1248221Y263738D01*
D02*
G01X1274417D01*
D02*
G01X1275555Y262600D01*
X1255708Y256600D02*
G01X1259579Y252729D01*
D02*
G01X1263059D01*
D02*
G01X1266830Y256500D01*
X1162600Y207000D02*
G01X1184994Y184606D01*
X939300Y165100D02*
G01X1155426D01*
X834800Y178300D02*
G01X1079432D01*
X1029000Y160200D02*
G01X1108800D01*
X937400Y169600D02*
G01X1106890D01*
X936763Y173800D02*
G01X1100259D01*
X800200Y259500D02*
G01X1134100D01*
X826400Y268500D02*
G01X1025009D01*
X810100Y265500D02*
G01X1048024D01*
X802000Y262500D02*
G01X1174100D01*
X907179Y274500D02*
G01X1059559D01*
X835600Y297900D02*
G01X954271D01*
X895758Y215642D02*
G01X953242D01*
X941900Y242100D02*
G01X948200Y248400D01*
X926400Y256500D02*
G01X949593D01*
G54D16*
X941550Y253592D02*
G01X946250D01*
G54D265*
D03*
G54D11*
X907950Y235050D02*
G01X956800D01*
X907998Y228102D02*
G01X969398D01*
X870374Y482087D02*
G01X891634Y460827D01*
X872086Y486220D02*
G01X894480Y463827D01*
X878575Y501181D02*
G01X902788Y476968D01*
X877067Y497540D02*
G01X901279Y473327D01*
X875266Y493898D02*
G01X899337Y469827D01*
X873758Y490256D02*
G01X897187Y466827D01*
G54D244*
X1179120Y30100D02*
G01X1191953Y42933D01*
D02*
G01X1211212D01*
D02*
G01X1223145Y31000D01*
D02*
G01X1261300D01*
D02*
G01X1264400Y34100D01*
D02*
G01X1278619D01*
D02*
G01X1290500D01*
G54D234*
X1270400Y33700D03*
X1278619D03*
X1286837D03*
G54D236*
X1233300Y69200D02*
G01X1348918D01*
X1237800Y77600D02*
G01X1371800D01*
X1348918Y69200D02*
G01X1366937Y51181D01*
X1390559D02*
G01Y58841D01*
G54D265*
X1453200Y97600D03*
X1390158Y97736D03*
G54D193*
X1366937Y51181D03*
G54D194*
X1390559D03*
G54D16*
X1452964Y97736D02*
G01X1453200Y97500D01*
G54D236*
X1371800Y77600D02*
G01X1390559Y58841D01*
G54D16*
X1390158Y97736D02*
G01X1452964D01*
G54D265*
X502067Y250500D03*
X663500Y244500D03*
X620177Y247500D03*
X614700D03*
X412106D03*
X408268Y244500D03*
G54D11*
X412106Y247500D02*
G01X614700D01*
G54D265*
X740900Y244500D03*
G54D11*
X669600D02*
G01X740900D01*
X408268D02*
G01X663500D01*
X172173Y226500D02*
G01X656700D01*
G54D265*
X265846Y232500D03*
G54D11*
D02*
G01X663800D01*
G54D265*
X607500Y229500D03*
X176083D03*
G54D11*
D02*
G01X607500D01*
X663800Y232500D02*
G01X672800Y241500D01*
G54D265*
X290157Y235500D03*
X660100D03*
X723500D03*
X738287Y235487D03*
G54D11*
X679300Y235500D02*
G01X723500D01*
X290157D02*
G01X660100D01*
X294193Y238500D02*
G01X611100D01*
X383957Y241500D02*
G01X666600D01*
G54D265*
X294193Y238500D03*
X383957Y241500D03*
X611100Y238500D03*
G54D11*
X891957Y350200D02*
G01X1097000D01*
X852721Y389617D02*
G01X996717D01*
X846283Y386617D02*
G01X998816D01*
X844300Y383300D02*
G01X1000900D01*
X836080Y378020D02*
G01X1042620D01*
X770289Y421889D02*
G01X1004711D01*
X945332Y363868D02*
G01X954168D01*
X836900Y374500D02*
G01X1046000D01*
X851983Y392617D02*
G01X994293D01*
X911107Y395617D02*
G01X986375D01*
X924020Y425500D02*
G01X1006879D01*
X893200Y347200D02*
G01X1094100D01*
X889394Y356794D02*
G01X1163706D01*
X890681Y353281D02*
G01X1100000D01*
X943106Y359794D02*
G01X1164493D01*
X758400Y431300D02*
G01X1037102D01*
X894480Y463827D02*
G01X1075512D01*
X897187Y466827D02*
G01X1074775D01*
X899337Y469827D02*
G01X1076925D01*
X850700Y434300D02*
G01X1045700D01*
X853200Y438000D02*
G01X1088700D01*
X891634Y460827D02*
G01X1070825D01*
X901279Y473327D02*
G01X1078838D01*
X902788Y476968D02*
G01X1080347D01*
X936100Y506200D02*
G01X1058500D01*
X941200Y509900D02*
G01X1053000D01*
X923274Y424754D02*
G01X924020Y425500D01*
X920706Y424754D02*
G01X923274D01*
X919960Y425500D02*
G01X920706Y424754D01*
X932100Y510200D02*
G01X936100Y506200D01*
X935400Y515700D02*
G01X941200Y509900D01*
X959500Y155900D02*
G01X962100Y158500D01*
X944400Y152900D02*
G01X1018081D01*
X853223Y149705D02*
G01X967520D01*
X632911Y158600D02*
G01X651735D01*
X1031900Y137400D02*
G01X1261200D01*
G54D265*
X1368300Y136100D03*
G54D11*
X1062800Y140300D02*
G01X1074900D01*
X823622Y142422D02*
G01X853223D01*
G54D265*
X883268Y141437D03*
X863484Y140847D03*
X853223Y142422D03*
G54D236*
X882677Y140847D02*
G01X883268Y141437D01*
X863484Y140847D02*
G01X882677D01*
G54D265*
X952600Y141000D03*
G54D11*
D02*
G01X1028300D01*
D02*
G01X1031900Y137400D01*
X1172100Y378200D02*
G01X1297900D01*
X1053400Y381900D02*
G01X1252800D01*
X1182410Y342800D02*
G01X1258400D01*
X1167886Y360100D02*
G01X1200699D01*
X1169200Y351300D02*
G01X1219000D01*
X1167829Y298900D02*
G01X1472800D01*
X1144981Y308300D02*
G01X1202100D01*
X1142071Y305129D02*
G01X1200057D01*
X1150787Y325479D02*
G01X1194143D01*
X957015Y366715D02*
G01X1271400D01*
X1191938Y420402D02*
G01X1195535Y424000D01*
X1107439Y431900D02*
G01X1242600D01*
X1153700Y509900D02*
G01X1209867D01*
X1148800Y506200D02*
G01X1211400D01*
X1104658Y452657D02*
G01X1251083D01*
X1089043Y397157D02*
G01X1330157D01*
X1106704Y440048D02*
G01X1267530D01*
X1106702Y434900D02*
G01X1241100D01*
X1051000Y417402D02*
G01X1212602D01*
X1017976Y414402D02*
G01X1246764D01*
X1050709Y406000D02*
G01X1307466D01*
X1015400Y411200D02*
G01X1468500D01*
X1105265Y446900D02*
G01X1245423D01*
X1181700Y488200D02*
G01X1299202D01*
X1154500Y428900D02*
G01X1244400D01*
X1054591Y402591D02*
G01X1412622D01*
X651735Y158600D02*
G01X654348Y155987D01*
D02*
G01X699109D01*
D02*
G01X703484Y151611D01*
G54D265*
X735113Y149705D03*
G54D11*
X714001Y152693D02*
G01X716989Y149705D01*
D02*
G01X728150D01*
D03*
D02*
G01X735113D01*
D02*
G01X798072D01*
D02*
G01X800350Y147427D01*
X760600Y155800D02*
G01X807300D01*
X709283Y152693D02*
G01X714001D01*
X708202Y151611D02*
G01X709283Y152693D01*
X703484Y151611D02*
G01X708202D01*
X831745Y147427D02*
G01X834023Y149705D01*
X800350Y147427D02*
G01X831745D01*
G54D265*
X848700Y155900D03*
X853223Y149705D03*
G54D11*
X834023D02*
G01X853223D01*
G54D265*
X944400Y152900D03*
G54D11*
X848700Y155900D02*
G01X959500D01*
X855863Y167500D02*
G01X915900D01*
X587742Y172042D02*
G01X911000D01*
X822500Y163600D02*
G01X914500D01*
X933538Y165738D02*
G01X937400Y169600D01*
X915900Y167500D02*
G01X917662Y165738D01*
X912442Y170600D02*
G01X933563D01*
D02*
G01X936763Y173800D01*
X911000Y172042D02*
G01X912442Y170600D01*
X1026900Y162300D02*
G01X1029000Y160200D01*
X1020000Y162300D02*
G01X1026900D01*
X914500Y163600D02*
G01X916800Y161300D01*
D02*
G01X935500D01*
X917662Y165738D02*
G01X933538D01*
X935500Y161300D02*
G01X939300Y165100D01*
G54D265*
X722879Y330169D03*
G54D11*
X776236Y327622D02*
G01X778785Y330170D01*
X722879Y330169D02*
G01X771659D01*
D02*
G01X774206Y327622D01*
G54D265*
X802879Y330170D03*
G54D11*
X778785D02*
G01X802879D01*
X686900Y311500D02*
G01X689624Y314224D01*
D02*
G01X712938D01*
G54D265*
D03*
G54D11*
X713016Y317866D02*
G01X719010Y311873D01*
G54D265*
X716284Y322000D03*
X719533Y326135D03*
G54D11*
D02*
G01X719646Y326022D01*
X693589Y316773D02*
G01X694682Y317866D01*
D02*
G01X713016D01*
G54D265*
X694682D03*
G54D11*
X719646Y326022D02*
G01X799419D01*
X719010Y311873D02*
G01X797300D01*
X716284Y322000D02*
G01X747700D01*
G54D265*
X796285Y322001D03*
X799533Y326135D03*
G54D11*
X796197Y322089D02*
G01X796285Y322001D01*
X785630Y322089D02*
G01X796197D01*
X783289Y319748D02*
G01X785630Y322089D01*
G54D265*
X797300Y311873D03*
G54D11*
X799419Y326022D02*
G01X799533Y326135D01*
X749952Y319748D02*
G01X783289D01*
X774206Y327622D02*
G01X776236D01*
X747700Y322000D02*
G01X749952Y319748D01*
G54D265*
X766044Y420280D03*
G54D11*
X849401Y435599D02*
G01X850700Y434300D01*
X849200Y442000D02*
G01X853200Y438000D01*
X766044Y420280D02*
G01X768680D01*
X754744Y416338D02*
G01X763906Y425500D01*
X768680Y420280D02*
G01X770289Y421889D01*
G54D265*
X1027744Y271235D03*
G54D11*
X1025009Y268500D02*
G01X1027744Y271235D01*
G54D265*
X1051345Y268821D03*
X1149643Y272679D03*
X1135643Y272479D03*
X1110335Y286024D03*
G54D11*
X1149443Y272479D02*
G01X1149643Y272679D01*
X1143471Y297829D02*
G01X1166757D01*
D02*
G01X1167829Y298900D01*
X1098811Y274500D02*
G01X1110335Y286024D01*
X1064931Y274500D02*
G01X1098811D01*
X1063260Y276171D02*
G01X1064931Y274500D01*
X1061230Y276171D02*
G01X1063260D01*
X1059559Y274500D02*
G01X1061230Y276171D01*
X1135643Y272479D02*
G01X1149443D01*
X954271Y297900D02*
G01X960934Y304563D01*
G54D265*
X1150787Y325479D03*
G54D234*
X1162343Y313579D03*
X1167843Y320879D03*
G54D265*
X1107480Y317520D03*
X1072736Y311520D03*
G54D234*
D02*
G01X1078736Y317520D01*
D02*
G01X1107480D01*
G54D265*
X960934Y304563D03*
G54D11*
X598500Y274500D02*
G01X603350Y279350D01*
G54D265*
X583900Y281700D03*
G54D11*
X583440D02*
G01X583900D01*
X582640Y280900D02*
G01X583440Y281700D01*
X533957Y280900D02*
G01X582640D01*
G54D265*
X533957D03*
X547700Y274500D03*
G54D11*
X547300D02*
G01X547700D01*
D02*
G01X598500D01*
G54D265*
X420400Y306008D03*
G54D256*
X368700Y306967D03*
G54D265*
X550500Y305100D03*
G54D11*
D02*
G01X561650Y293950D01*
X705611Y142422D02*
G01X735113D01*
D02*
G01X735518D01*
X821514Y140313D02*
G01X823622Y142422D01*
X785433Y140313D02*
G01X821514D01*
X784355Y141391D02*
G01X785433Y140313D01*
X736549Y141391D02*
G01X784355D01*
X735518Y142422D02*
G01X736549Y141391D01*
G54D265*
X735113Y142422D03*
G54D11*
X618728Y141156D02*
G01X629744D01*
X703502Y140313D02*
G01X705611Y142422D01*
X667660Y140313D02*
G01X703502D01*
X666582Y141391D02*
G01X667660Y140313D01*
X648734Y141391D02*
G01X666582D01*
X646444Y139100D02*
G01X648734Y141391D01*
X631800Y139100D02*
G01X646444D01*
X629744Y141156D02*
G01X631800Y139100D01*
X588200Y439300D02*
G01X595400Y446500D01*
X599900Y435700D02*
G01X602609Y438410D01*
X450100Y428500D02*
G01X477992D01*
G54D265*
X472500Y409500D03*
X472200Y398200D03*
G54D11*
X439500Y509700D02*
G01X505495D01*
G54D265*
X470043Y531528D03*
G54D11*
D02*
G01X473916Y535400D01*
X444400Y448000D02*
G01X472820D01*
X441895Y503695D02*
G01X500705D01*
X440995Y506695D02*
G01X504105D01*
X443716Y500695D02*
G01X497405D01*
X463200Y432700D02*
G01X472300Y441800D01*
X431783Y421922D02*
G01X512048D01*
G54D205*
X95374Y315039D03*
G54D16*
D02*
G01X132708D01*
G54D265*
X415600Y318808D03*
G54D256*
X444900Y333200D03*
Y312800D03*
G54D235*
X348720Y316063D03*
G54D11*
X427192Y312800D02*
G01X444900D01*
X424800Y333200D02*
G01X444900D01*
X348720Y316063D02*
G01X357519Y307264D01*
D02*
G01X368402D01*
D02*
G01X368700Y306967D01*
X415600Y318808D02*
G01Y324000D01*
D02*
G01X424800Y333200D01*
X420400Y306008D02*
G01X427192Y312800D01*
G54D265*
X664500Y339900D03*
X620300Y339000D03*
G54D11*
X667400Y336500D02*
G01X670000Y339100D01*
X620300Y339000D02*
G01X627819Y346519D01*
X664500Y339900D02*
G01X668119Y343519D01*
X649521Y315121D02*
G01X651173Y316773D01*
G54D265*
X636346Y322000D03*
X614743Y317866D03*
G54D11*
D02*
G01X625434D01*
G54D265*
X639594Y326134D03*
X667400Y336500D03*
X646090Y333811D03*
X642940Y330169D03*
G54D11*
X625434Y317866D02*
G01X628179Y315121D01*
D02*
G01X649521D01*
G54D265*
X631100Y311500D03*
X1481500Y170300D03*
G54D234*
X1239400Y169000D03*
G54D11*
X1477688Y174112D02*
G01X1481500Y170300D01*
X1294603Y173200D02*
G01X1297856Y169947D01*
X1301547D02*
G01X1305712Y174112D01*
G54D265*
X522100Y166100D03*
G54D11*
X614113D02*
G01X616613Y163600D01*
X522100Y166100D02*
G01X614113D01*
X159902Y160000D02*
G01X172700D01*
X616613Y163600D02*
G01X697400D01*
G54D265*
X626800Y180506D03*
G54D11*
X715171Y181729D02*
G01X717500Y179400D01*
X626800Y180506D02*
G01X628023Y181729D01*
X697400Y163600D02*
G01X698700Y164900D01*
D02*
G01X703000D01*
D02*
G01X704300Y163600D01*
X586821Y171121D02*
G01X587742Y172042D01*
X581221Y171121D02*
G01X586821D01*
G54D265*
X581221D03*
G54D11*
X628023Y181729D02*
G01X715171D01*
X717500Y179400D02*
G01X768700D01*
X704300Y163600D02*
G01X752800D01*
X446019Y147427D02*
G01X478825D01*
X597802Y149705D02*
G01X617003D01*
X595525Y147427D02*
G01X597802Y149705D01*
X561851D02*
G01X564129Y147427D01*
X498893Y149705D02*
G01X561851D01*
X478825Y147427D02*
G01X481103Y149705D01*
D02*
G01X498893D01*
X617003D02*
G01X624016D01*
D02*
G01X632911Y158600D01*
G54D265*
X498893Y149705D03*
X617003D03*
G54D11*
X564129Y147427D02*
G01X595525D01*
X498893Y142422D02*
G01X544536D01*
G54D265*
X498893D03*
X617003D03*
G54D11*
D02*
G01X617463D01*
X586074D02*
G01X617003D01*
X583965Y140313D02*
G01X586074Y142422D01*
X549212Y140313D02*
G01X583965D01*
X548135Y141391D02*
G01X549212Y140313D01*
X545567Y141391D02*
G01X548135D01*
X544536Y142422D02*
G01X545567Y141391D01*
X617463Y142422D02*
G01X618728Y141156D01*
G54D265*
X567036Y408100D03*
G54D11*
X563867Y404932D02*
G01X567036Y408100D01*
X595030Y415600D02*
G01X601476Y409154D01*
G54D265*
X595900Y428200D03*
G54D11*
X596336D02*
G01X597336Y429200D01*
G54D265*
X601476Y409154D03*
G54D11*
X595900Y428200D02*
G01X596336D01*
G54D265*
X522026Y431900D03*
G54D11*
X562500Y415600D02*
G01X595030D01*
X560650Y413750D02*
G01X562500Y415600D01*
X525000Y417700D02*
G01X527500Y420200D01*
X542800Y375200D02*
G01X582996D01*
X560100Y401900D02*
G01X571400Y390600D01*
X530700Y359600D02*
G01X596900D01*
X546300Y364200D02*
G01X601100D01*
X545459Y378400D02*
G01X585300D01*
X549562Y384950D02*
G01X595550D01*
G54D265*
X582996Y375200D03*
X607800Y397400D03*
X596900Y359600D03*
G54D11*
X587211Y388889D02*
G01X594189D01*
X585500Y390600D02*
G01X587211Y388889D01*
X571400Y390600D02*
G01X585500D01*
X595550Y384950D02*
G01X597007Y386407D01*
X594189Y388889D02*
G01X595100Y389800D01*
X601450Y383957D02*
G01X605907Y379500D01*
G54D265*
X601450Y383957D03*
G54D11*
X585300Y378400D02*
G01X587500Y376200D01*
G54D265*
X623400D03*
G54D11*
X680900Y377400D02*
G01X684666Y373634D01*
G54D265*
X744300Y360000D03*
X701300Y362559D03*
X705000Y366094D03*
X684400Y370400D03*
G54D11*
X674600Y377400D02*
G01X680900D01*
X673500Y376300D02*
G01X674600Y377400D01*
X666699Y388101D02*
G01X669000Y385800D01*
X622399Y388101D02*
G01X666699D01*
X620700Y389800D02*
G01X622399Y388101D01*
X617593Y386407D02*
G01X621241Y382759D01*
X656600Y379500D02*
G01X659800Y376300D01*
D02*
G01X673500D01*
X634541Y397441D02*
G01X654200Y417100D01*
X671500Y429200D02*
G01X674000Y431700D01*
G54D265*
X742685D03*
G54D11*
X674000D02*
G01X742685D01*
X729000Y443100D02*
G01X735000D01*
X730076Y438410D02*
G01X732886Y435599D01*
X735000Y443100D02*
G01X736100Y442000D01*
G54D265*
X686400Y417100D03*
G54D11*
X654200D02*
G01X686400D01*
X712100Y420200D02*
G01X714400Y417900D01*
D02*
G01X722100D01*
D02*
G01X724000Y419800D01*
D02*
G01X746900D01*
X800100Y250500D02*
G01X894900D01*
X840000Y238500D02*
G01X875500D01*
X841100Y241500D02*
G01X880200D01*
X805047Y256500D02*
G01X926400D01*
X801600Y253500D02*
G01X900200D01*
X807034Y274500D02*
G01X898932D01*
X654800Y217500D02*
G01X893900D01*
X748550Y201350D02*
G01X770177D01*
X744200Y205700D02*
G01X748550Y201350D01*
G54D265*
X770177D03*
G54D11*
X670200Y203700D02*
G01X695000D01*
X668600Y205300D02*
G01X670200Y203700D01*
X628100Y205300D02*
G01X668600D01*
X623900Y209500D02*
G01X628100Y205300D01*
X695000Y203700D02*
G01X697000Y205700D01*
G54D265*
X623900Y209500D03*
G54D11*
X697000Y205700D02*
G01X744200D01*
X893600Y211700D02*
G01X955893D01*
X1177799Y197401D02*
G01X1184648D01*
X1117443Y207000D02*
G01X1162600D01*
X1114543Y209900D02*
G01X1117443Y207000D01*
X1197700Y208300D02*
G01X1201900D01*
G54D200*
X1184648Y197401D03*
G54D11*
X979200Y209900D02*
G01X1114543D01*
X618367Y501600D02*
G01X632467Y515700D01*
X617450Y495450D02*
G01X632200Y510200D01*
G54D265*
X722940Y490256D03*
G54D11*
X712938Y497500D02*
G01X712978Y497540D01*
G54D265*
X695200Y498000D03*
X709800Y501100D03*
X712938Y497538D03*
G54D11*
X725894Y493898D03*
G54D265*
D03*
G54D11*
X719594Y486221D02*
G01X799532D01*
X722940Y490256D02*
G01X802879D01*
X709800Y501181D02*
G01X797465D01*
X725894Y493898D02*
G01X806028D01*
G54D265*
X802879Y490256D03*
G54D11*
X824000Y486221D03*
X799532D02*
G01X824000D01*
X805865Y501181D03*
X806028Y493898D03*
G54D265*
X815300Y494000D03*
G54D11*
X597336Y429200D02*
G01X671500D01*
X607800Y397441D02*
G01X634541D01*
X527500Y420200D02*
G01X712100D01*
X597007Y386407D02*
G01X617593D01*
X595100Y389800D02*
G01X620700D01*
X587500Y376200D02*
G01X623400D01*
X605907Y379500D02*
G01X656600D01*
X602609Y438410D02*
G01X730076D01*
X595400Y446500D02*
G01X736000D01*
X558879Y456300D02*
G01X711700D01*
X551100Y453200D02*
G01X714100D01*
X522992Y468392D02*
G01X677092D01*
X572400Y464400D02*
G01X677800D01*
X525500Y460800D02*
G01X684600D01*
X601700Y443100D02*
G01X729000D01*
X564600Y492000D02*
G01X623800D01*
X563700Y488200D02*
G01X622300D01*
X561500Y485100D02*
G01X619700D01*
X558900Y482000D02*
G01X618200D01*
X564835Y501600D02*
G01X618367D01*
X566250Y495450D02*
G01X617450D01*
X555500Y449500D02*
G01X729700D01*
X512048Y421922D02*
G01X522026Y431900D01*
X484712Y391012D02*
G01X518988D01*
D02*
G01X521826Y393850D01*
X478931Y404932D02*
G01X563867D01*
X492600Y401900D02*
G01X560100D01*
X496938Y398700D02*
G01X540235D01*
X462300Y362300D02*
G01X528000D01*
X516431Y365550D02*
G01X518461D01*
D02*
G01X519611Y366700D01*
X491100Y371600D02*
G01X525000D01*
X517800Y435700D02*
G01X599900D01*
X491300Y417700D02*
G01X525000D01*
X476750Y413750D02*
G01X560650D01*
X512200Y439300D02*
G01X588200D01*
X489200Y387300D02*
G01X528500D01*
X467900Y377700D02*
G01X540300D01*
X550250Y444250D02*
G01X555500Y449500D01*
X557500Y489100D02*
G01X561500Y485100D01*
X555500Y485400D02*
G01X558900Y482000D01*
G54D265*
X572400Y464500D03*
G54D11*
X600100Y441500D02*
G01X601700Y443100D01*
G54D265*
X600100Y441500D03*
G54D11*
X523000Y458300D02*
G01X525500Y460800D01*
X558200Y455621D02*
G01X558879Y456300D01*
X556170Y455621D02*
G01X558200D01*
X555491Y456300D02*
G01X556170Y455621D01*
X545900Y448000D02*
G01X551100Y453200D01*
X543400Y456300D02*
G01X555491D01*
X539300Y452200D02*
G01X543400Y456300D01*
X559200Y492700D02*
G01X563700Y488200D01*
X558535Y507900D02*
G01X564835Y501600D01*
X549247Y523747D02*
G01X552700Y527200D01*
G54D265*
X560000Y535400D03*
X556400Y539527D03*
G54D11*
X558400Y503300D02*
G01X566250Y495450D01*
X559850Y496750D02*
G01X564600Y492000D01*
X555273Y538400D02*
G01X556400Y539527D01*
G54D265*
X552700Y527200D03*
G54D11*
X197925Y458375D02*
G01Y473025D01*
Y458375D02*
G01X203600Y452700D01*
G54D237*
X55610Y480020D02*
G01X135655Y399975D01*
X67421Y480020D02*
G01X137212Y410229D01*
X94100Y499400D02*
G01X154900Y438600D01*
G54D11*
X222628Y400313D02*
G01X307415Y485100D01*
X222628Y410249D02*
G01X300679Y488300D01*
X540300Y377700D02*
G01X542800Y375200D01*
X528000Y362300D02*
G01X530700Y359600D01*
G54D265*
X533100Y366700D03*
G54D11*
X543555Y366945D02*
G01Y370500D01*
X519611Y366700D02*
G01X533100D01*
X543555Y366945D02*
G01X546300Y364200D01*
G54D265*
X556600Y370100D03*
G54D11*
X544700Y373200D02*
G01X547800Y370100D01*
X525000Y371600D02*
G01X527500Y374100D01*
D02*
G01X530320D01*
D02*
G01X531220Y373200D01*
D02*
G01X544700D01*
X547800Y370100D02*
G01X556600D01*
G54D265*
X543555Y370500D03*
G54D11*
X541586Y382273D02*
G01X545459Y378400D01*
X540235Y398700D02*
G01X549635Y389300D01*
X540662Y393850D02*
G01X549562Y384950D01*
X521826Y393850D02*
G01X540662D01*
X545790Y381710D02*
G01X561322D01*
G54D265*
X541586Y382273D03*
G54D11*
X528500Y387300D02*
G01X530500Y389300D01*
D02*
G01X538200D01*
X549635D02*
G01X558800D01*
D02*
G01X560700Y387400D01*
G54D265*
D03*
G54D11*
X538200Y389300D02*
G01X545790Y381710D01*
G54D265*
X561322D03*
G54D11*
X507100Y514000D02*
G01X513200Y507900D01*
X472820Y448000D02*
G01X473869Y446951D01*
D02*
G01X475899D01*
D02*
G01X476948Y448000D01*
G54D265*
X516000Y441800D03*
G54D11*
X472300D02*
G01X516000D01*
X497405Y500695D02*
G01X512700Y485400D01*
X500705Y503695D02*
G01X515300Y489100D01*
X504105Y506695D02*
G01X518100Y492700D01*
G54D265*
X507805Y458305D03*
G54D11*
X483800Y456029D02*
G01X487629Y452200D01*
G54D265*
X483800Y456029D03*
G54D11*
X491300Y514000D02*
G01X507100D01*
G54D265*
X491300D03*
G54D11*
X1492000Y305000D02*
G01X1525200Y271800D01*
X1481700Y301969D02*
G01X1514969Y268700D01*
G54D265*
X1571900Y271700D03*
G54D11*
X1692100Y319800D02*
G01Y326600D01*
G54D265*
X1534000Y355100D03*
G54D11*
X1507700Y357900D02*
G01X1523600D01*
X1503900Y355100D02*
G01X1534000D01*
G54D265*
X1692100Y319800D03*
G54D11*
X1680100Y338600D02*
G01X1692100Y326600D01*
X1576300Y342700D02*
G01X1586500D01*
X1570300Y348700D02*
G01X1576300Y342700D01*
X1499700Y348700D02*
G01X1570300D01*
G54D265*
X1586500Y342700D03*
G54D11*
X1525200Y271800D02*
G01X1571900D01*
X1514969Y268700D02*
G01X1675400D01*
X1480100Y368300D02*
G01X1499700Y348700D01*
X1471700Y393900D02*
G01X1507700Y357900D01*
X1470407Y388593D02*
G01X1503900Y355100D01*
G54D265*
X1523600Y357900D03*
X506630Y262931D03*
X319900Y260600D03*
G54D11*
X488100D02*
G01X490431Y262931D01*
G54D265*
X314800Y263700D03*
G54D11*
D02*
G01X486100D01*
D02*
G01X489826Y267426D01*
G54D265*
X512700Y259500D03*
G54D11*
X319900Y260600D02*
G01X488100D01*
X512700Y259500D02*
G01X522400D01*
X490431Y262931D02*
G01X506630D01*
X489826Y267426D02*
G01X506630D01*
G54D265*
X526378Y259500D03*
Y253500D03*
X735700Y262500D03*
X710000D03*
X531000D03*
X643700Y265500D03*
X620300Y256500D03*
X530216D03*
G54D11*
D02*
G01X620300D01*
X526378Y253500D02*
G01X666900D01*
G54D265*
X644488Y256500D03*
X666900Y253500D03*
X719800D03*
X729665Y256500D03*
G54D11*
X644488D02*
G01X729665D01*
X531000Y262500D02*
G01X710000D01*
G54D265*
X751900Y250500D03*
X762598Y262500D03*
X746200Y256500D03*
X756853Y247500D03*
X746000Y244500D03*
G54D11*
X775600D02*
G01X778600Y241500D01*
X746000Y244500D02*
G01X775600D01*
G54D265*
X770753Y241500D03*
X759500Y259500D03*
X766437Y265500D03*
G54D11*
X778600Y241500D02*
G01X837000D01*
X746200Y256500D02*
G01X798600D01*
X797100Y253500D02*
G01X800100Y250500D01*
G54D265*
X805047Y256500D03*
X841100Y241500D03*
G54D11*
X806900Y214961D02*
G01X812000D01*
X837000Y241500D02*
G01X840000Y238500D01*
G54D265*
X818647D03*
G54D11*
X798600Y256500D02*
G01X801600Y253500D01*
G54D265*
X832647Y235487D03*
G54D11*
X426243Y531400D02*
G01X433896Y523747D01*
G54D265*
X448193Y531688D03*
X426243Y531400D03*
G54D11*
X448193Y531688D02*
G01X455688D01*
D02*
G01X459800Y535800D01*
D02*
G01X462400D01*
D02*
G01X465000Y538400D01*
X450832Y523768D02*
G01X450853Y523747D01*
X433896D02*
G01X437711D01*
D02*
G01X437732Y523768D01*
D02*
G01X450832D01*
X515281Y366700D02*
G01X516431Y365550D01*
G54D265*
X491100Y371600D03*
X489300Y387200D03*
G54D11*
X502700Y366700D02*
G01X515281D01*
X502400Y367000D02*
G01X502700Y366700D01*
G54D265*
X502400Y367000D03*
G54D11*
X494150Y395912D02*
G01X496938Y398700D01*
X487350Y396650D02*
G01X492600Y401900D01*
G54D265*
X487300Y396700D03*
X494150Y395912D03*
X484712Y391012D03*
G54D11*
X472200Y398200D02*
G01X478931Y404932D01*
X472500Y409500D02*
G01X476750Y413750D01*
X507400Y425300D02*
G01X517800Y435700D01*
X478695Y429203D02*
G01X480724D01*
X477992Y428500D02*
G01X478695Y429203D01*
X480724D02*
G01X481477Y428450D01*
G54D265*
X491300Y417700D03*
G54D11*
X481477Y428450D02*
G01X501350D01*
X491700Y425300D02*
G01X507400D01*
G54D265*
X491700D03*
G54D11*
X501350Y428450D02*
G01X512200Y439300D01*
G54D265*
X222628Y400313D03*
X163287Y399975D03*
G54D237*
X135655D02*
G01X163287D01*
G54D265*
X381198Y375602D03*
G54D11*
X372700Y367103D02*
G01X381198Y375602D01*
G54D200*
X461400Y384200D03*
G54D11*
D02*
G01X467900Y377700D01*
X455700Y368900D02*
G01X462300Y362300D01*
X372700Y358600D02*
G01Y367103D01*
G54D265*
Y358600D03*
X455700Y368900D03*
G54D11*
X476948Y448000D02*
G01X545900D01*
X507800Y458300D02*
G01X523000D01*
X512700Y485400D02*
G01X555500D01*
X515300Y489100D02*
G01X557500D01*
X448150Y444250D02*
G01X550250D01*
X519046Y464446D02*
G01X522992Y468392D01*
G54D265*
X519046Y464446D03*
G54D11*
X487629Y452200D02*
G01X539300D01*
G54D265*
X518100Y503300D03*
G54D11*
D02*
G01X558400D01*
X518445Y496750D02*
G01X559850D01*
X518100Y492700D02*
G01X559200D01*
X473916Y535400D02*
G01X560000D01*
X465000Y538400D02*
G01X555273D01*
X450853Y523747D02*
G01X549247D01*
X505495Y509700D02*
G01X518445Y496750D01*
X513200Y507900D02*
G01X558535D01*
G54D265*
X202000Y461592D03*
G54D193*
X67421Y480020D03*
X55610Y491831D03*
Y480020D03*
G54D11*
X206892Y461592D02*
G01X236600Y491300D01*
X202000Y461592D02*
G01X206892D01*
X197925Y473025D02*
G01X220600Y495700D01*
G54D237*
X55610Y491831D02*
G01X63179Y499400D01*
D02*
G01X94100D01*
G54D11*
X236600Y491300D02*
G01X425600D01*
X220600Y495700D02*
G01X305300D01*
X307415Y485100D02*
G01X428121D01*
X305300Y495700D02*
G01X308197Y498597D01*
X300679Y488300D02*
G01X426500D01*
X425600Y491300D02*
G01X440995Y506695D01*
X426500Y488300D02*
G01X441895Y503695D01*
X428121Y485100D02*
G01X443716Y500695D01*
X308197Y498597D02*
G01X313403D01*
D02*
G01X317300Y494700D01*
D02*
G01X424500D01*
D02*
G01X439500Y509700D01*
G54D265*
X450100Y428500D03*
X426753Y426953D03*
G54D11*
D02*
G01X431783Y421922D01*
X463200Y416500D02*
G01X463450Y416750D01*
G54D256*
X463200Y416500D03*
G54D237*
X137212Y410229D02*
G01X163357D01*
G54D265*
D03*
X222628Y410249D03*
G54D256*
X463200Y432700D03*
G54D265*
X442005Y445605D03*
G54D11*
D02*
G01X444400Y448000D01*
X444200Y440300D02*
G01X448150Y444250D01*
X436000Y440300D02*
G01X444200D01*
G54D265*
X436000D03*
G54D237*
X154900Y438600D02*
G01X167549D01*
G54D265*
D03*
X203600Y452700D03*
G54D11*
X349854Y142422D02*
G01X380782D01*
X431102Y140313D02*
G01X466986D01*
X430024Y141391D02*
G01X431102Y140313D01*
X427457Y141391D02*
G01X430024D01*
X426426Y142422D02*
G01X427457Y141391D01*
X380782Y142422D02*
G01X426426D01*
X469095D02*
G01X498893D01*
X466986Y140313D02*
G01X469095Y142422D01*
G54D265*
X380782D03*
G54D11*
X199746Y140313D02*
G01X230719D01*
X198669Y141391D02*
G01X199746Y140313D01*
X173700Y138900D02*
G01X176191Y141391D01*
X161592Y138900D02*
G01X173700D01*
X158071Y142421D02*
G01X161592Y138900D01*
X144562Y142421D02*
G01X158071D01*
X176191Y141391D02*
G01X198669D01*
X230719Y140313D02*
G01X232828Y142421D01*
G54D265*
X144562D03*
G54D11*
X232828D02*
G01X262672D01*
G54D265*
D03*
G54D11*
X312992Y140313D02*
G01X347745D01*
X311913Y141391D02*
G01X312992Y140313D01*
X309346Y141391D02*
G01X311913D01*
X308316Y142421D02*
G01X309346Y141391D01*
X262672Y142421D02*
G01X308316D01*
X347745Y140313D02*
G01X349854Y142422D01*
G54D265*
X1309734Y408268D03*
G54D11*
X1307466Y406000D02*
G01X1309734Y408268D01*
X1325300Y422300D02*
G01X1335300Y432300D01*
X1323900Y428900D02*
G01X1330399Y435399D01*
G54D265*
X1308951Y471746D03*
G54D234*
X1366634Y464075D03*
G54D265*
X1316600Y434300D03*
G54D11*
X1299202Y488200D02*
G01X1303248Y484154D01*
G54D265*
D03*
X1301407Y458291D03*
G54D11*
X1299700Y351300D02*
G01X1312400Y338600D01*
G54D16*
X1316919Y374929D02*
G01Y383200D01*
G54D11*
X1297900Y378200D02*
G01X1307800Y368300D01*
X1308505Y389300D02*
G01X1309211Y388593D01*
G54D265*
X1335000Y328838D03*
G54D11*
X1330157Y397157D02*
G01X1331900Y398900D01*
X1330619Y393900D02*
G01X1332308Y392211D01*
X1331900Y398900D02*
G01X1335100D01*
X1332308Y392211D02*
G01X1334876D01*
D02*
G01X1336565Y393900D01*
X1335100Y398900D02*
G01X1336700Y397300D01*
G54D265*
X1316919Y374929D03*
G54D11*
X1309211Y388593D02*
G01X1311241D01*
D02*
G01X1311948Y389300D01*
G54D16*
X1316919Y383200D02*
G01Y383209D01*
D02*
G01X1361882D01*
G54D265*
X1372700Y323200D03*
G54D237*
X1360800Y335100D02*
G01X1372700Y323200D01*
G54D16*
X1391928Y383100D02*
G01X1394261Y385433D01*
G54D265*
D03*
G54D16*
X1361882Y383209D02*
G01X1361992Y383100D01*
D02*
G01X1391928D01*
G54D11*
X1471185Y414315D02*
G01X1513512Y371988D01*
X1468500Y411200D02*
G01X1511700Y368000D01*
X1412622Y402591D02*
G01X1418200Y408169D01*
G54D265*
X1426565Y376929D03*
G54D11*
X1477100Y397300D02*
G01X1512677Y361723D01*
G54D16*
X1420871Y376929D02*
G01X1426565D01*
X1412367Y385433D02*
G01X1420871Y376929D01*
G54D265*
X1517864Y371988D03*
X1503927Y385433D03*
G54D16*
D02*
G01X1507588Y381772D01*
G54D11*
X1418150Y389300D02*
G01X1418857Y388593D01*
D02*
G01X1470407D01*
G54D265*
X1418200Y408169D03*
G54D11*
X1513512Y371988D02*
G01X1517864D01*
G54D16*
X1507588Y381772D02*
G01X1536024D01*
G54D11*
X1511700Y368000D02*
G01X1619880D01*
X1512677Y361723D02*
G01X1636700D01*
G54D265*
X836973Y359883D03*
X836900Y374500D03*
X789500Y362559D03*
G54D11*
X836973Y359883D02*
G01X838689Y361600D01*
X757000Y357900D02*
G01X761100D01*
X831334Y373634D02*
G01X835900Y378200D01*
D02*
G01X836080Y378020D01*
G54D244*
X873585Y41506D02*
G01Y49045D01*
Y41506D02*
G01X882591Y32500D01*
D02*
G01X945300D01*
D02*
G01X955733Y42932D01*
D02*
G01X974992D01*
D02*
G01X987824Y30100D01*
X873585Y49045D02*
G01X881627Y57087D01*
D02*
G01X882685D01*
G54D193*
D03*
G54D265*
X957864Y103436D03*
X890700Y101600D03*
X1012400Y100200D03*
G54D11*
X957864Y103436D02*
G01X1026636D01*
X949700Y100200D02*
G01X1012400D01*
X947200Y102700D02*
G01X949700Y100200D01*
X891800Y102700D02*
G01X947200D01*
X890700Y101600D02*
G01X891800Y102700D01*
G54D265*
X1106890Y169600D03*
G54D11*
X1114043Y173800D02*
G01X1115391Y172452D01*
X1104058Y173800D02*
G01X1114043D01*
X1103173Y174684D02*
G01X1104058Y173800D01*
X1101144Y174684D02*
G01X1103173D01*
X1100259Y173800D02*
G01X1101144Y174684D01*
X1079432Y178300D02*
G01X1080932Y179800D01*
X1115391Y172452D02*
G01X1155100D01*
X1080932Y179800D02*
G01X1188351D01*
X1155829Y171723D02*
G01X1160423D01*
X1155100Y172452D02*
G01X1155829Y171723D01*
X1160423D02*
G01X1163400Y174700D01*
X1160326Y164890D02*
G01Y165100D01*
X1158891Y163455D02*
G01X1160326Y164890D01*
X1156861Y163455D02*
G01X1158891D01*
X1155426Y164890D02*
G01X1156861Y163455D01*
X1155426Y164890D02*
G01Y165100D01*
X1163400Y174700D02*
G01X1196897D01*
X1160326Y165100D02*
G01X1197749D01*
G54D200*
X1215554Y184606D03*
G54D11*
X1184994D02*
G01X1215554D01*
X1201706Y171920D02*
G01X1202986Y173200D01*
X1202649Y165087D02*
G01Y165100D01*
X1199184Y163652D02*
G01X1201214D01*
X1188351Y179800D02*
G01X1190051Y178100D01*
X1196897Y174700D02*
G01X1199677Y171920D01*
D02*
G01X1201706D01*
X1197749Y165087D02*
G01X1199184Y163652D01*
X1197749Y165087D02*
G01Y165100D01*
X1201214Y163652D02*
G01X1202649Y165087D01*
G54D265*
X994400Y403642D03*
G54D11*
X1040709Y396000D02*
G01X1050709Y406000D01*
X998816Y386617D02*
G01X1005100Y392900D01*
X996717Y389617D02*
G01X1003100Y396000D01*
X1007500Y389900D02*
G01X1066400D01*
X1086380Y399820D02*
G01X1089043Y397157D01*
X986375Y395617D02*
G01X994400Y403642D01*
X994293Y392617D02*
G01X1000298Y398622D01*
G54D265*
D03*
G54D11*
X1076321Y399820D02*
G01X1086380D01*
X1044900Y392900D02*
G01X1054591Y402591D01*
X1005100Y392900D02*
G01X1044900D01*
X1003100Y396000D02*
G01X1040709D01*
X1050800Y386200D02*
G01X1185400D01*
X1066400Y389900D02*
G01X1076321Y399820D01*
G54D257*
X1154400Y424800D03*
G54D11*
X1045700Y434300D02*
G01X1059598Y420402D01*
X1006879Y425500D02*
G01X1017976Y414402D01*
X1037102Y431300D02*
G01X1051000Y417402D01*
X1088700Y438000D02*
G01X1102200Y424500D01*
D02*
G01X1121900D01*
G54D265*
D03*
G54D11*
X1154400Y424800D02*
G01Y428800D01*
X1102752Y428900D02*
G01X1154500D01*
X1154400Y428800D02*
G01X1154500Y428900D01*
X1059598Y420402D02*
G01X1191938D01*
X1004711Y421889D02*
G01X1015400Y411200D01*
X836900Y386500D02*
G01X841100D01*
X771759Y382759D02*
G01X776100Y387100D01*
D02*
G01X810900D01*
X841100Y386500D02*
G01X844300Y383300D01*
G54D265*
X836900Y386500D03*
G54D11*
X823600Y389900D02*
G01X843000D01*
D02*
G01X846283Y386617D01*
G54D265*
X823600Y389900D03*
G54D11*
X849437Y392900D02*
G01X852721Y389617D01*
X770500Y385800D02*
G01X774800Y390100D01*
D02*
G01X809500D01*
D02*
G01X817500Y398100D01*
X810900Y387100D02*
G01X819310Y395510D01*
X849090D02*
G01X851983Y392617D01*
X851600Y398100D02*
G01X854000Y395700D01*
X828500Y392900D02*
G01X849437D01*
X819310Y395510D02*
G01X849090D01*
X817500Y398100D02*
G01X851600D01*
G54D265*
X828500Y392900D03*
G54D11*
X1255906Y443504D02*
G01Y447835D01*
X1245423Y446900D02*
G01X1248819Y443504D01*
G54D265*
D03*
X1255906D03*
G54D11*
X1241100Y434900D02*
G01X1242762Y436562D01*
X1244014Y433314D02*
G01X1259402D01*
X1251083Y452657D02*
G01X1255906Y447835D01*
X1242600Y431900D02*
G01X1244014Y433314D01*
G54D265*
X1259402D03*
X1263536Y436562D03*
G54D11*
X1242762D02*
G01X1263536D01*
G54D234*
X1280100Y446000D03*
G54D11*
X1267530Y440048D02*
G01X1267717Y439862D01*
G54D265*
Y440048D03*
G54D234*
X1280100Y458400D03*
X1282700Y469300D03*
X1280100Y433600D03*
G54D11*
X262672Y149705D02*
G01X275000D01*
D02*
G01X276139Y148566D01*
X255866Y156511D02*
G01X262672Y149705D01*
X144562D02*
G01X149606D01*
G54D265*
X144562D03*
X262672D03*
G54D11*
X176713Y155987D02*
G01X230025D01*
D02*
G01X230550Y156511D01*
D02*
G01X255866D01*
X276139Y148566D02*
G01X312950D01*
X360321Y147427D02*
G01X362599Y149705D01*
D02*
G01X380782D01*
D02*
G01X443741D01*
D02*
G01X446019Y147427D01*
G54D265*
X380782Y149705D03*
G54D11*
X312950Y148566D02*
G01X314089Y147427D01*
D02*
G01X360321D01*
X684400Y370400D02*
G01X938800D01*
X705000Y366094D02*
G01X936806D01*
X668119Y343519D02*
G01X885276D01*
X612750Y352550D02*
G01X885150D01*
X762319Y340519D02*
G01X886519D01*
X838689Y361600D02*
G01X926204D01*
X854000Y395700D02*
G01X911024D01*
X812369Y334531D02*
G01X883392D01*
X801805Y346600D02*
G01X884000D01*
X763906Y425500D02*
G01X919960D01*
X824000Y486220D02*
G01X872086D01*
X632200Y510200D02*
G01X932100D01*
X632467Y515700D02*
G01X935400D01*
X712978Y497540D02*
G01X877067D01*
X796284Y482087D02*
G01X870374D01*
X797465Y501181D02*
G01X878575D01*
X802879Y490256D02*
G01X873758D01*
X806028Y493898D02*
G01X875266D01*
G54D16*
X1536024Y381772D02*
G01X1536092Y381703D01*
Y376791D02*
G01Y381703D01*
G54D265*
Y376791D03*
G54D16*
X1536024Y381772D02*
G01X1610728D01*
X1612506Y381856D02*
G01X1636013D01*
X1612422Y381772D02*
G01X1612506Y381856D01*
X1610728Y381772D02*
G01X1612422D01*
X1610620Y381881D02*
G01X1610728Y381772D01*
X1610620Y381881D02*
G01Y386122D01*
G54D265*
D03*
G54D11*
X1619880Y368000D02*
G01X1624557Y372677D01*
X1636700Y361700D02*
G01Y361723D01*
G54D265*
X1624557Y372677D03*
X1636700Y361700D03*
G54D16*
X1636013Y381856D02*
G01X1640389Y377480D01*
D02*
G01X1642785D01*
G54D265*
D03*
G54D11*
X799500Y162700D02*
G01X804300Y167500D01*
G54D265*
X754400Y168800D03*
G54D11*
X854863Y168500D02*
G01X855863Y167500D01*
X852833Y168500D02*
G01X854863D01*
X851833Y167500D02*
G01X852833Y168500D01*
X754400Y168800D02*
G01X779300D01*
X804300Y167500D02*
G01X851833D01*
X785400Y162700D02*
G01X799500D01*
X816900Y165400D02*
G01X820700D01*
D02*
G01X822500Y163600D01*
X779300Y168800D02*
G01X785400Y162700D01*
X768700Y179400D02*
G01X770413Y181113D01*
D02*
G01X775763D01*
D02*
G01X778576Y178300D01*
D02*
G01X828164D01*
D02*
G01X829664Y176800D01*
D02*
G01X833300D01*
D02*
G01X834800Y178300D01*
G54D265*
X935734Y304463D03*
G54D16*
X931462D02*
G01X935734D01*
G54D11*
X911600Y242100D02*
G01X941900D01*
G54D16*
X917174Y249692D02*
G01X937650D01*
G54D265*
X917174D03*
G54D16*
X937650D02*
G01X941550Y253592D01*
X921458Y314467D02*
G01X931462Y304463D01*
G54D11*
X926204Y361600D02*
G01X927204Y360600D01*
G54D265*
X936998Y341880D03*
G54D16*
X928398Y337980D02*
G01X932298Y341880D01*
D02*
G01X936998D01*
X921458Y314467D02*
G01Y319490D01*
G54D234*
D03*
G54D11*
X927204Y360600D02*
G01X929600D01*
X936806Y366094D02*
G01X943106Y359794D01*
X938800Y370400D02*
G01X945332Y363868D01*
G54D265*
X929600Y360600D03*
G54D11*
X898932Y274500D02*
G01X901771Y271661D01*
X887600Y238500D02*
G01X889100Y240000D01*
X883200Y238500D02*
G01X887600D01*
X880200Y241500D02*
G01X883200Y238500D01*
X893900Y217500D02*
G01X895758Y215642D01*
X889100Y240000D02*
G01X903000D01*
X879197Y234803D02*
G01X901297D01*
D02*
G01X907998Y228102D01*
X904339Y271661D02*
G01X907179Y274500D01*
X901771Y271661D02*
G01X904339D01*
X875500Y238500D02*
G01X879197Y234803D01*
X903000Y240000D02*
G01X907950Y235050D01*
G54D265*
X894900Y250500D03*
G54D11*
X885276Y343519D02*
G01X891957Y350200D01*
X884000Y346600D02*
G01X890681Y353281D01*
G54D265*
X883392Y334531D03*
X907922Y337980D03*
G54D11*
X886519Y340519D02*
G01X893200Y347200D01*
X885150Y352550D02*
G01X889394Y356794D01*
X711577Y333811D02*
G01X724928D01*
X708392Y336996D02*
G01X711577Y333811D01*
X702700D02*
G01X705885Y336996D01*
D02*
G01X708392D01*
G54D265*
X726028Y333811D03*
G54D11*
X705000Y349500D02*
G01X705019Y349519D01*
G54D265*
X705000Y349500D03*
G54D11*
X726028Y333811D02*
G01X806028D01*
X705019Y349519D02*
G01X800481D01*
X766100Y337400D02*
G01X809500D01*
G54D265*
X806029Y333812D03*
G54D11*
X801724Y346519D02*
G01X801805Y346600D01*
X809500Y337400D02*
G01X812369Y334531D01*
X806028Y333811D02*
G01X806029Y333812D01*
G54D265*
X766100Y337400D03*
G54D11*
X760900Y339100D02*
G01X762319Y340519D01*
G54D265*
X800481Y349519D03*
X613850Y110350D03*
X1031100Y107900D03*
G54D11*
X613850Y110350D02*
G01X614839Y109361D01*
D02*
G01X668606D01*
D02*
G01X668645Y109400D01*
D02*
G01X673624D01*
D02*
G01X673663Y109361D01*
D02*
G01X767761D01*
X775400Y117000D02*
G01X827200D01*
X767761Y109361D02*
G01X775400Y117000D01*
G54D265*
X1591266Y113565D03*
X1567500Y113600D03*
G54D11*
X1270300Y128300D02*
G01X1633700D01*
X1645243Y108348D02*
G01X1647400Y110505D01*
X1567500Y113565D02*
G01X1591266D01*
G54D265*
X1206650Y108750D03*
X1645243Y108348D03*
G54D11*
X1633700Y128300D02*
G01X1647400Y114600D01*
Y110505D02*
G01Y114600D01*
G54D265*
X1522694Y436713D03*
X1518257Y448228D03*
X1522694Y429429D03*
G54D11*
X1482701Y435399D02*
G01X1493700Y424400D01*
X1481557Y432300D02*
G01X1492457Y421400D01*
D02*
G01X1545543D01*
X1493700Y424400D02*
G01X1540472D01*
G54D265*
X1564498Y437303D03*
X1550620Y442323D03*
X1553671Y429528D03*
G54D11*
X1540472Y424400D02*
G01X1548159Y432087D01*
G54D265*
D03*
G54D11*
X1545543Y421400D02*
G01X1553671Y429528D01*
G54D234*
X1239400Y197800D03*
G54D265*
X1292126Y202066D03*
G54D11*
D02*
G01X1295292Y198900D01*
G54D265*
X1250243Y211879D03*
G54D11*
X1295292Y198900D02*
G01X1410900D01*
G54D265*
X1369538Y206976D03*
X1349073Y191724D03*
X1374396Y194327D03*
X1374593Y186257D03*
X1410900Y198900D03*
X1456136Y191724D03*
G54D11*
X1158000Y217200D02*
G01X1177799Y197401D01*
G54D265*
X959154Y214961D03*
G54D11*
X955893Y211700D02*
G01X959154Y214961D01*
X971400Y217700D02*
G01X979200Y209900D01*
X1163000Y243000D02*
G01X1197700Y208300D01*
G54D265*
X1304134Y213484D03*
X1287400D03*
G54D234*
X1239400Y151334D03*
G54D265*
X967520Y149705D03*
G54D11*
X962100Y158500D02*
G01X1016200D01*
G54D234*
X1474800Y153600D03*
G54D11*
X973000Y144500D02*
G01X1058600D01*
D02*
G01X1062800Y140300D01*
X1074900D02*
G01X1079100Y144500D01*
D02*
G01X1153400D01*
G54D265*
D03*
G54D234*
X1239400Y142476D03*
G54D265*
X973000Y144500D03*
G54D11*
X853223Y142422D02*
G01X855302Y144500D01*
D02*
G01X973000D01*
X1302147Y178853D02*
G01X1302851Y178150D01*
X1297053Y178853D02*
G01X1302147D01*
X1296350Y178150D02*
G01X1297053Y178853D01*
X1284918Y178150D02*
G01X1296350D01*
X1284868Y178100D02*
G01X1284918Y178150D01*
X1305712Y174112D02*
G01X1418110D01*
D02*
G01X1419219Y175220D01*
D02*
G01X1422907D01*
D02*
G01X1424016Y174112D01*
X1302851Y178150D02*
G01X1492925D01*
X1424016Y174112D02*
G01X1477688D01*
X1492925Y178150D02*
G01X1493662Y178887D01*
D02*
G01X1496231D01*
D02*
G01X1496968Y178150D01*
D02*
G01X1591107D01*
G54D265*
D03*
X1468314Y164969D03*
G54D11*
X1370114Y163400D02*
G01X1370400D01*
X1363700D02*
G01X1370114D01*
X1285300Y165100D02*
G01X1286945Y163455D01*
G54D265*
X1361252Y164969D03*
X1370114Y163400D03*
G54D11*
X1362819Y162519D02*
G01X1363700Y163400D01*
X1359781Y162519D02*
G01X1362819D01*
X1358845Y163455D02*
G01X1359781Y162519D01*
X1286945Y163455D02*
G01X1358845D01*
X1297856Y169947D02*
G01X1301547D01*
G54D265*
X1267900Y169300D03*
X1577991Y164736D03*
X1684621Y165363D03*
M02*