G04 FAB 3000 Version 8.1.40 - Gerber/CAM Software*
G04 RS274-X Output*
%FSLAX35Y35*%
%MIA0B0*%
%MOIN*%
%SFA1.000000B1.000000*%

%IPPOS*%
%AMRECT_ROUNDED85*
4,1,38,0.000000,0.012500,
-0.010250,0.012500,
-0.011549,0.012363,
-0.012792,0.011960,
-0.013924,0.011306,
-0.014895,0.010432,
-0.015663,0.009375,
-0.016194,0.008181,
-0.016466,0.006903,
-0.016500,0.006250,
-0.016500,-0.006250,
-0.016363,-0.007549,
-0.015960,-0.008792,
-0.015306,-0.009924,
-0.014432,-0.010895,
-0.013375,-0.011663,
-0.012181,-0.012194,
-0.010903,-0.012466,
-0.010250,-0.012500,
0.010250,-0.012500,
0.011549,-0.012363,
0.012792,-0.011960,
0.013924,-0.011306,
0.014895,-0.010432,
0.015663,-0.009375,
0.016194,-0.008181,
0.016466,-0.006903,
0.016500,-0.006250,
0.016500,0.006250,
0.016363,0.007549,
0.015960,0.008792,
0.015306,0.009924,
0.014432,0.010895,
0.013375,0.011663,
0.012181,0.012194,
0.010903,0.012466,
0.010250,0.012500,
0.000000,0.012500,
0.000000,0.012500,0.0*
%
%AMRECT_ROUNDED89*
4,1,38,0.000000,0.008858,
-0.023130,0.008858,
-0.024051,0.008761,
-0.024931,0.008475,
-0.025733,0.008012,
-0.026421,0.007393,
-0.026966,0.006644,
-0.027342,0.005798,
-0.027535,0.004892,
-0.027559,0.004429,
-0.027559,-0.004429,
-0.027462,-0.005350,
-0.027176,-0.006231,
-0.026713,-0.007033,
-0.026094,-0.007721,
-0.025344,-0.008265,
-0.024499,-0.008641,
-0.023593,-0.008834,
-0.023130,-0.008858,
0.023130,-0.008858,
0.024051,-0.008761,
0.024931,-0.008475,
0.025733,-0.008012,
0.026421,-0.007393,
0.026966,-0.006644,
0.027342,-0.005798,
0.027535,-0.004892,
0.027559,-0.004429,
0.027559,0.004429,
0.027462,0.005350,
0.027176,0.006231,
0.026713,0.007033,
0.026094,0.007721,
0.025344,0.008265,
0.024499,0.008641,
0.023593,0.008834,
0.023130,0.008858,
0.000000,0.008858,
0.000000,0.008858,0.0*
%
%AMRECT_ROUNDED96*
4,1,38,0.000000,0.018701,
-0.003937,0.018701,
-0.004756,0.018615,
-0.005538,0.018360,
-0.006251,0.017949,
-0.006863,0.017398,
-0.007347,0.016732,
-0.007681,0.015980,
-0.007852,0.015175,
-0.007874,0.014764,
-0.007874,-0.014764,
-0.007788,-0.015582,
-0.007534,-0.016365,
-0.007122,-0.017078,
-0.006571,-0.017690,
-0.005906,-0.018173,
-0.005154,-0.018508,
-0.004349,-0.018679,
-0.003937,-0.018701,
0.003937,-0.018701,
0.004756,-0.018615,
0.005538,-0.018360,
0.006251,-0.017949,
0.006863,-0.017398,
0.007347,-0.016732,
0.007681,-0.015980,
0.007852,-0.015175,
0.007874,-0.014764,
0.007874,0.014764,
0.007788,0.015582,
0.007534,0.016365,
0.007122,0.017078,
0.006571,0.017690,
0.005906,0.018173,
0.005154,0.018508,
0.004349,0.018679,
0.003937,0.018701,
0.000000,0.018701,
0.000000,0.018701,0.0*
%
%AMRECT_ROUNDED102*
4,1,38,0.000000,0.011811,
-0.003346,0.011811,
-0.004042,0.011738,
-0.004708,0.011522,
-0.005313,0.011172,
-0.005833,0.010704,
-0.006245,0.010138,
-0.006529,0.009499,
-0.006675,0.008814,
-0.006693,0.008465,
-0.006693,-0.008465,
-0.006620,-0.009160,
-0.006404,-0.009826,
-0.006054,-0.010432,
-0.005586,-0.010951,
-0.005020,-0.011363,
-0.004381,-0.011647,
-0.003696,-0.011793,
-0.003346,-0.011811,
0.003346,-0.011811,
0.004042,-0.011738,
0.004708,-0.011522,
0.005313,-0.011172,
0.005833,-0.010704,
0.006245,-0.010138,
0.006529,-0.009499,
0.006675,-0.008814,
0.006693,-0.008465,
0.006693,0.008465,
0.006620,0.009160,
0.006404,0.009826,
0.006054,0.010432,
0.005586,0.010951,
0.005020,0.011363,
0.004381,0.011647,
0.003696,0.011793,
0.003346,0.011811,
0.000000,0.011811,
0.000000,0.011811,0.0*
%
%AMRECT_ROUNDED107*
4,1,38,0.000000,0.012795,
-0.003937,0.012795,
-0.004756,0.012709,
-0.005538,0.012455,
-0.006251,0.012043,
-0.006863,0.011493,
-0.007347,0.010827,
-0.007681,0.010075,
-0.007852,0.009270,
-0.007874,0.008858,
-0.007874,-0.008858,
-0.007788,-0.009677,
-0.007534,-0.010460,
-0.007122,-0.011172,
-0.006571,-0.011784,
-0.005906,-0.012268,
-0.005154,-0.012603,
-0.004349,-0.012774,
-0.003937,-0.012795,
0.003937,-0.012795,
0.004756,-0.012709,
0.005538,-0.012455,
0.006251,-0.012043,
0.006863,-0.011493,
0.007347,-0.010827,
0.007681,-0.010075,
0.007852,-0.009270,
0.007874,-0.008858,
0.007874,0.008858,
0.007788,0.009677,
0.007534,0.010460,
0.007122,0.011172,
0.006571,0.011784,
0.005906,0.012268,
0.005154,0.012603,
0.004349,0.012774,
0.003937,0.012795,
0.000000,0.012795,
0.000000,0.012795,0.0*
%
%AMRECT_ROUNDED109*
4,1,38,0.000000,0.017717,
-0.006398,0.017717,
-0.007728,0.017577,
-0.009000,0.017163,
-0.010158,0.016495,
-0.011152,0.015600,
-0.011938,0.014518,
-0.012482,0.013296,
-0.012760,0.011988,
-0.012795,0.011319,
-0.012795,-0.011319,
-0.012655,-0.012649,
-0.012242,-0.013921,
-0.011573,-0.015079,
-0.010678,-0.016073,
-0.009596,-0.016859,
-0.008375,-0.017403,
-0.007066,-0.017681,
-0.006398,-0.017717,
0.006398,-0.017717,
0.007728,-0.017577,
0.009000,-0.017163,
0.010158,-0.016495,
0.011152,-0.015600,
0.011938,-0.014518,
0.012482,-0.013296,
0.012760,-0.011988,
0.012795,-0.011319,
0.012795,0.011319,
0.012655,0.012649,
0.012242,0.013921,
0.011573,0.015079,
0.010678,0.016073,
0.009596,0.016859,
0.008375,0.017403,
0.007066,0.017681,
0.006398,0.017717,
0.000000,0.017717,
0.000000,0.017717,0.0*
%
%AMRECT_ROUNDED121*
4,1,38,0.000000,0.028543,
-0.005906,0.028543,
-0.007133,0.028414,
-0.008308,0.028033,
-0.009377,0.027415,
-0.010294,0.026589,
-0.011020,0.025591,
-0.011522,0.024463,
-0.011779,0.023255,
-0.011811,0.022638,
-0.011811,-0.022638,
-0.011682,-0.023866,
-0.011300,-0.025040,
-0.010683,-0.026109,
-0.009857,-0.027026,
-0.008858,-0.027752,
-0.007730,-0.028254,
-0.006523,-0.028511,
-0.005906,-0.028543,
0.005906,-0.028543,
0.007133,-0.028414,
0.008307,-0.028033,
0.009377,-0.027415,
0.010294,-0.026589,
0.011020,-0.025591,
0.011522,-0.024463,
0.011779,-0.023255,
0.011811,-0.022638,
0.011811,0.022638,
0.011682,0.023866,
0.011300,0.025040,
0.010683,0.026109,
0.009857,0.027026,
0.008858,0.027752,
0.007730,0.028254,
0.006523,0.028511,
0.005906,0.028543,
0.000000,0.028543,
0.000000,0.028543,0.0*
%
%AMRECT_ROUNDED141*
4,1,38,0.000000,0.020669,
-0.064469,0.020669,
-0.066617,0.020443,
-0.068672,0.019776,
-0.070543,0.018696,
-0.072149,0.017250,
-0.073419,0.015502,
-0.074297,0.013528,
-0.074747,0.011415,
-0.074803,0.010335,
-0.074803,-0.010335,
-0.074577,-0.012483,
-0.073910,-0.014538,
-0.072829,-0.016409,
-0.071384,-0.018015,
-0.069636,-0.019285,
-0.067662,-0.020163,
-0.065549,-0.020613,
-0.064469,-0.020669,
0.064469,-0.020669,
0.066617,-0.020443,
0.068672,-0.019776,
0.070543,-0.018696,
0.072149,-0.017250,
0.073419,-0.015502,
0.074297,-0.013528,
0.074747,-0.011415,
0.074803,-0.010335,
0.074803,0.010335,
0.074577,0.012483,
0.073910,0.014538,
0.072829,0.016409,
0.071384,0.018015,
0.069636,0.019285,
0.067662,0.020163,
0.065549,0.020613,
0.064469,0.020669,
0.000000,0.020669,
0.000000,0.020669,0.0*
%
%AMRECT_ROUNDED147*
4,1,38,0.000000,0.025000,
-0.012500,0.025000,
-0.015099,0.024727,
-0.017584,0.023919,
-0.019847,0.022613,
-0.021789,0.020864,
-0.023325,0.018750,
-0.024388,0.016363,
-0.024932,0.013807,
-0.025000,0.012500,
-0.025000,-0.012500,
-0.024727,-0.015099,
-0.023919,-0.017584,
-0.022613,-0.019847,
-0.020864,-0.021789,
-0.018750,-0.023325,
-0.016363,-0.024388,
-0.013807,-0.024932,
-0.012500,-0.025000,
0.012500,-0.025000,
0.015099,-0.024727,
0.017584,-0.023919,
0.019847,-0.022613,
0.021789,-0.020864,
0.023325,-0.018750,
0.024388,-0.016363,
0.024932,-0.013807,
0.025000,-0.012500,
0.025000,0.012500,
0.024727,0.015099,
0.023919,0.017584,
0.022613,0.019847,
0.020864,0.021789,
0.018750,0.023325,
0.016363,0.024388,
0.013807,0.024932,
0.012500,0.025000,
0.000000,0.025000,
0.000000,0.025000,0.0*
%
%AMRECT_ROUNDED152*
4,1,38,0.000000,0.012795,
-0.011319,0.012795,
-0.012649,0.012655,
-0.013921,0.012242,
-0.015079,0.011573,
-0.016073,0.010678,
-0.016859,0.009596,
-0.017403,0.008375,
-0.017681,0.007066,
-0.017717,0.006398,
-0.017717,-0.006398,
-0.017577,-0.007728,
-0.017163,-0.009000,
-0.016495,-0.010158,
-0.015600,-0.011152,
-0.014518,-0.011938,
-0.013296,-0.012482,
-0.011988,-0.012760,
-0.011319,-0.012795,
0.011319,-0.012795,
0.012649,-0.012655,
0.013921,-0.012242,
0.015079,-0.011573,
0.016073,-0.010678,
0.016859,-0.009596,
0.017403,-0.008375,
0.017681,-0.007066,
0.017717,-0.006398,
0.017717,0.006398,
0.017577,0.007728,
0.017163,0.009000,
0.016495,0.010158,
0.015600,0.011152,
0.014518,0.011938,
0.013296,0.012482,
0.011988,0.012760,
0.011319,0.012795,
0.000000,0.012795,
0.000000,0.012795,0.0*
%
%AMRECT_ROUNDED157*
4,1,38,0.000000,0.016500,
-0.006250,0.016500,
-0.007549,0.016363,
-0.008792,0.015960,
-0.009924,0.015306,
-0.010895,0.014432,
-0.011663,0.013375,
-0.012194,0.012181,
-0.012466,0.010903,
-0.012500,0.010250,
-0.012500,-0.010250,
-0.012363,-0.011549,
-0.011960,-0.012792,
-0.011306,-0.013924,
-0.010432,-0.014895,
-0.009375,-0.015663,
-0.008181,-0.016194,
-0.006903,-0.016466,
-0.006250,-0.016500,
0.006250,-0.016500,
0.007549,-0.016363,
0.008792,-0.015960,
0.009924,-0.015306,
0.010895,-0.014432,
0.011663,-0.013375,
0.012194,-0.012181,
0.012466,-0.010903,
0.012500,-0.010250,
0.012500,0.010250,
0.012363,0.011549,
0.011960,0.012792,
0.011306,0.013924,
0.010432,0.014895,
0.009375,0.015663,
0.008181,0.016194,
0.006903,0.016466,
0.006250,0.016500,
0.000000,0.016500,
0.000000,0.016500,0.0*
%
%AMRECT_ROUNDED160*
4,1,38,0.000000,0.074803,
-0.010335,0.074803,
-0.012483,0.074577,
-0.014538,0.073910,
-0.016409,0.072829,
-0.018015,0.071384,
-0.019285,0.069636,
-0.020163,0.067662,
-0.020613,0.065549,
-0.020669,0.064469,
-0.020669,-0.064469,
-0.020443,-0.066617,
-0.019776,-0.068672,
-0.018696,-0.070543,
-0.017250,-0.072149,
-0.015502,-0.073419,
-0.013528,-0.074297,
-0.011415,-0.074747,
-0.010335,-0.074803,
0.010335,-0.074803,
0.012483,-0.074577,
0.014538,-0.073910,
0.016409,-0.072829,
0.018015,-0.071384,
0.019285,-0.069636,
0.020163,-0.067662,
0.020613,-0.065549,
0.020669,-0.064469,
0.020669,0.064469,
0.020443,0.066617,
0.019776,0.068672,
0.018696,0.070543,
0.017250,0.072149,
0.015502,0.073419,
0.013528,0.074297,
0.011415,0.074747,
0.010335,0.074803,
0.000000,0.074803,
0.000000,0.074803,0.0*
%
%AMRECT_ROUNDED166*
4,1,38,0.000000,0.006693,
-0.008465,0.006693,
-0.009160,0.006620,
-0.009826,0.006404,
-0.010432,0.006054,
-0.010951,0.005586,
-0.011363,0.005020,
-0.011647,0.004381,
-0.011793,0.003696,
-0.011811,0.003346,
-0.011811,-0.003346,
-0.011738,-0.004042,
-0.011522,-0.004708,
-0.011172,-0.005313,
-0.010704,-0.005833,
-0.010138,-0.006245,
-0.009499,-0.006529,
-0.008814,-0.006675,
-0.008465,-0.006693,
0.008465,-0.006693,
0.009160,-0.006620,
0.009826,-0.006404,
0.010432,-0.006054,
0.010951,-0.005586,
0.011363,-0.005020,
0.011647,-0.004381,
0.011793,-0.003696,
0.011811,-0.003346,
0.011811,0.003346,
0.011738,0.004042,
0.011522,0.004708,
0.011172,0.005313,
0.010704,0.005833,
0.010138,0.006245,
0.009499,0.006529,
0.008814,0.006675,
0.008465,0.006693,
0.000000,0.006693,
0.000000,0.006693,0.0*
%
%AMRECT_ROUNDED179*
4,1,38,0.000000,0.007874,
-0.008858,0.007874,
-0.009677,0.007788,
-0.010460,0.007534,
-0.011172,0.007122,
-0.011784,0.006571,
-0.012268,0.005906,
-0.012603,0.005154,
-0.012774,0.004349,
-0.012795,0.003937,
-0.012795,-0.003937,
-0.012709,-0.004756,
-0.012455,-0.005538,
-0.012043,-0.006251,
-0.011493,-0.006863,
-0.010827,-0.007347,
-0.010075,-0.007681,
-0.009270,-0.007852,
-0.008858,-0.007874,
0.008858,-0.007874,
0.009677,-0.007788,
0.010460,-0.007534,
0.011172,-0.007122,
0.011784,-0.006571,
0.012268,-0.005906,
0.012603,-0.005154,
0.012774,-0.004349,
0.012795,-0.003937,
0.012795,0.003937,
0.012709,0.004756,
0.012455,0.005538,
0.012043,0.006251,
0.011493,0.006863,
0.010827,0.007347,
0.010075,0.007681,
0.009270,0.007852,
0.008858,0.007874,
0.000000,0.007874,
0.000000,0.007874,0.0*
%
%AMRECT_ROUNDED185*
4,1,38,0.000000,0.027559,
-0.004429,0.027559,
-0.005350,0.027462,
-0.006231,0.027176,
-0.007033,0.026713,
-0.007721,0.026094,
-0.008265,0.025344,
-0.008641,0.024499,
-0.008834,0.023593,
-0.008858,0.023130,
-0.008858,-0.023130,
-0.008761,-0.024051,
-0.008475,-0.024931,
-0.008012,-0.025733,
-0.007393,-0.026421,
-0.006644,-0.026966,
-0.005798,-0.027342,
-0.004892,-0.027535,
-0.004429,-0.027559,
0.004429,-0.027559,
0.005350,-0.027462,
0.006231,-0.027176,
0.007033,-0.026713,
0.007721,-0.026094,
0.008265,-0.025344,
0.008641,-0.024499,
0.008834,-0.023593,
0.008858,-0.023130,
0.008858,0.023130,
0.008761,0.024051,
0.008475,0.024931,
0.008012,0.025733,
0.007393,0.026421,
0.006644,0.026966,
0.005798,0.027342,
0.004892,0.027535,
0.004429,0.027559,
0.000000,0.027559,
0.000000,0.027559,0.0*
%
%AMRECT_ROUNDED188*
4,1,38,0.000000,0.012811,
-0.003346,0.012811,
-0.004250,0.012716,
-0.005114,0.012435,
-0.005901,0.011981,
-0.006577,0.011373,
-0.007111,0.010638,
-0.007480,0.009808,
-0.007669,0.008919,
-0.007693,0.008465,
-0.007693,-0.008465,
-0.007598,-0.009368,
-0.007317,-0.010232,
-0.006863,-0.011019,
-0.006255,-0.011695,
-0.005520,-0.012229,
-0.004690,-0.012598,
-0.003801,-0.012787,
-0.003346,-0.012811,
0.003346,-0.012811,
0.004250,-0.012716,
0.005114,-0.012435,
0.005901,-0.011981,
0.006577,-0.011373,
0.007111,-0.010638,
0.007480,-0.009808,
0.007669,-0.008919,
0.007693,-0.008465,
0.007693,0.008465,
0.007598,0.009368,
0.007317,0.010232,
0.006863,0.011019,
0.006255,0.011695,
0.005520,0.012229,
0.004690,0.012598,
0.003801,0.012787,
0.003346,0.012811,
0.000000,0.012811,
0.000000,0.012811,0.0*
%
%AMRECT_ROUNDED191*
4,1,38,0.000000,0.007693,
-0.008465,0.007693,
-0.009368,0.007598,
-0.010232,0.007317,
-0.011019,0.006863,
-0.011695,0.006255,
-0.012229,0.005520,
-0.012598,0.004690,
-0.012787,0.003801,
-0.012811,0.003346,
-0.012811,-0.003346,
-0.012716,-0.004250,
-0.012435,-0.005114,
-0.011981,-0.005901,
-0.011373,-0.006577,
-0.010638,-0.007111,
-0.009808,-0.007480,
-0.008919,-0.007669,
-0.008465,-0.007693,
0.008465,-0.007693,
0.009368,-0.007598,
0.010232,-0.007317,
0.011019,-0.006863,
0.011695,-0.006255,
0.012229,-0.005520,
0.012598,-0.004690,
0.012787,-0.003801,
0.012811,-0.003346,
0.012811,0.003346,
0.012716,0.004250,
0.012435,0.005114,
0.011981,0.005901,
0.011373,0.006577,
0.010638,0.007111,
0.009808,0.007480,
0.008919,0.007669,
0.008465,0.007693,
0.000000,0.007693,
0.000000,0.007693,0.0*
%
%AMRECT_ROUNDED199*
4,1,38,0.000000,0.030500,
-0.013250,0.030500,
-0.016836,0.030123,
-0.020266,0.029009,
-0.023389,0.027206,
-0.026069,0.024793,
-0.028189,0.021875,
-0.029656,0.018581,
-0.030406,0.015053,
-0.030500,0.013250,
-0.030500,-0.013250,
-0.030123,-0.016836,
-0.029009,-0.020266,
-0.027206,-0.023389,
-0.024793,-0.026069,
-0.021875,-0.028189,
-0.018581,-0.029656,
-0.015053,-0.030406,
-0.013250,-0.030500,
0.013250,-0.030500,
0.016836,-0.030123,
0.020266,-0.029009,
0.023389,-0.027206,
0.026069,-0.024793,
0.028189,-0.021875,
0.029656,-0.018581,
0.030405,-0.015053,
0.030500,-0.013250,
0.030500,0.013250,
0.030123,0.016836,
0.029009,0.020266,
0.027206,0.023389,
0.024793,0.026069,
0.021875,0.028189,
0.018581,0.029656,
0.015053,0.030406,
0.013250,0.030500,
0.000000,0.030500,
0.000000,0.030500,0.0*
%
%AMRECT_ROUNDED201*
4,1,38,0.000000,0.040500,
-0.020250,0.040500,
-0.024460,0.040057,
-0.028486,0.038749,
-0.032153,0.036633,
-0.035299,0.033800,
-0.037787,0.030375,
-0.039509,0.026508,
-0.040389,0.022367,
-0.040500,0.020250,
-0.040500,-0.020250,
-0.040057,-0.024460,
-0.038749,-0.028486,
-0.036633,-0.032153,
-0.033800,-0.035299,
-0.030375,-0.037787,
-0.026508,-0.039509,
-0.022367,-0.040389,
-0.020250,-0.040500,
0.020250,-0.040500,
0.024460,-0.040057,
0.028486,-0.038749,
0.032153,-0.036633,
0.035299,-0.033800,
0.037787,-0.030375,
0.039509,-0.026508,
0.040389,-0.022367,
0.040500,-0.020250,
0.040500,0.020250,
0.040057,0.024460,
0.038749,0.028486,
0.036633,0.032153,
0.033800,0.035299,
0.030375,0.037787,
0.026508,0.039509,
0.022367,0.040389,
0.020250,0.040500,
0.000000,0.040500,
0.000000,0.040500,0.0*
%
%AMRECT_ROUNDED202*
4,1,38,0.000000,0.032500,
-0.014250,0.032500,
-0.018044,0.032101,
-0.021673,0.030922,
-0.024977,0.029015,
-0.027812,0.026462,
-0.030055,0.023375,
-0.031607,0.019890,
-0.032400,0.016158,
-0.032500,0.014250,
-0.032500,-0.014250,
-0.032101,-0.018044,
-0.030922,-0.021673,
-0.029015,-0.024977,
-0.026462,-0.027812,
-0.023375,-0.030055,
-0.019890,-0.031607,
-0.016158,-0.032400,
-0.014250,-0.032500,
0.014250,-0.032500,
0.018044,-0.032101,
0.021673,-0.030922,
0.024977,-0.029015,
0.027812,-0.026462,
0.030055,-0.023375,
0.031607,-0.019890,
0.032400,-0.016158,
0.032500,-0.014250,
0.032500,0.014250,
0.032101,0.018044,
0.030922,0.021673,
0.029015,0.024977,
0.026462,0.027812,
0.023375,0.030055,
0.019890,0.031607,
0.016158,0.032400,
0.014250,0.032500,
0.000000,0.032500,
0.000000,0.032500,0.0*
%
%AMoval87x72.189_55*
4,1,41,0.025300,0.026700,
0.033800,0.014600,
0.036808,0.009402,
0.038912,0.003778,
0.040053,-0.002118,
0.040200,-0.008121,
0.039349,-0.014066,
0.037523,-0.019787,
0.034773,-0.025125,
0.031176,-0.029934,
0.026830,-0.034078,
0.021857,-0.037444,
0.016394,-0.039938,
0.010593,-0.041491,
0.004615,-0.042060,
-0.001375,-0.041629,
-0.007210,-0.040210,
-0.012729,-0.037842,
-0.017778,-0.034591,
-0.022218,-0.030548,
-0.025300,-0.026700,
-0.033800,-0.014600,
-0.036808,-0.009402,
-0.038912,-0.003778,
-0.040053,0.002118,
-0.040200,0.008121,
-0.039349,0.014066,
-0.037523,0.019787,
-0.034773,0.025125,
-0.031176,0.029934,
-0.026830,0.034078,
-0.021857,0.037444,
-0.016394,0.039938,
-0.010593,0.041491,
-0.004615,0.042060,
0.001375,0.041629,
0.007210,0.040210,
0.012729,0.037842,
0.017778,0.034591,
0.022218,0.030548,
0.025300,0.026700,
0.025300,0.026700,0.0*
%
%AMoval89x72.189_25*
4,1,41,0.007600,0.036200,
0.022800,0.029100,
0.028005,0.026121,
0.032643,0.022319,
0.036585,0.017799,
0.039721,0.012687,
0.041964,0.007124,
0.043252,0.001267,
0.043548,-0.004723,
0.042845,-0.010679,
0.041163,-0.016436,
0.038547,-0.021833,
0.035070,-0.026720,
0.030830,-0.030961,
0.025944,-0.034440,
0.020549,-0.037057,
0.014793,-0.038743,
0.008837,-0.039448,
0.002847,-0.039154,
-0.003011,-0.037869,
-0.007600,-0.036200,
-0.022800,-0.029100,
-0.028005,-0.026121,
-0.032643,-0.022319,
-0.036585,-0.017799,
-0.039721,-0.012687,
-0.041964,-0.007124,
-0.043252,-0.001267,
-0.043548,0.004723,
-0.042846,0.010679,
-0.041163,0.016435,
-0.038547,0.021833,
-0.035070,0.026720,
-0.030830,0.030961,
-0.025944,0.034440,
-0.020549,0.037057,
-0.014793,0.038743,
-0.008837,0.039448,
-0.002847,0.039154,
0.003011,0.037869,
0.007600,0.036200,
0.007600,0.036200,0.0*
%
%AMoval89x72.189_335*
4,1,41,-0.022800,0.029100,
-0.007600,0.036200,
-0.001963,0.038269,
0.003940,0.039374,
0.009944,0.039483,
0.015883,0.038596,
0.021592,0.036735,
0.026913,0.033952,
0.031699,0.030324,
0.035816,0.025953,
0.039151,0.020959,
0.041611,0.015481,
0.043128,0.009671,
0.043659,0.003690,
0.043191,-0.002297,
0.041735,-0.008122,
0.039333,-0.013626,
0.036051,-0.018655,
0.031980,-0.023069,
0.027233,-0.026747,
0.022800,-0.029100,
0.007600,-0.036200,
0.001963,-0.038269,
-0.003940,-0.039374,
-0.009944,-0.039483,
-0.015883,-0.038596,
-0.021592,-0.036735,
-0.026913,-0.033952,
-0.031699,-0.030324,
-0.035816,-0.025953,
-0.039151,-0.020959,
-0.041611,-0.015481,
-0.043128,-0.009671,
-0.043659,-0.003690,
-0.043191,0.002296,
-0.041735,0.008122,
-0.039333,0.013626,
-0.036051,0.018655,
-0.031980,0.023069,
-0.027233,0.026747,
-0.022800,0.029100,
-0.022800,0.029100,0.0*
%
%AMoval87x72.189_305*
4,1,41,-0.033800,0.014600,
-0.025300,0.026700,
-0.021454,0.031309,
-0.016897,0.035217,
-0.011754,0.038314,
-0.006169,0.040514,
-0.000296,0.041756,
0.005702,0.042007,
0.011658,0.041257,
0.017407,0.039530,
0.022791,0.036872,
0.027657,0.033358,
0.031874,0.029085,
0.035322,0.024170,
0.037906,0.018752,
0.039556,0.012980,
0.040224,0.007014,
0.039892,0.001020,
0.038570,-0.004835,
0.036295,-0.010391,
0.033800,-0.014600,
0.025300,-0.026700,
0.021454,-0.031309,
0.016897,-0.035217,
0.011754,-0.038314,
0.006169,-0.040514,
0.000296,-0.041756,
-0.005702,-0.042007,
-0.011658,-0.041257,
-0.017407,-0.039530,
-0.022791,-0.036872,
-0.027657,-0.033358,
-0.031873,-0.029085,
-0.035322,-0.024170,
-0.037906,-0.018752,
-0.039556,-0.012980,
-0.040224,-0.007014,
-0.039892,-0.001020,
-0.038570,0.004835,
-0.036295,0.010391,
-0.033800,0.014600,
-0.033800,0.014600,0.0*
%
%AMOCTAGON212*
4,1,9,-0.011000,0.022000,
-0.022000,0.011000,
-0.022000,-0.011000,
-0.011000,-0.022000,
0.011000,-0.022000,
0.022000,-0.011000,
0.022000,0.011000,
0.011000,0.022000,
-0.011000,0.022000,
-0.011000,0.022000,0.0*
%
%AMRECT_ROUNDED256*
4,1,38,0.000000,0.026500,
-0.013250,0.026500,
-0.016005,0.026210,
-0.018639,0.025354,
-0.021038,0.023969,
-0.023097,0.022116,
-0.024725,0.019875,
-0.025851,0.017344,
-0.026427,0.014635,
-0.026500,0.013250,
-0.026500,-0.013250,
-0.026210,-0.016005,
-0.025354,-0.018639,
-0.023969,-0.021038,
-0.022116,-0.023097,
-0.019875,-0.024725,
-0.017344,-0.025851,
-0.014635,-0.026427,
-0.013250,-0.026500,
0.013250,-0.026500,
0.016005,-0.026210,
0.018639,-0.025354,
0.021038,-0.023969,
0.023097,-0.022116,
0.024725,-0.019875,
0.025851,-0.017344,
0.026427,-0.014635,
0.026500,-0.013250,
0.026500,0.013250,
0.026210,0.016005,
0.025354,0.018639,
0.023969,0.021038,
0.022116,0.023097,
0.019875,0.024725,
0.017344,0.025852,
0.014635,0.026427,
0.013250,0.026500,
0.000000,0.026500,
0.000000,0.026500,0.0*
%
%AMRECT_ROUNDED257*
4,1,38,0.000000,0.028500,
-0.014250,0.028500,
-0.017213,0.028189,
-0.020046,0.027268,
-0.022626,0.025778,
-0.024840,0.023785,
-0.026591,0.021375,
-0.027803,0.018653,
-0.028422,0.015740,
-0.028500,0.014250,
-0.028500,-0.014250,
-0.028189,-0.017213,
-0.027268,-0.020046,
-0.025778,-0.022626,
-0.023785,-0.024840,
-0.021375,-0.026591,
-0.018653,-0.027803,
-0.015740,-0.028422,
-0.014250,-0.028500,
0.014250,-0.028500,
0.017213,-0.028189,
0.020046,-0.027268,
0.022626,-0.025778,
0.024840,-0.023785,
0.026591,-0.021375,
0.027803,-0.018654,
0.028422,-0.015740,
0.028500,-0.014250,
0.028500,0.014250,
0.028189,0.017213,
0.027268,0.020046,
0.025778,0.022626,
0.023785,0.024840,
0.021375,0.026591,
0.018653,0.027803,
0.015740,0.028422,
0.014250,0.028500,
0.000000,0.028500,
0.000000,0.028500,0.0*
%
%AMoval83x68.189_55*
4,1,41,0.023600,0.025600,
0.032100,0.013400,
0.035005,0.008346,
0.037004,0.002870,
0.038037,-0.002867,
0.038074,-0.008696,
0.037115,-0.014446,
0.035187,-0.019947,
0.032348,-0.025038,
0.028680,-0.029569,
0.024291,-0.033406,
0.019311,-0.036437,
0.013887,-0.038572,
0.008178,-0.039748,
0.002351,-0.039931,
-0.003420,-0.039116,
-0.008969,-0.037326,
-0.014129,-0.034615,
-0.018750,-0.031061,
-0.022695,-0.026770,
-0.023600,-0.025600,
-0.032100,-0.013400,
-0.035005,-0.008346,
-0.037004,-0.002870,
-0.038037,0.002867,
-0.038074,0.008696,
-0.037115,0.014446,
-0.035187,0.019948,
-0.032348,0.025038,
-0.028680,0.029569,
-0.024291,0.033406,
-0.019311,0.036437,
-0.013887,0.038572,
-0.008178,0.039748,
-0.002351,0.039931,
0.003420,0.039116,
0.008969,0.037326,
0.014129,0.034615,
0.018750,0.031061,
0.022695,0.026770,
0.023600,0.025600,
0.023600,0.025600,0.0*
%
%AMoval85x68.189_25*
4,1,41,0.006700,0.034400,
0.022000,0.027300,
0.027051,0.024386,
0.031530,0.020653,
0.035305,0.016209,
0.038265,0.011185,
0.040323,0.005730,
0.041419,0.000002,
0.041520,-0.005827,
0.040624,-0.011589,
0.038756,-0.017113,
0.035972,-0.022236,
0.032353,-0.026808,
0.028006,-0.030695,
0.023059,-0.033782,
0.017658,-0.035978,
0.011961,-0.037219,
0.006135,-0.037468,
0.000352,-0.036719,
-0.005217,-0.034992,
-0.006700,-0.034400,
-0.022000,-0.027300,
-0.027051,-0.024386,
-0.031530,-0.020653,
-0.035305,-0.016209,
-0.038265,-0.011185,
-0.040323,-0.005730,
-0.041419,-0.000002,
-0.041520,0.005827,
-0.040624,0.011589,
-0.038756,0.017113,
-0.035972,0.022236,
-0.032353,0.026808,
-0.028006,0.030695,
-0.023059,0.033782,
-0.017658,0.035978,
-0.011961,0.037219,
-0.006135,0.037468,
-0.000352,0.036719,
0.005217,0.034992,
0.006700,0.034400,
0.006700,0.034400,0.0*
%
%AMoval85x68.189_335*
4,1,41,-0.022000,0.027300,
-0.006700,0.034400,
-0.001214,0.036388,
0.004531,0.037410,
0.010366,0.037436,
0.016120,0.036465,
0.021623,0.034526,
0.026715,0.031676,
0.031245,0.027999,
0.035081,0.023602,
0.038110,0.018614,
0.040243,0.013183,
0.041417,0.007467,
0.041597,0.001635,
0.040780,-0.004143,
0.038987,-0.009696,
0.036273,-0.014861,
0.032717,-0.019487,
0.028423,-0.023439,
0.023518,-0.026598,
0.022000,-0.027300,
0.006700,-0.034400,
0.001214,-0.036388,
-0.004531,-0.037410,
-0.010366,-0.037436,
-0.016120,-0.036465,
-0.021623,-0.034526,
-0.026715,-0.031676,
-0.031245,-0.027999,
-0.035081,-0.023602,
-0.038110,-0.018614,
-0.040243,-0.013183,
-0.041417,-0.007467,
-0.041597,-0.001635,
-0.040780,0.004143,
-0.038987,0.009696,
-0.036273,0.014861,
-0.032717,0.019487,
-0.028423,0.023439,
-0.023518,0.026598,
-0.022000,0.027300,
-0.022000,0.027300,0.0*
%
%AMoval83x68.189_305*
4,1,41,-0.032100,0.013400,
-0.023600,0.025600,
-0.019843,0.030061,
-0.015379,0.033814,
-0.010340,0.036750,
-0.004873,0.038782,
0.000860,0.039850,
0.006692,0.039923,
0.012450,0.038999,
0.017967,0.037104,
0.023078,0.034295,
0.027634,0.030654,
0.031501,0.026289,
0.034566,0.021326,
0.036738,0.015914,
0.037953,0.010210,
0.038176,0.004382,
0.037400,-0.001398,
0.035648,-0.006961,
0.032972,-0.012143,
0.032100,-0.013400,
0.023600,-0.025600,
0.019843,-0.030061,
0.015379,-0.033815,
0.010340,-0.036750,
0.004873,-0.038782,
-0.000860,-0.039850,
-0.006692,-0.039923,
-0.012450,-0.038999,
-0.017967,-0.037104,
-0.023078,-0.034295,
-0.027634,-0.030654,
-0.031501,-0.026289,
-0.034566,-0.021326,
-0.036738,-0.015914,
-0.037953,-0.010209,
-0.038176,-0.004381,
-0.037400,0.001398,
-0.035648,0.006961,
-0.032972,0.012143,
-0.032100,0.013400,
-0.032100,0.013400,0.0*
%
%AMRECT_ROUNDED368*
4,1,38,0.000000,0.021654,
-0.005906,0.021654,
-0.007133,0.021524,
-0.008308,0.021143,
-0.009377,0.020526,
-0.010294,0.019700,
-0.011020,0.018701,
-0.011522,0.017573,
-0.011779,0.016365,
-0.011811,0.015748,
-0.011811,-0.015748,
-0.011682,-0.016976,
-0.011300,-0.018150,
-0.010683,-0.019219,
-0.009857,-0.020137,
-0.008858,-0.020862,
-0.007730,-0.021365,
-0.006523,-0.021621,
-0.005906,-0.021654,
0.005906,-0.021654,
0.007133,-0.021524,
0.008307,-0.021143,
0.009377,-0.020526,
0.010294,-0.019700,
0.011020,-0.018701,
0.011522,-0.017573,
0.011779,-0.016365,
0.011811,-0.015748,
0.011811,0.015748,
0.011682,0.016976,
0.011300,0.018150,
0.010683,0.019219,
0.009857,0.020137,
0.008858,0.020862,
0.007730,0.021365,
0.006523,0.021621,
0.005906,0.021654,
0.000000,0.021654,
0.000000,0.021654,0.0*
%
%AMRECT_ROUNDED374*
4,1,42,0.000000,0.052165,
-0.065453,0.052165,
-0.070535,0.051665,
-0.075423,0.050185,
-0.079929,0.047780,
-0.083879,0.044543,
-0.087123,0.040598,
-0.089536,0.036097,
-0.091026,0.031212,
-0.091535,0.026131,
-0.091535,0.026083,
-0.091535,-0.026083,
-0.091035,-0.031165,
-0.089555,-0.036053,
-0.087150,-0.040558,
-0.083913,-0.044509,
-0.079968,-0.047753,
-0.075467,-0.050166,
-0.070582,-0.051656,
-0.065501,-0.052165,
-0.065453,-0.052165,
0.065453,-0.052165,
0.070535,-0.051665,
0.075423,-0.050185,
0.079929,-0.047780,
0.083879,-0.044543,
0.087123,-0.040598,
0.089536,-0.036097,
0.091026,-0.031212,
0.091535,-0.026131,
0.091535,-0.026083,
0.091535,0.026083,
0.091035,0.031165,
0.089555,0.036053,
0.087150,0.040558,
0.083913,0.044509,
0.079968,0.047753,
0.075467,0.050166,
0.070582,0.051656,
0.065501,0.052165,
0.065453,0.052165,
0.000000,0.052165,
0.000000,0.052165,0.0*
%
%AMRECT_ROUNDED382*
4,1,38,0.000000,0.020500,
-0.013250,0.020500,
-0.014757,0.020342,
-0.016199,0.019873,
-0.017511,0.019115,
-0.018638,0.018101,
-0.019529,0.016875,
-0.020145,0.015490,
-0.020460,0.014008,
-0.020500,0.013250,
-0.020500,-0.013250,
-0.020342,-0.014757,
-0.019873,-0.016199,
-0.019115,-0.017511,
-0.018101,-0.018638,
-0.016875,-0.019529,
-0.015490,-0.020145,
-0.014008,-0.020460,
-0.013250,-0.020500,
0.013250,-0.020500,
0.014757,-0.020342,
0.016199,-0.019873,
0.017511,-0.019115,
0.018638,-0.018101,
0.019529,-0.016875,
0.020145,-0.015490,
0.020460,-0.014008,
0.020500,-0.013250,
0.020500,0.013250,
0.020342,0.014757,
0.019873,0.016199,
0.019115,0.017511,
0.018101,0.018638,
0.016875,0.019529,
0.015490,0.020145,
0.014008,0.020460,
0.013250,0.020500,
0.000000,0.020500,
0.000000,0.020500,0.0*
%
%AMRECT_ROUNDED383*
4,1,38,0.000000,0.022500,
-0.014250,0.022500,
-0.015965,0.022320,
-0.017606,0.021787,
-0.019099,0.020924,
-0.020381,0.019770,
-0.021395,0.018375,
-0.022096,0.016799,
-0.022455,0.015112,
-0.022500,0.014250,
-0.022500,-0.014250,
-0.022320,-0.015965,
-0.021787,-0.017606,
-0.020924,-0.019099,
-0.019770,-0.020381,
-0.018375,-0.021395,
-0.016799,-0.022096,
-0.015112,-0.022455,
-0.014250,-0.022500,
0.014250,-0.022500,
0.015965,-0.022320,
0.017606,-0.021787,
0.019099,-0.020924,
0.020381,-0.019770,
0.021395,-0.018375,
0.022096,-0.016799,
0.022455,-0.015112,
0.022500,-0.014250,
0.022500,0.014250,
0.022320,0.015965,
0.021787,0.017606,
0.020924,0.019099,
0.019770,0.020381,
0.018375,0.021395,
0.016799,0.022096,
0.015112,0.022455,
0.014250,0.022500,
0.000000,0.022500,
0.000000,0.022500,0.0*
%
%ADD10C,0.005000*%
%ADD11C,0.010000*%
%ADD12C,0.009843*%
%ADD13C,0.023622*%
%ADD14C,0.007874*%
%ADD15C,0.006000*%
%ADD16C,0.020000*%
%ADD17C,0.003937*%
%ADD18C,0.008000*%
%ADD19R,0.005513X0.028837*%
%ADD20C,0.021563*%
%ADD21R,0.010875X0.005512*%
%ADD22R,0.005512X0.010876*%
%ADD23C,0.006938*%
%ADD24R,0.007750X0.038450*%
%ADD25R,0.252498X0.106224*%
%ADD26R,0.007350X0.014500*%
%ADD27R,0.014500X0.007350*%
%ADD28R,0.436258X0.106224*%
%ADD29R,0.435009X0.106390*%
%ADD30C,0.009250*%
%ADD31R,0.005812X0.028838*%
%ADD32R,0.337381X0.106390*%
%ADD33R,0.438840X0.121717*%
%ADD34R,0.050980X0.017660*%
%ADD35R,0.007350X0.038450*%
%ADD36R,0.007350X0.027850*%
%ADD37R,0.007350X0.006800*%
%ADD38R,0.022950X0.003600*%
%ADD39R,0.560709X0.106390*%
%ADD40R,0.012246X0.064057*%
%ADD41C,0.047898*%
%ADD42R,0.012912X0.064057*%
%ADD43R,0.387694X0.105141*%
%ADD44R,0.458945X0.131298*%
%ADD45R,0.018074X0.089665*%
%ADD46C,0.028751*%
%ADD47R,0.056850X0.078650*%
%ADD48R,0.026564X0.013465*%
%ADD49C,0.016946*%
%ADD50R,0.013465X0.012458*%
%ADD51R,0.013465X0.051021*%
%ADD52C,0.052670*%
%ADD53R,0.030600X0.004800*%
%ADD54R,0.024157X0.007914*%
%ADD55R,0.007830X0.046398*%
%ADD56R,0.007830X0.008996*%
%ADD57R,0.007830X0.064058*%
%ADD58R,0.003910X0.018470*%
%ADD59C,0.005990*%
%ADD60C,0.012314*%
%ADD61C,0.012355*%
%ADD62R,0.003910X0.029037*%
%ADD63C,0.032906*%
%ADD64C,0.027414*%
%ADD65R,0.322387X0.104307*%
%ADD66R,0.008496X0.064057*%
%ADD67R,0.304145X0.106390*%
%ADD68R,0.007913X0.012911*%
%ADD69C,0.015411*%
%ADD70R,0.521224X0.106224*%
%ADD71R,0.099775X0.248575*%
%ADD72R,0.434259X0.106224*%
%ADD73R,0.027822X0.015327*%
%ADD74R,0.218800X0.099775*%
%ADD75R,0.011625X0.057675*%
%ADD76R,0.463248X0.104307*%
%ADD77R,0.452085X0.106224*%
%ADD78R,0.021075X0.056477*%
%ADD79C,0.021862*%
%ADD80R,0.028837X0.005513*%
%ADD81R,0.281737X0.105224*%
%ADD82R,0.057087X0.045276*%
%ADD83R,0.163386X0.183071*%
%ADD84R,0.033000X0.025000*%
%ADD85RECT_ROUNDED85*%
%ADD86R,0.137795X0.086614*%
%ADD87R,0.043307X0.037402*%
%ADD88R,0.037402X0.043307*%
%ADD89RECT_ROUNDED89*%
%ADD90O,0.055118X0.017717*%
%ADD91R,0.039370X0.011811*%
%ADD92O,0.039370X0.011811*%
%ADD93O,0.011811X0.066929*%
%ADD94O,0.066929X0.011811*%
%ADD95O,0.017717X0.055118*%
%ADD96RECT_ROUNDED96*%
%ADD97O,0.015748X0.037402*%
%ADD98O,0.059055X0.017717*%
%ADD99R,0.059055X0.017717*%
%ADD100R,0.183071X0.163386*%
%ADD101R,0.045276X0.057087*%
%ADD102RECT_ROUNDED102*%
%ADD103R,0.013386X0.023622*%
%ADD104O,0.013780X0.055118*%
%ADD105O,0.013780X0.066929*%
%ADD106R,0.015748X0.025591*%
%ADD107RECT_ROUNDED107*%
%ADD108R,0.025591X0.035433*%
%ADD109RECT_ROUNDED109*%
%ADD110R,0.023622X0.043307*%
%ADD111R,0.053150X0.023622*%
%ADD112R,0.033465X0.023622*%
%ADD113R,0.035433X0.082677*%
%ADD114R,0.125984X0.082677*%
%ADD115O,0.017717X0.072835*%
%ADD116R,0.017717X0.072835*%
%ADD117O,0.062992X0.023622*%
%ADD118R,0.074803X0.023622*%
%ADD119O,0.074803X0.023622*%
%ADD120O,0.023622X0.057087*%
%ADD121RECT_ROUNDED121*%
%ADD122O,0.082677X0.025591*%
%ADD123R,0.082677X0.025591*%
%ADD124O,0.059055X0.023622*%
%ADD125R,0.059055X0.023622*%
%ADD126R,0.089000X0.090551*%
%ADD127R,0.047244X0.110236*%
%ADD128R,0.053150X0.070866*%
%ADD129R,0.055118X0.061024*%
%ADD130R,0.055118X0.059055*%
%ADD131R,0.016535X0.027559*%
%ADD132R,0.016535X0.039370*%
%ADD133O,0.023622X0.078740*%
%ADD134R,0.023622X0.078740*%
%ADD135R,0.047244X0.023622*%
%ADD136R,0.039370X0.043307*%
%ADD137R,0.090551X0.177165*%
%ADD138R,0.106299X0.047244*%
%ADD139R,0.314961X0.228346*%
%ADD140R,0.149606X0.041339*%
%ADD141RECT_ROUNDED141*%
%ADD142R,0.500000X0.372047*%
%ADD143R,0.015748X0.086614*%
%ADD144R,0.043307X0.102362*%
%ADD145R,0.055118X0.043307*%
%ADD146R,0.050000X0.050000*%
%ADD147RECT_ROUNDED147*%
%ADD148R,0.220472X0.090551*%
%ADD149R,0.055118X0.204724*%
%ADD150R,0.043307X0.039370*%
%ADD151R,0.035433X0.025591*%
%ADD152RECT_ROUNDED152*%
%ADD153R,0.086614X0.137795*%
%ADD154R,0.090551X0.090551*%
%ADD155R,0.023622X0.047244*%
%ADD156R,0.025000X0.033000*%
%ADD157RECT_ROUNDED157*%
%ADD158R,0.059055X0.114173*%
%ADD159R,0.041339X0.149606*%
%ADD160RECT_ROUNDED160*%
%ADD161R,0.372047X0.500000*%
%ADD162R,0.047244X0.051181*%
%ADD163R,0.051181X0.047244*%
%ADD164R,0.114173X0.059055*%
%ADD165R,0.043307X0.023622*%
%ADD166RECT_ROUNDED166*%
%ADD167R,0.023622X0.013386*%
%ADD168R,0.090551X0.089000*%
%ADD169R,0.039370X0.062992*%
%ADD170R,0.062992X0.039370*%
%ADD171R,0.078740X0.023622*%
%ADD172O,0.078740X0.023622*%
%ADD173O,0.023622X0.059055*%
%ADD174R,0.023622X0.059055*%
%ADD175O,0.066929X0.013780*%
%ADD176R,0.072835X0.017717*%
%ADD177O,0.072835X0.017717*%
%ADD178R,0.043307X0.055118*%
%ADD179RECT_ROUNDED179*%
%ADD180R,0.025591X0.015748*%
%ADD181R,0.061024X0.055118*%
%ADD182R,0.059055X0.055118*%
%ADD183R,0.102362X0.043307*%
%ADD184R,0.023622X0.033465*%
%ADD185RECT_ROUNDED185*%
%ADD186R,0.090551X0.220472*%
%ADD187R,0.093307X0.066929*%
%ADD188RECT_ROUNDED188*%
%ADD189R,0.015386X0.025622*%
%ADD190C,0.150000*%
%ADD191RECT_ROUNDED191*%
%ADD192R,0.025622X0.015386*%
%ADD193C,0.062000*%
%ADD194R,0.062000X0.062000*%
%ADD195C,0.039370*%
%ADD196C,0.066000*%
%ADD197R,0.066000X0.066000*%
%ADD198C,0.064000*%
%ADD199RECT_ROUNDED199*%
%ADD200C,0.059055*%
%ADD201RECT_ROUNDED201*%
%ADD202RECT_ROUNDED202*%
%ADD203C,0.061000*%
%ADD204C,0.065000*%
%ADD205R,0.065000X0.065000*%
%ADD206C,0.314961*%
%ADD207oval87x72.189_55*%
%ADD208oval89x72.189_25*%
%ADD209oval89x72.189_335*%
%ADD210oval87x72.189_305*%
%ADD211C,0.044000*%
%ADD212OCTAGON212*%
%ADD213C,0.058000*%
%ADD214R,0.058000X0.058000*%
%ADD215C,0.160000*%
%ADD216C,0.055000*%
%ADD217C,0.045000*%
%ADD218C,0.215000*%
%ADD219C,0.090000*%
%ADD220R,0.057000X0.057000*%
%ADD221C,0.057000*%
%ADD222C,0.096000*%
%ADD223R,0.080000X0.080000*%
%ADD224C,0.080000*%
%ADD225C,0.148000*%
%ADD226C,0.128500*%
%ADD227C,0.146000*%
%ADD228C,0.208661*%
%ADD229C,0.069000*%
%ADD230R,0.069000X0.069000*%
%ADD231C,0.050000*%
%ADD232C,0.032000*%
%ADD233C,0.013000*%
%ADD234C,0.040000*%
%ADD235C,0.060000*%
%ADD236C,0.030000*%
%ADD237C,0.015000*%
%ADD238C,0.075000*%
%ADD239C,0.018000*%
%ADD240C,0.025000*%
%ADD241C,0.014000*%
%ADD242C,0.023000*%
%ADD243C,0.012000*%
%ADD244C,0.100000*%
%ADD245C,0.085000*%
%ADD246C,0.022000*%
%ADD247C,0.017000*%
%ADD248C,0.035000*%
%ADD249R,0.116000X0.133858*%
%ADD250R,0.113175X0.109154*%
%ADD251R,0.116000X0.124936*%
%ADD252R,0.077983X0.123952*%
%ADD253R,0.055000X0.080000*%
%ADD254R,0.140008X0.150898*%
%ADD255R,0.060000X0.060000*%
%ADD256RECT_ROUNDED256*%
%ADD257RECT_ROUNDED257*%
%ADD258C,0.053000*%
%ADD259oval83x68.189_55*%
%ADD260oval85x68.189_25*%
%ADD261oval85x68.189_335*%
%ADD262oval83x68.189_305*%
%ADD263C,0.195000*%
%ADD264C,0.128000*%
%ADD265C,0.027000*%
%ADD266R,0.072835X0.033465*%
%ADD267R,0.076772X0.033465*%
%ADD268R,0.143317X0.122047*%
%ADD269R,0.130652X0.143317*%
%ADD270R,0.122046X0.161909*%
%ADD271R,0.106299X0.149409*%
%ADD272R,0.106299X0.147638*%
%ADD273R,0.111220X0.075787*%
%ADD274R,0.130602X0.143317*%
%ADD275R,0.142332X0.122047*%
%ADD276R,0.075521X0.033465*%
%ADD277R,0.022186X0.024154*%
%ADD278R,0.032025X0.059587*%
%ADD279R,0.015003X0.018998*%
%ADD280R,0.047775X0.047776*%
%ADD281R,0.071394X0.045806*%
%ADD282C,0.166802*%
%ADD283C,0.167808*%
%ADD284R,0.047498X0.047497*%
%ADD285C,0.100863*%
%ADD286R,0.024153X0.022185*%
%ADD287C,0.047921*%
%ADD288R,0.015294X0.020217*%
%ADD289R,0.052559X0.075276*%
%ADD290R,0.031044X0.025138*%
%ADD291R,0.068894X0.043305*%
%ADD292R,0.083901X0.058307*%
%ADD293C,0.149219*%
%ADD294R,0.043308X0.068898*%
%ADD295R,0.042501X0.042500*%
%ADD296C,0.082707*%
%ADD297R,0.084190X0.094035*%
%ADD298C,0.060676*%
%ADD299R,0.038501X0.038498*%
%ADD300R,0.112733X0.047777*%
%ADD301R,0.082000X0.082000*%
%ADD302R,0.030057X0.104863*%
%ADD303C,0.160775*%
%ADD304R,0.024153X0.014310*%
%ADD305R,0.024154X0.030057*%
%ADD306R,0.030060X0.024154*%
%ADD307R,0.024153X0.021202*%
%ADD308R,0.029076X0.014311*%
%ADD309R,0.028092X0.026120*%
%ADD310R,0.014310X0.024150*%
%ADD311R,0.019000X0.015001*%
%ADD312R,0.019233X0.014309*%
%ADD313R,0.045808X0.071399*%
%ADD314C,0.059507*%
%ADD315C,0.170822*%
%ADD316C,0.060517*%
%ADD317C,0.070605*%
%ADD318R,0.022187X0.033995*%
%ADD319R,0.033996X0.022185*%
%ADD320C,0.084724*%
%ADD321R,0.026120X0.028091*%
%ADD322R,0.024156X0.053680*%
%ADD323R,0.053680X0.024150*%
%ADD324C,0.079737*%
%ADD325C,0.080691*%
%ADD326R,0.030058X0.032028*%
%ADD327C,0.229369*%
%ADD328C,0.116561*%
%ADD329C,0.077664*%
%ADD330R,0.089000X0.089000*%
%ADD331R,0.077000X0.077000*%
%ADD332C,0.180871*%
%ADD333R,0.024156X0.034686*%
%ADD334R,0.015296X0.010372*%
%ADD335R,0.055591X0.000591*%
%ADD336R,0.010373X0.045805*%
%ADD337R,0.010374X0.015295*%
%ADD338R,0.021201X0.024154*%
%ADD339R,0.026656X0.024685*%
%ADD340R,0.032562X0.026652*%
%ADD341R,0.046336X0.017796*%
%ADD342R,0.032556X0.034528*%
%ADD343R,0.026654X0.023702*%
%ADD344R,0.159981X0.116672*%
%ADD345R,0.022717X0.046339*%
%ADD346R,0.034528X0.062085*%
%ADD347R,0.028620X0.030591*%
%ADD348R,0.050278X0.093585*%
%ADD349R,0.030589X0.028622*%
%ADD350R,0.024685X0.036493*%
%ADD351R,0.024686X0.026654*%
%ADD352R,0.062085X0.034526*%
%ADD353R,0.067992X0.046339*%
%ADD354R,0.032558X0.035512*%
%ADD355R,0.020216X0.015296*%
%ADD356C,0.089768*%
%ADD357R,0.047776X0.112735*%
%ADD358R,0.040002X0.040000*%
%ADD359R,0.059586X0.032026*%
%ADD360R,0.035001X0.035000*%
%ADD361C,0.078673*%
%ADD362R,0.100000X0.100000*%
%ADD363R,0.078000X0.078000*%
%ADD364C,0.085733*%
%ADD365R,0.085000X0.085000*%
%ADD366C,0.073630*%
%ADD367R,0.029000X0.161000*%
%ADD368RECT_ROUNDED368*%
%ADD369R,0.070000X0.200000*%
%ADD370R,0.094488X0.129921*%
%ADD371R,0.053150X0.129921*%
%ADD372C,0.267717*%
%ADD373R,0.433071X0.433071*%
%ADD374RECT_ROUNDED374*%
%ADD375R,0.183071X0.104331*%
%ADD376C,0.125000*%
%ADD377R,0.219036X0.219033*%
%ADD378R,0.134173X0.079055*%
%ADD379R,0.014314X0.019230*%
%ADD380C,0.288606*%
%ADD381R,0.033000X0.165000*%
%ADD382RECT_ROUNDED382*%
%ADD383RECT_ROUNDED383*%
%ADD384C,0.041000*%
%ADD385R,0.579625X0.156017*%
%ADD386R,0.038944X0.021454*%
%ADD387R,0.494885X0.112822*%
%ADD388R,0.009343X0.070440*%
%ADD389R,0.026564X0.008702*%
%ADD390R,0.023175X0.062105*%
%ADD391R,0.405774X0.130015*%
%ADD392R,0.011894X0.089666*%
%ADD393R,0.033815X0.011077*%
%ADD394R,0.466047X0.123006*%
%ADD395R,0.418150X0.114700*%
%ADD396R,0.011024X0.057675*%
%ADD397R,0.417901X0.131531*%
%ADD398C,0.036380*%
%ADD399C,0.001959*%
%ADD400R,0.000370X0.000710*%
%ADD401C,0.001359*%
%ADD402R,0.730506X0.156017*%
%ADD403R,0.072876X0.024836*%
%ADD404R,0.029499X0.079055*%
%ADD405R,0.384320X0.130015*%
%ADD406R,0.289400X0.118700*%
%ADD407C,0.018500*%
%ADD408R,0.231250X0.098950*%
%ADD409R,0.240325X0.098950*%
%ADD410R,0.508535X0.111815*%
%ADD411R,0.030594X0.016854*%
%ADD412R,0.377673X0.130015*%
%ADD468C,0.001000*%
%LNtop_solder_0*%
%LPD*%
G54D108*
X709350Y165650D03*
Y175098D03*
G54D164*
X714272Y133950D03*
Y122139D03*
G54D165*
X711024Y206004D03*
G54D136*
X548446Y468800D03*
G54D150*
X546358Y486511D03*
Y493204D03*
G54D153*
X548990Y177703D03*
G54D162*
X1184843Y296161D03*
G54D157*
X1174742Y296578D03*
G54D156*
X1165942D03*
G54D187*
X1317214Y297160D03*
X1426860D03*
X1644061Y297849D03*
G54D201*
X1603400Y296800D03*
G54D187*
X1537368Y297160D03*
G54D150*
X939790Y296835D03*
X949928Y296933D03*
X957900D03*
G54D86*
X999200Y297124D03*
G54D150*
X1063386Y297642D03*
X1272736Y556693D03*
X1265354D03*
X1257776D03*
G54D206*
X965362Y559055D03*
X1378748D03*
G54D190*
X1653051Y557087D03*
G54D206*
X1680315Y559055D03*
G54D232*
X979142D03*
X1392528D03*
X1694095D03*
X1666535D03*
X1364969D03*
G54D150*
X1257776Y563386D03*
X1265354D03*
X1272736D03*
G54D232*
X951583Y559055D03*
X1388492Y568799D03*
X1690059D03*
X1670571D03*
X1680315Y572835D03*
X1369004Y568799D03*
X1378748Y572835D03*
X955619Y568799D03*
X965362Y572835D03*
X975106Y568799D03*
G54D118*
X1209954Y223579D03*
G54D119*
Y218579D03*
G54D200*
X1215554Y184606D03*
G54D168*
X1215378Y291079D03*
G54D136*
X1211617Y174370D03*
X1211996Y237079D03*
G54D110*
X1211912Y166102D03*
G54D232*
X1437803Y33465D03*
G54D206*
Y19685D03*
G54D232*
X1680315Y33465D03*
G54D206*
Y19685D03*
G54D232*
X1201583Y33465D03*
G54D206*
Y19685D03*
G54D232*
X1215362D03*
X1187803D03*
X1191839Y9941D03*
Y29429D03*
X1201583Y5905D03*
X742921Y19684D03*
X965362Y5905D03*
X955619Y29428D03*
Y9941D03*
X951583Y19684D03*
X975106Y9941D03*
Y29428D03*
X979142Y19684D03*
X1211326Y29429D03*
Y9941D03*
X1451583Y19685D03*
X1447547Y29429D03*
Y9941D03*
X1437803Y5905D03*
X1428060Y29429D03*
Y9941D03*
X1424024Y19685D03*
X1694095D03*
X1690059Y29429D03*
Y9941D03*
X1680315Y5905D03*
X1666535Y19685D03*
X1670571Y9941D03*
Y29429D03*
G54D86*
X999200Y275076D03*
G54D150*
X1210334Y466831D03*
Y473524D03*
G54D198*
X1208303Y520079D03*
G54D136*
X1206890Y420571D03*
G54D112*
X1207468Y361200D03*
G54D86*
X872500Y425476D03*
G54D200*
X739100Y424100D03*
G54D202*
X1154400Y424800D03*
G54D203*
X1136400D03*
G54D88*
X893799Y427953D03*
X901870D03*
G54D136*
X910532Y427854D03*
G54D184*
X999803Y425295D03*
X992323D03*
G54D86*
X1069800Y427876D03*
X1091600Y427976D03*
G54D136*
X917225Y427854D03*
X1114764Y286291D03*
X1114964Y294891D03*
G54D110*
X1114469Y211502D03*
G54D138*
X1093819Y244946D03*
G54D139*
X1068425Y235931D03*
G54D150*
X973130Y168209D03*
G54D164*
X950350Y166086D03*
G54D187*
X923671Y242292D03*
G54D136*
X896004Y240492D03*
X902697D03*
X944197Y242492D03*
X937504D03*
G54D89*
X1004921Y403642D03*
Y406201D03*
Y401083D03*
G54D90*
Y398524D03*
G54D110*
X1004724Y362894D03*
G54D199*
X1005217Y309941D03*
G54D136*
X890184Y330004D03*
X883491D03*
G54D150*
X819100Y331746D03*
X739100D03*
X957310Y330201D03*
G54D110*
X948845Y330004D03*
X941365D03*
G54D136*
X927881Y329709D03*
G54D187*
X914516Y330579D03*
G54D136*
X934574Y329709D03*
X1109351Y194572D03*
X1102658D03*
G54D138*
X1093819Y226915D03*
G54D136*
X1020049Y222885D03*
X1026742D03*
G54D150*
X1093799Y220163D03*
G54D136*
X1104363Y227053D03*
G54D110*
X1110728Y220163D03*
G54D136*
X1111056Y227053D03*
G54D154*
X1020042Y236201D03*
X1037759D03*
G54D136*
X1102657Y202643D03*
G54D157*
X1093898Y206403D03*
G54D156*
X1085098D03*
G54D150*
X1093799Y213470D03*
G54D110*
X1106988Y211502D03*
G54D136*
X1109350Y202643D03*
G54D86*
X1058200Y205224D03*
G54D110*
X954350Y234661D03*
G54D106*
X953409Y186252D03*
G54D164*
X950350Y177897D03*
G54D107*
X953409Y193732D03*
G54D150*
X966850Y236645D03*
G54D151*
X959174Y225532D03*
Y221792D03*
G54D152*
Y218052D03*
G54D150*
X973130Y174902D03*
G54D162*
X963550Y176909D03*
G54D150*
X967520Y204035D03*
Y210728D03*
X959550Y204245D03*
Y210938D03*
G54D112*
X959718Y189992D03*
X968182Y186252D03*
Y193732D03*
G54D154*
X864272Y381988D03*
G54D165*
X483465Y202264D03*
G54D150*
X480744Y306534D03*
Y313226D03*
G54D164*
X478051Y122139D03*
Y133950D03*
G54D165*
X483465Y209744D03*
G54D232*
X483178Y549312D03*
Y568799D03*
G54D206*
X492921Y559055D03*
G54D155*
X1638394Y108563D03*
X1634654D03*
X1616839D03*
X1613099D03*
X1376878D03*
X1251730D03*
X1247990D03*
X1380618D03*
G54D87*
X1496858Y108071D03*
G54D155*
X1591347Y108563D03*
X1595087D03*
G54D193*
X948032Y406933D03*
G54D199*
X949213Y367618D03*
G54D136*
X948550Y337681D03*
G54D88*
X947539Y353445D03*
G54D136*
X756853Y316200D03*
G54D177*
X729665Y314239D03*
G54D136*
X763546Y316200D03*
X832447Y316300D03*
X825754D03*
G54D177*
X809665Y314239D03*
X780335D03*
G54D136*
X1164096Y218279D03*
G54D110*
X1165849Y157244D03*
G54D131*
X924950Y249575D03*
X927509D03*
G54D157*
X937050Y249892D03*
G54D156*
X945850D03*
G54D110*
X950610Y243323D03*
G54D136*
X951004Y250492D03*
X957696D03*
G54D110*
X958090Y243323D03*
G54D150*
X966850Y243338D03*
G54D131*
X922391Y249575D03*
X919832D03*
G54D85*
X910450Y247792D03*
G54D165*
X1020087Y136417D03*
X1028748Y140157D03*
G54D150*
X1024418Y147933D03*
G54D165*
X1028748Y132677D03*
G54D155*
X1026287Y108563D03*
Y101476D03*
X1022547Y108563D03*
Y101476D03*
G54D195*
X1042134Y60787D03*
G54D150*
X1024418Y154626D03*
G54D193*
X1018512Y57087D03*
G54D195*
X1006701Y60787D03*
G54D193*
X1030323Y57087D03*
G54D86*
X1058200Y183176D03*
G54D229*
X79534Y41318D03*
X197646Y41339D03*
X315755D03*
X433865D03*
G54D154*
X1081258Y46300D03*
G54D229*
X788198Y41339D03*
G54D193*
X918118Y45276D03*
X906307D03*
G54D194*
X929929D03*
G54D193*
X882685D03*
X894496D03*
G54D229*
X670087Y41339D03*
X551977D03*
G54D194*
X1030323Y45276D03*
G54D193*
X1018512D03*
G54D154*
X1063542Y46300D03*
G54D231*
X1402370Y43465D03*
X1355126D03*
G54D194*
X1626780Y45275D03*
G54D193*
X1614969D03*
X1603158D03*
G54D194*
X1496858Y45276D03*
X1148433D03*
G54D193*
X1136622D03*
G54D161*
X859292Y508443D03*
X1030321Y510098D03*
G54D150*
X894882Y489961D03*
G54D86*
X872500Y447524D03*
G54D160*
X869292Y469073D03*
G54D230*
X788198Y61024D03*
G54D193*
X906307Y57087D03*
X894496D03*
G54D195*
X941740Y60787D03*
G54D193*
X929929Y57087D03*
X918118D03*
G54D195*
X870874Y60787D03*
G54D193*
X882685Y57087D03*
G54D228*
X760639Y78740D03*
X815757D03*
G54D165*
X889764Y137402D03*
G54D136*
X849832Y166050D03*
G54D165*
X869685Y137697D03*
X878346Y133957D03*
G54D150*
X874016Y154921D03*
G54D165*
X878346Y141437D03*
G54D150*
X874016Y148228D03*
G54D162*
X727472Y132962D03*
Y121545D03*
G54D136*
X786220Y123910D03*
G54D110*
X778150Y132972D03*
G54D162*
X845582Y121545D03*
Y132962D03*
G54D164*
X832382Y133950D03*
Y122139D03*
G54D136*
X792913Y123910D03*
G54D110*
X770669Y132972D03*
X774410Y124311D03*
G54D106*
X822575Y142763D03*
X825134D03*
X827693D03*
G54D136*
X731722Y166050D03*
X725029D03*
G54D108*
X716831Y165650D03*
G54D106*
X822575Y150243D03*
X825134D03*
G54D107*
X827693D03*
G54D200*
X818898Y160039D03*
G54D108*
X827461Y165650D03*
X834941D03*
G54D136*
X843139Y166050D03*
G54D155*
X875846Y101476D03*
X936789D03*
X918937D03*
X893660D03*
X897400D03*
X915197D03*
X940530D03*
X872106D03*
G54D135*
X785702Y103150D03*
X792788D03*
G54D155*
X875846Y108563D03*
G54D135*
X792788Y106890D03*
G54D155*
X918937Y108563D03*
X893660D03*
X897400D03*
X915197D03*
X936789D03*
X940530D03*
X872106D03*
G54D135*
X785702Y106890D03*
G54D201*
X922292Y455343D03*
G54D162*
X904921Y478740D03*
Y467323D03*
G54D150*
X894882Y483268D03*
G54D87*
X894727Y475519D03*
Y467448D03*
G54D224*
X945307Y484276D03*
G54D163*
X982884Y453935D03*
X971467D03*
G54D150*
X985434Y432776D03*
Y439468D03*
G54D136*
X979247Y428100D03*
X972554D03*
G54D224*
X961606Y484276D03*
G54D88*
X996752Y453937D03*
G54D159*
X1020321Y470728D03*
G54D150*
Y457650D03*
X1004823Y461516D03*
G54D88*
Y453937D03*
G54D150*
Y468209D03*
X992913Y439468D03*
X1008366Y432776D03*
Y439468D03*
X1000493Y432776D03*
Y439468D03*
X992913Y432776D03*
X1020321Y450957D03*
G54D179*
X807962Y357441D03*
G54D136*
X824989Y355571D03*
X818296D03*
G54D180*
X807962Y360000D03*
G54D124*
X808455Y376620D03*
G54D136*
X818296Y364134D03*
G54D180*
X807962Y362559D03*
G54D136*
X824989Y364134D03*
X823847Y376801D03*
X817154D03*
G54D154*
X846555Y381988D03*
G54D136*
X823847Y405401D03*
X817154D03*
G54D124*
X808455Y405300D03*
Y384100D03*
G54D136*
X817154Y384201D03*
X823847D03*
G54D124*
X808455Y397820D03*
G54D136*
X817154Y397801D03*
X823847D03*
G54D124*
X808455Y401560D03*
Y380360D03*
G54D177*
X729665Y458984D03*
X809665D03*
X780335D03*
X809665Y466661D03*
Y464102D03*
Y461543D03*
Y476898D03*
Y474339D03*
Y469220D03*
Y471780D03*
Y479457D03*
Y482016D03*
G54D150*
X821800Y474447D03*
Y467754D03*
X821801Y484353D03*
G54D159*
X849292Y469073D03*
G54D177*
X809665Y484575D03*
Y487134D03*
X729665Y466661D03*
Y464102D03*
Y461543D03*
G54D136*
X750534Y461478D03*
X743841D03*
G54D177*
X729665Y476898D03*
Y474339D03*
Y471780D03*
Y482016D03*
Y479457D03*
Y487134D03*
G54D150*
X738900Y485153D03*
G54D177*
X729665Y484575D03*
G54D136*
X745847Y474400D03*
X739154D03*
G54D177*
X729665Y469220D03*
G54D150*
X755500Y478254D03*
Y484947D03*
G54D177*
X780335Y466661D03*
Y461543D03*
Y464102D03*
Y479457D03*
Y482016D03*
Y484575D03*
Y487134D03*
Y476898D03*
Y474339D03*
Y471780D03*
Y469220D03*
G54D136*
X890085Y322326D03*
X883392D03*
G54D150*
X957310Y323508D03*
G54D110*
X945105Y321342D03*
G54D136*
X927684Y321638D03*
G54D132*
X918355Y325939D03*
X915796D03*
X913237D03*
X910678D03*
G54D84*
X901296Y327279D03*
G54D136*
X934377Y321638D03*
G54D200*
X672400Y411000D03*
X675492Y426968D03*
G54D136*
X674803Y123910D03*
G54D135*
X674678Y106890D03*
Y103150D03*
G54D199*
X883268Y311024D03*
G54D153*
X901011Y307563D03*
G54D151*
X949928Y311795D03*
Y308055D03*
G54D152*
Y304315D03*
G54D151*
X940479Y311795D03*
Y304315D03*
G54D153*
X923058Y307563D03*
G54D136*
X763546Y301500D03*
X756853D03*
G54D177*
X729665Y298884D03*
Y301443D03*
Y304002D03*
G54D136*
X832447Y301500D03*
X825754D03*
G54D177*
X809665Y304002D03*
Y301443D03*
Y298884D03*
X780335Y304002D03*
Y301443D03*
Y298884D03*
X729665Y309120D03*
G54D136*
X832447Y309100D03*
X825754D03*
G54D177*
X780335Y306561D03*
Y309120D03*
Y311680D03*
X809665Y306561D03*
Y309120D03*
Y311680D03*
X729665Y306561D03*
Y311680D03*
G54D136*
X756853Y309000D03*
X763546D03*
X805047Y279100D03*
X798354D03*
X791446Y279000D03*
X784753D03*
X756853Y278900D03*
X763546D03*
X770753D03*
X777446D03*
X811954Y278800D03*
X825954Y279000D03*
X832647D03*
G54D200*
X983000Y280000D03*
X953900Y280500D03*
G54D136*
X818647Y278800D03*
X756853Y286300D03*
X763546D03*
X825754Y286500D03*
X832447D03*
G54D150*
X957900Y290240D03*
X949928D03*
X939790Y290142D03*
G54D177*
X809665Y296325D03*
G54D176*
Y293766D03*
G54D177*
X780335Y296325D03*
Y293766D03*
G54D136*
X825754Y294000D03*
X832447D03*
G54D177*
X729665Y296325D03*
G54D176*
Y293766D03*
G54D136*
X756853Y293900D03*
X763546D03*
G54D144*
X968685Y417000D03*
G54D136*
X972453Y406100D03*
G54D88*
X955610Y353445D03*
G54D165*
X957579Y360138D03*
G54D136*
X963779Y353445D03*
X970472D03*
X972933Y363386D03*
G54D165*
X957579Y367618D03*
X966240Y363878D03*
G54D231*
X959843Y399217D03*
G54D136*
X972453Y398500D03*
G54D144*
X979315Y417000D03*
G54D184*
X996063Y416831D03*
G54D89*
X988780Y406201D03*
Y403642D03*
G54D136*
X979146Y406100D03*
G54D84*
X995276Y362165D03*
G54D150*
X987303Y363386D03*
G54D136*
X979626D03*
G54D85*
X995276Y370965D03*
G54D150*
X987303Y370079D03*
G54D136*
X979146Y398500D03*
G54D89*
X988780Y398524D03*
Y401083D03*
G54D131*
X918355Y337863D03*
X915796D03*
X913237D03*
X910678D03*
G54D85*
X901296Y336079D03*
G54D156*
X936696Y338179D03*
G54D150*
X939370Y353248D03*
Y359941D03*
G54D157*
X927896Y338179D03*
G54D136*
X941857Y337681D03*
G54D85*
X939370Y367717D03*
G54D186*
X924114Y381102D03*
X894980D03*
G54D136*
X900361Y418790D03*
X893668D03*
G54D193*
X936221Y406933D03*
G54D194*
X924409D03*
G54D136*
X900172Y409981D03*
X893369Y400886D03*
G54D200*
X876870Y400000D03*
G54D136*
X900062Y400886D03*
G54D231*
X912598Y399217D03*
G54D84*
X939370Y376517D03*
G54D136*
X893479Y409981D03*
G54D105*
X768677Y377480D03*
X766118D03*
X763559D03*
X761000D03*
X758441D03*
X755882D03*
X753323D03*
G54D177*
X729665Y381584D03*
Y379025D03*
G54D176*
Y376466D03*
G54D150*
X765900Y360153D03*
X758500Y360053D03*
X751000Y360153D03*
X765900Y366846D03*
X758500Y366746D03*
X751000Y366846D03*
G54D177*
X729665Y384143D03*
G54D150*
X733661Y202264D03*
X726165Y202212D03*
X844275D03*
X851772Y202264D03*
G54D131*
X799234Y206087D03*
G54D85*
X784744Y206102D03*
G54D131*
X794116Y206087D03*
X796675D03*
X801793D03*
G54D136*
X815354Y206004D03*
X822047D03*
G54D165*
X829134D03*
X837795Y209744D03*
X719685D03*
G54D150*
X729700Y444747D03*
X787922Y432766D03*
Y439459D03*
X729700Y438054D03*
G54D177*
X780335Y456425D03*
Y453866D03*
G54D176*
X729665D03*
G54D177*
Y456425D03*
G54D199*
X857156Y442549D03*
G54D136*
X833647Y453473D03*
X840340D03*
G54D156*
X849606Y453543D03*
G54D157*
X858406D03*
G54D150*
X803822Y432766D03*
Y439459D03*
X795872Y432766D03*
Y439459D03*
G54D176*
X809665Y453866D03*
G54D177*
Y456425D03*
G54D136*
X598750Y305543D03*
X592057D03*
G54D158*
X1076406Y63900D03*
X1064595D03*
G54D200*
X1074100Y182800D03*
G54D151*
X1085433Y186108D03*
Y193588D03*
G54D136*
X1073647Y77306D03*
X1066954D03*
G54D195*
X1068701Y149606D03*
G54D136*
X1086289Y169700D03*
X1086355Y177153D03*
X1092982Y169700D03*
X1108892Y184870D03*
X1093047Y177153D03*
G54D152*
X1094882Y186108D03*
G54D151*
Y189848D03*
Y193588D03*
G54D136*
X1102199Y184870D03*
X1108993Y176957D03*
X1102300D03*
X776980Y197003D03*
X770287D03*
G54D150*
X733661Y195571D03*
X726165Y195519D03*
G54D136*
X777134Y189003D03*
X770441D03*
X731722Y182957D03*
X725029D03*
G54D165*
X719685Y202264D03*
G54D136*
X731722Y174492D03*
X725029D03*
G54D109*
X716831Y175098D03*
G54D108*
X713091D03*
G54D199*
X773434Y177363D03*
G54D153*
X785210Y177703D03*
G54D150*
X739100Y414446D03*
G54D177*
X729665Y389261D03*
Y386702D03*
Y399498D03*
Y391820D03*
Y394380D03*
G54D150*
X745500Y399954D03*
G54D177*
X729665Y402057D03*
G54D150*
X745500Y406647D03*
X739100Y407753D03*
G54D177*
X729665Y409734D03*
Y407175D03*
Y404616D03*
Y396939D03*
G54D150*
X766100Y416147D03*
X758800Y416347D03*
Y409654D03*
X766100Y409454D03*
G54D105*
X758441Y399920D03*
X755882D03*
X768677D03*
X766118D03*
X763559D03*
X761000D03*
X753323D03*
G54D147*
X580118Y466043D03*
G54D146*
Y456043D03*
G54D177*
X700335Y319357D03*
Y309120D03*
Y306561D03*
Y304002D03*
Y301443D03*
Y298884D03*
Y296325D03*
Y293766D03*
Y311680D03*
Y314239D03*
Y321916D03*
Y324475D03*
Y327034D03*
Y316798D03*
G54D200*
X677400Y373200D03*
G54D177*
X700335Y389261D03*
Y407175D03*
Y402057D03*
Y409734D03*
Y404616D03*
Y399498D03*
Y396939D03*
Y394380D03*
Y391820D03*
Y386702D03*
Y384143D03*
Y381584D03*
Y379025D03*
Y376466D03*
G54D206*
X310138Y559055D03*
G54D187*
X325513Y198803D03*
G54D132*
X324234Y194163D03*
G54D130*
X326484Y449500D03*
G54D232*
X323917Y559055D03*
G54D131*
X324234Y206087D03*
G54D215*
X413709Y464677D03*
G54D228*
X406306Y78740D03*
G54D130*
X412416Y345594D03*
G54D220*
X679900Y535138D03*
G54D150*
X687500Y481146D03*
Y474453D03*
G54D87*
X705217Y531644D03*
G54D177*
X700335Y476898D03*
Y479457D03*
Y482016D03*
Y484575D03*
Y487134D03*
G54D87*
X705217Y539715D03*
G54D177*
X700335Y474339D03*
Y471780D03*
Y469220D03*
Y453866D03*
Y456425D03*
Y458984D03*
Y461543D03*
Y464102D03*
Y466661D03*
G54D100*
X1445571Y483110D03*
G54D83*
X1453179Y309547D03*
G54D150*
X1452844Y356004D03*
Y349311D03*
G54D119*
X1452943Y385866D03*
Y380866D03*
G54D138*
X1063406Y329610D03*
Y311579D03*
G54D150*
X1063386Y304335D03*
G54D162*
X1054134Y351575D03*
G54D139*
X1038012Y320595D03*
G54D126*
X1024409Y352362D03*
X1040551Y351772D03*
G54D195*
X1017520Y422303D03*
X1052953D03*
G54D193*
X1041142Y418602D03*
X1029331D03*
G54D200*
X1055807Y373917D03*
G54D162*
X1054134Y362992D03*
G54D110*
X1012205Y362894D03*
G54D126*
X1040551Y368701D03*
G54D110*
X1008465Y371555D03*
G54D126*
X1024409Y369291D03*
G54D200*
X1079528Y395768D03*
G54D153*
X1043424Y384600D03*
X1021376D03*
G54D194*
X1029331Y406791D03*
G54D193*
X1041142D03*
G54D136*
X763546Y323700D03*
X756853D03*
G54D150*
X739100Y325053D03*
G54D177*
X729665Y321916D03*
Y324475D03*
Y327034D03*
Y316798D03*
Y319357D03*
X809665D03*
X780335D03*
Y324475D03*
Y321916D03*
Y327034D03*
X809665Y321916D03*
Y324475D03*
Y327034D03*
G54D150*
X819100Y325053D03*
G54D177*
X780335Y316798D03*
X809665D03*
G54D195*
X637795Y149606D03*
G54D199*
X655323Y177363D03*
G54D228*
X642528Y78740D03*
G54D135*
X667591Y106890D03*
Y103150D03*
G54D136*
X668110Y123910D03*
G54D230*
X670087Y61024D03*
G54D110*
X652559Y132972D03*
X656299Y124311D03*
X660040Y132972D03*
G54D153*
X667100Y177703D03*
G54D136*
X652177Y197003D03*
X658870D03*
G54D85*
X666634Y206102D03*
G54D84*
Y197302D03*
G54D136*
X659023Y189003D03*
X652331D03*
G54D176*
X649665Y293766D03*
G54D177*
Y296325D03*
Y298884D03*
Y301443D03*
Y304002D03*
G54D132*
X683683Y194163D03*
G54D131*
Y206087D03*
X676005D03*
X678564D03*
X681123D03*
G54D132*
Y194163D03*
G54D187*
X679844Y198803D03*
G54D132*
X678564Y194163D03*
X676005D03*
G54D153*
X689147Y177703D03*
G54D228*
X697646Y78740D03*
G54D106*
X709583Y142763D03*
X707023D03*
X704464D03*
G54D107*
X709583Y150243D03*
G54D106*
X707023D03*
X704464D03*
G54D136*
X703937Y206004D03*
X703838Y198425D03*
X697244Y206004D03*
X697145Y198425D03*
G54D157*
X704469Y189960D03*
G54D156*
X695669D03*
G54D200*
X700787Y160039D03*
G54D136*
X613612Y174492D03*
X606919D03*
G54D153*
X571037Y177703D03*
G54D136*
X521383Y367340D03*
X528076D03*
G54D221*
X669900Y535138D03*
X659900D03*
X649900D03*
G54D195*
X637795Y496063D03*
G54D222*
X645700Y547538D03*
G54D177*
X649665Y327034D03*
Y324475D03*
Y321916D03*
Y309120D03*
Y306561D03*
Y311680D03*
Y314239D03*
Y316798D03*
Y319357D03*
G54D150*
X659100Y325053D03*
Y331746D03*
G54D94*
X574460Y411229D03*
Y403355D03*
Y405324D03*
Y407292D03*
Y409261D03*
Y413198D03*
Y401387D03*
Y393513D03*
Y391544D03*
Y395481D03*
Y397450D03*
Y399418D03*
Y421072D03*
Y419103D03*
Y417135D03*
Y415166D03*
G54D115*
X395233Y283671D03*
X392674D03*
X397792D03*
X400351D03*
X402910D03*
X405469D03*
X408028D03*
X410587D03*
G54D125*
X638878Y380708D03*
G54D124*
Y376968D03*
X647933D03*
Y380708D03*
G54D88*
X658586Y365978D03*
G54D124*
X647933Y373228D03*
X638878D03*
G54D88*
X666657Y365978D03*
G54D136*
X645954Y390700D03*
X652647D03*
G54D124*
X646456Y423326D03*
X637401D03*
G54D150*
X645300Y405454D03*
G54D136*
X663090Y410925D03*
X656398D03*
G54D150*
X645300Y412147D03*
G54D199*
X637205Y411023D03*
G54D124*
X646456Y427067D03*
G54D125*
X637401D03*
G54D136*
X656398Y419586D03*
X645954Y398100D03*
X652647D03*
G54D200*
X664400D03*
G54D136*
X663090Y419586D03*
G54D124*
X646456D03*
X637401D03*
G54D224*
X961606Y500575D03*
G54D223*
X945307D03*
G54D225*
X927787D03*
G54D195*
X1068701Y496063D03*
G54D227*
X1088131Y500575D03*
G54D223*
X1105650D03*
G54D224*
X1121950D03*
X1138249D03*
G54D150*
X821801Y491046D03*
X738900Y491846D03*
X794800Y508447D03*
Y501754D03*
X803000Y508447D03*
Y501754D03*
G54D232*
X975106Y549312D03*
X965362Y545276D03*
X955619Y549312D03*
G54D87*
X727067Y539715D03*
X748327D03*
X769882D03*
X791437D03*
X813287D03*
X727067Y531644D03*
X748327D03*
X769882D03*
X791437D03*
X813287D03*
G54D150*
X450300Y276862D03*
G54D199*
X450200Y290600D03*
G54D150*
X450300Y283555D03*
G54D136*
X450154Y449400D03*
X450932Y384256D03*
X450154Y441526D03*
G54D200*
X451400Y356300D03*
G54D153*
X452927Y177703D03*
G54D136*
X579035Y198425D03*
G54D84*
X548524Y197302D03*
G54D156*
X577559Y189960D03*
G54D85*
X548524Y206102D03*
G54D131*
X557895Y206087D03*
X560454D03*
X563013D03*
G54D132*
Y194163D03*
G54D187*
X561734Y198803D03*
G54D132*
X560454Y194163D03*
X557895D03*
X565572D03*
G54D136*
X579134Y206004D03*
G54D131*
X565572Y206087D03*
G54D136*
X585728Y198425D03*
G54D157*
X586359Y189960D03*
G54D136*
X585827Y206004D03*
G54D165*
X601575Y209744D03*
Y202264D03*
G54D136*
X606919Y182957D03*
G54D150*
X615551Y202264D03*
X608055Y202212D03*
G54D136*
X613612Y182957D03*
G54D150*
X615551Y195571D03*
X608055Y195519D03*
G54D109*
X598721Y175098D03*
G54D108*
X594980D03*
X591240D03*
G54D165*
X592913Y206004D03*
G54D136*
X596931Y409252D03*
X590238D03*
Y418701D03*
X596931D03*
Y383957D03*
X590238D03*
X583545Y401695D03*
X590238D03*
Y376476D03*
X596931D03*
G54D213*
X620827Y424409D03*
X610827D03*
G54D177*
X620335Y327034D03*
Y324475D03*
Y321916D03*
G54D214*
X620827Y414409D03*
G54D213*
X610827D03*
G54D177*
X620335Y306561D03*
G54D201*
X610236Y370965D03*
G54D177*
X620335Y319357D03*
G54D136*
X612221Y383957D03*
X605528D03*
G54D177*
X620335Y309120D03*
Y311680D03*
Y314239D03*
Y316798D03*
G54D136*
X789346Y397900D03*
X782653D03*
Y384200D03*
X789346D03*
Y405300D03*
X782653D03*
Y376400D03*
X789346D03*
G54D124*
X799400Y397820D03*
G54D180*
X800481Y357441D03*
Y360000D03*
G54D124*
X799400Y401560D03*
Y376620D03*
Y380360D03*
G54D125*
Y384100D03*
G54D180*
X800481Y362559D03*
G54D125*
X799400Y405300D03*
G54D150*
X559071Y355311D03*
G54D93*
X551429Y376387D03*
X549460D03*
G54D150*
X559071Y362004D03*
G54D93*
X561271Y376387D03*
X559303D03*
X557335D03*
X555366D03*
X553397D03*
X547492D03*
G54D150*
X575899Y339311D03*
G54D145*
X567071Y339737D03*
G54D150*
X575900Y354311D03*
X575899Y346004D03*
X567071Y354311D03*
G54D145*
Y345642D03*
G54D94*
X574460Y389576D03*
G54D150*
X567071Y361004D03*
X575900D03*
G54D94*
X574460Y387607D03*
Y385639D03*
Y383670D03*
G54D199*
X574400Y370600D03*
G54D93*
X567177Y376387D03*
X565208D03*
X563240D03*
G54D199*
X533000Y473200D03*
G54D213*
X620827Y434409D03*
X610827D03*
G54D136*
X592293Y442400D03*
Y433900D03*
X585600Y442400D03*
G54D147*
X601772Y466043D03*
G54D199*
X613900Y473800D03*
G54D136*
X600099Y483165D03*
X593406D03*
G54D146*
X601772Y456043D03*
G54D136*
X585600Y433900D03*
G54D150*
X608500Y491154D03*
G54D136*
X600099Y490940D03*
X593406D03*
G54D150*
X585925Y491334D03*
G54D220*
X620200Y535138D03*
G54D221*
X610200D03*
X600200D03*
X590200D03*
G54D222*
X586000Y547538D03*
G54D150*
X608500Y497847D03*
G54D189*
X601369Y504500D03*
Y498595D03*
X599400Y504500D03*
Y498595D03*
X597432Y504500D03*
G54D188*
Y498595D03*
G54D150*
X586024Y504720D03*
Y511413D03*
X585925Y498027D03*
X565200Y464654D03*
X554625Y493203D03*
G54D136*
X570669Y490940D03*
X577362D03*
G54D180*
X550393Y502554D03*
Y505113D03*
Y507672D03*
G54D136*
X577362Y483165D03*
X570669D03*
G54D150*
X565200Y471347D03*
X554625Y486511D03*
G54D189*
X578869Y504500D03*
G54D188*
X574932Y498595D03*
G54D189*
Y504500D03*
X576900Y498595D03*
Y504500D03*
X578869Y498595D03*
G54D143*
X550071Y459658D03*
G54D150*
X557185Y447441D03*
Y454134D03*
G54D93*
X561271Y438198D03*
X547492D03*
X549460D03*
X551429D03*
X553397D03*
X555366D03*
X557335D03*
X559303D03*
G54D94*
X574460Y423040D03*
Y425009D03*
Y426977D03*
Y428946D03*
Y430914D03*
G54D93*
X567177Y438198D03*
X565208D03*
X563240D03*
G54D136*
X495400Y477200D03*
X502093D03*
G54D199*
X485400Y486500D03*
G54D136*
X495453Y484800D03*
X502146D03*
G54D199*
X497700Y493100D03*
G54D232*
X492921Y545276D03*
X502665Y549312D03*
X492921Y572835D03*
X502665Y568799D03*
X506701Y559055D03*
G54D155*
X518028Y531752D03*
Y538839D03*
G54D114*
X155807Y312894D03*
G54D150*
X152362Y258956D03*
Y252263D03*
G54D94*
X512649Y407292D03*
Y389576D03*
Y391544D03*
Y403355D03*
G54D136*
X496872Y401400D03*
X503565D03*
G54D94*
X512649Y405324D03*
Y401387D03*
Y399418D03*
Y397450D03*
Y395481D03*
Y393513D03*
G54D136*
X520153Y447300D03*
X520053Y455200D03*
G54D93*
X519933Y438198D03*
G54D84*
X430413Y197302D03*
G54D136*
X431890Y123910D03*
G54D135*
X431371Y106890D03*
Y103150D03*
G54D85*
X430413Y206102D03*
G54D153*
X430879Y177703D03*
G54D230*
X433865Y61024D03*
G54D193*
X364409Y459177D03*
G54D136*
X365095Y401522D03*
G54D94*
X512649Y387607D03*
Y385639D03*
Y383670D03*
G54D93*
X525838Y376387D03*
X523870D03*
X521901D03*
X519933D03*
X527807D03*
X545523D03*
X543555D03*
X541586D03*
X539618D03*
X537649D03*
X535681D03*
X533712D03*
X531744D03*
X529775D03*
G54D136*
X556693Y123910D03*
G54D135*
X556568Y106890D03*
Y103150D03*
G54D230*
X551977Y61024D03*
G54D135*
X549481Y103150D03*
Y106890D03*
G54D136*
X550000Y123910D03*
G54D228*
X579536Y78740D03*
G54D200*
X582677Y160039D03*
G54D164*
X596161Y133950D03*
Y122139D03*
G54D108*
X591240Y165650D03*
X598721D03*
G54D136*
X606919Y166050D03*
X613612D03*
G54D162*
X609361Y132962D03*
Y121545D03*
G54D106*
X586354Y150243D03*
X588913D03*
G54D107*
X591472D03*
G54D106*
X586354Y142763D03*
X588913D03*
X591472D03*
G54D98*
X478505Y463529D03*
X456851D03*
G54D94*
X512649Y423040D03*
Y409261D03*
Y421072D03*
Y419103D03*
Y417135D03*
Y415166D03*
Y413198D03*
G54D136*
X496872Y410921D03*
X503565D03*
G54D94*
X512649Y411229D03*
G54D136*
X486402Y422816D03*
G54D199*
X515700Y469700D03*
G54D136*
X502093D03*
X495400D03*
X495447Y454700D03*
X488754D03*
X495447Y462000D03*
X488754D03*
X496872Y431000D03*
G54D94*
X512649Y428946D03*
Y426977D03*
Y425009D03*
Y430914D03*
G54D136*
X503565Y431000D03*
G54D179*
X486205Y434036D03*
G54D180*
Y436595D03*
Y439154D03*
G54D150*
X521751Y486510D03*
G54D179*
X526771Y507672D03*
G54D180*
Y505113D03*
Y502554D03*
G54D155*
X521768Y538839D03*
G54D150*
X521751Y493203D03*
G54D155*
X521768Y531752D03*
G54D150*
X530117Y486609D03*
Y493302D03*
X537991Y486511D03*
G54D155*
X543717Y531752D03*
G54D180*
X534251Y502554D03*
Y507672D03*
X542913Y502554D03*
Y505113D03*
G54D179*
Y507672D03*
G54D155*
X543717Y538839D03*
X539976D03*
G54D180*
X534251Y505113D03*
G54D150*
X537991Y493204D03*
G54D155*
X539976Y531752D03*
G54D136*
X443046Y468300D03*
X436353D03*
G54D150*
X444154Y454215D03*
X436477Y454412D03*
X444154Y460908D03*
X436477Y461105D03*
G54D136*
X443046Y475800D03*
X436353D03*
X442947Y483200D03*
X436254D03*
G54D199*
X440700Y491600D03*
G54D87*
X421949Y539759D03*
X443898D03*
Y531688D03*
X421949D03*
G54D122*
X426730Y390602D03*
Y385602D03*
Y375602D03*
Y365602D03*
Y370602D03*
G54D112*
X442762Y372839D03*
G54D123*
X426730Y360602D03*
G54D136*
X444239Y384256D03*
G54D122*
X426730Y395602D03*
Y380602D03*
G54D136*
X432053Y419472D03*
Y411500D03*
G54D119*
X420037Y418003D03*
G54D118*
Y413003D03*
G54D136*
X438943Y426953D03*
X432250D03*
G54D201*
X422006Y433023D03*
G54D136*
X438746Y411500D03*
Y419472D03*
G54D157*
X468249Y189960D03*
G54D156*
X459449D03*
G54D106*
X473362Y142763D03*
X468244Y150243D03*
X470803D03*
G54D107*
X473362D03*
G54D108*
X476870Y175098D03*
X473130D03*
G54D200*
X464567Y160039D03*
G54D108*
X480610Y165650D03*
X473130D03*
G54D109*
X480610Y175098D03*
G54D106*
X470803Y142763D03*
X468244D03*
G54D228*
X461424Y78740D03*
G54D136*
X467618Y198425D03*
X460925D03*
G54D104*
X480744Y272577D03*
G54D197*
X467300Y273100D03*
G54D196*
Y283100D03*
G54D104*
X480744Y294624D03*
G54D150*
X473362Y306534D03*
G54D165*
X474803Y206004D03*
G54D136*
X467716D03*
X461024D03*
G54D150*
X473362Y313226D03*
X490500Y333646D03*
G54D211*
X515700Y344000D03*
X510700D03*
G54D212*
X515700Y339000D03*
G54D211*
X510700D03*
Y349000D03*
Y354000D03*
Y359000D03*
X515700Y349000D03*
Y354000D03*
Y359000D03*
G54D199*
X534800Y312000D03*
G54D150*
X488322Y313226D03*
X509878D03*
X490500Y326953D03*
X519000Y327846D03*
Y321153D03*
X526500Y327846D03*
Y321153D03*
G54D183*
X499051Y317951D03*
G54D110*
X1327982Y474016D03*
Y454528D03*
G54D87*
X465748Y531457D03*
Y539528D03*
G54D232*
X479142Y559055D03*
G54D98*
X478505Y468529D03*
Y466029D03*
X456851D03*
Y468529D03*
X478505Y473529D03*
G54D106*
X468794Y487174D03*
G54D107*
X466235D03*
G54D199*
X453100Y486900D03*
G54D106*
X471353Y487174D03*
G54D98*
X478505Y471029D03*
X456851D03*
G54D99*
Y473529D03*
G54D85*
X477440Y502145D03*
G54D84*
Y510945D03*
G54D106*
X466235Y494655D03*
G54D84*
X460340Y510945D03*
G54D85*
Y502145D03*
G54D150*
X468794Y508792D03*
Y502099D03*
G54D106*
Y494655D03*
X471353D03*
G54D132*
X444903Y194163D03*
G54D187*
X443623Y198803D03*
G54D132*
X442344Y194163D03*
X439785D03*
G54D131*
Y206087D03*
X442344D03*
X444903D03*
X447462D03*
G54D132*
Y194163D03*
G54D136*
X438583Y123910D03*
G54D135*
X438457Y103150D03*
Y106890D03*
G54D199*
X444900Y333200D03*
G54D150*
X442700Y277062D03*
X435100Y277162D03*
Y283855D03*
X442700Y283755D03*
G54D145*
X435400Y346247D03*
Y352153D03*
G54D199*
X444900Y323000D03*
Y302600D03*
Y312800D03*
G54D128*
X182151Y410229D03*
X168962D03*
G54D98*
X456851Y456029D03*
G54D200*
X461400Y384200D03*
G54D112*
X451227Y369098D03*
G54D136*
X456847Y441526D03*
G54D112*
X451227Y376579D03*
G54D98*
X456851Y461029D03*
Y458529D03*
G54D136*
X456847Y449400D03*
G54D199*
X463200Y416500D03*
Y432700D03*
G54D136*
X464253Y449400D03*
X479710Y422816D03*
G54D180*
X478725Y436595D03*
Y439154D03*
Y434036D03*
G54D98*
X478505Y461029D03*
Y458529D03*
Y456029D03*
G54D136*
X470946Y449400D03*
G54D93*
X531744Y438198D03*
X529775D03*
X527807D03*
X521901D03*
X523870D03*
X525838D03*
G54D136*
X526746Y455200D03*
X526846Y447300D03*
G54D93*
X533712Y438198D03*
G54D136*
X541753Y468800D03*
G54D93*
X537649Y438198D03*
X535681D03*
X543555D03*
X545523D03*
X539618D03*
X541586D03*
G54D143*
X540622Y459658D03*
X545346D03*
G54D162*
X373141Y132962D03*
Y121545D03*
G54D164*
X359941Y133950D03*
Y122139D03*
G54D228*
X343314Y78740D03*
G54D200*
X346457Y160039D03*
G54D108*
X355020Y165650D03*
X362500D03*
G54D136*
X370698Y166050D03*
X377391D03*
G54D107*
X355252Y150243D03*
G54D106*
X350134D03*
X352693D03*
X355252Y142763D03*
X350134D03*
X352693D03*
G54D228*
X288196Y78740D03*
G54D201*
X241500Y441200D03*
G54D150*
X230700Y445746D03*
G54D119*
X217948Y443817D03*
X191570D03*
G54D171*
X194553Y410200D03*
G54D199*
X208687Y420023D03*
G54D172*
X215025Y410200D03*
G54D88*
X226861Y410249D03*
G54D118*
X217948Y438817D03*
G54D150*
X230700Y439053D03*
G54D88*
X234931Y410249D03*
G54D136*
X234833Y418213D03*
X228140D03*
G54D119*
X191570Y438817D03*
G54D136*
X173153Y438600D03*
X179846D03*
X196746Y452800D03*
X190053D03*
G54D199*
X383900Y420800D03*
G54D150*
X374900Y380053D03*
Y386746D03*
G54D119*
X393659Y418003D03*
Y413003D03*
G54D150*
X383915Y412747D03*
Y406054D03*
G54D122*
X388541Y375602D03*
Y370602D03*
Y380602D03*
Y385602D03*
Y390602D03*
Y395602D03*
G54D194*
X386209Y459177D03*
G54D193*
X375309D03*
X380709Y470177D03*
X369809D03*
G54D228*
X395669Y562697D03*
Y507579D03*
G54D229*
X377953Y535138D03*
X368110Y544980D03*
Y525295D03*
G54D193*
X358909Y470177D03*
X348009D03*
X342609Y459177D03*
G54D129*
X334516Y449500D03*
G54D228*
X340551Y507579D03*
Y562697D03*
G54D230*
X358268Y535138D03*
G54D193*
X353509Y459177D03*
G54D178*
X327247Y459100D03*
X333153D03*
G54D175*
X571880Y289000D03*
G54D136*
X561146Y291263D03*
X554453D03*
G54D175*
X571880Y286441D03*
Y283882D03*
Y281323D03*
G54D136*
X561146Y284012D03*
X554453Y298822D03*
X561146D03*
G54D175*
X571880Y291559D03*
Y294118D03*
Y296677D03*
G54D136*
X554453Y284012D03*
G54D175*
X594321Y289000D03*
G54D177*
X620335Y301443D03*
Y298884D03*
Y296325D03*
Y293766D03*
G54D175*
X594321Y281323D03*
Y283882D03*
Y286441D03*
G54D177*
X620335Y304002D03*
G54D175*
X594321Y291559D03*
Y294118D03*
Y296677D03*
G54D136*
X422803Y189003D03*
X416110D03*
G54D199*
X419103Y177363D03*
G54D136*
X415957Y197003D03*
X422650D03*
G54D110*
X416339Y132972D03*
X420079Y124311D03*
X423819Y132972D03*
G54D136*
X414947Y270708D03*
G54D115*
X413146Y313002D03*
X420824Y283671D03*
X413146D03*
X415706D03*
G54D150*
X426843Y345818D03*
Y352511D03*
G54D136*
X415747Y323309D03*
G54D115*
X415706Y313002D03*
X418265D03*
X420824D03*
X423383D03*
G54D116*
X425942D03*
G54D115*
X423383Y283671D03*
X425942D03*
X418265D03*
G54D199*
X1452953Y281988D03*
G54D82*
X1457057Y294783D03*
G54D136*
X1456004Y146555D03*
G54D170*
X1189143Y216548D03*
G54D150*
X1189943Y253525D03*
Y246832D03*
G54D170*
X1189143Y225209D03*
G54D128*
X1188348Y234328D03*
G54D104*
X498657Y272577D03*
X496098D03*
X493539D03*
X490980D03*
X488421D03*
X485862D03*
X483303D03*
X498657Y294624D03*
G54D183*
X499051Y307321D03*
G54D150*
X488322Y306534D03*
G54D104*
X496098Y294624D03*
X493539D03*
X490980D03*
X483303D03*
X485862D03*
X488421D03*
G54D199*
X516600Y279200D03*
G54D185*
X526413Y289703D03*
Y305845D03*
X523854D03*
X521295D03*
X518736D03*
G54D150*
X509878Y306534D03*
G54D95*
X518736Y289703D03*
G54D185*
X521295D03*
X523854D03*
G54D129*
X404385Y345594D03*
G54D106*
X367019Y345029D03*
Y352510D03*
X369578Y345029D03*
Y352510D03*
X372138Y345029D03*
G54D107*
Y352510D03*
G54D150*
X388639Y345818D03*
Y352511D03*
G54D122*
X388541Y360602D03*
Y365602D03*
G54D150*
X380175Y352314D03*
Y345621D03*
G54D232*
X19685Y33465D03*
G54D228*
X107094Y23602D03*
X51975D03*
G54D206*
X19685Y19685D03*
G54D232*
X256693Y33464D03*
G54D206*
Y19684D03*
G54D228*
X225205Y23622D03*
X170087D03*
X461424D03*
X343314D03*
X406306D03*
X288196D03*
G54D206*
X492921Y19684D03*
G54D232*
Y33464D03*
G54D228*
X524418Y23622D03*
X579536D03*
X760639D03*
X697646D03*
X642528D03*
X815757D03*
G54D232*
X729142Y33464D03*
G54D206*
Y19684D03*
X965362D03*
G54D232*
Y33464D03*
X29429Y9941D03*
X19685Y5905D03*
X9941Y9941D03*
X266436D03*
X502665D03*
X738885D03*
X719398D03*
X729142Y5905D03*
X492921D03*
X483178Y9941D03*
X246949D03*
X256693Y5905D03*
X33465Y19685D03*
X29429Y29429D03*
X9941D03*
X5905Y19685D03*
X270472Y19684D03*
X266436Y29428D03*
X502665D03*
X506701Y19684D03*
X738885Y29428D03*
X715362Y19684D03*
X719398Y29428D03*
X483178D03*
X479142Y19684D03*
X242913D03*
X246949Y29428D03*
G54D145*
X339869Y339047D03*
G54D181*
X329632Y337689D03*
G54D196*
X348720Y306063D03*
Y296063D03*
X338720Y306063D03*
Y296063D03*
Y286063D03*
X348720D03*
G54D197*
X338720Y316063D03*
G54D196*
X348720D03*
G54D87*
X358569Y352899D03*
Y344828D03*
G54D182*
X329632Y345720D03*
G54D200*
X337100Y358200D03*
G54D145*
X339869Y344953D03*
G54D178*
X333247Y384800D03*
G54D136*
X344335Y401325D03*
X333258Y393156D03*
G54D178*
X339153Y384800D03*
G54D136*
X339951Y393156D03*
G54D121*
X347215Y371601D03*
G54D127*
X348695Y412700D03*
G54D120*
X347215Y393057D03*
X362215Y371601D03*
G54D136*
X351028Y401325D03*
X358402Y401522D03*
G54D120*
X352215Y371601D03*
X357215D03*
G54D127*
X360506Y412700D03*
G54D120*
X352215Y393057D03*
X357215D03*
X362215D03*
G54D136*
X156595Y344783D03*
X163287D03*
G54D183*
X203839Y345177D03*
G54D150*
X379331Y202264D03*
X371835Y202212D03*
G54D136*
X370698Y182957D03*
X377391D03*
G54D201*
X373400Y271100D03*
G54D150*
X379331Y195571D03*
X371835Y195519D03*
G54D136*
X377391Y174492D03*
X370698D03*
X408254Y270708D03*
G54D150*
X497441Y202264D03*
X489945Y202212D03*
G54D136*
X488809Y174492D03*
X495501D03*
Y166050D03*
X488809D03*
G54D150*
X489945Y195519D03*
X497441Y195571D03*
G54D162*
X491251Y132962D03*
Y121545D03*
G54D136*
X488809Y182957D03*
X495501D03*
G54D228*
X524418Y78740D03*
G54D136*
X540913Y189003D03*
X534220D03*
G54D110*
X534449Y132972D03*
G54D199*
X537213Y177363D03*
G54D136*
X540760Y197003D03*
X534067D03*
G54D110*
X538189Y124311D03*
X541929Y132972D03*
G54D228*
X170087Y78740D03*
G54D110*
X183858Y124311D03*
G54D164*
X241831Y122139D03*
G54D228*
X225205Y78740D03*
G54D136*
X202362Y123910D03*
G54D135*
X202237Y106890D03*
Y103150D03*
X195150D03*
Y106890D03*
G54D136*
X195669Y123910D03*
G54D162*
X255031Y121545D03*
G54D230*
X197646Y61024D03*
G54D110*
X180118Y132972D03*
G54D164*
X241831Y133950D03*
G54D110*
X187599Y132972D03*
G54D195*
X165354Y149606D03*
G54D106*
X232023Y142763D03*
Y150243D03*
G54D162*
X255031Y132962D03*
G54D200*
X228346Y160039D03*
G54D106*
X234583Y150243D03*
G54D107*
X237142D03*
G54D106*
X234583Y142763D03*
X237142D03*
G54D136*
X259281Y166050D03*
X252588D03*
G54D108*
X244390Y165650D03*
X236909D03*
G54D136*
X48721Y327987D03*
X55414D03*
G54D150*
X383000Y312884D03*
Y319577D03*
G54D199*
X368700Y317883D03*
Y285133D03*
Y296050D03*
Y306967D03*
G54D136*
X389953Y323308D03*
X406146Y330908D03*
X399453D03*
G54D115*
X402910Y313002D03*
X400351D03*
X397792D03*
X395233D03*
X392674D03*
G54D136*
X409054Y323309D03*
X396646Y323308D03*
G54D115*
X405469Y313002D03*
X408028D03*
X410587D03*
G54D187*
X207403Y198803D03*
G54D132*
X211242Y194163D03*
G54D131*
Y206087D03*
G54D199*
X208687Y384713D03*
G54D172*
X194553Y400200D03*
Y395200D03*
X215025D03*
Y400200D03*
G54D136*
X228140Y392613D03*
X234833D03*
G54D88*
X234931Y400313D03*
X226861D03*
G54D128*
X182080Y399975D03*
X168891D03*
G54D172*
X215025Y405200D03*
X194553D03*
G54D110*
X301969Y124311D03*
G54D230*
X315755Y61024D03*
G54D135*
X320347Y103150D03*
Y106890D03*
G54D136*
X320472Y123910D03*
X313779D03*
G54D135*
X313261Y106890D03*
Y103150D03*
G54D110*
X305709Y132972D03*
X298228D03*
G54D84*
X312303Y197302D03*
G54D131*
X321675Y206087D03*
G54D85*
X312303Y206102D03*
G54D153*
X312769Y177703D03*
G54D199*
X300993Y177363D03*
G54D136*
X297846Y197003D03*
X304539D03*
G54D132*
X321675Y194163D03*
G54D136*
X304693Y189003D03*
X298000D03*
G54D215*
X315109Y464177D03*
G54D136*
X305906Y512697D03*
X306219Y504375D03*
X306406Y495598D03*
G54D88*
X298500Y485300D03*
G54D136*
X321728Y485103D03*
X315036D03*
G54D88*
X306571Y485300D03*
G54D136*
X299713Y495598D03*
X299526Y504375D03*
G54D200*
X277165Y525492D03*
G54D136*
X299213Y512697D03*
G54D232*
X300394Y568799D03*
Y549312D03*
X310138Y572835D03*
Y545276D03*
X319881Y568799D03*
Y549312D03*
G54D153*
X274724Y551800D03*
G54D232*
X296358Y559055D03*
G54D164*
X123720Y122139D03*
Y133950D03*
G54D109*
X126280Y175098D03*
G54D108*
Y165650D03*
G54D195*
X165354Y496063D03*
G54D225*
X182890Y500575D03*
G54D142*
X193727Y536491D03*
G54D223*
X200409Y500575D03*
G54D224*
X216709D03*
G54D124*
X217456Y461592D03*
G54D224*
X216709Y484275D03*
X200409D03*
G54D124*
X217456Y457852D03*
Y454112D03*
G54D125*
X208401Y461592D03*
G54D124*
Y457852D03*
Y454112D03*
G54D136*
X189853Y461600D03*
X196546D03*
G54D163*
X159252Y355217D03*
G54D136*
X181201Y350670D03*
X187894D03*
G54D112*
X195374Y357954D03*
G54D185*
X214468Y354410D03*
G54D150*
X229626Y345965D03*
G54D185*
X222146Y354410D03*
G54D150*
Y345965D03*
G54D185*
X219587Y354410D03*
X217028D03*
G54D150*
X214665Y345965D03*
G54D136*
X181201Y358118D03*
X187894D03*
G54D112*
X195374Y365434D03*
G54D158*
X159449Y367815D03*
G54D136*
X181201Y365566D03*
Y373013D03*
X187894Y365566D03*
G54D112*
X203839Y361694D03*
G54D95*
X222146Y370552D03*
G54D185*
X219587D03*
X217028D03*
X214468D03*
G54D136*
X187894Y373013D03*
G54D199*
X156004Y288189D03*
G54D200*
X218209Y286811D03*
G54D130*
X191909Y301476D03*
G54D129*
X183878D03*
G54D162*
X177953Y315157D03*
G54D145*
X194980Y316507D03*
G54D150*
X203740Y316606D03*
G54D87*
X212795Y316704D03*
G54D85*
X222638Y316565D03*
G54D145*
X194980Y322413D03*
G54D150*
X203740Y323298D03*
G54D87*
X212795Y324775D03*
G54D84*
X222638Y325365D03*
G54D162*
X177953Y326575D03*
G54D113*
X155807Y335335D03*
G54D150*
X214665Y339272D03*
X222146D03*
X229626D03*
G54D183*
X203839Y334547D03*
G54D178*
X183760Y337106D03*
X177854D03*
G54D113*
X164862Y335335D03*
G54D84*
X194193Y197302D03*
G54D136*
X186429Y197003D03*
X179736D03*
G54D132*
X203564Y194163D03*
G54D136*
X186582Y189003D03*
X179890D03*
G54D131*
X208682Y206087D03*
X206123D03*
X203564D03*
G54D85*
X194193Y206102D03*
G54D199*
X182883Y177363D03*
G54D153*
X194659Y177703D03*
G54D132*
X208683Y194163D03*
X206123D03*
G54D150*
X176181Y258956D03*
X167913Y252263D03*
Y258956D03*
X160236D03*
Y252263D03*
X176181D03*
G54D201*
X192028Y268701D03*
G54D136*
X259281Y182957D03*
G54D108*
X240650Y175098D03*
G54D109*
X244390D03*
G54D136*
X252588Y174492D03*
X259281D03*
X252588Y182957D03*
G54D108*
X236909Y175098D03*
G54D153*
X216706Y177703D03*
G54D156*
X223228Y189960D03*
G54D157*
X232028D03*
G54D136*
X224704Y198425D03*
X231397D03*
G54D165*
X247244Y202264D03*
G54D150*
X253724Y202212D03*
X261220Y195571D03*
X253724Y195519D03*
G54D136*
X224803Y206004D03*
X231496D03*
G54D165*
X238583D03*
X247244Y209744D03*
G54D150*
X261220Y202264D03*
G54D132*
X326793Y194163D03*
X329352D03*
G54D136*
X342913Y206004D03*
G54D131*
X329352Y206087D03*
X326793D03*
G54D153*
X334816Y177703D03*
G54D156*
X341338Y189960D03*
G54D136*
X342815Y198425D03*
G54D165*
X356693Y206004D03*
G54D136*
X349606D03*
G54D165*
X365354Y209744D03*
G54D108*
X355020Y175098D03*
G54D109*
X362500D03*
G54D108*
X358760D03*
G54D157*
X350138Y189960D03*
G54D136*
X349508Y198425D03*
G54D165*
X365354Y202264D03*
G54D229*
X89377Y51161D03*
X660245Y51181D03*
X778355D03*
X798040D03*
X679930D03*
X561820D03*
X542135D03*
X443708D03*
X305912D03*
X325597D03*
X424023D03*
X187804D03*
X207489D03*
X69692Y51161D03*
G54D190*
X23425Y50098D03*
G54D209*
X1267331Y49213D03*
G54D194*
X1390559Y51181D03*
G54D193*
X1378748D03*
X1366937D03*
G54D190*
X1285244D03*
X1687500Y53642D03*
G54D208*
X1253945Y49213D03*
G54D190*
X1236032Y51181D03*
G54D136*
X225713Y501575D03*
G54D154*
X232874Y474114D03*
G54D163*
X237524Y491043D03*
G54D150*
X230700Y461546D03*
Y454853D03*
G54D199*
X233661Y566634D03*
G54D141*
X233097Y546491D03*
G54D140*
Y526491D03*
G54D136*
X232406Y501575D03*
G54D88*
X240476Y501476D03*
G54D85*
X252854Y535375D03*
G54D84*
Y526575D03*
G54D150*
X252756Y519094D03*
Y512401D03*
G54D154*
X250591Y474114D03*
G54D163*
X248941Y491043D03*
G54D88*
X248547Y501476D03*
G54D153*
X252676Y551800D03*
G54D142*
X118012Y441489D03*
G54D140*
X78642Y451489D03*
G54D193*
X79232Y480020D03*
X91043D03*
G54D195*
X102854Y476319D03*
G54D82*
X116900Y507500D03*
X109144D03*
X136260Y507677D03*
X144016D03*
G54D83*
X140138Y492913D03*
X113022Y492736D03*
G54D194*
X91043Y491831D03*
G54D193*
X79232D03*
G54D165*
X129134Y202264D03*
G54D136*
X141171Y166050D03*
X134478D03*
X141171Y182957D03*
X134478D03*
Y174492D03*
X141171D03*
G54D150*
X143110Y195571D03*
X135614Y195519D03*
G54D162*
X136920Y132962D03*
Y121545D03*
G54D150*
X143110Y202264D03*
X135614Y202212D03*
G54D165*
X129134Y209744D03*
G54D162*
X133465Y315256D03*
G54D150*
X144488Y258956D03*
Y252263D03*
G54D162*
X133465Y326673D03*
G54D132*
X93131Y194163D03*
X90572D03*
X88013D03*
X85454D03*
G54D136*
X1579271Y186024D03*
Y193898D03*
X1579369Y178150D03*
G54D86*
X1583427Y285787D03*
X1331781Y193209D03*
Y171161D03*
G54D136*
X1577657Y415551D03*
G54D154*
X1577658Y444488D03*
G54D136*
X1577837Y424751D03*
G54D86*
X1583427Y307835D03*
G54D136*
X1577162Y386795D03*
G54D88*
X1578539Y397326D03*
G54D165*
X1579006Y351634D03*
G54D136*
X1577357Y406751D03*
G54D131*
X1647899Y305132D03*
G54D161*
X1654783Y505962D03*
G54D133*
X1517864Y364961D03*
G54D226*
X1514843Y485925D03*
G54D150*
X1516643Y343307D03*
G54D133*
X1517864Y385433D03*
G54D157*
Y397579D03*
G54D199*
X1519000Y333200D03*
G54D136*
X1519557Y408130D03*
G54D150*
X1516643Y350000D03*
G54D136*
X1570664Y406751D03*
G54D201*
X1552756Y404232D03*
G54D210*
X1264890Y56890D03*
G54D207*
X1256386D03*
G54D195*
X1638591Y60787D03*
G54D193*
X1626780Y57086D03*
X1603158D03*
X1614969D03*
G54D195*
X1591347Y60787D03*
X1485047D03*
G54D193*
X1496858Y57087D03*
G54D195*
X1508669Y60787D03*
G54D155*
X1638394Y101476D03*
X1634654D03*
X1616839D03*
X1376878D03*
G54D87*
X1271413Y100804D03*
G54D155*
X1613099Y101476D03*
X1595087D03*
X1591347D03*
G54D87*
X1496858Y100000D03*
G54D155*
X1380618Y101476D03*
X1247990D03*
X1251730D03*
G54D134*
X1629557Y386122D03*
G54D133*
X1624557D03*
X1619557D03*
X1614557D03*
G54D219*
X1392618Y529823D03*
Y511123D03*
G54D110*
X1394084Y352559D03*
G54D150*
X1553907Y362855D03*
Y369547D03*
G54D83*
X1562706Y309410D03*
G54D119*
X1562470Y380728D03*
Y385728D03*
G54D165*
X1570344Y355374D03*
Y347894D03*
G54D150*
X1562372Y349173D03*
Y355866D03*
G54D145*
X1553514Y355472D03*
Y349567D03*
G54D88*
X1570469Y397326D03*
G54D136*
Y386795D03*
G54D110*
X1614364Y344768D03*
X1606884D03*
G54D133*
X1619557Y365650D03*
X1614557D03*
G54D84*
X1615025Y309646D03*
G54D150*
X1606543Y310728D03*
X1598982Y336319D03*
Y329626D03*
X1606543Y317421D03*
G54D85*
X1615025Y318446D03*
G54D110*
X1610624Y353429D03*
G54D150*
X1606884Y336472D03*
Y329780D03*
G54D85*
X1615052Y327673D03*
G54D84*
Y336473D03*
G54D150*
X1623336Y343996D03*
Y350689D03*
G54D178*
X1640856Y343996D03*
X1634950D03*
G54D133*
X1629557Y365650D03*
X1624557D03*
G54D131*
X1645340Y305132D03*
X1642781D03*
X1640222D03*
G54D136*
X1640659Y316043D03*
X1633967D03*
G54D199*
X1634950Y354429D03*
G54D156*
X1632548Y324508D03*
G54D178*
X1634754Y334154D03*
X1640659D03*
G54D157*
X1641349Y324508D03*
G54D119*
X1642785Y381417D03*
G54D118*
Y386417D03*
G54D150*
X1660600Y363543D03*
Y370236D03*
G54D86*
X1685120Y308524D03*
G54D150*
X1669065Y356555D03*
G54D145*
X1660207Y356161D03*
G54D85*
X1650561Y349409D03*
G54D84*
Y358209D03*
G54D83*
X1664399Y310098D03*
G54D145*
X1660207Y350256D03*
G54D150*
X1669065Y349862D03*
G54D165*
X1677037Y348583D03*
Y356063D03*
X1685699Y352323D03*
G54D119*
X1669163Y381417D03*
Y386417D03*
G54D86*
X1667200Y423676D03*
G54D160*
X1664783Y466592D03*
G54D86*
X1667200Y445724D03*
G54D232*
X1690059Y549312D03*
X1670571D03*
X1680315Y545276D03*
G54D157*
X1653740Y452205D03*
G54D199*
X1680709Y462736D03*
G54D178*
X1534163Y343307D03*
X1528258D03*
G54D131*
X1536088Y304443D03*
G54D156*
X1525855Y323819D03*
G54D178*
X1528061Y333465D03*
X1533966D03*
G54D157*
X1534655Y323819D03*
G54D85*
X1543868Y348720D03*
G54D136*
X1527273Y315354D03*
X1533966D03*
G54D131*
X1541206Y304443D03*
X1538647D03*
X1533529D03*
G54D133*
X1522864Y364961D03*
G54D110*
X1537303Y364370D03*
X1541043Y373032D03*
X1544784Y364370D03*
G54D156*
X1526664Y397579D03*
G54D150*
X1536191Y394744D03*
G54D84*
X1543868Y357520D03*
G54D150*
X1536191Y401437D03*
G54D118*
X1536092Y385728D03*
G54D119*
Y380728D03*
G54D134*
X1522864Y385433D03*
G54D136*
X1510891Y139272D03*
G54D201*
X1489862Y231379D03*
G54D136*
X1476349Y186319D03*
X1469656D03*
G54D109*
X1459813Y186417D03*
G54D108*
X1456073D03*
G54D156*
X1468377Y170276D03*
G54D157*
X1477177D03*
G54D136*
X1469459Y194390D03*
X1476152D03*
G54D86*
X1474399Y285925D03*
G54D158*
X1508037Y154823D03*
G54D136*
X1476448Y178445D03*
X1469755D03*
G54D108*
X1459813Y176968D03*
G54D154*
X1505183Y175689D03*
G54D136*
X1517584Y139272D03*
G54D158*
X1519848Y154823D03*
G54D199*
X1652427Y277756D03*
G54D86*
X1655281Y193012D03*
G54D82*
X1660521Y295335D03*
G54D132*
X1647899Y293209D03*
X1645340D03*
X1642781D03*
G54D200*
X1655281Y157776D03*
G54D165*
X1662234Y144848D03*
G54D86*
X1655281Y170965D03*
G54D132*
X1640222Y293209D03*
G54D82*
X1668277Y295335D03*
G54D150*
X1265354Y487303D03*
Y493996D03*
G54D110*
X1500191Y344079D03*
X1507671D03*
G54D86*
X1474399Y307972D03*
G54D150*
X1500191Y329090D03*
Y335783D03*
X1492289Y328937D03*
Y335630D03*
G54D85*
X1508360Y326984D03*
G54D84*
Y335784D03*
G54D150*
X1499850Y316732D03*
Y310039D03*
G54D84*
X1508332Y308957D03*
G54D85*
Y317757D03*
G54D165*
X1461309Y349531D03*
G54D133*
X1512864Y364961D03*
X1507864D03*
X1512864Y385433D03*
X1507864D03*
G54D201*
X1468002Y377559D03*
G54D110*
X1503931Y352740D03*
G54D165*
X1469970Y353272D03*
X1461309Y357012D03*
G54D136*
X1425974Y315256D03*
G54D131*
X1425580Y304443D03*
G54D150*
X1426663Y394882D03*
G54D119*
X1426565Y380866D03*
G54D118*
Y385866D03*
G54D178*
X1424498Y343209D03*
G54D157*
X1425876Y323720D03*
G54D178*
X1423809Y333366D03*
G54D150*
X1426663Y401575D03*
G54D141*
X1440847Y511457D03*
G54D150*
X1444380Y362992D03*
G54D131*
X1428139Y304443D03*
X1430698D03*
G54D140*
X1440847Y531457D03*
G54D200*
X1442028Y449902D03*
G54D150*
X1444380Y369685D03*
G54D145*
X1443986Y355610D03*
Y349705D03*
G54D85*
X1434340Y348857D03*
G54D84*
Y357657D03*
G54D136*
X849832Y174492D03*
X843139D03*
G54D109*
X834941Y175098D03*
G54D108*
X831201D03*
X827461D03*
G54D153*
X807257Y177703D03*
G54D136*
X843139Y182957D03*
X849832D03*
G54D150*
X851772Y195571D03*
X844275Y195519D03*
G54D132*
X801793Y194163D03*
X799234D03*
G54D84*
X784744Y197302D03*
G54D136*
X815256Y198425D03*
X821948D03*
G54D165*
X837795Y202264D03*
G54D156*
X813779Y189960D03*
G54D157*
X822579D03*
G54D132*
X794116Y194163D03*
X796675D03*
G54D187*
X797954Y198803D03*
G54D126*
X1404300Y215035D03*
Y231965D03*
G54D108*
X1452333Y186417D03*
G54D132*
X1425580Y292520D03*
X1423021D03*
X1428139D03*
G54D82*
X1449301Y294783D03*
G54D132*
X1430698Y292520D03*
G54D108*
X1452333Y176968D03*
G54D136*
X1449311Y146555D03*
G54D149*
X1413179Y147835D03*
G54D86*
X1438844Y171161D03*
Y193209D03*
G54D200*
X1421063Y170768D03*
G54D165*
X1575984Y137500D03*
G54D109*
X1569526Y186024D03*
G54D108*
X1565786D03*
X1562046D03*
G54D156*
X1577991Y169980D03*
G54D154*
X1522899Y175689D03*
G54D108*
X1562046Y176575D03*
X1569526D03*
G54D165*
X1575984Y144980D03*
G54D150*
X1571789Y152756D03*
G54D195*
X1541142Y149606D03*
G54D165*
X1567323Y141240D03*
G54D86*
X1548588Y192323D03*
G54D200*
X1531595Y194488D03*
G54D86*
X1548588Y170276D03*
G54D150*
X1571789Y159449D03*
G54D199*
X1545734Y277067D03*
G54D132*
X1538647Y292520D03*
X1541206D03*
G54D82*
X1558829Y294646D03*
G54D132*
X1533529Y292520D03*
X1536088D03*
G54D82*
X1566584Y294646D03*
G54D165*
X1596555Y136713D03*
X1587894Y140453D03*
G54D150*
X1585400Y152953D03*
G54D158*
X1626541Y155512D03*
X1614730D03*
G54D136*
X1624277Y139961D03*
X1617584D03*
X1599347Y151200D03*
G54D165*
X1596555Y144193D03*
G54D136*
X1592654Y151200D03*
G54D150*
X1585400Y159646D03*
G54D157*
X1592554Y159100D03*
G54D156*
X1601354D03*
G54D201*
X1596752Y232579D03*
G54D136*
X1585964Y186024D03*
X1586062Y178150D03*
G54D154*
X1611876Y176378D03*
X1629592D03*
G54D136*
X1585964Y193898D03*
G54D157*
X1586791Y169980D03*
G54D109*
X1676219Y186713D03*
G54D108*
X1672479D03*
X1668739D03*
G54D150*
X1671483Y125798D03*
Y132491D03*
G54D108*
X1676219Y177264D03*
G54D165*
X1670895Y141108D03*
Y148588D03*
G54D85*
X1679163Y140969D03*
G54D84*
Y149769D03*
G54D108*
X1668739Y177264D03*
G54D150*
X1679062Y125798D03*
X1679061Y132490D03*
G54D86*
X1685120Y286476D03*
G54D136*
X1692657Y186713D03*
X1685964D03*
X1692755Y178839D03*
X1686062D03*
X1685964Y194587D03*
X1692657D03*
G54D156*
X1684684Y170669D03*
G54D157*
X1693484D03*
G54D199*
X1346880Y458169D03*
G54D150*
X1301407Y453642D03*
G54D154*
X1595374Y444488D03*
G54D150*
X1642884Y402126D03*
G54D136*
X1626250Y408819D03*
X1619557D03*
G54D157*
X1624557Y398268D03*
G54D156*
X1633357D03*
G54D150*
X1642884Y395433D03*
G54D200*
X1626870Y435630D03*
G54D156*
X1644940Y452205D03*
G54D150*
X1631700Y452454D03*
X1612449Y452452D03*
G54D87*
X1621800Y451629D03*
G54D159*
X1644783Y466592D03*
G54D201*
X1581988Y470079D03*
G54D224*
X1621728Y484275D03*
X1605429D03*
G54D150*
X1631700Y459147D03*
X1612449Y459145D03*
G54D87*
X1621800Y459700D03*
G54D225*
X1587909Y500575D03*
G54D223*
X1605429D03*
G54D224*
X1621728D03*
G54D165*
X1270079Y389272D03*
G54D150*
X1538809Y470472D03*
G54D144*
X1534398Y448327D03*
X1523769D03*
G54D136*
X1534202Y422146D03*
X1527509D03*
G54D150*
X1538809Y463779D03*
G54D136*
X1534398Y436811D03*
X1527705D03*
G54D195*
X1541142Y496063D03*
G54D136*
X1527705Y429528D03*
X1534398D03*
G54D150*
X1546682Y470472D03*
G54D89*
X1542844Y432087D03*
G54D150*
X1546682Y463779D03*
G54D89*
X1542844Y437205D03*
Y434646D03*
Y429528D03*
G54D150*
X1562431Y470472D03*
X1554557D03*
G54D136*
X1570964Y415551D03*
X1571144Y424751D03*
G54D89*
X1558986Y432087D03*
G54D90*
Y429528D03*
G54D184*
X1550521Y447835D03*
X1546781Y456299D03*
G54D150*
X1554557Y463779D03*
X1562431D03*
G54D184*
X1554261Y456299D03*
G54D89*
X1558986Y437205D03*
Y434646D03*
G54D115*
X1243012Y450295D03*
Y420965D03*
G54D150*
X1274700Y418053D03*
X1282900D03*
G54D136*
X1293690Y408268D03*
G54D150*
X1282900Y424746D03*
X1274700D03*
G54D200*
X1290580Y446850D03*
G54D163*
X1298809Y397835D03*
G54D150*
X1301407Y446949D03*
X1301505Y429725D03*
G54D136*
X1300383Y408268D03*
G54D150*
X1301505Y436418D03*
X1317017Y394882D03*
G54D163*
X1310226Y397835D03*
G54D87*
X1313612Y450098D03*
G54D150*
X1323454Y444291D03*
G54D192*
X1313612Y437598D03*
Y439567D03*
G54D150*
X1323454Y437598D03*
X1317017Y401575D03*
G54D192*
X1307706Y435630D03*
Y437598D03*
Y439567D03*
G54D191*
X1313612Y435630D03*
G54D156*
X1316600Y430200D03*
G54D157*
X1325400D03*
G54D86*
X1411181Y473917D03*
Y451870D03*
G54D136*
X1410029Y408268D03*
G54D163*
X1408454Y397835D03*
G54D133*
X1413198Y364961D03*
G54D131*
X1423021Y304443D03*
G54D136*
X1419281Y315256D03*
G54D199*
X1413484Y486713D03*
X1418592Y353642D03*
G54D156*
X1417076Y323720D03*
G54D178*
X1417903Y333366D03*
X1418592Y343209D03*
G54D163*
X1419872Y397835D03*
G54D134*
X1413198Y385433D03*
G54D136*
X1340876Y418882D03*
X1347568D03*
G54D111*
X1349635Y440256D03*
X1341958Y436201D03*
G54D150*
X1331722Y437598D03*
G54D149*
X1340876Y401642D03*
X1360561D03*
G54D136*
X1347568Y427854D03*
X1340876D03*
G54D111*
X1341958Y444311D03*
G54D150*
X1331722Y444291D03*
G54D88*
X1476772Y468110D03*
X1468701D03*
G54D150*
X1460335Y470472D03*
G54D223*
X1481024Y485925D03*
G54D101*
X1460335Y479232D03*
G54D150*
Y463780D03*
G54D136*
X1461713Y456201D03*
X1468406D03*
G54D162*
X1476969Y456299D03*
Y444882D03*
G54D101*
X1460335Y486988D03*
G54D142*
X1480217Y521457D03*
G54D224*
X1497323Y485925D03*
G54D136*
X1508199Y464075D03*
Y454035D03*
X1501506Y464075D03*
Y454035D03*
G54D87*
X1490650Y456102D03*
Y464173D03*
G54D136*
X1512864Y408130D03*
G54D149*
X1509872Y424606D03*
X1490187D03*
G54D136*
X1508199Y443701D03*
X1501506D03*
G54D219*
X1365018Y529823D03*
Y511123D03*
G54D218*
X1378818Y520473D03*
G54D153*
X1388681Y474016D03*
X1366634D03*
G54D232*
X1388492Y549312D03*
X1378748Y545276D03*
X1369004Y549312D03*
G54D145*
X1388681Y492913D03*
X1366437D03*
X1388681Y487008D03*
X1366437D03*
G54D201*
X1293701Y469685D03*
G54D150*
X1313600Y465054D03*
G54D87*
X1313612Y458169D03*
G54D110*
X1324242Y463189D03*
G54D150*
X1313600Y471747D03*
G54D110*
X1324242Y482677D03*
G54D83*
X1343533Y309547D03*
G54D150*
X1382470Y328516D03*
Y335209D03*
X1390246Y328516D03*
Y335209D03*
G54D86*
X1364754Y307972D03*
G54D110*
X1390344Y343898D03*
G54D150*
X1334734Y362992D03*
G54D119*
X1343297Y383866D03*
Y378866D03*
G54D201*
X1358356Y377559D03*
G54D150*
X1334734Y369685D03*
G54D165*
X1360324Y353272D03*
X1351663Y357012D03*
Y349532D03*
G54D150*
X1343198Y349311D03*
G54D145*
X1334340Y349705D03*
Y355610D03*
G54D150*
X1343198Y356004D03*
G54D87*
X1271413Y108875D03*
G54D150*
X1406978Y328417D03*
Y343307D03*
G54D110*
X1397824Y343898D03*
G54D150*
X1406978Y350000D03*
Y335110D03*
G54D85*
X1398513Y335602D03*
G54D84*
Y326802D03*
G54D150*
X1398907Y316634D03*
Y309941D03*
G54D85*
X1406978Y308661D03*
G54D84*
Y317461D03*
G54D133*
X1398198Y364961D03*
X1408198Y385433D03*
X1403198D03*
X1398198D03*
G54D136*
X1403336Y408268D03*
G54D133*
X1408198Y364961D03*
X1403198D03*
X1288553Y385433D03*
G54D165*
X1278740Y385532D03*
X1270079Y381791D03*
G54D133*
X1293553Y385433D03*
G54D110*
X1284439Y352559D03*
G54D133*
X1293553Y364961D03*
X1288553D03*
G54D150*
X1297332Y350000D03*
G54D133*
X1298553Y385433D03*
G54D84*
X1324695Y357657D03*
G54D85*
Y348857D03*
G54D199*
X1308947Y353642D03*
G54D134*
X1303553Y385433D03*
G54D119*
X1316919Y378866D03*
G54D118*
Y383866D03*
G54D133*
X1303553Y364961D03*
X1298553D03*
G54D150*
X1289261Y309941D03*
Y316634D03*
X1280600Y328516D03*
G54D110*
X1280698Y343898D03*
X1288179D03*
G54D85*
X1288868Y335602D03*
G54D84*
Y326802D03*
G54D150*
X1272824Y335209D03*
Y328516D03*
X1280600Y335209D03*
G54D84*
X1297333Y317461D03*
G54D85*
Y308661D03*
G54D150*
X1297332Y343307D03*
Y328417D03*
Y335110D03*
G54D131*
X1318494Y304443D03*
G54D136*
X1316328Y315256D03*
G54D131*
X1315935Y304443D03*
X1313376D03*
G54D136*
X1309635Y315256D03*
G54D131*
X1321053Y304443D03*
G54D157*
X1316230Y323720D03*
G54D178*
X1308947Y343209D03*
X1314852D03*
X1314163Y333366D03*
X1308258D03*
G54D156*
X1307430Y323720D03*
G54D199*
X1343209Y282480D03*
G54D86*
X1386900Y254124D03*
G54D126*
X1369654Y254066D03*
G54D200*
X1354000Y251400D03*
G54D110*
X1387000Y223631D03*
G54D86*
X1386900Y232076D03*
G54D162*
X1369600Y223700D03*
G54D126*
X1369654Y237137D03*
G54D86*
X1364754Y285925D03*
G54D82*
X1347411Y294783D03*
X1339655D03*
G54D157*
X1207155Y269256D03*
G54D156*
X1198355D03*
G54D169*
X1207273Y259679D03*
X1198612D03*
G54D92*
X1198340Y244726D03*
Y246694D03*
Y248663D03*
G54D91*
Y250632D03*
G54D92*
X1210545Y244726D03*
Y246694D03*
Y248663D03*
Y250632D03*
G54D128*
X1201537Y234328D03*
G54D150*
X1198943Y224025D03*
G54D162*
X1203343Y291079D03*
G54D110*
X1208172Y157441D03*
G54D162*
X1193998Y160640D03*
Y172057D03*
G54D110*
X1204431Y166102D03*
G54D136*
X1200593Y152126D03*
X1193900D03*
X1204924Y174370D03*
G54D150*
X1198943Y217332D03*
G54D106*
X1201676Y187264D03*
G54D107*
X1199117D03*
G54D106*
X1204235Y194744D03*
X1201676D03*
X1199117D03*
G54D136*
X1194294Y181555D03*
X1200987D03*
X1202660Y200551D03*
X1209353D03*
G54D106*
X1204235Y187264D03*
G54D156*
X1361314Y170276D03*
G54D157*
X1370114D03*
G54D136*
X1345571Y144980D03*
X1352264D03*
G54D149*
X1393494Y147835D03*
G54D108*
X1345270Y176969D03*
X1352751D03*
G54D110*
X1390740Y214969D03*
X1383260D03*
G54D109*
X1352751Y186417D03*
G54D162*
X1369600Y212283D03*
G54D136*
X1369385Y178445D03*
X1362692D03*
X1362397Y194390D03*
X1369090D03*
G54D108*
X1349011Y186417D03*
X1345270D03*
G54D136*
X1362594Y186319D03*
X1369287D03*
G54D200*
X1178843Y372579D03*
G54D95*
X1184055Y420768D03*
X1181496D03*
X1178937D03*
X1176378D03*
X1173819D03*
X1171260D03*
X1168701D03*
X1186614D03*
X1189173D03*
X1191732D03*
G54D87*
X1196842Y374479D03*
G54D150*
X1189843Y375632D03*
G54D136*
X1200197Y420571D03*
G54D87*
X1196842Y382550D03*
G54D150*
X1189843Y382325D03*
G54D112*
X1340384Y475984D03*
X1348848Y472244D03*
G54D110*
X1331722Y463189D03*
Y482677D03*
G54D150*
X1331791Y490158D03*
X1339370D03*
G54D112*
X1340384Y468504D03*
G54D199*
X1350886Y490256D03*
G54D150*
X1347047Y511221D03*
X1339567Y511319D03*
X1331791Y496850D03*
X1339370D03*
G54D85*
X1355512Y504626D03*
G54D150*
X1347047Y504528D03*
X1339567Y504626D03*
X1331820D03*
G54D84*
X1355512Y513426D03*
G54D199*
Y520374D03*
G54D150*
X1331820Y511319D03*
G54D136*
X1220846Y333200D03*
G54D84*
X1219100Y327500D03*
G54D136*
X1214154Y333200D03*
G54D150*
X1210843Y326425D03*
G54D165*
X1227512Y332319D03*
Y324839D03*
G54D86*
X1251950Y308013D03*
G54D110*
X1224441Y342870D03*
X1216960D03*
G54D150*
X1210843Y319732D03*
G54D85*
X1219100Y318700D03*
G54D86*
X1251950Y330061D03*
G54D165*
X1236173Y328579D03*
G54D110*
X1220701Y351531D03*
G54D168*
X1216378Y308079D03*
X1233307D03*
G54D165*
X1225869Y364640D03*
G54D112*
X1215933Y364941D03*
G54D150*
X1253051Y404232D03*
G54D165*
X1234531Y360900D03*
G54D202*
X1251000Y388500D03*
G54D203*
X1233000D03*
G54D112*
X1215933Y357460D03*
G54D165*
X1225869Y357160D03*
G54D172*
X1315945Y489773D03*
X1295472D03*
X1315945Y494773D03*
G54D150*
X1285531Y494685D03*
G54D172*
X1295472Y494773D03*
X1315945Y499773D03*
G54D171*
X1295472Y504773D03*
G54D150*
X1285532Y505019D03*
G54D172*
X1315945Y504773D03*
X1295472Y499773D03*
G54D136*
X1270571Y500197D03*
X1277264D03*
G54D150*
X1285531Y487992D03*
G54D145*
X1275295Y525984D03*
Y520079D03*
G54D198*
X1287303D03*
G54D150*
X1285532Y511712D03*
G54D115*
X1263484Y420965D03*
X1260925D03*
X1258366D03*
X1255807D03*
X1253248D03*
X1250689D03*
X1248130D03*
X1245571D03*
G54D150*
X1253051Y410925D03*
G54D115*
X1245571Y450295D03*
X1253248D03*
X1250689D03*
X1248130D03*
X1255807D03*
X1263484D03*
X1258366D03*
X1260925D03*
G54D106*
X1245374Y468898D03*
Y476378D03*
G54D150*
X1249370Y487303D03*
G54D106*
X1247933Y476378D03*
Y468898D03*
G54D150*
X1257362Y487303D03*
G54D106*
X1263583Y476476D03*
Y468996D03*
G54D150*
X1249370Y493996D03*
X1257362D03*
G54D107*
X1258465Y468996D03*
G54D106*
Y476476D03*
X1261024Y468996D03*
Y476476D03*
G54D195*
X1273130Y260630D03*
G54D107*
X1293504Y223819D03*
G54D106*
Y231299D03*
G54D119*
X1273425Y182224D03*
Y177224D03*
G54D149*
X1283848Y147835D03*
G54D150*
X1292126Y206791D03*
Y213484D03*
X1273524Y198130D03*
Y191437D03*
G54D199*
X1283071Y182382D03*
G54D106*
X1296063Y231299D03*
Y223819D03*
X1298622Y231299D03*
Y223819D03*
G54D132*
X1321053Y292520D03*
G54D200*
X1299700Y174400D03*
G54D149*
X1303533Y147835D03*
G54D150*
X1299410Y206791D03*
Y213484D03*
G54D132*
X1313376Y292520D03*
X1315935D03*
X1318494D03*
G54D136*
X1236346Y270700D03*
X1229654D03*
G54D162*
X1229643Y252079D03*
G54D136*
X1236446Y261300D03*
X1229753D03*
G54D150*
X1221143Y252025D03*
Y245332D03*
G54D136*
X1218802Y174370D03*
X1225495D03*
X1218689Y237079D03*
G54D162*
X1229643Y240661D03*
G54D168*
X1232307Y291079D03*
G54D119*
X1236332Y223579D03*
Y218579D03*
G54D193*
X1261319Y256929D03*
G54D195*
X1249508Y260630D03*
G54D194*
X1261319Y245118D03*
G54D128*
X1260335Y195030D03*
X1247146D03*
G54D118*
X1247047Y182224D03*
G54D119*
Y177224D03*
G54D200*
X1248800Y291400D03*
G54D150*
X1245743Y211932D03*
G54D136*
X1249213Y233760D03*
G54D199*
X1246143Y225679D03*
G54D150*
X1245743Y218625D03*
G54D136*
X1242520Y233760D03*
G54D150*
X1195343Y342425D03*
G54D96*
X1190004Y349106D03*
G54D97*
X1192563D03*
X1195122D03*
G54D110*
X1180583Y362909D03*
X1173102D03*
G54D97*
X1197681Y365051D03*
X1195122D03*
X1192563D03*
X1190004D03*
G54D110*
X1176843Y354248D03*
G54D97*
X1197681Y349106D03*
G54D150*
X1204243Y346425D03*
G54D148*
X1131800Y162833D03*
G54D162*
X1151479Y160640D03*
Y172057D03*
G54D110*
X1162109Y165905D03*
G54D193*
X1136622Y57087D03*
X1148433D03*
G54D195*
X1160244Y60787D03*
X1124811D03*
G54D87*
X1142528Y109350D03*
Y101279D03*
G54D136*
X1158467Y151929D03*
X1151774D03*
X1162207Y174173D03*
G54D115*
X1230217Y450295D03*
X1240453Y420965D03*
X1237894D03*
X1235335D03*
X1232776D03*
G54D116*
X1230217D03*
G54D115*
X1235335Y450295D03*
X1237894D03*
X1240453D03*
X1232776D03*
G54D106*
X1232579Y476575D03*
Y469095D03*
X1230020Y476575D03*
Y469095D03*
X1227461Y476575D03*
G54D107*
Y469095D03*
G54D150*
X1225394Y493996D03*
X1233386D03*
X1241378D03*
Y487303D03*
G54D107*
X1242815Y468898D03*
G54D106*
Y476378D03*
G54D150*
X1233386Y487303D03*
X1225394D03*
G54D86*
X1091600Y450024D03*
G54D199*
X1053701Y450753D03*
G54D86*
X1069800Y449924D03*
G54D95*
X1168701Y443996D03*
X1171260D03*
X1173819D03*
X1176378D03*
X1178937D03*
X1181496D03*
X1184055D03*
X1186614D03*
X1189173D03*
X1191732D03*
G54D160*
X1040321Y470728D03*
G54D224*
X1105650Y484276D03*
X1121950D03*
X1138249D03*
G54D150*
X1202671Y466831D03*
X1193589Y473524D03*
Y466831D03*
X1202671Y473524D03*
X1159252Y466831D03*
Y473524D03*
X1151589Y466831D03*
Y473524D03*
X1168841D03*
Y466831D03*
X1176504Y473524D03*
Y466831D03*
X1185926Y473524D03*
Y466831D03*
X950050Y204145D03*
G54D200*
X939800Y200800D03*
G54D106*
X950850Y193732D03*
Y186252D03*
X948291Y193732D03*
Y186252D03*
G54D150*
X950050Y210838D03*
G54D153*
X932974Y221192D03*
X910926D03*
G54D151*
X949726Y225532D03*
Y218052D03*
G54D84*
X910450Y238992D03*
G54D132*
X919832Y237652D03*
X922391D03*
X924950D03*
X927509D03*
G54D136*
X896157Y232492D03*
G54D199*
X899150Y220852D03*
G54D136*
X902850Y232492D03*
X937004Y234992D03*
X943696D03*
G54D173*
X1152543Y216724D03*
X1148802D03*
X1145062D03*
G54D148*
X1131800Y191967D03*
G54D150*
X1138342Y237932D03*
X1162343D03*
G54D169*
X1163112Y227079D03*
G54D199*
X1135800Y228900D03*
G54D173*
X1145062Y225779D03*
G54D108*
X1145602Y236554D03*
G54D173*
X1148802Y225779D03*
G54D174*
X1152543D03*
G54D108*
X1153083Y236554D03*
G54D169*
X1166512Y307079D03*
G54D136*
X1157189Y302322D03*
X1167897Y315579D03*
X1174590D03*
G54D169*
X1175173Y307079D03*
G54D136*
X1150496Y302322D03*
G54D144*
X1177328Y329279D03*
G54D150*
X1195343Y335732D03*
X1204243Y339732D03*
G54D199*
X1204500Y331700D03*
G54D85*
X1201343Y320079D03*
G54D144*
X1187958Y329279D03*
G54D162*
X1203343Y302496D03*
G54D84*
X1201343Y311279D03*
G54D136*
X1190189Y315579D03*
G54D162*
X1184843Y307579D03*
G54D136*
X1183496Y315579D03*
G54D110*
X1122051Y302461D03*
G54D154*
X1119882Y333957D03*
X1102165D03*
G54D136*
X1118311Y317520D03*
X1111618D03*
G54D110*
X1118311Y311122D03*
X1114570Y302461D03*
G54D136*
X1109055Y378449D03*
X1102362Y370472D03*
X1109055D03*
G54D88*
X1102461Y352165D03*
X1110532D03*
G54D136*
X1119390Y352067D03*
X1126083D03*
X1102362Y362898D03*
X1109055D03*
X1102362Y378449D03*
G54D201*
X1127600Y374700D03*
G54D87*
X1161974Y269450D03*
G54D163*
X1157425Y285579D03*
G54D136*
X1121457Y286291D03*
X1150496Y294579D03*
X1157189D03*
X1121657Y294891D03*
G54D150*
X1134474Y263725D03*
Y257032D03*
G54D92*
X1141372Y260926D03*
Y262895D03*
Y264863D03*
G54D108*
X1145602Y246003D03*
G54D150*
X1138342Y244625D03*
G54D136*
X1145196Y253779D03*
G54D91*
X1141372Y266832D03*
G54D108*
X1149343Y246003D03*
G54D92*
X1153576Y266832D03*
G54D199*
X1162600Y253500D03*
G54D92*
X1153576Y264863D03*
Y262895D03*
Y260926D03*
G54D87*
X1161974Y261379D03*
G54D109*
X1153083Y246003D03*
G54D150*
X1162343Y244625D03*
G54D136*
X1151889Y253779D03*
X1168900Y174173D03*
X1176282D03*
X1182975D03*
G54D110*
X1169589Y165905D03*
G54D200*
X1184648Y197401D03*
G54D85*
X1178943Y225379D03*
G54D136*
X1170789Y218279D03*
G54D84*
X1178943Y216579D03*
G54D169*
X1171773Y227079D03*
G54D136*
X1178496Y287579D03*
X1185189D03*
G54D199*
X1177243Y236379D03*
G54D197*
X1179142Y249779D03*
G54D150*
X1168974Y262532D03*
G54D196*
X1179142Y259779D03*
G54D163*
X1168843Y285579D03*
G54D150*
X1168974Y269225D03*
G54D151*
X1034620Y282695D03*
G54D158*
X1031949Y253615D03*
G54D150*
X1027544Y275288D03*
X1012107Y281909D03*
Y275216D03*
X1019882Y282008D03*
Y275315D03*
X1027544Y281981D03*
G54D158*
X1020138Y253615D03*
G54D151*
X1034620Y290175D03*
G54D136*
X1035541Y273740D03*
X1058078Y281457D03*
X1051486Y273544D03*
X1051385Y281457D03*
G54D156*
X1054684Y291067D03*
G54D157*
X1063484D03*
G54D151*
X1044068Y290175D03*
G54D136*
X1058179Y273544D03*
X1042234Y273740D03*
G54D152*
X1044068Y282695D03*
G54D151*
Y286435D03*
G54D199*
X1047900Y253300D03*
G54D136*
X68472Y189003D03*
G54D199*
X64772Y177363D03*
G54D136*
X61779Y189003D03*
G54D153*
X76549Y177703D03*
G54D136*
X77559Y123910D03*
G54D135*
X77040Y106890D03*
Y103150D03*
G54D110*
X69488Y132972D03*
X62008D03*
G54D228*
X51975Y78720D03*
G54D110*
X65748Y124311D03*
G54D136*
X84252Y123910D03*
G54D135*
X84127Y106890D03*
Y103150D03*
G54D230*
X79534Y61003D03*
G54D153*
X98596Y177703D03*
G54D107*
X119031Y150243D03*
G54D106*
Y142763D03*
X116472Y150243D03*
Y142763D03*
X113913Y150243D03*
Y142763D03*
G54D108*
X118799Y165650D03*
G54D200*
X110236Y160039D03*
G54D156*
X105118Y189960D03*
G54D157*
X113918D03*
G54D108*
X122539Y175098D03*
X118799D03*
G54D228*
X107094Y78720D03*
G54D136*
X106693Y206004D03*
X113287Y198425D03*
G54D162*
X107677Y325098D03*
Y313681D03*
G54D136*
X106594Y198425D03*
X113386Y206004D03*
G54D165*
X120472D03*
G54D201*
X112400Y255700D03*
G54D136*
X102854Y269783D03*
X102756Y260630D03*
G54D204*
X95374Y335039D03*
G54D164*
X95472Y369488D03*
Y357677D03*
G54D113*
X146752Y335335D03*
G54D158*
X133268Y342323D03*
X121457D03*
G54D137*
X114327Y363091D03*
X132327D03*
G54D158*
X147638Y367815D03*
G54D163*
X147835Y355217D03*
G54D187*
X89293Y198803D03*
G54D88*
X87500Y260728D03*
G54D200*
X84843Y296850D03*
G54D164*
Y313083D03*
Y324894D03*
G54D131*
X93131Y206087D03*
X90572D03*
G54D217*
X89701Y276441D03*
G54D136*
X96063Y260630D03*
X96161Y269783D03*
G54D216*
X93110Y279921D03*
G54D204*
X95374Y325039D03*
G54D205*
Y315039D03*
G54D131*
X88013Y206087D03*
G54D158*
X61319Y369587D03*
G54D84*
X62894Y451418D03*
G54D85*
Y442618D03*
G54D141*
X78642Y431489D03*
G54D153*
X69324Y413300D03*
G54D199*
X83760Y410433D03*
G54D154*
X67126Y386811D03*
G54D199*
X81791Y357382D03*
G54D163*
X24596Y471950D03*
G54D88*
X24901Y460925D03*
X32972D03*
G54D136*
X48622Y460826D03*
G54D193*
X55610Y491831D03*
X67421D03*
Y480020D03*
X55610D03*
G54D163*
X36013Y471950D03*
G54D136*
X41929Y460826D03*
G54D195*
X43799Y476319D03*
G54D232*
X19685Y572835D03*
Y545276D03*
X9941Y568799D03*
Y549312D03*
X5905Y559055D03*
G54D206*
X19685D03*
G54D190*
X24508Y530512D03*
G54D232*
X29429Y549312D03*
Y568799D03*
X33465Y559055D03*
G54D117*
X39598Y239069D03*
Y229068D03*
G54D136*
X39393Y219069D03*
G54D112*
X30632Y237040D03*
Y229560D03*
X22168Y233300D03*
G54D136*
X32700Y219069D03*
G54D200*
X36909Y271949D03*
G54D84*
X76083Y197302D03*
G54D85*
Y206102D03*
G54D131*
X85454Y206087D03*
G54D217*
X82741Y283401D03*
G54D88*
X79429Y260728D03*
G54D216*
X79331Y279921D03*
G54D136*
X71146Y219069D03*
G54D117*
X64402Y229068D03*
G54D136*
X61626Y197003D03*
G54D117*
X64402Y239069D03*
G54D136*
X64453Y219069D03*
X68319Y197003D03*
G54D150*
X894095Y147933D03*
G54D165*
X898425Y141142D03*
X920374Y133661D03*
X898425D03*
G54D150*
X894095Y154626D03*
X916043D03*
X908700Y154546D03*
Y147853D03*
X916043Y147933D03*
G54D165*
X920374Y141142D03*
X911713Y137402D03*
X942913Y132677D03*
G54D162*
X963550Y165492D03*
G54D150*
X938719Y154626D03*
Y147933D03*
G54D165*
X942913Y140157D03*
X934252Y136417D03*
G54D136*
X48721Y337326D03*
X55414D03*
X56004Y356004D03*
X55414Y346665D03*
X48721D03*
G54D158*
X49508Y369587D03*
G54D154*
X49409Y386811D03*
G54D136*
X49311Y356004D03*
G54D87*
X36220Y435369D03*
Y443440D03*
G54D153*
X47276Y413300D03*
G54D150*
X54331Y450590D03*
Y443897D03*
X26575Y436713D03*
Y443405D03*
X14665Y436614D03*
Y443307D03*
M02*