M48
INCH
T02C0.025
T03C0.035
T04C0.045
T06C0.115
%
T02
X005750Y008750
X005400Y009250
X005750Y009750
X005400Y010250
X005750Y010750
X005400Y011250
X007620Y011420
X008160Y011080
X008200Y012140
X007430Y013040
X010740Y013500
X010740Y014200
X010920Y014940
X011460Y014580
X011840Y014200
X012180Y015600
X011420Y016140
X011940Y016920
X010020Y016320
X013080Y019020
X015380Y019020
X017760Y019180
X018180Y019680
X018600Y020220
X017760Y022701
X018180Y025701
X014620Y026221
X013080Y026221
X010420Y025261
X008640Y024041
X006380Y024121
X005840Y023221
X005650Y021750
X006000Y021250
X005650Y020750
X006000Y020250
X005650Y019750
X006000Y019250
X007060Y019640
X008660Y020760
X010270Y022180
X006380Y027341
X006380Y029421
X008000Y029581
X008880Y029861
X010920Y032481
X025061Y026221
X027061Y023241
X024301Y022701
X025461Y018480
X024761Y016380
X024301Y015660
X025941Y012760
X024241Y011480
X020500Y009080
X021360Y008040
X019960Y007340
X019020Y007320
X019060Y008820
X018660Y011020
X018660Y012440
X019500Y012180
X016680Y012420
X016680Y010720
X015360Y010720
X015000Y011540
X013860Y012260
X013220Y010480
X013220Y009860
X012860Y008820
X012060Y009340
X012020Y009880
X011840Y011160
X011320Y011540
X010860Y011080
X010500Y009200
X010880Y008820
X010240Y007400
X008380Y006920
X006700Y006920
X006700Y007500
X009000Y009220
X012280Y007320
X013080Y007400
X014380Y007820
X015020Y007820
X014640Y010180
X013080Y005740
X015540Y015940
X017860Y015580
X018700Y015660
X018180Y017520
X031261Y019020
X031981Y016380
X034061Y016440
X034081Y018040
X035000Y018750
X035500Y018750
X036000Y018750
X036000Y022000
X035500Y022000
X035000Y022000
X035000Y026000
X035500Y026000
X036000Y026000
X035161Y028121
X034961Y029321
X035541Y029761
X034961Y031281
X036541Y032221
X037461Y030761
X035921Y034361
X035541Y034741
X033200Y033700
X033200Y032620
X031261Y026221
X036321Y013300
X034012Y005000
X033224Y005000
X032437Y005000
X031650Y005000
X030862Y005000
X030075Y005000
X029287Y005000
X028500Y005000
X026141Y006660
T03
X006800Y022300
X008200Y022320
X033000Y015840
X033020Y014800
X035120Y014740
X035100Y015940
X031680Y034420
X031660Y035760
T04
X038000Y033500
X038000Y032500
X038000Y025500
X038000Y024500
X023000Y005250
X022000Y005250
X021000Y005250
X020000Y005250
X019000Y005250
X018000Y005250
X017000Y005250
X016000Y005250
X015000Y005250
X014000Y005250
X011000Y005250
X010000Y005250
X009000Y005250
X005000Y028000
X005000Y029000
X005000Y030000
X005000Y031000
X005000Y032000
X005000Y033000
T06
X038000Y035500
X038000Y005000
X005000Y005000
X005000Y035500
T00
M30
