G04 DipTrace 1.50*
%INTop Mask.gbr*%
%MOIN*%
%ADD10C,0.01*%
%ADD11C,0.005*%
%ADD12C,0.003*%
%ADD13C,0.008*%
%ADD14C,0.016*%
%ADD15C,0.02*%
%ADD16C,0.039*%
%ADD17C,0.03*%
%ADD18C,0.0197*%
%ADD19C,0.04*%
%ADD20C,0.0394*%
%ADD21C,0.025*%
%ADD22C,0.015*%
%ADD23R,0.06X0.045*%
%ADD24R,0.045X0.05*%
%ADD25R,0.05X0.045*%
%ADD26R,0.045X0.06*%
%ADD27R,0.03X0.025*%
%ADD28C,0.05*%
%ADD29R,0.08X0.08*%
%ADD30R,0.025X0.025*%
%ADD31R,0.0591X0.0787*%
%ADD32R,0.045X0.065*%
%ADD33C,0.06*%
%ADD34C,0.0591*%
%ADD35C,0.15*%
%ADD36R,0.032X0.032*%
%ADD37R,0.0413X0.0591*%
%ADD38R,0.0689X0.0197*%
%ADD39R,0.0787X0.0197*%
%ADD40R,0.0197X0.0689*%
%ADD41R,0.0197X0.0787*%
%ADD42O,0.04X0.06*%
%ADD43C,0.05*%
%ADD44R,0.06X0.03*%
%ADD45R,0.0335X0.0197*%
%ADD46C,0.045*%
%ADD47C,0.035*%
%ADD48C,0.0354*%
%ADD49C,0.115*%
%ADD50C,0.055*%
%ADD51R,0.0435X0.0297*%
%ADD52R,0.0235X0.0097*%
%ADD53R,0.07X0.04*%
%ADD54R,0.05X0.02*%
%ADD55C,0.06*%
%ADD56C,0.04*%
%ADD57O,0.05X0.07*%
%ADD58O,0.03X0.05*%
%ADD59R,0.0297X0.0887*%
%ADD60R,0.0097X0.0687*%
%ADD61R,0.0297X0.0789*%
%ADD62R,0.0097X0.0589*%
%ADD63R,0.0887X0.0297*%
%ADD64R,0.0687X0.0097*%
%ADD65R,0.0789X0.0297*%
%ADD66R,0.0589X0.0097*%
%ADD67R,0.0513X0.0691*%
%ADD68R,0.0313X0.0491*%
%ADD69R,0.042X0.042*%
%ADD70R,0.022X0.022*%
%ADD71C,0.16*%
%ADD72C,0.14*%
%ADD73C,0.0691*%
%ADD74C,0.0491*%
%ADD75C,0.07*%
%ADD76R,0.055X0.075*%
%ADD77R,0.035X0.055*%
%ADD78R,0.0691X0.0887*%
%ADD79R,0.0491X0.0687*%
%ADD80R,0.035X0.035*%
%ADD81R,0.015X0.015*%
%ADD82R,0.09X0.09*%
%ADD83R,0.07X0.07*%
%ADD84R,0.04X0.035*%
%ADD85R,0.02X0.015*%
%ADD86R,0.055X0.07*%
%ADD87R,0.035X0.05*%
%ADD88R,0.06X0.055*%
%ADD89R,0.055X0.06*%
%ADD90R,0.035X0.04*%
%ADD91R,0.07X0.055*%
%ADD92R,0.05X0.035*%
%ADD93C,0.012*%
%ADD94C,0.0066*%
%ADD95C,0.0087*%
%FSLAX44Y44*%
%SFA1B1*%
%OFA0B0*%
G04*
G70*
G90*
G75*
G01*
%LNTopMask*%
%LPD*%
D50*
X33200Y33700D3*
X10270Y22180D3*
X36541Y32221D3*
X11420Y16140D3*
X13080Y19020D3*
X15380D3*
X13080Y5740D3*
X14380Y7820D3*
X25941Y12760D3*
X13080Y7400D3*
X8380Y6920D3*
X19500Y12180D3*
X19060Y8820D3*
X12860D3*
X11840Y14200D3*
X10740D3*
X10020Y16320D3*
X12020Y9880D3*
X11940Y16920D3*
X10240Y7400D3*
X21360Y8040D3*
X10880Y8820D3*
X19020Y7320D3*
X12180Y15600D3*
X17860Y15580D3*
X11460Y14580D3*
X18660Y12440D3*
Y11020D3*
X19960Y7340D3*
X7060Y19640D3*
X8000Y29581D3*
X15000Y11540D3*
X14640Y10180D3*
X6700Y6920D3*
X12280Y7320D3*
X34081Y18040D3*
X11840Y11160D3*
X6700Y7500D3*
X7620Y11420D3*
X7430Y13040D3*
X8200Y12140D3*
X37461Y30761D3*
X6380Y24121D3*
X10500Y9200D3*
X6380Y29421D3*
Y27341D3*
X9000Y9220D3*
X10920Y32481D3*
Y14940D3*
X35541Y34741D3*
Y29761D3*
X34961Y31281D3*
Y29321D3*
X5840Y23221D3*
X18600Y20220D3*
X25061Y26221D3*
X31261D3*
X18180Y19680D3*
Y25701D3*
X17760Y19180D3*
X27061Y23241D3*
X24301Y22701D3*
X17760D3*
X25461Y18480D3*
X31261Y19020D3*
X18180Y17520D3*
X24761Y16380D3*
X18700Y15660D3*
X24301D3*
X15540Y15940D3*
X31981Y16380D3*
X15360Y10720D3*
X16680D3*
Y12420D3*
X11320Y11540D3*
X10860Y11080D3*
X20500Y9080D3*
X24241Y11480D3*
X8160Y11080D3*
X10740Y13500D3*
X8880Y29861D3*
X8640Y24041D3*
X13860Y12260D3*
X8660Y20760D3*
X36321Y13300D3*
X15020Y7820D3*
X13220Y10480D3*
X12060Y9340D3*
X13220Y9860D3*
X34061Y16440D3*
X26141Y6660D3*
X35161Y28121D3*
X14620Y26221D3*
X13080D3*
X35921Y34361D3*
X33200Y32620D3*
X10420Y25261D3*
D91*
X7000Y11250D3*
Y10668D3*
D89*
X33360Y35040D3*
X32680D3*
D88*
X26500Y5750D3*
Y5070D3*
X10580Y24400D3*
Y23720D3*
D89*
X34750Y17000D3*
X35430D3*
X34750Y20000D3*
X35430D3*
X35500Y27500D3*
X34820D3*
X34660Y24260D3*
X35340D3*
D88*
X37060Y17680D3*
Y17000D3*
D89*
X36000Y23250D3*
X35320D3*
D86*
X5250Y25500D3*
X5832D3*
D89*
X34500Y28750D3*
X35180D3*
D84*
X34500Y29750D3*
Y30650D3*
D89*
X36250Y28750D3*
X36930D3*
D88*
X36720Y23840D3*
Y24520D3*
D33*
X5750Y8750D3*
X5400Y9250D3*
X5750Y9750D3*
X5400Y10250D3*
X5750Y10750D3*
X5400Y11250D3*
D82*
X38000Y33500D3*
Y32500D3*
X9000Y5250D3*
X10000D3*
X11000D3*
X14000D3*
X15000D3*
X16000D3*
X17000D3*
X18000D3*
X19000D3*
X20000D3*
X21000D3*
X22000D3*
X23000D3*
X38000Y25500D3*
Y24500D3*
X5000Y33000D3*
Y32000D3*
Y31000D3*
Y30000D3*
Y29000D3*
Y28000D3*
D33*
X6000Y19250D3*
X5650Y19750D3*
X6000Y20250D3*
X5650Y20750D3*
X6000Y21250D3*
X5650Y21750D3*
D78*
X35940Y30960D3*
X37042D3*
D75*
X6800Y22300D3*
D73*
X31660Y35760D3*
D71*
X38000Y35500D3*
X5000Y5000D3*
D73*
X31680Y34420D3*
D75*
X8200Y22320D3*
X33000Y15840D3*
X33020Y14800D3*
X35100Y15940D3*
X35120Y14740D3*
D71*
X5000Y35500D3*
X38000Y5000D3*
D69*
X8585Y30535D3*
Y31335D3*
X7715Y30935D3*
X7000Y29500D3*
Y30300D3*
X6130Y29900D3*
X8580Y28520D3*
Y29320D3*
X7710Y28920D3*
X8560Y32080D3*
Y32880D3*
X7690Y32480D3*
D86*
X8000Y16250D3*
X8582D3*
X35000Y32000D3*
X34418D3*
X34260Y35460D3*
X34842D3*
D91*
X34500Y33750D3*
Y33168D3*
X38000Y21250D3*
Y20668D3*
Y23000D3*
Y22418D3*
D89*
X6960Y31400D3*
X6280D3*
X7020Y28720D3*
X6340D3*
D86*
X7250Y6500D3*
X7832D3*
X7250Y7500D3*
X7832D3*
D91*
X9820Y29960D3*
Y30542D3*
X7000Y26750D3*
Y27332D3*
X8500Y26750D3*
Y27332D3*
X7000Y9750D3*
Y9168D3*
X9820Y32500D3*
Y31918D3*
D86*
X5250Y24250D3*
X5832D3*
D65*
X9750Y11750D3*
D63*
X9799Y11435D3*
Y11120D3*
Y10805D3*
Y10490D3*
Y10175D3*
Y9860D3*
Y9545D3*
Y9230D3*
Y8915D3*
D65*
X9750Y8600D3*
D61*
X10291Y8059D3*
D59*
X10606Y8108D3*
X10921D3*
X11236D3*
X11551D3*
X11866D3*
X12181D3*
X12496D3*
X12811D3*
X13126D3*
D61*
X13441Y8059D3*
D65*
X13982Y8600D3*
D63*
X13933Y8915D3*
Y9230D3*
Y9545D3*
Y9860D3*
Y10175D3*
Y10490D3*
Y10805D3*
Y11120D3*
Y11435D3*
D65*
X13982Y11750D3*
D61*
X13441Y12291D3*
D59*
X13126Y12242D3*
X12811D3*
X12496D3*
X12181D3*
X11866D3*
X11551D3*
X11236D3*
X10921D3*
X10606D3*
D61*
X10291Y12291D3*
D57*
X35000Y18750D3*
X35500D3*
X36000D3*
X35000Y26000D3*
X35500D3*
X36000D3*
D55*
X28500Y5000D3*
X29287D3*
X30075D3*
X30862D3*
X31650D3*
X32437D3*
X33224D3*
X34012D3*
D57*
X35000Y22000D3*
X35500D3*
X36000D3*
D53*
X7250Y25000D3*
Y24500D3*
Y24000D3*
Y23500D3*
X9250Y25000D3*
Y24500D3*
Y24000D3*
Y23500D3*
D51*
X35750Y33500D3*
Y33126D3*
Y32791D3*
X36675D3*
Y33500D3*
M02*
