G04 DipTrace 1.50*
%INTop.gbr*%
%MOIN*%
%ADD10C,0.01*%
%ADD11C,0.005*%
%ADD12C,0.003*%
%ADD13C,0.008*%
%ADD14C,0.016*%
%ADD15C,0.02*%
%ADD16C,0.039*%
%ADD17C,0.03*%
%ADD18C,0.0197*%
%ADD19C,0.04*%
%ADD20C,0.0394*%
%ADD21C,0.025*%
%ADD22C,0.015*%
%ADD23R,0.06X0.045*%
%ADD24R,0.045X0.05*%
%ADD25R,0.05X0.045*%
%ADD26R,0.045X0.06*%
%ADD27R,0.03X0.025*%
%ADD28C,0.05*%
%ADD29R,0.08X0.08*%
%ADD30R,0.025X0.025*%
%ADD31R,0.0591X0.0787*%
%ADD32R,0.045X0.065*%
%ADD33C,0.06*%
%ADD34C,0.0591*%
%ADD35C,0.15*%
%ADD36R,0.032X0.032*%
%ADD37R,0.0413X0.0591*%
%ADD38R,0.0689X0.0197*%
%ADD39R,0.0787X0.0197*%
%ADD40R,0.0197X0.0689*%
%ADD41R,0.0197X0.0787*%
%ADD42O,0.04X0.06*%
%ADD43C,0.05*%
%ADD44R,0.06X0.03*%
%ADD45R,0.0335X0.0197*%
%ADD46C,0.045*%
%ADD47C,0.035*%
%ADD48C,0.0354*%
%ADD49C,0.115*%
%ADD50C,0.055*%
%ADD51R,0.0435X0.0297*%
%ADD52R,0.0235X0.0097*%
%ADD53R,0.07X0.04*%
%ADD54R,0.05X0.02*%
%ADD55C,0.06*%
%ADD56C,0.04*%
%ADD57O,0.05X0.07*%
%ADD58O,0.03X0.05*%
%ADD59R,0.0297X0.0887*%
%ADD60R,0.0097X0.0687*%
%ADD61R,0.0297X0.0789*%
%ADD62R,0.0097X0.0589*%
%ADD63R,0.0887X0.0297*%
%ADD64R,0.0687X0.0097*%
%ADD65R,0.0789X0.0297*%
%ADD66R,0.0589X0.0097*%
%ADD67R,0.0513X0.0691*%
%ADD68R,0.0313X0.0491*%
%ADD69R,0.042X0.042*%
%ADD70R,0.022X0.022*%
%ADD71C,0.16*%
%ADD72C,0.14*%
%ADD73C,0.0691*%
%ADD74C,0.0491*%
%ADD75C,0.07*%
%ADD76R,0.055X0.075*%
%ADD77R,0.035X0.055*%
%ADD78R,0.0691X0.0887*%
%ADD79R,0.0491X0.0687*%
%ADD80R,0.035X0.035*%
%ADD81R,0.015X0.015*%
%ADD82R,0.09X0.09*%
%ADD83R,0.07X0.07*%
%ADD84R,0.04X0.035*%
%ADD85R,0.02X0.015*%
%ADD86R,0.055X0.07*%
%ADD87R,0.035X0.05*%
%ADD88R,0.06X0.055*%
%ADD89R,0.055X0.06*%
%ADD90R,0.035X0.04*%
%ADD91R,0.07X0.055*%
%ADD92R,0.05X0.035*%
%ADD93C,0.012*%
%ADD94C,0.0066*%
%ADD95C,0.0087*%
%FSLAX44Y44*%
%SFA1B1*%
%OFA0B0*%
G04*
G70*
G90*
G75*
G01*
%LNTop*%
%LPD*%
X7000Y9750D2*
D13*
Y10668D1*
X6222D1*
X6140Y10750D1*
X5750D1*
X7000Y10668D2*
X8488D1*
X8625Y10805D1*
X9799D1*
X12441Y16140D2*
D14*
X12811Y15770D1*
Y12242D1*
X36541Y32221D2*
X36675Y32355D1*
Y32791D1*
X11420Y16140D2*
X12441D1*
X12811Y15770D1*
X38000Y22418D2*
D13*
Y21250D1*
Y21100D1*
X16520D1*
X15380Y19960D1*
Y19020D1*
X13080D2*
X13126Y18975D1*
Y12242D1*
X14380Y7820D2*
Y7440D1*
X17460D1*
X18340Y8320D1*
X19760D1*
X20080Y8640D1*
Y12600D1*
X20240Y12760D1*
X25941D1*
X13080Y5740D2*
X12880Y5940D1*
X11680D1*
X10960Y6660D1*
X9780D1*
X8940Y7500D1*
X7832D1*
X13080Y7400D2*
X13126Y7446D1*
Y8108D1*
X19500Y12180D2*
Y8820D1*
X19060D1*
X8380Y6920D2*
X7832D1*
Y6500D1*
X12860Y8820D2*
X12811Y8771D1*
Y8108D1*
X11940Y16920D2*
X10020D1*
Y16320D1*
X12020Y9880D2*
X12496Y9404D1*
Y8108D1*
X11840Y14200D2*
X10740D1*
X10020Y16320D2*
X9620D1*
X9550Y16250D1*
X8582D1*
X10240Y7400D2*
Y7810D1*
X10291Y7861D1*
Y8059D1*
X21360Y8040D2*
Y8240D1*
X26641D1*
X27301Y7580D1*
Y6700D1*
X27681Y6320D1*
X33121D1*
X34012Y5429D1*
Y5000D1*
X20000Y5250D2*
Y5760D1*
X19340Y6420D1*
X11800D1*
X10606Y7614D1*
Y8108D1*
X10880Y8820D2*
Y8400D1*
X10921Y8359D1*
Y8108D1*
X22000Y5250D2*
Y5821D1*
X21180Y6640D1*
X11900D1*
X11236Y7304D1*
Y8108D1*
X23000Y5250D2*
Y6021D1*
X22160Y6860D1*
X12000D1*
X11551Y7309D1*
Y8108D1*
X19020Y7320D2*
Y7060D1*
X13500D1*
X13441Y7119D1*
Y8059D1*
X17860Y15580D2*
Y9050D1*
X17050Y8240D1*
X14190D1*
X13980Y8030D1*
Y7260D1*
X13990Y7230D1*
X18050D1*
X18820Y8000D1*
X20600D1*
Y7840D1*
X20810Y7630D1*
X26771D1*
X27001Y7400D1*
Y6470D1*
X27431Y6040D1*
X32701D1*
X33171Y5570D1*
Y5054D1*
X33224Y5000D1*
X12180Y15600D2*
X10400D1*
X10220Y15420D1*
Y12291D1*
X10291D1*
X18660Y12440D2*
Y11020D1*
X11460Y14580D2*
X10540D1*
X10380Y14420D1*
Y13040D1*
X10606Y12814D1*
Y12242D1*
X15000Y11540D2*
D15*
Y16380D1*
X15840Y17220D1*
Y19700D1*
X16860Y20720D1*
X32971D1*
X33001Y20700D1*
Y15840D1*
X7060Y19640D2*
X8000Y18701D1*
Y16250D1*
X31660Y35760D2*
D16*
X31680Y34420D1*
X33000Y15840D2*
X35000D1*
X35100Y15940D1*
X10270Y22180D2*
D15*
X10580Y22490D1*
Y23720D1*
X5650Y21750D2*
X6200Y22300D1*
X6800D1*
X7250Y23500D2*
D13*
X6541D1*
X6380Y23661D1*
Y24121D1*
X11866Y12242D2*
D15*
Y11186D1*
X11840Y11160D1*
X34081Y18040D2*
X35271D1*
X35430Y17881D1*
Y17000D1*
X7000Y30300D2*
X8120D1*
Y29581D1*
X8000D1*
X38000Y25500D2*
X36520D1*
X35340Y24320D1*
Y24260D1*
X16860Y20720D2*
X35271D1*
X35430Y20561D1*
Y20000D1*
X19960Y7340D2*
X26521D1*
X26701Y7160D1*
Y5750D1*
X26500D1*
X11000Y5250D2*
Y6000D1*
X10700Y6300D1*
X8620D1*
X8200Y5880D1*
X7580D1*
X7250Y6210D1*
Y6500D1*
X14640Y10180D2*
X13933Y10175D1*
X35500Y26000D2*
Y26421D1*
X34820Y27101D1*
Y27500D1*
X35430Y20000D2*
Y19251D1*
X35500Y19181D1*
Y18750D1*
X34500Y33168D2*
X33681D1*
Y34021D1*
X33861Y34201D1*
X35061D1*
X35361Y33901D1*
X35321D1*
Y33126D1*
X35750D1*
X33020Y14800D2*
D16*
X35060D1*
X35120Y14740D1*
X33000Y15840D2*
X33020Y14800D1*
X8000Y16250D2*
D15*
X7880Y16130D1*
X7570D1*
X7430Y15990D1*
Y13040D1*
X38000Y32500D2*
X37362D1*
X37181Y32681D1*
Y33121D1*
X36441D1*
X36281Y33281D1*
Y33901D1*
X35361D1*
X32680Y35040D2*
Y33232D1*
X32743Y33168D1*
X34500D1*
X31660Y35760D2*
X32552D1*
X32680Y35632D1*
Y35040D1*
X5000Y35500D2*
D16*
X5260Y35760D1*
X31660D1*
X6800Y22300D2*
D15*
X8180D1*
X8200Y22320D1*
X6380Y24121D2*
D13*
Y24701D1*
X6220Y24861D1*
X5440D1*
X5250Y25051D1*
Y25500D1*
X7430Y13040D2*
D15*
Y15990D1*
X7000Y11250D2*
Y12460D1*
X7430Y12890D1*
Y13040D1*
X5400Y11250D2*
X7000D1*
X6700Y7500D2*
D17*
X5020D1*
X4860Y7660D1*
Y10710D1*
X5400Y11250D1*
X7250Y7500D2*
D15*
X6700D1*
X9799Y10175D2*
X9165D1*
X7250Y8260D1*
Y7500D1*
X11840Y11160D2*
X11480Y10800D1*
Y10500D1*
X11155Y10175D1*
X9799D1*
X12280Y7320D2*
X12181Y7419D1*
Y8108D1*
X35430Y17000D2*
X37060D1*
X8000Y29581D2*
Y29461D1*
X8141Y29320D1*
X8580D1*
X35320Y23250D2*
Y22601D1*
X35500Y22421D1*
Y22000D1*
X35340Y24260D2*
X35320Y23250D1*
X35430Y20000D2*
X37820D1*
X38000Y20180D1*
Y20668D1*
X26500Y5750D2*
X31687D1*
X32437Y5000D1*
X7250Y6500D2*
Y6920D1*
X6700D1*
X14000Y5250D2*
Y5640D1*
X14320Y5960D1*
X15740D1*
X16000Y5700D1*
Y5250D1*
X5000Y5000D2*
D19*
X5020D1*
Y7500D1*
X37060Y17000D2*
D20*
X37394D1*
X38103Y16292D1*
Y5103D1*
X38000Y5000D1*
X8585Y31335D2*
D18*
X8160D1*
Y30294D1*
X8120Y30254D1*
Y29581D1*
X8560Y32880D2*
D15*
X8120Y32440D1*
Y31335D1*
X8585D1*
X7000Y26750D2*
D13*
X7521D1*
X7780Y26491D1*
Y24681D1*
X7600Y24500D1*
X7250D1*
X7620Y11420D2*
X7635Y11435D1*
X9799D1*
X8200Y12140D2*
X8590Y11750D1*
X9750D1*
X38000Y33500D2*
X36675D1*
X37461Y30761D2*
Y30960D1*
X37042D1*
X36720Y24520D2*
X37980D1*
X38000Y24500D1*
X6340Y28720D2*
D14*
X6011D1*
X5670Y29061D1*
X5061D1*
X5000Y29000D1*
X10500Y9200D2*
D13*
Y9140D1*
X10275Y8915D1*
X9799D1*
X8500Y27332D2*
X8580D1*
Y28520D1*
X5000Y30000D2*
X5100Y29900D1*
X6130D1*
X6380Y27341D2*
X6389Y27332D1*
X7000D1*
X6380Y29421D2*
X6459Y29500D1*
X7000D1*
X9000Y9220D2*
X9010Y9230D1*
X9799D1*
X5000Y31000D2*
D15*
X5060Y30931D1*
X5000Y31000D1*
X5039Y30961D1*
X5940D1*
X6379Y31400D1*
X6280D1*
X5000Y31000D2*
X5060Y30931D1*
X5000Y31000D1*
X10920Y14940D2*
D13*
X12320D1*
X12496Y14764D1*
Y12242D1*
X10920Y32481D2*
X10901Y32500D1*
X9820D1*
Y30542D2*
X8585Y30535D1*
X9820Y31918D2*
X8600D1*
Y32120D1*
X8560Y32080D1*
X7690Y32480D2*
D15*
X6189D1*
X5709Y32000D1*
X5000D1*
X35750Y33500D2*
D13*
X36061D1*
Y30960D1*
X35940D1*
X35430D1*
X35120Y30650D1*
X34500D1*
X8500Y26750D2*
X13281D1*
X13680Y26351D1*
Y15810D1*
X13441D1*
Y12291D1*
X33360Y35040D2*
Y35460D1*
X34260D1*
X34500Y28750D2*
Y29750D1*
X34260Y35460D2*
Y34741D1*
X35541D1*
Y29761D2*
X36761D1*
X36930Y29592D1*
Y28750D1*
X34500Y29750D2*
X35530D1*
X35541Y29761D1*
X35921Y34361D2*
Y35019D1*
X35480Y35460D1*
X34842D1*
X35921Y34361D2*
X35721D1*
X35584Y34224D1*
X35457D1*
X35174Y34507D1*
X33506D1*
X33200Y34201D1*
Y33700D1*
X34500Y33750D2*
X35021D1*
Y33001D1*
X35230Y32791D1*
X35750D1*
X35000Y32000D2*
Y32620D1*
X33200D1*
X35750Y32791D2*
Y32160D1*
X35590Y32000D1*
X35000D1*
X34961Y29321D2*
X35180Y29102D1*
Y28750D1*
X34961Y31281D2*
X34581D1*
X34418Y31443D1*
Y32000D1*
X6960Y31400D2*
D14*
X7641D1*
X7700Y31341D1*
Y30950D1*
X7715Y30935D1*
X7020Y28720D2*
X7510D1*
X7710Y28920D1*
X18600Y20220D2*
D13*
X17040D1*
X16160Y19340D1*
Y15560D1*
X15840Y15240D1*
Y9660D1*
X15725Y9545D1*
X13933D1*
X31261Y26221D2*
X25061D1*
X18180Y19680D2*
X17240D1*
X16420Y18860D1*
Y15280D1*
X16160Y15020D1*
Y9500D1*
X15890Y9230D1*
X13933D1*
X25061Y26221D2*
X24821Y25981D1*
Y25701D1*
X18180D1*
X27061Y23241D2*
X26901Y23401D1*
X25561D1*
X24861Y22701D1*
X24301D1*
X17760Y19180D2*
X16700Y18120D1*
Y14210D1*
X17240D1*
Y10100D1*
X16056Y8915D1*
X13933D1*
X24301Y22701D2*
X17760D1*
X31261Y19020D2*
X25461D1*
Y18480D1*
X18180Y17520D2*
X17280Y16620D1*
Y14800D1*
X17540D1*
Y9280D1*
X16861Y8600D1*
X13982D1*
X25461Y18480D2*
X24501Y17520D1*
X18180D1*
X15540Y15940D2*
Y11280D1*
X15380Y11120D1*
X13933D1*
X18700Y15660D2*
X24301D1*
X24761Y16380D2*
X31981D1*
X16680Y10720D2*
Y12420D1*
X15360Y10720D2*
X15275Y10805D1*
X13933D1*
X17000Y5250D2*
Y5840D1*
X16620Y6220D1*
X11700D1*
X11040Y6880D1*
X10060D1*
X9280Y7660D1*
Y8600D1*
X9750D1*
X11320Y11540D2*
X11551Y11771D1*
Y12242D1*
X20500Y9080D2*
X21840D1*
X24241Y11480D1*
X10860Y11080D2*
X10921Y11019D1*
Y12242D1*
X7250Y25000D2*
Y25541D1*
X5832D1*
Y25500D1*
X5250Y24250D2*
Y21421D1*
X5421Y21250D1*
X6000D1*
X5832Y25500D2*
Y26081D1*
X4900D1*
X4740Y25921D1*
Y24411D1*
X4901Y24250D1*
X5250D1*
X8160Y11080D2*
X8200Y11120D1*
X9799D1*
X10740Y13500D2*
X11236Y13004D1*
Y12242D1*
X8640Y24041D2*
X8681Y24000D1*
X9250D1*
X8880Y29861D2*
X8979Y29960D1*
X9820D1*
X5650Y20750D2*
X8650D1*
X8660Y20760D1*
X13860Y12260D2*
Y11750D1*
X13982D1*
X8660Y20760D2*
Y23500D1*
X9250D1*
X6000Y20250D2*
X9680D1*
X9840Y20410D1*
Y24500D1*
X9250D1*
X36000Y22000D2*
D15*
Y23250D1*
X36321Y13300D2*
X18320D1*
X18180Y13160D1*
Y8740D1*
X17260Y7820D1*
X15020D1*
X13933Y10490D2*
X13220Y10480D1*
X5832Y24250D2*
D13*
Y23229D1*
X5840Y23221D1*
X13220Y9860D2*
D15*
X13933D1*
X11866Y8108D2*
Y8636D1*
X12060Y8830D1*
Y9340D1*
X13220Y10480D2*
X12650D1*
Y11200D1*
X12181Y11669D1*
Y12242D1*
X35500Y27500D2*
Y27101D1*
X36000Y26601D1*
Y26000D1*
X5000Y33000D2*
Y33301D1*
X14320D1*
X17360Y30261D1*
X37141D1*
X37441Y29961D1*
Y27661D1*
X37280Y27500D1*
X35500D1*
X10420Y25261D2*
X10580Y25151D1*
Y24400D1*
X10420Y25261D2*
X10450Y25281D1*
X10580Y25151D1*
X10420Y25261D1*
X10450Y25281D1*
X10420Y25261D1*
X9250Y25000D2*
X10160D1*
X10420Y25261D1*
X5840Y23221D2*
D13*
Y22861D1*
X7600D1*
X8240Y23501D1*
Y24701D1*
X8540Y25000D1*
X9250D1*
X7000Y9168D2*
D15*
X7408D1*
X8730Y10490D1*
X9799D1*
X5400Y9250D2*
X5439Y9210D1*
X7000D1*
Y9168D1*
X12060Y9340D2*
X11780D1*
X11560Y9560D1*
Y10180D1*
X11860Y10480D1*
X12650D1*
X26141Y6660D2*
X25961Y6480D1*
Y5230D1*
X26121Y5070D1*
X26500D1*
X34061Y16440D2*
Y16820D1*
X34240Y17000D1*
X34750D1*
X36000Y18750D2*
Y18181D1*
X36501Y17680D1*
X37060D1*
X26500Y5070D2*
X28430D1*
X28500Y5000D1*
X38000Y23000D2*
D21*
X36721D1*
Y21810D1*
X36291Y21380D1*
X34681D1*
X34341Y21720D1*
Y24021D1*
X34580Y24260D1*
X34660D1*
X36721Y23000D2*
Y23840D1*
X36250Y28750D2*
Y28290D1*
X36081Y28121D1*
X35161D1*
X35000Y18750D2*
Y19181D1*
X34750Y19431D1*
Y20000D1*
X34660Y24260D2*
Y26000D1*
X35000D1*
X35161Y28121D2*
X10560D1*
X9760Y28921D1*
X8260D1*
X8140Y28801D1*
Y28301D1*
X7839Y28000D1*
X5000D1*
X13080Y26221D2*
D13*
X8020D1*
Y24341D1*
X7680Y24000D1*
X7250D1*
X14620Y26221D2*
X14580D1*
Y11560D1*
X14455Y11435D1*
X13933D1*
D46*
X33200Y33700D3*
X10270Y22180D3*
X36541Y32221D3*
X11420Y16140D3*
X13080Y19020D3*
X15380D3*
X13080Y5740D3*
X14380Y7820D3*
X25941Y12760D3*
X13080Y7400D3*
X8380Y6920D3*
X19500Y12180D3*
X19060Y8820D3*
X12860D3*
X11840Y14200D3*
X10740D3*
X10020Y16320D3*
X12020Y9880D3*
X11940Y16920D3*
X10240Y7400D3*
X21360Y8040D3*
X10880Y8820D3*
X19020Y7320D3*
X12180Y15600D3*
X17860Y15580D3*
X11460Y14580D3*
X18660Y12440D3*
Y11020D3*
X19960Y7340D3*
X7060Y19640D3*
X8000Y29581D3*
X15000Y11540D3*
X14640Y10180D3*
X6700Y6920D3*
X12280Y7320D3*
X34081Y18040D3*
X11840Y11160D3*
X6700Y7500D3*
X7620Y11420D3*
X7430Y13040D3*
X8200Y12140D3*
X37461Y30761D3*
X6380Y24121D3*
X10500Y9200D3*
X6380Y29421D3*
Y27341D3*
X9000Y9220D3*
X10920Y32481D3*
Y14940D3*
X35541Y34741D3*
Y29761D3*
X34961Y31281D3*
Y29321D3*
X5840Y23221D3*
X18600Y20220D3*
X25061Y26221D3*
X31261D3*
X18180Y19680D3*
Y25701D3*
X17760Y19180D3*
X27061Y23241D3*
X24301Y22701D3*
X17760D3*
X25461Y18480D3*
X31261Y19020D3*
X18180Y17520D3*
X24761Y16380D3*
X18700Y15660D3*
X24301D3*
X15540Y15940D3*
X31981Y16380D3*
X15360Y10720D3*
X16680D3*
Y12420D3*
X11320Y11540D3*
X10860Y11080D3*
X20500Y9080D3*
X24241Y11480D3*
X8160Y11080D3*
X10740Y13500D3*
X8880Y29861D3*
X8640Y24041D3*
X13860Y12260D3*
X8660Y20760D3*
X36321Y13300D3*
X15020Y7820D3*
X13220Y10480D3*
X12060Y9340D3*
X13220Y9860D3*
X34061Y16440D3*
X26141Y6660D3*
X35161Y28121D3*
X14620Y26221D3*
X13080D3*
X35921Y34361D3*
X33200Y32620D3*
X10420Y25261D3*
D23*
X7000Y11250D3*
Y10668D3*
D24*
X33360Y35040D3*
X32680D3*
D25*
X26500Y5750D3*
Y5070D3*
X10580Y24400D3*
Y23720D3*
D24*
X34750Y17000D3*
X35430D3*
X34750Y20000D3*
X35430D3*
X35500Y27500D3*
X34820D3*
X34660Y24260D3*
X35340D3*
D25*
X37060Y17680D3*
Y17000D3*
D24*
X36000Y23250D3*
X35320D3*
D26*
X5250Y25500D3*
X5832D3*
D24*
X34500Y28750D3*
X35180D3*
D27*
X34500Y29750D3*
Y30650D3*
D24*
X36250Y28750D3*
X36930D3*
D25*
X36720Y23840D3*
Y24520D3*
D28*
X5750Y8750D3*
X5400Y9250D3*
X5750Y9750D3*
X5400Y10250D3*
X5750Y10750D3*
X5400Y11250D3*
D29*
X38000Y33500D3*
Y32500D3*
X9000Y5250D3*
X10000D3*
X11000D3*
X14000D3*
X15000D3*
X16000D3*
X17000D3*
X18000D3*
X19000D3*
X20000D3*
X21000D3*
X22000D3*
X23000D3*
X38000Y25500D3*
Y24500D3*
X5000Y33000D3*
Y32000D3*
Y31000D3*
Y30000D3*
Y29000D3*
Y28000D3*
D28*
X6000Y19250D3*
X5650Y19750D3*
X6000Y20250D3*
X5650Y20750D3*
X6000Y21250D3*
X5650Y21750D3*
D31*
X35940Y30960D3*
X37042D3*
D33*
X6800Y22300D3*
D34*
X31660Y35760D3*
D35*
X38000Y35500D3*
X5000Y5000D3*
D34*
X31680Y34420D3*
D33*
X8200Y22320D3*
X33000Y15840D3*
X33020Y14800D3*
X35100Y15940D3*
X35120Y14740D3*
D35*
X5000Y35500D3*
X38000Y5000D3*
D36*
X8585Y30535D3*
Y31335D3*
X7715Y30935D3*
X7000Y29500D3*
Y30300D3*
X6130Y29900D3*
X8580Y28520D3*
Y29320D3*
X7710Y28920D3*
X8560Y32080D3*
Y32880D3*
X7690Y32480D3*
D26*
X8000Y16250D3*
X8582D3*
X35000Y32000D3*
X34418D3*
X34260Y35460D3*
X34842D3*
D23*
X34500Y33750D3*
Y33168D3*
X38000Y21250D3*
Y20668D3*
Y23000D3*
Y22418D3*
D24*
X6960Y31400D3*
X6280D3*
X7020Y28720D3*
X6340D3*
D26*
X7250Y6500D3*
X7832D3*
X7250Y7500D3*
X7832D3*
D23*
X9820Y29960D3*
Y30542D3*
X7000Y26750D3*
Y27332D3*
X8500Y26750D3*
Y27332D3*
X7000Y9750D3*
Y9168D3*
X9820Y32500D3*
Y31918D3*
D26*
X5250Y24250D3*
X5832D3*
D38*
X9750Y11750D3*
D39*
X9799Y11435D3*
Y11120D3*
Y10805D3*
Y10490D3*
Y10175D3*
Y9860D3*
Y9545D3*
Y9230D3*
Y8915D3*
D38*
X9750Y8600D3*
D40*
X10291Y8059D3*
D41*
X10606Y8108D3*
X10921D3*
X11236D3*
X11551D3*
X11866D3*
X12181D3*
X12496D3*
X12811D3*
X13126D3*
D40*
X13441Y8059D3*
D38*
X13982Y8600D3*
D39*
X13933Y8915D3*
Y9230D3*
Y9545D3*
Y9860D3*
Y10175D3*
Y10490D3*
Y10805D3*
Y11120D3*
Y11435D3*
D38*
X13982Y11750D3*
D40*
X13441Y12291D3*
D41*
X13126Y12242D3*
X12811D3*
X12496D3*
X12181D3*
X11866D3*
X11551D3*
X11236D3*
X10921D3*
X10606D3*
D40*
X10291Y12291D3*
D42*
X35000Y18750D3*
X35500D3*
X36000D3*
X35000Y26000D3*
X35500D3*
X36000D3*
D43*
X28500Y5000D3*
X29287D3*
X30075D3*
X30862D3*
X31650D3*
X32437D3*
X33224D3*
X34012D3*
D42*
X35000Y22000D3*
X35500D3*
X36000D3*
D44*
X7250Y25000D3*
Y24500D3*
Y24000D3*
Y23500D3*
X9250Y25000D3*
Y24500D3*
Y24000D3*
Y23500D3*
D45*
X35750Y33500D3*
Y33126D3*
Y32791D3*
X36675D3*
Y33500D3*
M02*
