%FSLAX34Y34*%
%MOIN*%
%SFA1B1*%

%IPPOS*%
%LNGDS_layer_3_dt3-1*%
%LPD*%
%SRX1Y1I0J0*%
G36*
X114Y-675D02*
Y-628D01*
X161*
Y-675*
G37*
G36*
X63Y-726D02*
Y-703D01*
X1874*
Y-726*
G37*
G36*
X145Y-120D02*
Y-18D01*
X161Y-2*
Y301*
X189*
Y-14*
X173Y-29*
Y-120*
G37*
G36*
X94Y333D02*
Y360D01*
X236*
Y333*
G37*
G36*
X86Y526D02*
Y553D01*
X323*
Y526*
G37*
G36*
X122Y1163D02*
Y1226D01*
X248*
Y1163*
G37*
G36*
X220Y872D02*
Y1163D01*
X248*
Y872*
G37*
G36*
X169Y-553D02*
Y-525D01*
X295*
Y-486*
X248*
Y-403*
X323*
Y-525*
X342*
Y-553*
G37*
G36*
X260Y-120D02*
Y-29D01*
X244Y-14*
Y301*
X271*
Y-2*
X287Y-18*
Y-120*
G37*
G36*
X236Y364D02*
Y411D01*
X283*
Y364*
G37*
G36*
X236Y333D02*
Y364D01*
X264*
Y333*
G37*
G36*
X193Y644D02*
Y691D01*
X240*
Y671*
X295*
Y722*
X319Y746*
Y1289*
X346*
Y734*
X323Y711*
Y644*
G37*
G36*
X275Y553D02*
Y620D01*
X323*
Y553*
G37*
G36*
X299Y-616D02*
Y-588D01*
X409*
Y-616*
G37*
G36*
X319Y427D02*
Y474D01*
X366*
Y427*
G37*
G36*
X67Y-230D02*
Y360D01*
X94*
Y-230*
G37*
G36*
X-1886Y-45D02*
Y325D01*
X-1516*
Y-45*
G37*
G36*
X-1146Y144D02*
Y171D01*
X-473*
Y144*
G37*
G36*
X-28Y124D02*
Y258D01*
X0*
Y124*
G37*
G36*
X-1886Y-45D02*
Y325D01*
X-1516*
Y-45*
G37*
G36*
X-1146Y238D02*
Y266D01*
X-295*
Y238*
G37*
G36*
X-1173D02*
Y447D01*
X-1146*
Y238*
G37*
G36*
X-327Y266D02*
Y447D01*
X-295*
Y376*
X-118*
Y329*
X-295*
Y266*
G37*
G36*
X-1146Y419D02*
Y447D01*
X-327*
Y419*
G37*
G36*
Y510D02*
Y719D01*
X-299*
Y557*
X-162*
X-102Y498*
X-39*
Y451*
X-126*
X-185Y510*
G37*
G36*
X-1146Y329D02*
Y356D01*
X-327*
Y329*
G37*
G36*
X-1173Y510D02*
Y719D01*
X-1146*
Y510*
G37*
G36*
X-1886Y545D02*
Y915D01*
X-1516*
Y545*
G37*
G36*
X-1146Y691D02*
Y719D01*
X-327*
Y691*
G37*
G36*
X-1146Y510D02*
Y537D01*
X-327*
Y510*
G37*
G36*
X-1146Y600D02*
Y628D01*
X-327*
Y600*
G37*
G36*
X39Y518D02*
Y565D01*
X86*
Y518*
G37*
G36*
X122Y872D02*
Y1163D01*
X149*
Y872*
G37*
G36*
X-1886Y545D02*
Y915D01*
X-1516*
Y545*
G37*
G36*
X-1244Y907D02*
Y1278D01*
X-874*
Y907*
G37*
G36*
X-1177Y-482D02*
Y-242D01*
X-1268*
Y-214*
X-1165*
X-1150Y-230*
Y-435*
X-1130*
Y-482*
G37*
G36*
X-1319Y-112D02*
Y-85D01*
X-1169*
Y-112*
G37*
G36*
X-1165Y-183D02*
Y-155D01*
X-1118*
Y-167*
X-1012*
Y-195*
X-1130*
X-1142Y-183*
G37*
G36*
X-1146Y-155D02*
Y14D01*
X-1118*
Y-155*
G37*
G36*
X-1276Y-14D02*
Y14D01*
X-1146*
Y-14*
G37*
G36*
X-1299Y-53D02*
Y14D01*
X-1276*
Y-53*
G37*
G36*
X-1406D02*
Y-25D01*
X-1299*
Y-53*
G37*
G36*
X-1713Y-285D02*
Y-238D01*
X-1484*
Y-285*
G37*
G36*
X-1713Y-419D02*
Y-372D01*
X-1484*
Y-419*
G37*
G36*
X-1291Y-659D02*
Y-309D01*
X-1323Y-277*
Y-242*
X-1406*
Y-214*
X-1295*
Y-266*
X-1264Y-297*
Y-632*
X-1016*
Y-289*
X-1122*
Y-262*
X-988*
Y-659*
X-1000*
Y-801*
X-1047*
Y-659*
G37*
G36*
X-815Y-325D02*
Y-140D01*
X-843Y-112*
Y-22*
X-996*
Y6*
X-717*
Y-372*
X-744Y-400*
Y-553*
X-772*
Y-388*
X-744Y-360*
Y-22*
X-815*
Y-100*
X-787Y-128*
Y-325*
G37*
G36*
X-1898Y-742D02*
Y-714D01*
X-1559*
Y-742*
G37*
G36*
X-1587Y-781D02*
Y-742D01*
X-1559*
Y-781*
G37*
G36*
X-1606Y-829D02*
Y-781D01*
X-1559*
Y-829*
G37*
G36*
X-1122Y-793D02*
Y-746D01*
X-1075*
Y-793*
G37*
G36*
X-961Y-1002D02*
Y-750D01*
X-882*
Y-1002*
G37*
G36*
X-732Y-1065D02*
Y-931D01*
X-681*
Y-1065*
G37*
G36*
X-882Y-1002D02*
Y-931D01*
X-732*
Y-1002*
G37*
G36*
X-1102Y-951D02*
Y-793D01*
X-1075*
Y-951*
G37*
G36*
X-1169Y-978D02*
Y-951D01*
X-1075*
Y-978*
G37*
G36*
X-1169Y-1018D02*
Y-978D01*
X-1142*
Y-1018*
G37*
G36*
X-1473Y-1041D02*
Y-1018D01*
X-1142*
Y-1041*
G37*
G36*
X-28Y77D02*
Y124D01*
X19*
Y77*
G37*
G36*
X39Y-675D02*
Y-628D01*
X86*
Y-675*
G37*
G36*
X63Y-703D02*
Y-675D01*
X86*
Y-703*
G37*
G36*
X35Y-321D02*
Y-293D01*
X114*
Y-321*
G37*
G36*
Y-628D02*
Y-293D01*
X142*
Y-628*
G37*
G36*
X338Y-230D02*
Y427D01*
X366*
Y-230*
G37*
G36*
X-1536Y-498D02*
Y-451D01*
X-1457*
Y69*
X-386*
Y-368*
X-205*
X-185Y-388*
X-4*
Y-415*
X-197*
X-217Y-396*
X-413*
Y41*
X-1429*
Y-498*
G37*
G36*
X-28Y-167D02*
Y77D01*
X0*
Y-167*
G37*
G36*
X2055Y-309D02*
X2039Y-293D01*
Y222*
X2086*
Y175*
X2067*
Y-281*
X2106*
Y-92*
X2134*
Y-293*
X2118Y-309*
G37*
G36*
X1901Y-498D02*
Y-470D01*
X1976*
Y-498*
G37*
G36*
X1874Y-726D02*
Y-470D01*
X1901*
Y-726*
G37*
G36*
X1834Y-112D02*
Y10D01*
X1807Y37*
Y159*
X1834*
Y49*
X1862Y22*
Y-112*
G37*
G36*
X1598Y-403D02*
Y-234D01*
X1586Y-222*
Y33*
X1634*
Y-14*
X1614*
Y-211*
X1626Y-222*
Y-325*
X1630*
Y-403*
G37*
G36*
X1504Y-364D02*
Y-144D01*
X1464*
Y-61*
X1539*
Y-144*
X1531*
Y-364*
G37*
G36*
X1342Y-470D02*
Y-88D01*
X1370*
Y-443*
X1409*
Y-14*
X1370Y26*
Y159*
X1417*
Y112*
X1397*
Y37*
X1437Y-2*
Y-470*
G37*
G36*
X2043Y274D02*
Y301D01*
X2169*
Y305*
X2197*
Y278*
X2177*
Y53*
X2138*
Y234*
X2149*
Y274*
G37*
G36*
X1480Y183D02*
Y211D01*
X1586*
Y238*
X1634*
Y191*
X1614*
Y183*
G37*
G36*
X1169Y-236D02*
Y-88D01*
X1142*
Y-411*
X1102*
Y-14*
X1142Y26*
Y222*
X1094*
Y175*
X1114*
Y37*
X1075Y-2*
Y-439*
X1169*
Y-266*
X1342*
Y-236*
G37*
G36*
X1287Y-112D02*
Y175D01*
X1268*
Y222*
X1315*
Y-112*
G37*
G36*
X409Y-616D02*
Y-561D01*
X457*
Y-616*
G37*
G36*
X874Y-675D02*
Y-533D01*
X866Y-525*
Y-246*
X894*
Y-514*
X901Y-522*
Y-628*
X941*
Y-522*
X949Y-514*
Y-246*
X976*
Y-525*
X968Y-533*
Y-675*
G37*
G36*
X492D02*
Y-628D01*
X512*
Y-344*
X413*
Y-230*
X441*
Y-317*
X586*
X594Y-309*
Y-203*
X622*
Y-321*
X598Y-344*
X539*
Y-675*
G37*
G36*
X771Y364D02*
Y392D01*
X909*
Y364*
G37*
G36*
Y258D02*
Y392D01*
X937*
Y258*
G37*
G36*
X771Y289D02*
Y364D01*
X799*
Y289*
G37*
G36*
X752Y238D02*
Y289D01*
X799*
Y238*
G37*
G36*
X594Y-175D02*
Y18D01*
X622*
Y-175*
G37*
G36*
X1197Y-112D02*
Y159D01*
X1244*
Y112*
X1224*
Y-112*
G37*
G36*
X949Y-218D02*
Y230D01*
X976*
Y-171*
X996*
Y-218*
G37*
G36*
X846D02*
Y-171D01*
X866*
Y230*
X894*
Y-218*
G37*
G36*
X512Y-234D02*
Y-175D01*
X539*
Y-234*
G37*
G36*
X492Y-281D02*
Y-234D01*
X539*
Y-281*
G37*
G36*
X1929Y-407D02*
Y-360D01*
X1949*
Y392*
X1957Y400*
Y447*
X1984*
Y388*
X1976Y380*
Y-407*
G37*
G36*
X1771Y-403D02*
Y-305D01*
X1783Y-293*
Y-179*
X1740Y-136*
Y234*
X1716*
Y793*
X1708*
Y841*
X1756*
Y793*
X1744*
Y656*
X1764*
Y608*
X1744*
Y262*
X1894*
Y234*
X1768*
Y-124*
X1811Y-167*
Y-305*
X1799Y-317*
Y-403*
G37*
G36*
X1685D02*
Y-18D01*
X1661Y6*
Y608*
X1642*
Y656*
X1689*
Y18*
X1712Y-6*
Y-325*
X1716*
Y-403*
G37*
G36*
X642Y-396D02*
Y-337D01*
X693*
Y-14*
X649*
Y730*
X610Y770*
Y876*
X638*
Y782*
X677Y742*
Y33*
X720*
Y-396*
G37*
G36*
X433Y-96D02*
Y305D01*
X453*
Y368*
X512Y427*
Y549*
X492*
Y620*
X512*
Y644*
X626*
Y616*
X539*
Y415*
X480Y356*
Y258*
X460*
Y-96*
G37*
G36*
X1023Y49D02*
Y96D01*
X1043*
Y297*
X1012Y329*
Y656*
X1039*
Y341*
X1071Y309*
Y49*
G37*
G36*
X1193Y238D02*
Y526D01*
X1205Y537*
Y648*
X1236*
Y750*
X1142*
Y711*
X1035*
Y738*
X1114*
Y778*
X1401*
Y738*
X1472*
Y711*
X1374*
Y750*
X1268*
Y648*
X1307*
Y537*
X1319Y526*
Y447*
X1291*
Y514*
X1279Y526*
Y620*
X1232*
Y526*
X1220Y514*
Y392*
X1291*
Y447*
X1319*
Y364*
X1240*
Y238*
G37*
G36*
X1480Y266D02*
Y293D01*
X1586*
Y522*
X1634*
Y266*
G37*
G36*
X1791Y313D02*
Y396D01*
X1815*
Y470*
X1878*
Y368*
X1819*
Y313*
G37*
G36*
X2090Y368D02*
Y447D01*
X2212*
Y419*
X2118*
Y368*
G37*
G36*
X1370Y384D02*
Y596D01*
X1386*
Y683*
X1413*
Y596*
X1417*
Y545*
X1397*
Y384*
G37*
G36*
X1098D02*
Y474D01*
X1094*
Y522*
X1114*
Y683*
X1142*
Y474*
X1126*
Y384*
G37*
G36*
X866Y459D02*
Y486D01*
X1012*
Y459*
G37*
G36*
X732D02*
Y486D01*
X838*
Y459*
G37*
G36*
X374Y502D02*
Y620D01*
X421*
Y502*
G37*
G36*
X732Y628D02*
Y656D01*
X838*
Y628*
G37*
G36*
X866D02*
Y656D01*
X1012*
Y628*
G37*
G36*
X705Y789D02*
Y841D01*
X752*
Y789*
G37*
G36*
X705Y459D02*
Y789D01*
X732*
Y459*
G37*
G36*
X488Y699D02*
Y726D01*
X614*
Y699*
G37*
G36*
X480Y754D02*
Y801D01*
X539*
Y754*
G37*
G36*
X512Y801D02*
Y1030D01*
X539*
Y801*
G37*
G36*
X771Y931D02*
Y1049D01*
X740Y1081*
Y1124*
X768*
Y1093*
X799Y1061*
Y978*
X831*
Y1262*
X799*
Y1179*
X768Y1148*
Y1124*
X740*
Y1159*
X771Y1191*
Y1289*
X949*
Y967*
X921*
Y1262*
X858*
Y931*
G37*
G36*
X1051Y1144D02*
Y1171D01*
X1256*
Y1144*
G37*
G36*
X901Y730D02*
Y778D01*
X921*
Y939*
X949*
Y730*
G37*
G36*
X996Y793D02*
Y841D01*
X1016*
Y1022*
X1122*
X1134Y1010*
X1205*
Y982*
X1122*
X1110Y994*
X1043*
Y793*
G37*
G36*
X1212Y856D02*
Y904D01*
X1232*
Y1073*
X1118*
X1102Y1089*
X1039*
Y1116*
X1114*
X1130Y1100*
X1260*
Y856*
G37*
G36*
X1874Y498D02*
Y616D01*
X1909Y652*
Y715*
X1957*
Y667*
X1937*
Y640*
X1901Y604*
Y498*
G37*
G36*
X1957Y474D02*
Y573D01*
X1988Y604*
Y652*
X2035*
Y604*
X2016*
Y593*
X1984Y561*
Y474*
G37*
G36*
X1771Y537D02*
Y589D01*
X1819*
Y537*
G37*
G36*
X1468Y1014D02*
Y1089D01*
X1445*
Y1136*
X1468*
Y1163*
X1649*
X1665Y1148*
Y715*
X1638*
Y1136*
X1496*
Y1014*
G37*
G36*
X1413Y856D02*
Y904D01*
X1460*
Y880*
X1496Y844*
Y797*
X1527Y766*
Y715*
X1547*
Y667*
X1500*
Y754*
X1468Y785*
Y833*
X1445Y856*
G37*
G36*
X1555Y746D02*
Y801D01*
X1547Y809*
Y1037*
X1527Y1057*
Y1089*
X1555*
Y1069*
X1575Y1049*
Y837*
X1586*
Y746*
G37*
G36*
X1799Y715D02*
Y1148D01*
X1815Y1163*
X1996*
Y1065*
X2016*
Y1018*
X1968*
Y1136*
X1827*
Y715*
G37*
G36*
X1980Y805D02*
Y943D01*
X2031*
Y848*
X2082*
Y994*
X2110*
Y774*
X2082*
Y821*
X2035*
Y805*
G37*
G36*
X1878Y750D02*
Y841D01*
X1890*
Y1026*
X1909Y1045*
Y1089*
X1937*
Y1033*
X1917Y1014*
Y809*
X1909Y801*
Y750*
G37*
G36*
X2067Y711D02*
Y738D01*
X2153*
Y809*
X2138Y825*
Y876*
X2165*
Y837*
X2181Y821*
Y711*
G37*
G36*
X-709Y-620D02*
Y-573D01*
X-662*
Y-596*
X-622*
Y-466*
X-595*
Y-620*
G37*
G36*
X-780Y-746D02*
X-791Y-734D01*
Y-659*
X-898*
X-910Y-648*
Y-581*
X-933Y-557*
Y-333*
X-902Y-301*
Y-49*
X-874*
Y-313*
X-906Y-344*
Y-545*
X-882Y-569*
Y-632*
X-776*
X-764Y-644*
Y-718*
X-362*
Y-620*
X-543*
Y-514*
X-559*
Y-482*
X-543*
Y-313*
X-555*
Y-175*
X-583*
Y-419*
X-685*
Y-388*
X-626*
Y-325*
X-685*
Y-88*
X-476*
Y-313*
X-516*
Y-592*
X-347*
X-335Y-604*
Y-734*
X-347Y-746*
G37*
G36*
X-287Y-478D02*
Y-451D01*
X-225*
Y-478*
G37*
G36*
X23Y-486D02*
Y-411D01*
X51*
Y-486*
G37*
G36*
X23Y-533D02*
Y-486D01*
X71*
Y-533*
G37*
G36*
X-106Y-281D02*
Y-234D01*
X-59*
Y-281*
G37*
G36*
X-150Y-628D02*
Y-466D01*
X-122*
Y-628*
G37*
G36*
X-339Y-478D02*
Y-423D01*
X-287*
Y-478*
G37*
G36*
X-185Y-175D02*
Y18D01*
X-158*
Y-175*
G37*
G36*
X8Y-321D02*
Y-230D01*
X35*
Y-321*
G37*
G36*
X-106Y-234D02*
Y-175D01*
X-79*
Y-234*
G37*
M02*