%FSLAX34Y34*%
%MOIN*%
%SFA1B1*%

%IPPOS*%
%LNGDS_layer_4_dt4-1*%
%LPD*%
%SRX1Y1I0J0*%
G36*
X177Y380D02*
Y404D01*
X201*
Y380*
G37*
G36*
X173Y911D02*
Y967D01*
X197*
Y911*
G37*
G36*
X173Y1061D02*
Y1124D01*
X197*
Y1061*
G37*
G36*
X216Y-596D02*
Y-573D01*
X248*
Y-596*
G37*
G36*
Y376D02*
Y400D01*
X271*
Y376*
G37*
G36*
X228Y577D02*
Y600D01*
X252*
Y577*
G37*
G36*
X208Y1183D02*
Y1207D01*
X232*
Y1183*
G37*
G36*
X205Y656D02*
Y679D01*
X228*
Y656*
G37*
G36*
X275Y841D02*
Y888D01*
X299*
Y841*
G37*
G36*
X275Y762D02*
Y785D01*
X299*
Y762*
G37*
G36*
X275Y959D02*
Y998D01*
X299*
Y959*
G37*
G36*
X275Y1183D02*
Y1207D01*
X299*
Y1183*
G37*
G36*
X-1185Y-758D02*
Y-687D01*
X-1162*
Y-758*
G37*
G36*
X-858Y-1041D02*
Y-1029D01*
X-835*
Y-1041*
G37*
G36*
X-1110Y-781D02*
Y-758D01*
X-1087*
Y-781*
G37*
G36*
X-1036Y-789D02*
Y-766D01*
X-1012*
Y-789*
G37*
G36*
X-945D02*
Y-766D01*
X-898*
Y-789*
G37*
G36*
X-1236Y-600D02*
Y-577D01*
X-1205*
Y-600*
G37*
G36*
X-961Y-659D02*
Y-636D01*
X-929*
Y-659*
G37*
G36*
X-1087Y-600D02*
Y-577D01*
X-1047*
Y-600*
G37*
G36*
X-886Y-533D02*
Y-510D01*
X-854*
Y-533*
G37*
G36*
X-1311Y-986D02*
Y-962D01*
X-1244*
Y-986*
G37*
G36*
X-1311Y-848D02*
Y-825D01*
X-1244*
Y-848*
G37*
G36*
X-1248Y-65D02*
Y-41D01*
X-1201*
Y-65*
G37*
G36*
X-795Y-81D02*
Y-49D01*
X-772*
Y-81*
G37*
G36*
X-1087Y-144D02*
Y-120D01*
X-1055*
Y-144*
G37*
G36*
X-1165Y-470D02*
Y-447D01*
X-1142*
Y-470*
G37*
G36*
X-1378Y-600D02*
Y-577D01*
X-1331*
Y-600*
G37*
G36*
X-1374Y-6D02*
Y18D01*
X-1327*
Y-6*
G37*
G36*
X295Y156D02*
Y226D01*
X319*
Y156*
G37*
G36*
X331Y439D02*
Y463D01*
X354*
Y439*
G37*
G36*
X1106Y187D02*
Y211D01*
X1130*
Y187*
G37*
G36*
X1205Y250D02*
Y274D01*
X1228*
Y250*
G37*
G36*
X1106Y486D02*
Y510D01*
X1130*
Y486*
G37*
G36*
X1145Y415D02*
Y439D01*
X1169*
Y415*
G37*
G36*
X1067Y1041D02*
Y1065D01*
X1090*
Y1041*
G37*
G36*
X1067Y951D02*
Y974D01*
X1090*
Y951*
G37*
G36*
X1153Y939D02*
Y963D01*
X1177*
Y939*
G37*
G36*
Y1191D02*
Y1215D01*
X1208*
Y1191*
G37*
G36*
X1153Y1030D02*
Y1053D01*
X1177*
Y1030*
G37*
G36*
X1224Y868D02*
Y892D01*
X1248*
Y868*
G37*
G36*
X1071Y872D02*
Y896D01*
X1094*
Y872*
G37*
G36*
X1067Y557D02*
Y581D01*
X1090*
Y557*
G37*
G36*
X925Y415D02*
Y439D01*
X980*
Y415*
G37*
G36*
X925Y506D02*
Y530D01*
X980*
Y506*
G37*
G36*
X799Y943D02*
Y967D01*
X823*
Y943*
G37*
G36*
X878Y1077D02*
Y1100D01*
X901*
Y1077*
G37*
G36*
X787Y1108D02*
Y1132D01*
X811*
Y1108*
G37*
G36*
X968D02*
Y1132D01*
X992*
Y1108*
G37*
G36*
X878Y1179D02*
Y1203D01*
X901*
Y1179*
G37*
G36*
X913Y742D02*
Y766D01*
X937*
Y742*
G37*
G36*
X925Y585D02*
Y608D01*
X980*
Y585*
G37*
G36*
X925Y675D02*
Y699D01*
X980*
Y675*
G37*
G36*
X996Y187D02*
Y211D01*
X1019*
Y187*
G37*
G36*
X1008Y805D02*
Y829D01*
X1031*
Y805*
G37*
G36*
X51Y-663D02*
Y-640D01*
X75*
Y-663*
G37*
G36*
X51Y530D02*
Y553D01*
X75*
Y530*
G37*
G36*
X67Y911D02*
Y967D01*
X90*
Y911*
G37*
G36*
X67Y1061D02*
Y1124D01*
X90*
Y1061*
G37*
G36*
X126Y-663D02*
Y-640D01*
X149*
Y-663*
G37*
G36*
X138Y1183D02*
Y1207D01*
X161*
Y1183*
G37*
G36*
X114Y156D02*
Y226D01*
X138*
Y156*
G37*
G36*
X-1701Y-407D02*
Y-384D01*
X-1677*
Y-407*
G37*
G36*
X-1701Y-340D02*
Y-317D01*
X-1677*
Y-340*
G37*
G36*
X-1520Y-407D02*
Y-384D01*
X-1496*
Y-407*
G37*
G36*
X-1520Y-340D02*
Y-317D01*
X-1496*
Y-340*
G37*
G36*
X-1894Y-321D02*
Y-297D01*
X-1870*
Y-321*
G37*
G36*
X-1701Y-274D02*
Y-250D01*
X-1677*
Y-274*
G37*
G36*
X-1520D02*
Y-250D01*
X-1496*
Y-274*
G37*
G36*
X-1512Y-207D02*
Y-183D01*
X-1488*
Y-207*
G37*
G36*
X-1374Y-144D02*
Y-120D01*
X-1343*
Y-144*
G37*
G36*
X-1524Y-486D02*
Y-462D01*
X-1500*
Y-486*
G37*
G36*
X-1524Y-986D02*
Y-962D01*
X-1500*
Y-986*
G37*
G36*
X-1449Y-758D02*
Y-671D01*
X-1425*
Y-758*
G37*
G36*
X-1524Y-848D02*
Y-825D01*
X-1500*
Y-848*
G37*
G36*
X-1437D02*
Y-825D01*
X-1374*
Y-848*
G37*
G36*
X-1437Y-986D02*
Y-962D01*
X-1374*
Y-986*
G37*
G36*
X-1461Y-1041D02*
Y-1029D01*
X-1437*
Y-1041*
G37*
G36*
X-1599Y-695D02*
Y-640D01*
X-1575*
Y-695*
G37*
G36*
X-1595Y-817D02*
Y-793D01*
X-1571*
Y-817*
G37*
G36*
X-1831Y-789D02*
Y-766D01*
X-1807*
Y-789*
G37*
G36*
X-516Y285D02*
Y309D01*
X-445*
Y285*
G37*
G36*
X-398D02*
Y309D01*
X-358*
Y285*
G37*
G36*
X-445Y195D02*
Y219D01*
X-366*
Y195*
G37*
G36*
X-75Y463D02*
Y486D01*
X-51*
Y463*
G37*
G36*
X-154Y341D02*
Y364D01*
X-130*
Y341*
G37*
G36*
X-516Y467D02*
Y490D01*
X-445*
Y467*
G37*
G36*
X-398D02*
Y490D01*
X-358*
Y467*
G37*
G36*
X-421Y376D02*
Y400D01*
X-366*
Y376*
G37*
G36*
X-421Y557D02*
Y581D01*
X-366*
Y557*
G37*
G36*
X-516Y648D02*
Y671D01*
X-445*
Y648*
G37*
G36*
X-555Y195D02*
Y219D01*
X-500*
Y195*
G37*
G36*
X-539Y376D02*
Y400D01*
X-484*
Y376*
G37*
G36*
X-539Y557D02*
Y581D01*
X-484*
Y557*
G37*
G36*
X858Y-207D02*
Y-183D01*
X882*
Y-207*
G37*
G36*
X960D02*
Y-183D01*
X984*
Y-207*
G37*
G36*
X1244Y-69D02*
Y-45D01*
X1268*
Y-69*
G37*
G36*
X1244Y-329D02*
Y-305D01*
X1268*
Y-329*
G37*
G36*
X1244Y-663D02*
Y-640D01*
X1268*
Y-663*
G37*
G36*
X909D02*
Y-640D01*
X933*
Y-663*
G37*
G36*
X996Y-588D02*
Y-565D01*
X1019*
Y-588*
G37*
G36*
X823D02*
Y-565D01*
X846*
Y-588*
G37*
G36*
X421Y-596D02*
Y-573D01*
X445*
Y-596*
G37*
G36*
X645Y-270D02*
Y-246D01*
X669*
Y-270*
G37*
G36*
X390Y-65D02*
Y-41D01*
X413*
Y-65*
G37*
G36*
X547Y-77D02*
Y-53D01*
X571*
Y-77*
G37*
G36*
X685Y-2D02*
Y22D01*
X708*
Y-2*
G37*
G36*
X642Y-144D02*
Y-120D01*
X665*
Y-144*
G37*
G36*
X504Y-270D02*
Y-246D01*
X527*
Y-270*
G37*
G36*
X744Y-663D02*
Y-640D01*
X768*
Y-663*
G37*
G36*
X645Y-588D02*
Y-565D01*
X669*
Y-588*
G37*
G36*
X504Y-663D02*
Y-640D01*
X527*
Y-663*
G37*
G36*
X1598Y278D02*
Y301D01*
X1622*
Y278*
G37*
G36*
X1720Y805D02*
Y829D01*
X1744*
Y805*
G37*
G36*
X1594Y1187D02*
Y1211D01*
X1645*
Y1187*
G37*
G36*
X1705D02*
Y1211D01*
X1760*
Y1187*
G37*
G36*
X1728Y620D02*
Y644D01*
X1752*
Y620*
G37*
G36*
X1653D02*
Y644D01*
X1677*
Y620*
G37*
G36*
X1590Y675D02*
Y699D01*
X1614*
Y675*
G37*
G36*
X1598Y486D02*
Y510D01*
X1622*
Y486*
G37*
G36*
X1598Y203D02*
Y226D01*
X1622*
Y203*
G37*
G36*
X1279Y187D02*
Y211D01*
X1303*
Y187*
G37*
G36*
X1504Y896D02*
Y919D01*
X1527*
Y896*
G37*
G36*
X1425Y868D02*
Y892D01*
X1449*
Y868*
G37*
G36*
X1460Y1100D02*
Y1124D01*
X1484*
Y1100*
G37*
G36*
X1421Y1030D02*
Y1053D01*
X1445*
Y1030*
G37*
G36*
X1512Y679D02*
Y703D01*
X1535*
Y679*
G37*
G36*
X1382Y557D02*
Y581D01*
X1405*
Y557*
G37*
G36*
X1319Y675D02*
Y699D01*
X1342*
Y675*
G37*
G36*
X1421Y486D02*
Y510D01*
X1445*
Y486*
G37*
G36*
X1516Y407D02*
Y431D01*
X1555*
Y407*
G37*
G36*
X342Y-663D02*
Y-640D01*
X366*
Y-663*
G37*
G36*
X-134Y-77D02*
Y-53D01*
X-110*
Y-77*
G37*
G36*
X-16Y89D02*
Y112D01*
X8*
Y89*
G37*
G36*
X-717Y-1053D02*
Y-1029D01*
X-693*
Y-1053*
G37*
G36*
X-665Y-533D02*
Y-494D01*
X-642*
Y-533*
G37*
G36*
X-697Y-608D02*
Y-585D01*
X-673*
Y-608*
G37*
G36*
X-295Y-659D02*
Y-636D01*
X-217*
Y-659*
G37*
G36*
X-256Y-588D02*
Y-565D01*
X-177*
Y-588*
G37*
G36*
X-24Y-663D02*
Y-640D01*
X0*
Y-663*
G37*
G36*
X-327Y-459D02*
Y-435D01*
X-303*
Y-459*
G37*
G36*
X-228Y-148D02*
Y-124D01*
X-205*
Y-148*
G37*
G36*
X-95Y-270D02*
Y-246D01*
X-71*
Y-270*
G37*
G36*
X-256D02*
Y-246D01*
X-193*
Y-270*
G37*
G36*
X-744Y96D02*
Y120D01*
X-689*
Y96*
G37*
G36*
X-980D02*
Y120D01*
X-925*
Y96*
G37*
G36*
X-1866Y-25D02*
Y305D01*
X-1536*
Y-25*
G37*
G36*
X-1099Y96D02*
Y120D01*
X-1043*
Y96*
G37*
G36*
X-862D02*
Y120D01*
X-807*
Y96*
G37*
G36*
X-626D02*
Y120D01*
X-571*
Y96*
G37*
G36*
X19Y14D02*
Y45D01*
X43*
Y14*
G37*
G36*
X19Y-73D02*
Y-41D01*
X43*
Y-73*
G37*
G36*
X35Y-522D02*
Y-498D01*
X59*
Y-522*
G37*
G36*
X1996Y49D02*
Y81D01*
X2019*
Y49*
G37*
G36*
X1854Y57D02*
Y81D01*
X1878*
Y57*
G37*
G36*
X1539Y61D02*
Y85D01*
X1563*
Y61*
G37*
G36*
X2086Y120D02*
Y144D01*
X2110*
Y120*
G37*
G36*
X1523Y140D02*
Y163D01*
X1547*
Y140*
G37*
G36*
X1382Y124D02*
Y148D01*
X1405*
Y124*
G37*
G36*
X1208D02*
Y148D01*
X1232*
Y124*
G37*
G36*
X823Y128D02*
Y152D01*
X846*
Y128*
G37*
G36*
X744Y61D02*
Y85D01*
X768*
Y61*
G37*
G36*
X1035D02*
Y85D01*
X1059*
Y61*
G37*
G36*
X390Y14D02*
Y45D01*
X413*
Y14*
G37*
G36*
X-1225Y927D02*
Y1258D01*
X-894*
Y927*
G37*
G36*
X-1701Y982D02*
Y1006D01*
X-1677*
Y982*
G37*
G36*
X-1028Y738D02*
Y762D01*
X-957*
Y738*
G37*
G36*
X-776D02*
Y762D01*
X-721*
Y738*
G37*
G36*
X-894D02*
Y762D01*
X-839*
Y738*
G37*
G36*
X-539D02*
Y762D01*
X-484*
Y738*
G37*
G36*
X-658D02*
Y762D01*
X-602*
Y738*
G37*
G36*
X-421D02*
Y762D01*
X-366*
Y738*
G37*
G36*
X-1866Y565D02*
Y896D01*
X-1536*
Y565*
G37*
G36*
X-658Y376D02*
Y400D01*
X-602*
Y376*
G37*
G36*
X-776D02*
Y400D01*
X-721*
Y376*
G37*
G36*
X-870Y467D02*
Y490D01*
X-815*
Y467*
G37*
G36*
X-752D02*
Y490D01*
X-697*
Y467*
G37*
G36*
X-894Y376D02*
Y400D01*
X-839*
Y376*
G37*
G36*
X-1106Y467D02*
Y490D01*
X-1051*
Y467*
G37*
G36*
X-988D02*
Y490D01*
X-933*
Y467*
G37*
G36*
X-1028Y376D02*
Y400D01*
X-957*
Y376*
G37*
G36*
X-634Y467D02*
Y490D01*
X-579*
Y467*
G37*
G36*
X-1106Y285D02*
Y309D01*
X-1051*
Y285*
G37*
G36*
X-988D02*
Y309D01*
X-933*
Y285*
G37*
G36*
X-665Y195D02*
Y219D01*
X-610*
Y195*
G37*
G36*
X-634Y285D02*
Y309D01*
X-579*
Y285*
G37*
G36*
X-776Y195D02*
Y219D01*
X-721*
Y195*
G37*
G36*
X-886D02*
Y219D01*
X-831*
Y195*
G37*
G36*
X-752Y285D02*
Y309D01*
X-697*
Y285*
G37*
G36*
X-870D02*
Y309D01*
X-815*
Y285*
G37*
G36*
X-996Y195D02*
Y219D01*
X-941*
Y195*
G37*
G36*
X-1106D02*
Y219D01*
X-1051*
Y195*
G37*
G36*
X1244Y415D02*
Y439D01*
X1268*
Y415*
G37*
G36*
X764Y250D02*
Y274D01*
X787*
Y250*
G37*
G36*
X760Y415D02*
Y439D01*
X807*
Y415*
G37*
G36*
X760Y675D02*
Y699D01*
X807*
Y675*
G37*
G36*
X760D02*
Y699D01*
X807*
Y675*
G37*
G36*
X760Y585D02*
Y608D01*
X807*
Y585*
G37*
G36*
X760Y506D02*
Y530D01*
X807*
Y506*
G37*
G36*
X1783Y553D02*
Y577D01*
X1807*
Y553*
G37*
G36*
X1838Y187D02*
Y211D01*
X1862*
Y187*
G37*
G36*
X2051D02*
Y211D01*
X2075*
Y187*
G37*
G36*
X2240D02*
Y211D01*
X2264*
Y187*
G37*
G36*
X2240Y467D02*
Y490D01*
X2264*
Y467*
G37*
G36*
X2161D02*
Y490D01*
X2185*
Y467*
G37*
G36*
X2090Y325D02*
Y348D01*
X2114*
Y325*
G37*
G36*
X1842Y321D02*
Y344D01*
X1866*
Y321*
G37*
G36*
X1937Y896D02*
Y919D01*
X1960*
Y896*
G37*
G36*
X1980Y1030D02*
Y1053D01*
X2004*
Y1030*
G37*
G36*
X2019Y1100D02*
Y1124D01*
X2043*
Y1100*
G37*
G36*
X2130Y939D02*
Y967D01*
X2153*
Y939*
G37*
G36*
X1815Y1187D02*
Y1211D01*
X1870*
Y1187*
G37*
G36*
X2098Y549D02*
Y573D01*
X2122*
Y549*
G37*
G36*
X2000Y616D02*
Y640D01*
X2023*
Y616*
G37*
G36*
X1921Y679D02*
Y703D01*
X1945*
Y679*
G37*
G36*
X1850D02*
Y703D01*
X1874*
Y679*
G37*
G36*
X-988Y648D02*
Y671D01*
X-933*
Y648*
G37*
G36*
X-1106D02*
Y671D01*
X-1051*
Y648*
G37*
G36*
X-1028Y557D02*
Y581D01*
X-957*
Y557*
G37*
G36*
X-870Y648D02*
Y671D01*
X-815*
Y648*
G37*
G36*
X-894Y557D02*
Y581D01*
X-839*
Y557*
G37*
G36*
X-776D02*
Y581D01*
X-721*
Y557*
G37*
G36*
X-634Y648D02*
Y671D01*
X-579*
Y648*
G37*
G36*
X-752D02*
Y671D01*
X-697*
Y648*
G37*
G36*
X-658Y557D02*
Y581D01*
X-602*
Y557*
G37*
G36*
X370Y896D02*
Y927D01*
X394*
Y896*
G37*
G36*
X464Y967D02*
Y998D01*
X488*
Y967*
G37*
G36*
X468Y1183D02*
Y1207D01*
X539*
Y1183*
G37*
G36*
X370Y813D02*
Y844D01*
X394*
Y813*
G37*
G36*
X370Y730D02*
Y762D01*
X394*
Y730*
G37*
G36*
X492Y766D02*
Y789D01*
X516*
Y766*
G37*
G36*
X464Y841D02*
Y872D01*
X488*
Y841*
G37*
G36*
X386Y514D02*
Y537D01*
X409*
Y514*
G37*
G36*
X445Y577D02*
Y600D01*
X468*
Y577*
G37*
G36*
X390Y376D02*
Y400D01*
X413*
Y376*
G37*
G36*
X445Y270D02*
Y293D01*
X468*
Y270*
G37*
G36*
X563Y896D02*
Y927D01*
X586*
Y896*
G37*
G36*
X642Y974D02*
Y998D01*
X665*
Y974*
G37*
G36*
X594Y1183D02*
Y1207D01*
X665*
Y1183*
G37*
G36*
X563Y825D02*
Y856D01*
X586*
Y825*
G37*
G36*
X716Y805D02*
Y829D01*
X740*
Y805*
G37*
G36*
X567Y325D02*
Y348D01*
X594*
Y325*
G37*
G36*
X1807Y-592D02*
Y-569D01*
X1831*
Y-592*
G37*
G36*
X1941Y-396D02*
Y-372D01*
X1964*
Y-396*
G37*
G36*
X1460Y-277D02*
Y-250D01*
X1484*
Y-277*
G37*
G36*
X1460Y-2D02*
Y22D01*
X1484*
Y-2*
G37*
G36*
X1598D02*
Y22D01*
X1622*
Y-2*
G37*
G36*
X1791Y-41D02*
Y-18D01*
X1815*
Y-41*
G37*
G36*
X1638Y-77D02*
Y-53D01*
X1661*
Y-77*
G37*
G36*
X1996D02*
Y-45D01*
X2019*
Y-77*
G37*
G36*
X2086Y2D02*
Y26D01*
X2110*
Y2*
G37*
G36*
X2240Y-2D02*
Y22D01*
X2264*
Y-2*
G37*
G36*
X2240Y-270D02*
Y-246D01*
X2264*
Y-270*
G37*
G36*
X1736D02*
Y-246D01*
X1760*
Y-270*
G37*
G36*
X1555D02*
Y-246D01*
X1579*
Y-270*
G37*
M02*