%FSLAX34Y34*%
%MOIN*%
%SFA1B1*%

%IPPOS*%
%AMTHERMAL18*
1,1,0.085000,0,0*
1,0,0.063700,0,0*
20,0,0.010650,-0.043350,-0.043350,0.043350,0.043350,0*
20,0,0.010650,-0.043350,0.043350,0.043350,-0.043350,0*
%
%AMTHERMAL19*
1,1,0.110000,0,0*
1,0,0.082500,0,0*
20,0,0.013750,-0.056100,-0.056100,0.056100,0.056100,0*
20,0,0.013750,-0.056100,0.056100,0.056100,-0.056100,0*
%
%AMTHERMAL50*
1,1,0.080000,0,0*
1,0,0.060000,0,0*
20,0,0.010000,-0.040800,-0.040800,0.040800,0.040800,0*
20,0,0.010000,-0.040800,0.040800,0.040800,-0.040800,0*
%
%AMTHERMAL51*
1,1,0.090000,0,0*
1,0,0.067500,0,0*
20,0,0.011250,-0.045900,-0.045900,0.045900,0.045900,0*
20,0,0.011250,-0.045900,0.045900,0.045900,-0.045900,0*
%
%AMTHERMAL52*
1,1,0.160000,0,0*
1,0,0.120000,0,0*
20,0,0.020000,-0.081600,-0.081600,0.081600,0.081600,0*
20,0,0.020000,-0.081600,0.081600,0.081600,-0.081600,0*
%
%ADD10R,0.011800X0.011800*%
%ADD11C,0.010000*%
%ADD12C,0.012000*%
%ADD13R,0.024000X0.024000*%
%ADD14C,0.008000*%
%ADD15C,0.055000*%
%ADD16C,0.033000*%
%ADD17C,0.085000*%
%ADD18THERMAL18*%
%ADD19THERMAL19*%
%ADD20C,0.050000*%
%ADD21R,0.050000X0.050000*%
%ADD22C,0.060000*%
%ADD23R,0.060000X0.060000*%
%ADD24C,0.120000*%
%ADD25R,0.021800X0.021800*%
%ADD26C,0.080000*%
%ADD27R,0.034000X0.034000*%
%ADD28C,0.090000*%
%ADD29C,0.070000*%
%ADD30C,0.110000*%
%ADD31R,0.070000X0.070000*%
%ADD32C,0.130000*%
%ADD33R,0.130000X0.130000*%
%ADD34C,0.140000*%
%ADD35R,0.140000X0.140000*%
%ADD36C,0.160000*%
%ADD37C,0.009800*%
%ADD38C,0.200000*%
%ADD39C,0.020000*%
%ADD40C,0.300000*%
%ADD41R,0.106000X0.020000*%
%ADD42C,0.310000*%
%ADD43R,0.020000X0.107000*%
%ADD44C,0.100000*%
%ADD45R,0.107000X0.020000*%
%ADD46R,0.020000X0.106000*%
%ADD47R,0.020000X0.071000*%
%ADD48R,0.072000X0.020000*%
%ADD49R,0.071000X0.020000*%
%ADD50THERMAL50*%
%ADD51THERMAL51*%
%ADD52THERMAL52*%
%ADD53R,0.080000X0.034000*%
%LNART02-1*%
%LPD*%
%SRX1Y1I0J0*%
G54D14*
X225743Y165380D02*
Y168780D01*
X224643Y169880*
X219343*
X219143Y170080*
X218343Y170780*
X216443*
X215743Y170080*
X211843*
X210743Y168980*
X214333D02*
X214643Y169280D01*
X214743Y169430*
X215343*
X215543Y169480*
X216543*
X217343Y170280*
X218243*
X220543Y167980*
Y164580*
X215343Y158681D02*
X215543Y158781D01*
X215743Y158981*
Y162380*
X216543Y163180*
Y169080*
X217343Y169880*
X217643*
X224743Y170380D02*
X222743D01*
X218743Y171380D02*
X219743D01*
X220743Y170380*
X218743Y150381D02*
X219243Y149881D01*
X220143*
X221343Y151081*
Y156181*
X220843Y156681*
Y156981*
X221943Y156681D02*
Y167380D01*
X223643Y169080*
X207743Y158681D02*
X207443Y158981D01*
Y162580*
X206643Y163380*
X203343*
X203143Y163580*
Y163780*
X224743Y154381D02*
X225843D01*
X227043Y155581*
Y156181*
X227743Y156881*
X218743Y142381D02*
X219243Y142881D01*
X220443*
X221743Y144181*
Y148381*
X222743Y149381*
Y152281*
X224343Y153881*
X226043*
X227543Y155381*
X228043*
X228243Y155581*
Y163780*
X228743Y164380*
X218743Y143381D02*
X219243Y143881D01*
X220443*
X221143Y144581*
Y148181*
X222443Y149481*
Y154681*
X223743Y155981*
X225843*
X227743Y157881*
X218743Y144381D02*
X219243Y144881D01*
X220243*
X220843Y145481*
Y148281*
X222143Y149581*
Y154881*
X223643Y156381*
X225343*
X227343Y158381*
X218743Y145381D02*
X219243Y145881D01*
X220343*
X220543Y146081*
Y148381*
X221943Y149781*
Y155281*
X223343Y156681*
X225243*
X226843Y158281*
Y158981*
X227743Y159881*
X224743Y142381D02*
X226243D01*
X227243Y143381*
X228143*
X228643Y143881*
X229043*
X230543Y145381*
Y167380*
X229043Y168880*
X228443*
X227943Y169380*
X227443*
X226943Y168880*
Y165580*
X227643Y164880*
X227743*
X224743Y143381D02*
X226243D01*
X227243Y144381*
X228043*
X228543Y144881*
X229743*
X230343Y145481*
Y165280*
X230243Y165380*
X224743Y144381D02*
X226243D01*
X227243Y145381*
X228143*
X228643Y145881*
X229443*
X230143Y146581*
Y164980*
X229943Y165180*
Y165880*
X224743Y145381D02*
X226243D01*
X227243Y146381*
X228043*
X228543Y146881*
X229243*
X229943Y147581*
Y164880*
X229643Y165180*
Y166380*
X229743*
X224743Y146381D02*
X226243D01*
X227243Y147381*
X228043*
X228543Y147881*
X229043*
X229743Y148581*
Y164780*
X229443Y165080*
Y167580*
X229143Y167880*
X228443*
X227943Y168380*
X227343*
X227143Y168180*
Y167480*
X227743Y166880*
X224743Y147381D02*
X226243D01*
X227243Y148381*
X228043*
X228543Y148881*
X229043*
X229543Y149381*
Y164680*
X229243Y164980*
Y166880*
X228743Y167380*
X224743Y148381D02*
X226243D01*
X227243Y149381*
X228043*
X228543Y149881*
X229043*
X229343Y150181*
Y164480*
X228943Y164880*
X228443*
X228243Y165080*
Y167380*
X227743Y167880*
X215743Y183380D02*
X216843Y184480D01*
X220443*
X222243Y182680*
Y180880*
X224743Y178380*
X215743Y183380D02*
X212743Y180380D01*
X212243Y179880*
Y178780*
X211643Y178180*
Y174680*
X212443Y173880*
X213243*
X213743Y173380*
X216743Y183380D02*
X217543Y184180D01*
X220343*
X221243Y183280*
Y180480*
X222743Y178980*
X223143*
X223743Y178380*
X213743Y180380D02*
X216743Y183380D01*
X213743Y174380D02*
X213243Y174880D01*
X212243*
X211943Y175180*
Y177580*
X213243Y178880*
Y179880*
X213743Y180380*
X217743Y183380D02*
X218243Y183880D01*
X220243*
X220443Y183680*
Y181880*
X220243Y181680*
Y181080*
X222743Y178580*
Y178380*
X214743Y180380D02*
X217643Y183380D01*
X217743*
X213743Y175380D02*
X213243Y175880D01*
Y177480*
X214243Y178480*
Y179880*
X214743Y180380*
X218743Y183380D02*
Y181480D01*
X219443Y180780*
X220143*
X221743Y179180*
Y178380*
X218743Y183380D02*
X215743Y180380D01*
X215243Y179880*
Y177880*
X213743Y176380*
X224743Y173380D02*
X227243Y175880D01*
Y176880*
X228743Y178380*
X208743Y180380D02*
X211743Y183380D01*
X224743Y174380D02*
X226943Y176580D01*
Y177580*
X227743Y178380*
X209743Y180380D02*
X212743Y183380D01*
X224743Y175380D02*
X226743Y177280D01*
Y178380*
X210743Y180380D02*
X213743Y183380D01*
X224743Y176380D02*
X225743Y177380D01*
Y178380*
X211743Y180380D02*
X214743Y183380D01*
X201743Y176380D02*
X201243Y176880D01*
Y178680*
X201943Y179380*
Y179680*
X207743Y173380D02*
X208643Y174280D01*
Y178180*
X209143Y178680*
X201243Y184380D02*
X203243Y182380D01*
X204743*
X206743Y180380*
X172744Y169380D02*
X170744Y171380D01*
X177744D02*
X176644Y172480D01*
X167844*
X166244Y170880*
X176744Y171380D02*
X175844Y172280D01*
X168644*
X166244Y169880*
X173744Y155381D02*
X174244Y155881D01*
Y158631*
X174744Y159131*
X173744Y155381D02*
Y154381D01*
X174444*
X178244Y150581*
X181544*
X181744Y150781*
X182944*
X183244Y151081*
Y151831*
X183094Y151931*
X172744Y155381D02*
X173244Y155881D01*
Y158631*
X173744Y159131*
X172744Y154381D02*
Y155381D01*
X183394Y152431D02*
X183444Y152331D01*
Y150881*
X182944Y150381*
X182144*
X182044Y150481*
X181944Y150381*
X178144*
X174644Y153881*
X173144*
X172744Y154281*
Y154381*
X171744Y155381D02*
X172244Y155881D01*
Y158631*
X172744Y159131*
X171744Y155381D02*
Y154381D01*
X172344Y153781*
X172944*
X173144Y153581*
X173344*
X176744Y150181*
X183344*
Y150481*
X183644Y150781*
Y152181*
X184044Y152581*
X170744Y155381D02*
X171244Y155881D01*
Y158631*
X171744Y159131*
X170744Y155381D02*
Y154381D01*
X171544Y153581*
X172844*
X173144Y153281*
X173344*
X176644Y149981*
X183044*
X183144Y149881*
X183644*
X183844Y150181*
Y151881D02*
X184344Y152381D01*
Y152781*
X184244Y152881*
X183544*
X183844Y151881D02*
Y150131D01*
X169744Y155381D02*
X170244Y155881D01*
Y158631*
X170744Y159131*
X169744Y154381D02*
Y155381D01*
X184044Y153181D02*
X184144Y153081D01*
X184444*
X184544Y152981*
Y152281*
X184044Y151781*
Y150481*
X184344Y150181*
Y149781*
X183444Y148881*
X177044*
X173544Y152381*
X171744*
X169744Y154381*
X168744Y155381D02*
X169244Y155881D01*
Y158631*
X169744Y159131*
X168744Y155381D02*
Y154381D01*
X169744Y153381*
X170444*
X171644Y152181*
X173444*
X176944Y148681*
X183644*
X184844Y149881*
Y150081*
X184244Y150681*
Y151681*
X184744Y152181*
Y153181*
X184644Y153281*
X184544*
X184444Y153381*
X167744Y155381D02*
X168244Y155881D01*
Y158631*
X168744Y159131*
X167744Y155381D02*
Y154381D01*
Y154081*
X169844Y151981*
X173344*
X176844Y148481*
X183744*
X185244Y149981*
Y150281*
X184844Y150681*
X184744*
X184444Y150981*
Y151581*
X184944Y152081*
Y153481*
X184844Y153581*
X166744Y155381D02*
X167244Y155881D01*
Y158631*
X167744Y159131*
X166744Y155381D02*
Y154381D01*
X169344Y151781*
X173144*
X176644Y148281*
X183844*
X185494Y149931*
Y150481*
X185344Y150631*
Y153081*
X185444Y153181*
Y153881*
X186444Y150491D02*
X186344Y150481D01*
X185494*
X165744Y155381D02*
X166144Y155981D01*
Y158531*
X166744Y159131*
X165744Y154381D02*
Y155381D01*
X186444Y149981D02*
X185844D01*
X183944Y148081*
X176544*
X173044Y151581*
X168544*
X165744Y154381*
X187744Y159131D02*
X187244Y158631D01*
Y157781*
X186044Y156581*
X182944*
X181744Y155381*
Y154381*
X188644Y150981D02*
Y150931D01*
X188744Y150881*
Y149331*
X188294Y148881*
X187844*
X187544Y148581*
X188744Y150881D02*
X188544Y151081D01*
Y151781*
X187344Y152981*
Y155681*
X183744Y159131D02*
X183244Y158631D01*
Y157781*
X182844Y157381*
X179744*
X177744Y155381*
Y154381*
X185544Y155281D02*
X185644Y155181D01*
X186244*
X186544Y154881*
Y152681*
X187544Y151681*
Y150531*
X187894Y150181*
Y149481*
X187744Y149331*
Y149081*
X187544Y148881*
X187344*
X187244Y148781*
Y148381*
X187444Y148181*
X187844*
X188044Y148381*
Y148581*
X188294*
X188944Y149231*
Y151231*
X188844Y151381*
X189744Y159131D02*
X189244Y158631D01*
Y157781*
X187644Y156181*
X184544*
X183744Y155381*
Y154381D02*
X184244Y153881D01*
X184944*
X185244Y154181*
X185644*
X185744Y154081*
Y151181*
X186144Y150781*
X186644*
X186744Y150681*
Y149581*
X186794Y149481*
X184744Y159131D02*
X184294Y158681D01*
Y157781*
X183694Y157181*
X180544*
X178744Y155381*
Y154381*
X188194Y149381D02*
X188094Y149481D01*
Y150281*
X187744Y150631*
Y151281*
X187844Y151381*
X187944*
Y151481*
X187894Y151381*
Y151581*
X186744Y152731*
Y154981*
X186344Y155381*
X186144*
X185844Y155681*
X186744Y159131D02*
X186294Y158681D01*
Y157781*
X185294Y156781*
X182144*
X180744Y155381*
Y154381*
X188394Y149781D02*
X188344Y149881D01*
Y151681*
X187144Y152881*
Y155381*
X186844Y155681*
X188744Y159131D02*
X188244Y158631D01*
Y157781*
X186844Y156381*
X183744*
X182744Y155381*
Y154381*
X187494Y149581D02*
X187144Y149931D01*
Y151581*
X186144Y152581*
Y154281*
X185544Y154881*
X183244*
X182744Y154381*
X190744Y159131D02*
X190294Y158681D01*
Y157781*
X188494Y155981*
X185344*
X184744Y155381*
X187344Y149181D02*
X187144Y149381D01*
Y149581*
X186944Y149781*
Y151531*
X185944Y152531*
Y154181*
X185644Y154481*
X184844*
X184744Y154381*
X176744Y155381D02*
X178944Y157581D01*
X180944*
X181244Y157881*
Y158631*
X181744Y159131*
X176744Y155381D02*
Y154381D01*
X187444Y150181D02*
X187394Y150231D01*
Y150281*
X187344*
Y151631*
X186344Y152631*
Y154581*
X186144Y154781*
X185744Y159131D02*
X185244Y158631D01*
Y157781*
X184444Y156981*
X181344*
X179744Y155381*
Y154381*
X188044Y150781D02*
X188144Y150881D01*
Y151581*
X186944Y152781*
Y155081*
X186344Y155681*
X181744Y181380D02*
X183244D01*
X184244Y182380*
X185744*
Y181380D02*
X183844D01*
X183344Y180880*
X181244*
X180744Y180380*
X186744Y181380D02*
X186244Y180880D01*
X183944*
X183444Y180380*
X181744*
X185744D02*
X183944D01*
X183444Y179880*
X181244*
X180744Y179380*
X186744Y180380D02*
X186244Y179880D01*
X183944*
X183444Y179380*
X181744*
X185744D02*
X185244Y178880D01*
X181244*
X180744Y178380*
X185744D02*
X181744D01*
X186744D02*
X186244Y177880D01*
X181244*
X180744Y177380*
X185744D02*
X181744D01*
X186744D02*
X186244Y176880D01*
X181244*
X180744Y176380*
X185744D02*
X181744D01*
X186744D02*
X186244Y175880D01*
X181244*
X180744Y175380*
X186744D02*
X186244Y174880D01*
X184344*
X183844Y175380*
X181744*
X185744Y174380D02*
X184344D01*
X183844Y174880*
X181244*
X180744Y174380*
X186744D02*
X186244Y173880D01*
X184344*
X183844Y174380*
X181744*
X191744Y182380D02*
X190744D01*
X192744D02*
X192244Y182880D01*
X190244*
X189744Y183380*
X178244Y183880D02*
X179644Y182480D01*
Y181980*
X180244Y181380*
X180744*
X174744Y165280D02*
Y164380D01*
X175744Y165480D02*
Y164380D01*
X176744Y165680D02*
Y164380D01*
X177744Y165680D02*
Y164380D01*
X171744Y167380D02*
X172544Y166580D01*
X178744*
Y164380D02*
Y169080D01*
X181644Y168380D02*
X179744Y166480D01*
Y164380*
X180744Y166880D02*
Y164380D01*
X181744Y165680D02*
Y164380D01*
X174744Y135131D02*
X173744Y136181D01*
Y137881*
Y138881D02*
Y137881D01*
X170444Y144381D02*
X170644Y144181D01*
X171744*
X173744Y142181*
Y138881*
X184944Y142981D02*
X184344Y142381D01*
Y140381*
X184644Y140081*
Y139681*
X185244Y139081*
Y138731*
X185594Y138381*
X173744Y135131D02*
X172744Y136181D01*
Y137881*
Y138881D02*
Y137881D01*
X170444Y143881D02*
X171144D01*
X171744Y143281*
Y142481*
X172744Y141481*
Y138881*
X184544Y143281D02*
D01*
X184144Y142881*
Y139781*
X184244Y139681*
X172744Y135131D02*
X171744Y136181D01*
Y137881*
Y138881D02*
Y137881D01*
X170444Y143381D02*
Y142681D01*
X171744Y141381*
Y138881*
X184944Y143581D02*
X185344Y143181D01*
Y140181*
X184994Y139831*
X171744Y135131D02*
X170744Y136181D01*
Y137881*
Y138881D02*
Y137881D01*
X170444Y142181D02*
X170744Y141881D01*
Y138881*
Y135131D02*
X169744Y136181D01*
Y137881*
Y138881D02*
Y137881D01*
X166944Y143381D02*
Y142681D01*
X169744Y139881*
Y138881*
X186694Y140491D02*
X186644Y140481D01*
X185744Y141381*
Y143681*
X186044Y143981*
X186644*
X169744Y135131D02*
X168744Y136181D01*
Y137881*
Y138881D02*
Y137881D01*
X166644Y143881D02*
Y142581D01*
X168744Y140481*
Y138881*
X187144Y140881D02*
X186644D01*
X185944Y141581*
Y143081*
X186344Y143481*
X186744*
X186944Y143681*
Y144181*
X186644Y144481*
X168744Y135131D02*
X167744Y136181D01*
Y137881*
Y138881D02*
Y137881D01*
X166944Y144381D02*
X166644D01*
X166344Y144081*
Y142481*
X167744Y141081*
Y138881*
X185734Y144981D02*
X186644D01*
X187144Y144481*
Y143481*
X186944Y143281*
X186444*
X186144Y142981*
Y141681*
X186644Y141181*
X186844*
X167744Y135131D02*
X166744Y136181D01*
Y137881*
Y138881D02*
Y137881D01*
X166644Y144881D02*
X166144Y144381D01*
Y142281*
X166744Y141681*
Y138881*
X187144Y141491D02*
X187044Y141581D01*
X187144Y141481*
X187344Y141681*
Y143281*
Y144581*
X186444Y145491*
X185944*
X166744Y135131D02*
X165744Y136181D01*
Y137881*
Y138881D02*
Y137881D01*
X166944Y145381D02*
X166644D01*
X165944Y144681*
Y142081*
X166244Y141781*
Y139381*
X165744Y138881*
X181744Y137881D02*
X182844Y136781D01*
X186144*
X186344Y136581*
X187744Y135131*
X181744Y138881D02*
Y137881D01*
X178744Y142881D02*
X179244D01*
X181744Y140381*
Y138881*
X189644Y139881D02*
X189544D01*
X189144Y140281*
X188644*
X188444Y140081*
X187644*
X177744Y137881D02*
X179644Y135981D01*
X181644*
X181844Y135781*
X183094*
X183744Y135131*
X177744Y138881D02*
Y137881D01*
X174644Y144881D02*
X174344D01*
X174144Y144681*
Y142881*
X177744Y139281*
Y138881*
X189844Y140281D02*
Y140581D01*
X189444Y140981*
X188144*
X187844Y140681*
Y140481*
X183744Y137881D02*
X184444Y137181D01*
X187144*
X187344Y136981*
X187894*
X189744Y135131*
X183744Y138881D02*
Y137881D01*
X178744Y143881D02*
X180044D01*
X180944Y142981*
Y141781*
X183744Y138981*
Y138881*
X189444Y140481D02*
X189344Y140581D01*
X188344*
X187344Y136971D02*
X187124Y137181D01*
X178744Y137881D02*
X180444Y136181D01*
X182444*
X182644Y135981*
X183894*
X184744Y135131*
X178744Y138881D02*
Y137881D01*
X174944Y144381D02*
X174544D01*
X174344Y144181*
Y143081*
X176444Y140981*
X177044*
X178744Y139281*
Y138881*
X180744Y137881D02*
X182044Y136581D01*
X184044*
X184244Y136381*
X185494*
X186744Y135131*
X180744Y138881D02*
Y137881D01*
X174944Y143381D02*
X176744Y141581D01*
X178044*
X180744Y138881*
X182744Y137881D02*
X183644Y136981D01*
X186644*
X187844Y135781*
X188144*
X188744Y135131*
X182744Y138881D02*
Y137881D01*
X178444Y143381D02*
X179044D01*
X182744Y139681*
Y138881*
X184744Y137881D02*
X187944D01*
X190644Y135181*
X190744Y135131*
X184744Y138881D02*
Y137881D01*
X178444Y144381D02*
X179944D01*
X181144Y143181*
Y141881*
X182944Y140081*
X183344*
X184544Y138881*
X184744*
X181744Y135131D02*
X181044Y135781D01*
X178844*
X176744Y137881*
Y138881*
X174944Y145381D02*
X174444D01*
X173944Y144881*
Y142781*
X176744Y139981*
Y138881*
X179744Y137881D02*
X181244Y136381D01*
X183244*
X183444Y136181*
X184694*
X185744Y135131*
X179744Y138881D02*
Y137881D01*
X174644Y143881D02*
Y143181D01*
X176544Y141281*
X177344*
X179744Y138881*
X199744Y142281D02*
Y140381D01*
X197744Y170580D02*
X197244Y170080D01*
Y165620*
X197444Y165380*
Y161480*
X198244Y160680*
Y157181*
X198444Y156981*
Y155081*
X197844Y154481*
Y149281*
X198044Y149081*
Y145081*
X199844Y143281*
Y142381*
X199744Y142281*
X211743Y147381D02*
Y151181D01*
X211843Y151281*
X197844Y149281D02*
X197944D01*
X203743Y143981D02*
Y142381D01*
X210743Y143881D02*
Y147381D01*
X198744Y174380D02*
X198644Y174180D01*
Y171480*
X198144Y170980*
Y170380*
X197444Y169680*
Y167380*
X198244Y166580*
Y163780*
X197644Y163180*
Y161580*
X198444Y160780*
Y157281*
X198644Y157081*
Y154881*
X198044Y154281*
Y149981*
X198244Y149781*
Y147081*
X198344Y146981*
X203743Y145381D02*
X204343Y145981D01*
Y148881*
X204743Y149281*
X209743Y149481D02*
Y147381D01*
X200743Y175580D02*
X200943Y175380D01*
Y173980*
X201243Y173680*
Y172880*
X200843Y172480*
Y170380*
X202043Y169180*
Y158331*
X201593Y157881*
Y157231*
X201943Y156881*
Y154781*
X202143Y154581*
Y152881*
X201943Y152681*
Y152281*
X201843Y152181*
X204743Y149281D02*
Y152181D01*
X199244Y179980D02*
X199044Y179780D01*
Y177680*
X199944Y176780*
Y174080*
X199544Y173680*
Y167380*
X200243Y166680*
Y155581*
X200143Y155481*
Y150881*
X200043Y150781*
Y146181*
X200243Y145981*
X209643Y144481D02*
X209143Y144981D01*
Y146081*
X208743Y146381*
X195744Y183380D02*
X196244Y182880D01*
X196944*
X197244Y182580*
Y180180*
X197444Y179980*
X198344*
X198644Y179680*
Y177380*
X199344Y176680*
Y174080*
X199144Y173880*
Y169480*
X198644Y168980*
Y163580*
X198024Y162960*
Y161800*
X198944Y160880*
Y159781*
X200843D02*
Y157081D01*
X201243Y156681*
Y155981*
X200343Y155081*
Y149081*
X205743Y148581D02*
Y147381D01*
X211243Y145381D02*
Y152881D01*
X207193Y143931D02*
X207143Y143981D01*
Y152381*
X206743Y152781*
Y153381*
X211343Y143881D02*
X211043Y143581D01*
X210543*
X210243Y143881*
Y152681*
X209743Y153181*
Y153381*
X208143Y143731D02*
X208343Y143881D01*
Y152781*
X207743Y153381*
X203743Y147381D02*
Y152481D01*
X202743Y147381D02*
Y152381D01*
X202843Y152481*
X201743Y147381D02*
Y150981D01*
X201543Y151181*
Y152481*
X201643Y152581*
X200743Y147381D02*
Y152681D01*
X188744Y165880D02*
Y166780D01*
X185344Y170180*
Y170280*
X195144Y174080D02*
Y176980D01*
X193964Y148831D02*
X193814Y148981D01*
Y149231*
X193044Y150011*
Y152481*
X193644Y153081*
Y154981*
X193144Y155481*
Y156681*
X193244Y156781*
Y159781*
X193444Y159981*
Y160380*
X193144Y160680*
Y161880*
X193244Y161980*
X195844Y148081D02*
X195944Y147981D01*
Y141181*
X196244Y140881*
Y139981*
X188744Y165380D02*
X188444Y165680D01*
Y166780*
X185444Y169780*
X185244*
X184844Y170180*
Y170280*
X194344Y174580D02*
Y178380D01*
X194144Y149231D02*
X193244Y150131D01*
Y152381*
X193944Y153081*
Y155081*
X193344Y155681*
Y156381*
X193444Y156481*
Y159681*
X193644Y159881*
Y160480*
X193344Y160780*
Y161480*
X193644Y161780*
X196044Y149181D02*
X196144Y149081D01*
Y141381*
X196444Y141081*
Y140581*
X196544Y140481*
X188744Y164880D02*
X188244Y165380D01*
Y166680*
X185344Y169580*
X184944*
X184344Y170180*
Y170280*
X193644Y175280D02*
X193844Y175480D01*
Y179880*
X194094Y149761D02*
X193444Y150411D01*
Y152281*
X194144Y152981*
Y155181*
X193544Y155781*
Y156081*
X193644Y156181*
Y159581*
X193844Y159781*
Y160580*
X193644Y160780*
Y161280*
X196544Y149681D02*
Y141981D01*
X196844Y141681*
Y141081*
X196744Y140981*
X202243Y181380D02*
X201243Y180380D01*
Y179380*
X200243*
X202243Y181380D02*
X202343Y181280D01*
Y172480*
X201343Y171480*
Y170480*
X211543Y141981D02*
Y140281D01*
X212443Y139381*
Y138581*
X213143Y137881*
X216343*
X217243Y136981*
Y133581*
X217743Y133081*
Y132381*
X208743Y142381D02*
X209343Y141781D01*
X210143*
X210643Y141281*
Y135581*
X212543D02*
X215043Y133081D01*
X215943*
X216243Y132781*
Y130981*
X216443Y130781*
X217143*
X217743Y131381*
X208743Y135381D02*
X207743Y136381D01*
Y131381D02*
X208243Y131881D01*
Y134881*
X208743Y135381*
X207743D02*
X206743Y136381D01*
Y131381D02*
X207243Y131881D01*
Y134881*
X207743Y135381*
X206743D02*
X205743Y136381D01*
Y131381D02*
X206243Y131881D01*
Y134881*
X206743Y135381*
X205743D02*
X204743Y136381D01*
Y131381D02*
X205243Y131881D01*
Y134881*
X205743Y135381*
X204743D02*
X203743Y136381D01*
Y131381D02*
X204243Y131881D01*
Y134881*
X204743Y135381*
X203743D02*
X202743Y136381D01*
Y131381D02*
X203243Y131881D01*
Y134881*
X203743Y135381*
X202743D02*
X201743Y136381D01*
Y131381D02*
X202243Y131881D01*
Y134881*
X202743Y135381*
X201743D02*
X200743Y136381D01*
Y131381D02*
X201243Y131881D01*
Y134881*
X201743Y135381*
X206743Y145381D02*
Y145181D01*
X206843Y145081*
Y143481*
X207343Y142981*
Y141981*
X208243Y141081*
Y139081*
X209243Y137981*
Y134881*
X209143Y134781*
X212443Y135181D02*
X213243Y134381D01*
Y131881*
X213743Y131381*
X204743Y147981D02*
Y148681D01*
X199344Y147981D02*
Y155781D01*
X190044Y155981D02*
Y156781D01*
X191244Y157981*
Y159381*
X184244Y166380*
Y169780*
X183844Y170180*
Y170280*
X192644Y175780D02*
Y180880D01*
X193244Y181480*
Y182880*
X193744Y183380*
X209743Y139381D02*
Y137281D01*
X210243Y136781*
Y134581*
X209243Y133581*
Y130881*
X209543Y130581*
X211243*
X211743Y131081*
Y131381*
X208243Y142081D02*
X209243Y141081D01*
Y139881*
X209743Y139381*
X208743Y145381D02*
Y145081D01*
X209343Y144481*
Y144181*
X211243Y142281*
Y131881*
X210743Y131381*
X219743Y151381D02*
X220843Y152481D01*
Y156081*
X219043Y157881*
Y161980*
X217543Y163480*
Y165080*
X218043Y165580*
X219743Y150381D02*
X221043Y151681D01*
Y156181*
X219243Y157981*
Y162080*
X217743Y163580*
Y164780*
X218043Y165080*
X219743Y153381D02*
X220443Y154081D01*
Y155781*
X218643Y157581*
Y161780*
X217143Y163280*
Y165980*
X217343Y166180*
X218043*
X219743Y152381D02*
X220643Y153281D01*
Y155881*
X218843Y157681*
Y161880*
X217343Y163380*
Y165580*
X217643Y165880*
X210343Y160680D02*
X210443Y154781D01*
X210743Y154481*
Y153381*
X202743Y159681D02*
X203543Y160420D01*
Y162080*
X203143Y162480*
X202793*
X197744Y168480D02*
Y169680D01*
X198344Y170280*
Y170780*
X198844Y171280*
Y173980*
X199044Y174180*
Y176280*
X198944Y176380*
X206643Y159781D02*
X206443Y159581D01*
Y158881*
X207143Y158181*
Y154681*
X207343Y154481*
Y152981*
X208143Y152181*
Y145781*
X207743Y145381*
X209743D02*
Y146081D01*
X209243Y146581*
Y153881*
X209343Y153981*
Y160480*
X208943Y160880*
Y161080*
X197744Y172380D02*
Y171680D01*
X196544Y170480*
Y168080*
X196244Y167680*
X199324Y162160D02*
X199294Y162230D01*
X198444*
X198364Y162220*
X208743Y139381D02*
Y140381D01*
X212343Y140281D02*
X212243Y140381D01*
Y142781*
X212643Y143181*
Y147281*
X212743Y147381*
Y148181*
X213243Y148681*
Y155281*
X211343Y157181*
Y164080*
X212443Y165180*
X192144Y144581D02*
Y143781D01*
X191944Y143581*
Y139281*
X192244Y138981*
X195844*
X192444Y155981D02*
Y156781D01*
X192844Y157181*
Y164380*
X192944Y164480*
X192244Y153581D02*
Y152981D01*
X192144Y152881*
Y150181*
X193294Y149031*
Y147831*
X192144Y146681*
Y144581*
X207743Y139381D02*
Y140381D01*
X212643Y141281D02*
Y142081D01*
X213243Y142681*
Y146081*
X213743Y146581*
Y147381*
Y148181*
X214243Y148681*
Y155281*
X212643Y156881*
Y160480*
X212343Y160780*
Y164180*
X212943Y164780*
X213443*
X191844Y144181D02*
X191744Y144081D01*
Y139181*
X192144Y138781*
X195544*
X195644Y138681*
X196244*
X192144Y156381D02*
Y156781D01*
X192644Y157281*
Y164780*
X192744Y164880*
X191944Y153181D02*
Y150081D01*
X193094Y148931*
Y147931*
X191944Y146781*
Y144881*
X191844Y144781*
Y144181*
X206743Y140381D02*
Y139381D01*
X214143Y138781D02*
X213443D01*
X213043Y139181*
Y140681*
X213743Y141381*
X214043*
X214743Y142081*
Y147381*
Y148181*
X214943Y148381*
Y152681*
X215243Y152981*
Y155081*
X213243Y157081*
Y160880*
X212943Y161180*
Y162980*
X213143Y163180*
Y164280*
X212993*
X191544Y144581D02*
Y139081D01*
X192044Y138581*
X195444*
X195644Y138381*
X195844*
X191844Y155981D02*
Y156781D01*
X192444Y157381*
Y165180*
X192544Y165280*
X191644Y153581D02*
Y152981D01*
X191744Y152881*
Y149981*
X192894Y148831*
Y148031*
X191744Y146881*
Y144981*
X191544Y144781*
Y144581*
X205743Y140381D02*
Y139381D01*
X214643Y138281D02*
Y138781D01*
X214243Y139181*
Y140781*
X215043Y141631*
Y146481*
X215243Y146681*
Y148181*
X215143Y148281*
Y152581*
X215743Y153181*
Y153381D02*
Y153181D01*
X213493Y163980D02*
X213343Y163830D01*
Y162980*
X213243Y162880*
Y161280*
X213543Y160980*
Y157381*
X215743Y155181*
Y153381*
X191244Y144181D02*
Y143681D01*
X191344Y143581*
Y138981*
X191944Y138381*
X195344*
X195644Y138081*
X196244*
X191544Y156381D02*
Y156781D01*
X192244Y157481*
Y165580*
X192344Y165680*
X191344Y153181D02*
Y152981D01*
X191544Y152781*
Y149881*
X191994Y149431*
Y147731*
X191544Y147281*
Y145081*
X191244Y144781*
Y144181*
X204743Y140381D02*
Y139381D01*
X213443Y138281D02*
X212843Y138881D01*
Y140781*
X213643Y141581*
X213843*
X214443Y142181*
Y146881*
X214243Y147081*
Y148181*
X214743Y148681*
Y153381*
Y155181*
X212943Y156981*
Y160680*
X212643Y160980*
Y163280*
X212743Y163380*
X190944Y144581D02*
Y143681D01*
X191144Y143481*
Y138881*
X191844Y138181*
X195244*
X195644Y137781*
X195844*
X191244Y155981D02*
Y156781D01*
X192044Y157581*
Y165880*
X192244Y166080*
X191044Y153581D02*
Y152881D01*
X191344Y152581*
Y149781*
X191814Y149311*
Y147861*
X191344Y147381*
Y145181*
X190944Y144781*
Y144581*
X203743Y139381D02*
Y140381D01*
Y140981*
X203243Y141481*
Y142981*
X212843Y142781D02*
X212943Y142881D01*
Y146281*
X213243Y146581*
Y148181*
X213743Y148681*
Y153381*
Y155181*
X211643Y157281*
Y162530*
X211743Y162680*
X190644Y144181D02*
Y141481D01*
X190244Y141081*
Y138981*
X191244Y137981*
X195144*
X195644Y137481*
X196244*
X190944Y156381D02*
Y156781D01*
X191844Y157681*
Y166280*
X192044Y166480*
X190744Y153181D02*
Y152881D01*
X191144Y152481*
Y149681*
X191644Y149181*
Y147981*
X191144Y147481*
Y145281*
X190644Y144781*
Y144181*
X202743Y139381D02*
Y140381D01*
X202143Y140981*
X211943Y142981D02*
X212343Y143381D01*
Y151981*
X212743Y152381*
Y153381*
Y155381*
X211043Y157081*
Y160480*
X211093Y160530*
Y162130*
X210943Y162280*
X202143Y143631D02*
Y140981D01*
X202743Y140381*
X190644Y155981D02*
Y156781D01*
X191644Y157781*
Y166680*
X191844Y166880*
X190444Y153581D02*
Y152881D01*
X190944Y152381*
Y149581*
X191464Y149061*
Y148111*
X190944Y147581*
Y145381*
X190344Y144781*
Y144581*
Y156381D02*
Y156781D01*
X191444Y157881*
Y159481*
X190344Y160580*
Y166180*
X189844Y166680*
X201743Y140381D02*
Y140881D01*
X201343Y141281*
Y143831*
X211343Y142981D02*
X212143Y143781D01*
Y152281*
X211743Y152681*
Y153381*
X201743Y140381D02*
Y139381D01*
X211743Y153381D02*
Y153981D01*
X210743Y154981*
Y161830*
X190144Y153181D02*
Y152881D01*
X190744Y152281*
Y149481*
X191294Y148931*
Y148231*
X190744Y147681*
Y145481*
X190044Y144781*
Y144181*
X214743Y139381D02*
Y140381D01*
X215443Y141081*
Y145881*
X216143Y146581*
Y147781*
X215643Y148281*
Y152681*
X216143Y153181*
Y160980*
X216793Y161630*
X217483Y161620*
X217523Y161660*
X189844Y153581D02*
Y152881D01*
X190544Y152181*
Y149381*
X191114Y148811*
Y148361*
X190544Y147781*
Y145581*
X189744Y144781*
Y144581*
X215743Y139381D02*
Y140381D01*
Y145281*
X216343Y145881*
Y147881*
X215943Y148281*
Y150381*
X215843Y150481*
Y152581*
X216343Y153081*
Y160880*
X216793Y161330*
X217843*
X217893Y161380*
X189544Y153181D02*
Y152881D01*
X190344Y152081*
Y149611*
X190264Y149531*
Y148261*
X190344Y148181*
Y145681*
X189444Y144781*
Y144181*
X216743Y139381D02*
Y140381D01*
X216543Y140581*
Y148081*
X216243Y148381*
Y150781*
X216143Y150881*
Y152581*
X216543Y152981*
Y160580*
X216943Y160980*
X217593*
X189144Y144581D02*
Y147481D01*
X190094Y148431*
Y149661*
X190114Y149711*
X190144Y149731*
Y151981*
X189244Y152881*
Y153581*
X217743Y139381D02*
Y140381D01*
Y140781*
X216743Y141781*
Y148281*
X216443Y148581*
Y151281*
X216343Y151381*
Y152481*
X216743Y152881*
Y160080*
X217293Y160630*
X217893*
X188944Y153181D02*
Y152881D01*
X189944Y151881*
Y149831*
X189914Y149781*
Y148561*
X188944Y147581*
Y145281*
X188844Y145181*
Y144181*
X218743Y139381D02*
Y140381D01*
Y140581*
X218243Y141081*
X217843*
X216943Y141981*
Y148381*
X216643Y148681*
Y150981*
X216743Y151081*
Y151481*
X216543Y151681*
Y151981*
X216943Y152381*
Y159881*
X217343Y160280*
X217593*
X188644Y153581D02*
Y152881D01*
X189744Y151781*
Y148681*
X188744Y147681*
Y145381*
X188544Y145181*
Y144581*
X219743Y139381D02*
Y140381D01*
X218843Y141281*
X217943*
X217143Y142081*
Y148481*
X216843Y148781*
Y150881*
X216943Y150981*
Y151781*
X217143Y151981*
Y159781*
X217293Y159931*
X217283Y159921D02*
Y159931D01*
X217893*
X188344Y153181D02*
Y152881D01*
X189544Y151681*
Y148781*
X188544Y147781*
Y145481*
X188244Y145181*
Y144181*
X220743Y139381D02*
Y140381D01*
X219643Y141481*
X218243*
X217343Y142381*
Y148581*
X217043Y148881*
Y150781*
X217443Y151181*
Y151981*
X217343Y152081*
Y154081*
X218243Y154981*
Y155681*
X217343Y156581*
Y159381*
X217593Y159581*
X217343Y159381D02*
X217543Y159581D01*
X217593*
X188044Y153581D02*
Y152931D01*
X189344Y151631*
Y148881*
X187644Y147181*
Y145081*
X187944Y144781*
Y144581*
X221743Y139381D02*
Y140381D01*
X220443Y141681*
X218343*
X217543Y142481*
Y148781*
X217243Y149081*
Y150681*
X217743Y151181*
Y152281*
X217643Y152381*
Y153381*
X219243Y154981*
Y155881D02*
Y154981D01*
X217843Y157331D02*
X217943Y157181D01*
X219243Y155881D02*
X217843Y157281D01*
Y159231*
X187744Y153181D02*
Y152981D01*
X189144Y151581*
Y149081*
X188544Y148481*
Y148381*
X187444Y147281*
Y144881*
X187644Y144681*
Y144181*
X215243Y168980D02*
X214843Y168580D01*
Y168480*
X211843Y165480*
X204643*
X202543Y167580*
Y172080*
X202843Y172380*
Y173180*
X202943Y173280*
X203543*
X193344Y169380D02*
X193144D01*
X192144Y168380*
X190644*
X190344Y168080*
Y166480*
X191044Y165780*
Y163330*
X205943Y161080D02*
X205243D01*
X204743Y160580*
Y157281*
X203943Y156481*
X203393*
X203343Y156441*
X201943Y157681D02*
X202143Y157481D01*
Y154881*
X202343Y154681*
Y152781*
X202163Y152581*
Y151181*
X202143Y151141*
Y146681*
X201243Y145781*
Y144981*
X205743Y143931D02*
Y142381D01*
X228743Y153381D02*
X228243Y152881D01*
X227743*
X219743Y149381D02*
X220143D01*
X221543Y150781*
Y156281*
X221243Y156581*
Y157681*
X219443Y159481*
Y162180*
X218043Y163580*
Y164480*
X218093Y164530*
X215243Y168480D02*
X212043Y165280D01*
X203943*
X202443Y163780*
Y161280*
X202593Y161180*
X199344Y162600D02*
X199244Y162680D01*
X198344*
X219543Y167780D02*
X219643Y167680D01*
Y165280*
X219043Y164680*
Y163680*
X219943Y162780*
Y159481*
X221443Y157981*
Y156681*
X221743Y156381*
Y149981*
X220343Y148581*
Y147081*
X220143Y146881*
X218943*
X217943Y145881*
Y142381*
X218443Y141881*
X220943*
X222243Y140581*
Y131881*
X220843Y130481*
X215343*
X215143Y130181*
X212843Y130481D02*
X212643Y130281D01*
X208543*
X208143Y130681*
X225743Y158381D02*
Y164480D01*
X224243Y165980*
Y169080*
X223643Y169680*
X219143*
X218243Y170580*
X216543*
X215843Y169880*
X213143*
X212143Y168880*
X211943*
X225743Y164480D02*
X226443Y165180D01*
Y170680*
X224143Y172980*
Y176880*
X225243Y177980*
Y178980*
X223243Y180980*
Y182080*
X221443Y183880*
Y184180*
X203943Y174780D02*
X202643Y173480D01*
Y172480*
X202243Y172080*
Y158281*
X202343Y158181*
Y154981*
X203143Y154181*
Y153081*
X202943Y152881*
X202743*
X202343Y152481*
Y146381*
X202143Y146181*
Y144881*
X201843Y144581*
X201243*
X200243Y143581*
Y138381*
X200343*
X198744Y170530D02*
X198844Y170380D01*
Y169480*
X198444Y169080*
Y163680*
X197844Y163080*
Y161680*
X198644Y160880*
Y157381*
X198844Y157181*
Y154781*
X198244Y154181*
Y150081*
X198644Y149681*
Y144981*
X200043Y143581*
Y139081*
X199944Y138881*
Y137881*
X208943Y144381D02*
Y144081D01*
X211043Y141981*
Y133581*
X210243Y132781*
Y131081*
X210543Y130781*
X211043*
X211243Y130981*
Y131581*
X211543Y131881*
X212943*
X213243Y131581*
Y131081*
X213443Y130881*
X214043*
X214243Y131081*
Y131581*
X214543Y131881*
X215243*
X215743Y131381*
X167744Y167380D02*
X169744Y165380D01*
Y164380*
X171244Y168080D02*
Y165880D01*
X169744Y164380*
X187544Y180380D02*
Y173180D01*
X187244Y172880*
Y171880*
X186944Y169880D02*
X187244D01*
X187944Y169180*
X222743Y140381D02*
Y148681D01*
X222643Y148581*
X215343Y159281D02*
Y161180D01*
X205643Y156781D02*
X206043Y157181D01*
Y159931*
X206943Y160830*
Y162380*
X206343Y162980*
X202843*
X202793Y162930*
X198144Y168580D02*
Y169480D01*
X198444Y169780*
X205643Y156781D02*
X205543Y156681D01*
Y154681*
X205343Y154481*
Y141481*
X205243Y141381*
Y137181*
X206393Y156681D02*
X206043D01*
X205743Y156381*
Y155781*
X206143Y155381*
Y145781*
X205743Y145381*
X186444Y170080D02*
X186544Y170180D01*
X187944*
X189044Y169080*
Y164680*
X189624Y164080*
X206043Y150481D02*
X206143Y150381D01*
X194594Y147931D02*
X194744Y148061D01*
Y153581*
X194544Y153781*
Y157381*
X195244Y158081*
Y160580*
X194344Y161480*
Y162580*
X193944Y139681D02*
Y139781D01*
X194444Y140281*
Y147781*
X194594Y147931*
X206143Y156281D02*
X206343Y156081D01*
Y145681*
X206243Y145581*
Y137181*
X206843Y156581D02*
X206943Y156481D01*
Y154581*
X207143Y154381*
Y152781*
X207343Y152581*
Y144581*
X207743Y144181*
Y142381*
X206843Y156581D02*
Y158181D01*
X206243Y158781*
Y159831*
X207243Y160830*
Y162380*
X206443Y163180*
X203043*
X202793Y163430*
X201043Y166180D02*
X201343Y166480D01*
Y168780*
X199944Y170180*
Y172280*
X185844Y170280D02*
X185944Y170380D01*
X188044*
X189244Y169180*
Y164980*
X189744Y164480*
X189944*
X190044Y164380*
Y164280*
X190054Y164090*
X190044Y164080*
X193904Y155881D02*
X193844Y155991D01*
Y159481*
X194044Y159681*
Y160680*
X193944Y160780*
Y162180*
X193344Y162780*
X193544Y144681D02*
Y146781D01*
X194044Y147281*
Y148381D02*
Y147281D01*
X193544Y139981D02*
X193444Y140081D01*
Y144581*
X193544Y144681*
X194044Y148381D02*
X194544Y148881D01*
Y153481*
X194344Y153681*
X194364Y155481*
X193904Y155881*
X196744Y179380D02*
X197244Y178880D01*
X198044*
X198244Y178680*
Y171880*
X196744Y170380*
Y167680*
X203143Y161580D02*
Y160780D01*
X202443Y160080*
Y158381*
X202543Y158281*
Y155181*
X203343Y154381*
Y152881*
X203143Y152681*
Y146681*
X202343Y145881*
Y144681*
X201943Y144281*
X201243*
X200943Y143981*
Y143481*
X201143Y143281*
Y141081*
X201243Y140981*
Y138381*
X198844Y135981*
Y130981*
X199844Y129981*
X213643*
X214743Y131081*
Y131381*
X198844Y130981D02*
X197244Y129381D01*
X194744*
X193544Y168980D02*
X193144D01*
X192344Y168180*
X190844*
X190744Y168080*
Y167980*
X196044Y168480D02*
X196144Y168580D01*
Y171980*
X195744Y172380*
X185744Y173380D02*
X184144D01*
X183644Y173880*
X181244*
X180744Y173380*
X172744Y167380D02*
X173944Y168580D01*
X177044*
X177444Y168980*
Y169780*
X178944Y171280*
Y172080*
X180244Y173380*
X180744*
X186744D02*
X186244Y172880D01*
X184244*
X183744Y173380*
X181744*
X173744Y167380D02*
X174644Y168280D01*
X177144*
X177744Y168880*
Y169680*
X179244Y171180*
Y171880*
X180244Y172880*
X181244*
X181744Y173380*
X182644Y171880D02*
X183844D01*
X184344Y171380*
X186744*
X174744Y167380D02*
X175344Y167980D01*
X177344*
X178044Y168680*
Y169480*
X179544Y170980*
Y171580*
X180344Y172380*
X180744*
X186744D02*
X186244Y171880D01*
X184244*
X183744Y172380*
X181744*
X175744Y167380D02*
X177144D01*
X178344Y168580*
Y169380*
X179844Y170880*
Y171380*
X180344Y171880*
X181244*
X181744Y172380*
X208743Y153381D02*
X207343Y154781D01*
Y158381*
X206843Y158881*
X206753Y159081*
X205243Y162630D02*
X206393D01*
X206743Y162280*
Y160930*
X205843Y160030*
Y158351*
X205343Y157851*
Y154781*
X205143Y154581*
Y143181*
X204943Y142981*
X204543*
X204243Y142681*
Y138681*
X203243Y137681*
X201143*
X200143Y136681*
Y135981*
X200743Y135381*
X218743Y175380D02*
X218243D01*
X214743Y171880*
X212843*
X211443Y173280*
X209243*
X205543Y169580*
Y167980*
X205243Y167680*
Y166880*
X205343Y166780*
X218743Y174380D02*
X218243D01*
X215343Y171480*
X212543*
X211143Y172880*
X209443*
X206243Y169680*
Y167080*
X218743Y173380D02*
X218243D01*
X215343Y170480*
X207743*
X206843Y169580*
Y168080*
X205243Y168180D02*
Y169580D01*
X209143Y173480*
X211743*
X212343Y172880*
X215243*
X218243Y175880*
X219243*
X219743Y176380*
Y175380D02*
X219243Y174880D01*
X218143*
X214943Y171680*
X212643*
X211243Y173080*
X209343*
X205843Y169580*
Y168380*
X219743Y174380D02*
X219243Y173880D01*
X218343*
X215143Y170680*
X207643*
X206543Y169580*
Y168480*
X219743Y173380D02*
X219143Y172780D01*
X218043*
X215543Y170280*
X207943*
X207143Y169480*
Y168780*
X207543Y168380*
X219743Y155381D02*
Y155881D01*
X218243Y157381*
Y161580*
X216743Y163080*
Y166480*
X217043Y166780*
X218043*
X219743Y154381D02*
X220243Y154881D01*
Y155681*
X218443Y157481*
Y161680*
X216943Y163180*
Y166180*
X217243Y166480*
X217643*
X202943Y158981D02*
Y155481D01*
X204343Y154181*
Y152681*
X204143Y152481*
Y146681*
X203243Y145781*
Y143781*
X202343Y142881*
Y141681*
X203243Y140781*
Y138981*
X202243Y137981*
X201143*
X199244Y136081*
Y131881*
X199744Y131381*
X193594Y148531D02*
Y149111D01*
X192844Y149861*
Y152581*
X193444Y153181*
Y154781*
X192944Y155281*
Y156881*
X193044Y156981*
Y160080*
X193144Y160180*
X193244Y139681D02*
X193144Y139781D01*
Y146781*
X193594Y147231*
Y148531*
X182644Y170980D02*
X182744Y170880D01*
X192544*
X192844Y170580*
X193544*
X203943Y174280D02*
X204343Y173880D01*
Y172980*
X203443Y172080*
Y167680*
X204943Y166180*
X211443*
X212043Y166780*
Y167180*
X211143Y168080*
X211043*
X197744Y180380D02*
X198344D01*
X198844Y179880*
Y177580*
X199544Y176880*
Y173980*
X199344Y173780*
Y169380*
X198844Y168880*
Y163580*
X199744Y162680*
Y162080*
X199144Y161480*
Y161080*
X199844Y160380*
Y156481*
X199744Y156381*
X192544Y150301D02*
Y152481D01*
X200243Y174780D02*
Y174080D01*
X199944Y173780*
Y172880*
X200343Y172480*
Y170180*
X201543Y168980*
Y162180*
X200743Y161380*
X192844Y139981D02*
X192944Y139881D01*
Y139381*
X193144Y139181*
X194944*
X195044Y139281*
X196044*
X197144Y140381*
Y142481*
X197044Y142581*
Y159481*
X196844Y159681*
X201443Y159781D02*
Y160680D01*
X200743Y161380*
X205943Y162280D02*
X205843Y162180D01*
X204643*
X203743Y161280*
Y158881*
X203443Y158581*
Y158281*
X174144Y153281D02*
X176544Y150881D01*
X176844*
X206383Y162220D02*
X206293Y162180D01*
X206043Y161930*
X204693*
X203943Y161180*
Y158581*
X203843Y158481*
Y157981*
X175944Y156281D02*
X175444D01*
X175144Y155981*
Y153981*
X178144Y150981*
X178644*
X216743Y170180D02*
X216243Y169680D01*
X213543*
X212943Y169080*
Y166980*
X211643Y165680*
X204843*
X202843Y167680*
Y172080*
X203143Y172380*
Y172980*
X193544Y169780D02*
X193244D01*
X192044Y168580*
X191144*
X191044Y168680*
X189744*
X177744Y152481D02*
X176244Y153981D01*
Y155681*
X178244Y157681*
Y158631*
X178744Y159131*
Y135131D02*
Y135181D01*
X177144Y136781*
X175544*
X175044Y137281*
Y141281*
X173644Y142681*
Y145281*
X175044Y146681*
X175644*
X211363Y168380D02*
X211343D01*
X212243Y167480*
Y166680*
X211443Y165880*
X204943*
X203143Y167680*
Y172080*
X203943Y172880*
Y173680*
X193344Y170180D02*
X191944Y168780D01*
X191344*
X189444Y170680*
X182944*
X182644Y170380*
X172744Y174380D02*
X172144Y173780D01*
X166344*
X166244Y173880*
Y174880D02*
X166344Y174980D01*
X173144*
X173744Y174380*
X204343Y178380D02*
Y178280D01*
X206143Y176480*
Y171780*
X206243Y171680*
X208543Y171480D02*
X209043Y170980D01*
X212843*
X169744Y179380D02*
X167654D01*
X166744Y180290*
X169744Y179380D02*
X170744D01*
X171744Y178380*
X166744Y181320D02*
X168944D01*
X169274Y180980*
X173144*
X174244Y179880*
X174944*
X175744Y179080*
Y178380*
X166744Y182340D02*
X166844Y182280D01*
X168344*
X169444Y181180*
X173944*
X174744Y180380*
X175944Y179180*
X176944*
X177744Y178380*
X173744D02*
X173244Y177880D01*
X168244*
X166044Y180080*
Y182660*
X166744Y183360*
X176744Y178380D02*
X176244Y177880D01*
X175544*
X175244Y178180*
Y178680*
X175044Y178880*
X173244*
X172244Y179880*
X168174*
X167764Y180290*
X213413Y170980D02*
X213143Y171250D01*
Y171280*
X209543*
X209143Y171680*
X206843D02*
X207243Y172080D01*
Y176980*
X205343Y178880*
X203543*
X202943Y178380D02*
X202743Y178180D01*
Y177580*
X203443Y176880*
X203843*
X205043Y175680*
Y172080*
X204443Y171480*
Y170580*
X202943Y178880D02*
X202543Y178480D01*
Y177380*
X203343Y176580*
X203843*
X204843Y175580*
Y172180*
X204043Y171380*
Y170180*
X203743Y178380D02*
X205843Y176280D01*
Y171880*
X205743Y171680*
X203743Y177780D02*
X205443Y176080D01*
Y171580*
X205243Y171380*
X204843Y170980D02*
Y171480D01*
X205243Y171880*
Y175780*
X203743Y177280*
X220643Y171580D02*
Y176780D01*
X220043Y177380*
X219343*
X218643Y178080*
Y179080*
X221143Y170980D02*
Y176780D01*
X220143Y177780*
X219343*
X219143Y177980*
Y179580*
X221643Y171580D02*
Y176680D01*
X220243Y178080*
Y179780*
X219943Y180080*
X219643*
X222143Y170980D02*
Y177280D01*
X221243Y178180*
Y178980*
X220643Y179580*
X206543Y143981D02*
Y143481D01*
X207143Y142881*
Y141881*
X207243Y141781*
Y138581*
X208743Y137081*
X216243D02*
Y133781D01*
X217243Y132781*
Y131881*
X216743Y131381*
X199544Y143081D02*
X199444Y142981D01*
Y137081*
X199144Y136781*
X215043Y137381D02*
X215243Y137181D01*
Y134381*
X216743Y132881*
Y132381*
X195744Y148581D02*
Y149381D01*
X196044Y149681*
Y150481*
X196244Y150681*
Y161180*
X195644Y161780*
Y167580*
X196344Y168280*
Y173880*
X196144Y174080*
Y175780*
X196744Y176380*
X195844Y139681D02*
X195444Y140081D01*
Y147581*
X195244Y147781*
Y150481*
X195844Y151081*
Y160980*
X195244Y161580*
Y170380*
X195144Y170480*
Y173180*
X194844Y173480*
Y177280*
X195144Y177580*
X194934Y154381D02*
Y157481D01*
X195444Y157991*
Y160780*
X194644Y161580*
Y163080*
X194044Y163680*
Y170880D02*
Y163680D01*
Y170880D02*
X194144Y170980D01*
Y172880*
X194044Y172980*
Y179180*
X194244Y179380*
Y182880*
X194744Y183380*
X194934Y145181D02*
Y150581D01*
X195444Y151081*
X195644Y151281*
Y160880*
X195044Y161480*
Y163380*
X194244Y164180*
Y170480*
X194344Y170580*
Y173180*
X194644Y173480*
Y182280*
X194744Y182380*
X194244Y156281D02*
X194144Y156381D01*
Y157781*
X194244Y157881*
Y160880*
X194144Y160980*
Y162280*
X193844Y162580*
Y170780*
X193744Y170880*
X193544*
X193244Y171180*
Y180980*
X193844Y181580*
X197344Y146181D02*
X197244Y146281D01*
Y165280*
X197044Y165480*
Y170380*
X198444Y171780*
Y179480*
X198144Y179780*
X196544*
X196144Y180180*
Y181180*
X195644Y181680*
X186744Y139881D02*
X185544Y141081D01*
Y143781*
X185244Y144081*
X183444*
X182744Y143381*
X196344Y150181D02*
X196244Y150081D01*
Y149481*
X196344Y149381*
Y141681*
X196544Y141481*
X196744Y150511D02*
X196864Y150381D01*
Y142181*
X196844*
X203443Y175580D02*
X203843D01*
X204643Y174780*
Y172280*
X203643Y171280*
Y167780*
X205043Y166380*
X211143*
X211543Y166780*
X204243Y158281D02*
Y160680D01*
X205143Y161580*
X205243*
X196744Y183380D02*
X197944D01*
X199644Y181680*
Y178180*
X200143Y177680*
Y175480*
X200743Y174880*
Y174280*
X200143Y173680*
Y172980*
X200543Y172580*
Y170380*
X201843Y169080*
Y158681*
X201543Y158381*
Y158431*
X201343Y158231*
Y157181*
X201743Y156781*
Y154081*
X201343Y153681*
Y149381*
X208843Y149481D02*
X208743Y149381D01*
Y147381*
X195744Y140781D02*
Y147581D01*
X195444Y147881*
Y149581*
X195644Y149781*
X195844Y149981*
Y150681*
X196044Y150881*
Y161080*
X195444Y161680*
Y170580*
X195344Y170680*
Y173080*
X195744Y173480*
Y180980*
X195044Y181680*
G54D12*
X231043Y128381D02*
Y185380D01*
X163744*
Y128381*
X231043*
G54D15*
X189844Y165980D03*
X187744Y165180D03*
X205743Y163920D03*
Y167500D03*
X209843Y168580D03*
X214943Y165880D03*
X213543Y168980D03*
X214543Y163280D03*
X214693Y159281D03*
X214543Y160590D03*
X207943Y159381D03*
X212143D03*
X176644Y147381D03*
X178244Y142281D03*
X172944Y145881D03*
X172744Y150181D03*
X168644Y142381D03*
X166544Y146081D03*
X168544Y147381D03*
X165744Y151581D03*
X184894Y151331D03*
X193944Y150581D03*
X186644Y142781D03*
X193944Y141581D03*
X192444Y139581D03*
Y148581D03*
X192644Y144231D03*
X189744Y146281D03*
X184844Y142181D03*
Y140781D03*
X187444Y139481D03*
X189044Y139581D03*
X190714Y139681D03*
X193934Y143181D03*
X192844Y153481D03*
X189744Y155381D03*
X186494Y151281D03*
X186644Y148781D03*
X188094Y146581D03*
X190694Y148581D03*
X193944Y152181D03*
X165744Y141681D03*
Y146881D03*
X188044Y164280D03*
X187744Y165980D03*
X189844Y165080D03*
X174544Y147081D03*
X172844Y142381D03*
X210343Y167980D03*
X213943Y168280D03*
X214143Y165680D03*
X213743Y162280D03*
X214143Y159881D03*
X212143Y160180D03*
X207943D03*
X206043Y164680D03*
G54D16*
X210743Y168980D03*
X214333D03*
X220543Y164580D03*
X215343Y158681D03*
X217643Y169880D03*
X220843Y156981D03*
X221943Y156681D03*
X223643Y169080D03*
X207743Y158681D03*
X203143Y163780D03*
X227343Y158381D03*
X230243Y165380D03*
X229943Y165880D03*
X229743Y166380D03*
X201943Y179680D03*
X209143Y178680D03*
X183094Y151931D03*
X182744Y150781D03*
X183394Y152431D03*
X182044Y150481D03*
X184044Y152581D03*
X183344Y150181D03*
X183544Y152881D03*
X183844Y150131D03*
X184044Y153181D03*
X184344Y150081D03*
X184444Y153381D03*
X184844Y150081D03*
Y153581D03*
Y150681D03*
X185444Y153881D03*
X186444Y150491D03*
Y149981D03*
X188644Y150981D03*
X187544Y148581D03*
X187344Y155681D03*
X185544Y155281D03*
X188044Y148581D03*
X188844Y151381D03*
X186794Y149481D03*
X188194Y149381D03*
X185844Y155681D03*
X187844Y151381D03*
X188394Y149781D03*
X186844Y155681D03*
X187494Y149581D03*
X187344Y149181D03*
X187444Y150181D03*
X186144Y154781D03*
X188044Y150781D03*
X186344Y155681D03*
X174744Y165280D03*
X175744Y165480D03*
X176744Y165680D03*
X177744D03*
X178744Y169080D03*
X181644Y168380D03*
X179744Y166480D03*
X180744Y166880D03*
X181744Y165680D03*
X170444Y144381D03*
X184944Y142981D03*
X185594Y138381D03*
X170444Y143881D03*
X184544Y143281D03*
X184244Y139681D03*
X170444Y143381D03*
X184944Y143581D03*
X184994Y139831D03*
X170444Y142181D03*
X166944Y143381D03*
X186694Y140491D03*
X186644Y143981D03*
X166644Y143881D03*
X187144Y140881D03*
X186644Y144481D03*
X166944Y144381D03*
X185734Y144981D03*
X186844Y141181D03*
X166644Y144881D03*
X187144Y141491D03*
X185944Y145491D03*
X166944Y145381D03*
X178744Y142881D03*
X186344Y136581D03*
X189644Y139881D03*
X187644Y140081D03*
X174644Y144881D03*
X189844Y140281D03*
X187844Y140481D03*
X178744Y143881D03*
X189444Y140481D03*
X188344Y140581D03*
X187344Y136971D03*
X174944Y144381D03*
Y143381D03*
X178444D03*
Y144381D03*
X174944Y145381D03*
X174644Y143881D03*
X199744Y142281D03*
Y140381D03*
X197744Y170580D03*
X211843Y151281D03*
X197944Y149281D03*
X203743Y143981D03*
X210743Y143881D03*
X198744Y174380D03*
X198344Y146981D03*
X204743Y149281D03*
X209743Y149481D03*
X200743Y175580D03*
X201843Y152181D03*
X204743D03*
X199244Y179980D03*
X200243Y145981D03*
X209643Y144481D03*
X208743Y146381D03*
X198944Y159781D03*
X200843D03*
X200343Y149081D03*
X205743Y148581D03*
X211243Y145381D03*
Y152881D03*
X207193Y143931D03*
X211343Y143881D03*
X208143Y143731D03*
X203743Y152481D03*
X202843D03*
X201643Y152581D03*
X200743Y152681D03*
X188744Y165880D03*
X185344Y170280D03*
X195144Y174080D03*
Y176980D03*
X193964Y148831D03*
X193244Y161980D03*
X195844Y148081D03*
X196244Y139981D03*
X188744Y165380D03*
X184844Y170280D03*
X194344Y174580D03*
Y178380D03*
X194144Y149231D03*
X193644Y161780D03*
X196044Y149181D03*
X196544Y140481D03*
X188744Y164880D03*
X184344Y170280D03*
X193644Y175280D03*
X193844Y179880D03*
X194094Y149761D03*
X193644Y161280D03*
X196544Y149681D03*
X196744Y140981D03*
X201343Y170480D03*
X211543Y141981D03*
X210643Y135581D03*
X212543D03*
X209143Y134781D03*
X212443Y135181D03*
X204743Y147981D03*
Y148681D03*
X199344Y147981D03*
Y155781D03*
X190044Y155981D03*
X183844Y170280D03*
X192644Y175780D03*
X208243Y142081D03*
X218043Y165580D03*
Y165080D03*
Y166180D03*
X217643Y165880D03*
X210343Y160680D03*
X202743Y159681D03*
X202793Y162480D03*
X197744Y168480D03*
X198944Y176380D03*
X206643Y159781D03*
X208943Y161080D03*
X196244Y167680D03*
X199324Y162160D03*
X198364Y162220D03*
X212343Y140281D03*
X212443Y165180D03*
X192144Y144581D03*
X195844Y138981D03*
X192444Y155981D03*
X192944Y164480D03*
X192244Y153581D03*
X212643Y141281D03*
X213443Y164780D03*
X191844Y144181D03*
X196244Y138681D03*
X192144Y156381D03*
X192744Y164880D03*
X191944Y153181D03*
X214143Y138781D03*
X212993Y164280D03*
X191544Y144581D03*
X195844Y138381D03*
X191844Y155981D03*
X192544Y165280D03*
X191644Y153581D03*
X214643Y138281D03*
X213493Y163980D03*
X191244Y144181D03*
X196244Y138081D03*
X191544Y156381D03*
X192344Y165680D03*
X191344Y153181D03*
X213443Y138281D03*
X212743Y163380D03*
X190944Y144581D03*
X195844Y137781D03*
X191244Y155981D03*
X192244Y166080D03*
X191044Y153581D03*
X203243Y142981D03*
X212843Y142781D03*
X211743Y162680D03*
X190644Y144181D03*
X196244Y137481D03*
X190944Y156381D03*
X192044Y166480D03*
X190744Y153181D03*
X202143Y143631D03*
X211943Y142981D03*
X210943Y162280D03*
X190644Y155981D03*
X191844Y166880D03*
X190444Y153581D03*
X190344Y144581D03*
Y156381D03*
X189844Y166680D03*
X201343Y143831D03*
X211343Y142981D03*
X210743Y161830D03*
X190144Y153181D03*
X190044Y144181D03*
X217523Y161660D03*
X215643Y149981D03*
X189844Y153581D03*
X189744Y144581D03*
X217893Y161380D03*
X215943Y150381D03*
X189544Y153181D03*
X189444Y144181D03*
X217593Y160980D03*
X216143Y150881D03*
X189144Y144581D03*
X189244Y153581D03*
X217893Y160630D03*
X216443Y151281D03*
X188944Y153181D03*
X188844Y144181D03*
X217593Y160280D03*
X216643Y152081D03*
X188644Y153581D03*
X188544Y144581D03*
X217893Y159931D03*
X216943Y151781D03*
X188344Y153181D03*
X188244Y144181D03*
X217593Y159581D03*
X217443Y151981D03*
X188044Y153581D03*
X187944Y144581D03*
X217843Y159231D03*
X217643Y152381D03*
X187744Y153181D03*
X187644Y144181D03*
X215243Y168980D03*
X203543Y173280D03*
X193344Y169380D03*
X191044Y163330D03*
X205943Y161080D03*
X203343Y156441D03*
X201943Y157681D03*
X201243Y144981D03*
X205743Y143931D03*
X218093Y164530D03*
X215243Y168480D03*
X202593Y161180D03*
X199344Y162600D03*
X198344Y162680D03*
X219543Y167780D03*
X215143Y130181D03*
X212843Y130481D03*
X208143Y130681D03*
X211943Y168880D03*
X221443Y184180D03*
X203943Y174780D03*
X200343Y138381D03*
X198744Y170530D03*
X199944Y137881D03*
X208943Y144381D03*
X171244Y168080D03*
X187544Y180380D03*
X187244Y171880D03*
X186944Y169880D03*
X187944Y169180D03*
X222643Y148581D03*
X215343Y159281D03*
Y161180D03*
X205643Y156781D03*
X202793Y162930D03*
X198144Y168580D03*
X198444Y169780D03*
X205243Y137181D03*
X206393Y156681D03*
X186444Y170080D03*
X189624Y164080D03*
X206043Y150481D03*
X194594Y147931D03*
X194344Y162580D03*
X193944Y139681D03*
X206143Y156281D03*
X206243Y137181D03*
X206843Y156581D03*
X202793Y163430D03*
X201043Y166180D03*
X199944Y172280D03*
X185844Y170280D03*
X190044Y164080D03*
X193904Y155881D03*
X193344Y162780D03*
X193544Y144681D03*
X194044Y148381D03*
X193544Y139981D03*
X196744Y167680D03*
X203143Y161580D03*
X193544Y168980D03*
X190744Y167980D03*
X196044Y168480D03*
X182644Y171880D03*
X206753Y159081D03*
X205243Y162630D03*
X205343Y166780D03*
X206243Y167080D03*
X206843Y168080D03*
X205243Y168180D03*
X205843Y168380D03*
X206543Y168480D03*
X207543Y168380D03*
X218043Y166780D03*
X217643Y166480D03*
X202943Y158981D03*
X193594Y148531D03*
X193144Y160180D03*
X193244Y139681D03*
X182644Y170980D03*
X193544Y170580D03*
X203943Y174280D03*
X211043Y168080D03*
X192544Y150301D03*
Y152481D03*
X200243Y174780D03*
X192844Y139981D03*
X196844Y159681D03*
X201443Y159781D03*
X205943Y162280D03*
X203443Y158281D03*
X174144Y153281D03*
X176844Y150881D03*
X206383Y162220D03*
X203843Y157981D03*
X175944Y156281D03*
X178644Y150981D03*
X216743Y170180D03*
X203143Y172980D03*
X193544Y169780D03*
X189744Y168680D03*
X175644Y146681D03*
X211363Y168380D03*
X203943Y173680D03*
X193344Y170180D03*
X182644Y170380D03*
X204343Y178380D03*
X206243Y171680D03*
X208543Y171480D03*
X212843Y170980D03*
X213413D03*
X209143Y171680D03*
X206843D03*
X203543Y178880D03*
X202943Y178380D03*
X204443Y170580D03*
X202943Y178880D03*
X204043Y170180D03*
X203743Y178380D03*
X205743Y171680D03*
X203743Y177780D03*
X205243Y171380D03*
X204843Y170980D03*
X203743Y177280D03*
X220643Y171580D03*
X218643Y179080D03*
X221143Y170980D03*
X219143Y179580D03*
X221643Y171580D03*
X219643Y180080D03*
X222143Y170980D03*
X220643Y179580D03*
X206543Y143981D03*
X208743Y137081D03*
X216243D03*
X199544Y143081D03*
X199144Y136781D03*
X215043Y137381D03*
X195744Y148581D03*
X195844Y139681D03*
X195144Y177580D03*
X194934Y154381D03*
Y145181D03*
X194244Y156281D03*
X193844Y181580D03*
X197344Y146181D03*
X195644Y181680D03*
X186744Y139881D03*
X196344Y150181D03*
X196544Y141481D03*
X196744Y150511D03*
X196844Y142181D03*
X203443Y175580D03*
X211543Y166780D03*
X204243Y158281D03*
X205243Y161580D03*
X201343Y149381D03*
X208843Y149481D03*
X195744Y140781D03*
X195644Y149781D03*
X195044Y181680D03*
G54D20*
X208743Y139381D03*
X207743D03*
X206743D03*
X205743D03*
X204743D03*
X203743D03*
X202743D03*
X201743D03*
X200743D03*
Y136381D03*
X201743D03*
X202743D03*
X203743D03*
X204743D03*
X205743D03*
X206743D03*
X207743D03*
X208743D03*
X209743D03*
X191744Y182380D03*
X190744Y183380D03*
Y182380D03*
X189744Y183380D03*
Y182380D03*
X188744Y183380D03*
Y182380D03*
X187744Y183380D03*
Y182380D03*
X186744Y183380D03*
X185744Y182380D03*
X186744D03*
X185744Y181380D03*
X186744D03*
X185744Y180380D03*
X186744D03*
X185744Y179380D03*
X186744D03*
X185744Y178380D03*
X186744D03*
X185744Y177380D03*
X186744D03*
X185744Y176380D03*
X186744D03*
X185744Y175380D03*
X186744D03*
X185744Y174380D03*
X186744D03*
X185744Y173380D03*
X186744D03*
X185744Y172380D03*
X186744Y171380D03*
Y172380D03*
X187744Y171380D03*
Y172380D03*
X188744Y171380D03*
Y172380D03*
X189744Y171380D03*
Y172380D03*
X190744Y171380D03*
Y172380D03*
X191744Y171380D03*
Y172380D03*
X192744Y171380D03*
Y172380D03*
X193744Y171380D03*
Y172380D03*
X194744Y171380D03*
Y172380D03*
X195744Y171380D03*
Y172380D03*
X196744Y171380D03*
X197744Y172380D03*
X196744D03*
X197744Y173380D03*
X196744D03*
X197744Y174380D03*
X196744D03*
X197744Y175380D03*
X196744D03*
X197744Y176380D03*
X196744D03*
X197744Y177380D03*
X196744D03*
X197744Y178380D03*
X196744D03*
X197744Y179380D03*
X196744D03*
X197744Y180380D03*
X196744D03*
X197744Y181380D03*
X196744D03*
X197744Y182380D03*
X196744Y183380D03*
Y182380D03*
X195744Y183380D03*
Y182380D03*
X194744Y183380D03*
Y182380D03*
X193744Y183380D03*
Y182380D03*
X192744Y183380D03*
Y182380D03*
X227743Y172880D03*
X228743Y172380D03*
X227743Y171880D03*
X228743Y171380D03*
X227743Y170880D03*
X228743Y170380D03*
X227743Y169880D03*
X228743Y169380D03*
X227743Y168880D03*
X228743Y168380D03*
X227743Y167880D03*
X228743Y167380D03*
X227743Y166880D03*
X228743Y166380D03*
X227743Y165880D03*
X228743Y165380D03*
X227743Y164880D03*
X228743Y164380D03*
X227743Y163880D03*
X228743Y163380D03*
X227743Y162880D03*
X228743Y162380D03*
X227743Y161880D03*
X228743Y161380D03*
X227743Y160880D03*
X228743Y160380D03*
X227743Y159881D03*
X228743Y159381D03*
X227743Y158881D03*
X228743Y158381D03*
X227743Y157881D03*
X228743Y157381D03*
X227743Y156881D03*
X228743Y156381D03*
X227743Y155881D03*
X228743Y153381D03*
X227743Y152881D03*
X228743Y152381D03*
X227743Y151881D03*
X228743Y151381D03*
X227743Y150881D03*
X228743Y150381D03*
X227743Y149881D03*
X228743Y149381D03*
X227743Y148881D03*
X228743Y148381D03*
X227743Y147881D03*
X228743Y147381D03*
X227743Y146881D03*
X228743Y146381D03*
X227743Y145881D03*
X228743Y145381D03*
X227743Y144881D03*
X228743Y144381D03*
X227743Y143881D03*
X228743Y143381D03*
X227743Y142881D03*
X228743Y142381D03*
X227743Y141881D03*
X228743Y141381D03*
X227743Y140881D03*
X228743Y140381D03*
X227743Y139881D03*
X228743Y139381D03*
X227743Y138881D03*
X228743Y138381D03*
X227743Y137881D03*
X228743Y137381D03*
X227743Y136881D03*
X228743Y136381D03*
X227743Y135881D03*
X201743Y142381D03*
X202743D03*
X203743D03*
X204743D03*
X205743D03*
X206743D03*
X207743D03*
X208743D03*
X209743D03*
Y145381D03*
X208743D03*
X207743D03*
X206743D03*
X205743D03*
X204743D03*
X203743D03*
X202743D03*
X201743D03*
X200743D03*
X201743Y147381D03*
X202743D03*
X203743D03*
X204743D03*
X205743D03*
X206743D03*
X207743D03*
X208743D03*
X209743D03*
X210743D03*
X211743D03*
X212743D03*
X213743D03*
X214743D03*
X215743D03*
Y153381D03*
X214743D03*
X213743D03*
X212743D03*
X211743D03*
X210743D03*
X209743D03*
X208743D03*
X207743D03*
X206743D03*
X205743D03*
X204743D03*
X203743D03*
X202743D03*
X201743D03*
X200743D03*
X171744Y171380D03*
X172744D03*
X173744D03*
X174744D03*
X175744D03*
X176744D03*
X177744D03*
Y174380D03*
X176744D03*
X175744D03*
X174744D03*
X173744D03*
X172744D03*
X171744D03*
X170744D03*
X221743Y139381D03*
X220743D03*
X219743D03*
X218743D03*
X217743D03*
X216743D03*
X215743D03*
X214743D03*
X213743D03*
Y136381D03*
X214743D03*
X215743D03*
X216743D03*
X217743D03*
X218743D03*
X219743D03*
X220743D03*
X221743D03*
X222743D03*
X169744Y175380D03*
X170744D03*
X171744D03*
X172744D03*
X173744D03*
X174744D03*
X175744D03*
X176744D03*
X177744D03*
Y178380D03*
X176744D03*
X175744D03*
X174744D03*
X173744D03*
X172744D03*
X171744D03*
X170744D03*
X169744D03*
X168744D03*
G54D21*
X209743Y139381D03*
X191744Y183380D03*
X228743Y173380D03*
X200743Y142381D03*
Y147381D03*
X170744Y171380D03*
X222743Y139381D03*
X168744Y175380D03*
G54D22*
X166244Y176630D03*
Y177630D03*
X167744Y169380D03*
Y174380D03*
X224743Y170380D03*
Y167380D03*
X226743Y178380D03*
Y181380D03*
X227743Y178380D03*
Y181380D03*
X228743Y178380D03*
Y181380D03*
X172744Y170380D03*
X174744D03*
X170744D03*
X176744D03*
X196744Y135381D03*
X201743Y178380D03*
X224743Y132381D03*
X218743Y171380D03*
Y168380D03*
X197744Y155381D03*
X172244Y146881D03*
X228743Y183380D03*
X169744Y152881D03*
X172744D03*
X177244Y131381D03*
X174244D03*
X170244Y140381D03*
X173244D03*
X198744Y139381D03*
Y142381D03*
X213743Y172380D03*
X210743D03*
X179744Y141381D03*
X182744D03*
X198744Y150381D03*
Y153381D03*
X220743Y178380D03*
Y181380D03*
X197744Y158381D03*
X194744D03*
X200743Y173380D03*
Y176380D03*
X191744Y169380D03*
X194744D03*
X224743Y160380D03*
Y163380D03*
X219743Y178380D03*
Y181380D03*
X211743Y136381D03*
Y139381D03*
X179744Y151381D03*
X182744D03*
X208743Y155381D03*
X211743D03*
X182744Y167380D03*
X179744D03*
X172244Y150881D03*
X202243Y181380D03*
Y184380D03*
X177744Y179880D03*
X172244Y142881D03*
Y144881D03*
X176244Y129881D03*
X172244Y148881D03*
X221743Y178380D03*
Y181380D03*
X222743Y178380D03*
Y181380D03*
X223743Y178380D03*
Y181380D03*
X224743Y178380D03*
Y181380D03*
X225743Y178380D03*
Y181380D03*
X182744Y152481D03*
X215743Y180380D03*
X214743D03*
X213743D03*
X212743D03*
X211743D03*
X210743D03*
X209743D03*
X208743D03*
X207743D03*
X206743D03*
X205743D03*
X204743D03*
X216743Y179380D03*
X215743D03*
X214743D03*
X213743D03*
X212743D03*
X211743D03*
X210743D03*
X209743D03*
X208743D03*
X207743D03*
X206743D03*
X205743D03*
X204743D03*
X166744Y164380D03*
X167744Y163380D03*
Y164380D03*
X168744Y163380D03*
Y164380D03*
X169744Y163380D03*
Y164380D03*
X170744Y163380D03*
Y164380D03*
X171744Y163380D03*
Y164380D03*
X172744Y163380D03*
Y164380D03*
X173744Y163380D03*
Y164380D03*
X174744Y163380D03*
Y164380D03*
X175744Y163380D03*
Y164380D03*
X176744Y163380D03*
Y164380D03*
X177744Y163380D03*
Y164380D03*
X178744Y163380D03*
Y164380D03*
X179744Y163380D03*
Y164380D03*
X180744Y163380D03*
Y164380D03*
X181744Y163380D03*
Y164380D03*
X182744Y163380D03*
Y164380D03*
X166244Y170880D03*
Y171880D03*
Y172880D03*
Y173880D03*
Y174880D03*
X166744Y159131D03*
X167744Y158131D03*
Y159131D03*
X168744Y158131D03*
Y159131D03*
X169744Y158131D03*
Y159131D03*
X170744Y158131D03*
Y159131D03*
X171744Y158131D03*
Y159131D03*
X172744Y158131D03*
Y159131D03*
X173744Y158131D03*
Y159131D03*
X174744Y158131D03*
Y159131D03*
X175744Y158131D03*
Y159131D03*
X176744Y158131D03*
Y159131D03*
X177744Y158131D03*
Y159131D03*
X178744Y158131D03*
Y159131D03*
X179744Y158131D03*
Y159131D03*
X180744Y158131D03*
Y159131D03*
X181744Y158131D03*
Y159131D03*
X182744Y158131D03*
Y159131D03*
X183744Y158131D03*
Y159131D03*
X184744Y158131D03*
Y159131D03*
X185744Y158131D03*
Y159131D03*
X186744Y158131D03*
Y159131D03*
X187744Y158131D03*
Y159131D03*
X188744Y158131D03*
Y159131D03*
X189744Y158131D03*
Y159131D03*
X190744Y158131D03*
Y159131D03*
X218743Y167380D03*
Y166380D03*
X166744Y135131D03*
X167744Y134131D03*
Y135131D03*
X168744Y134131D03*
Y135131D03*
X169744Y134131D03*
Y135131D03*
X170744Y134131D03*
Y135131D03*
X171744Y134131D03*
Y135131D03*
X172744Y134131D03*
Y135131D03*
X173744Y134131D03*
Y135131D03*
X174744Y134131D03*
Y135131D03*
X175744Y134131D03*
Y135131D03*
X176744Y134131D03*
Y135131D03*
X177744Y134131D03*
Y135131D03*
X178744Y134131D03*
Y135131D03*
X179744Y134131D03*
Y135131D03*
X180744Y134131D03*
Y135131D03*
X181744Y134131D03*
Y135131D03*
X182744Y134131D03*
Y135131D03*
X183744Y134131D03*
Y135131D03*
X184744Y134131D03*
Y135131D03*
X185744Y134131D03*
Y135131D03*
X186744Y134131D03*
Y135131D03*
X187744Y134131D03*
Y135131D03*
X188744Y134131D03*
Y135131D03*
X189744Y134131D03*
Y135131D03*
X190744Y134131D03*
Y135131D03*
X199744Y132381D03*
X200743Y131381D03*
Y132381D03*
X201743Y131381D03*
Y132381D03*
X202743Y131381D03*
Y132381D03*
X203743Y131381D03*
Y132381D03*
X204743Y131381D03*
Y132381D03*
X205743Y131381D03*
Y132381D03*
X206743Y131381D03*
Y132381D03*
X207743Y131381D03*
Y132381D03*
X208743Y131381D03*
Y132381D03*
X209743Y131381D03*
Y132381D03*
X210743Y131381D03*
Y132381D03*
X211743Y131381D03*
Y132381D03*
X212743Y131381D03*
Y132381D03*
X213743Y131381D03*
Y132381D03*
X214743Y131381D03*
Y132381D03*
X215743Y131381D03*
Y132381D03*
X216743Y131381D03*
Y132381D03*
X217743Y131381D03*
Y132381D03*
X218743Y131381D03*
Y132381D03*
X181744Y182380D03*
X180744Y181380D03*
X181744D03*
X180744Y180380D03*
X181744D03*
X180744Y179380D03*
X181744D03*
X180744Y178380D03*
X181744D03*
X180744Y177380D03*
X181744D03*
X180744Y176380D03*
X181744D03*
X180744Y175380D03*
X181744D03*
X180744Y174380D03*
X181744D03*
X180744Y173380D03*
X181744D03*
X180744Y172380D03*
X181744D03*
X180744Y171380D03*
X181744D03*
X180744Y170380D03*
X181744D03*
X166744Y182340D03*
Y181320D03*
Y183360D03*
Y180290D03*
X167764Y183360D03*
Y180290D03*
X219743Y142381D03*
X224743D03*
X219743Y143381D03*
X224743D03*
X219743Y144381D03*
X224743D03*
X219743Y145381D03*
X224743D03*
X219743Y146381D03*
X224743D03*
X219743Y147381D03*
X224743D03*
X219743Y148381D03*
X224743D03*
X219743Y149381D03*
X224743D03*
X219743Y150381D03*
X224743D03*
X219743Y152381D03*
X224743D03*
X219743Y151381D03*
X224743D03*
X219743Y153381D03*
X224743D03*
X219743Y154381D03*
X224743D03*
X219743Y155381D03*
X224743D03*
X219743Y173380D03*
X224743D03*
X219743Y174380D03*
X224743D03*
X219743Y175380D03*
X224743D03*
X219743Y176380D03*
X224743D03*
X218743Y173380D03*
X213743D03*
X218743Y174380D03*
X213743D03*
X218743Y175380D03*
X213743D03*
X218743Y176380D03*
X213743D03*
X212743Y174380D03*
X207743D03*
X212743Y175380D03*
X207743D03*
X206743Y176380D03*
X201743D03*
X212743D03*
X207743D03*
X212743Y173380D03*
X207743D03*
X206743D03*
X201743D03*
X201243Y179380D03*
Y184380D03*
X206743Y174380D03*
X201743D03*
X206743Y175380D03*
X201743D03*
X173244Y183880D03*
X178244D03*
X200243Y184380D03*
Y179380D03*
X200743Y163380D03*
Y168380D03*
X218743Y150381D03*
Y155381D03*
X189744Y130381D03*
X194744D03*
X189744Y131381D03*
X194744D03*
X199744Y161380D03*
Y156381D03*
X189744Y129381D03*
X194744D03*
X169744Y180380D03*
X174744D03*
X173244Y182880D03*
X178244D03*
X173244Y181880D03*
X178244D03*
X174744Y179380D03*
X169744D03*
X200743Y156381D03*
Y161380D03*
X213743Y142381D03*
X218743D03*
X224743Y171380D03*
X219743D03*
X213743Y143381D03*
X218743D03*
X213743Y144381D03*
X218743D03*
X217743Y150381D03*
Y155381D03*
X213743Y145381D03*
X218743D03*
Y183380D03*
X217743D03*
X216743D03*
X215743D03*
X214743D03*
X213743D03*
X212743D03*
X211743D03*
X210743D03*
X165744Y137881D03*
X166744D03*
X167744D03*
X168744D03*
X169744D03*
X170744D03*
X171744D03*
X172744D03*
X173744D03*
X176744D03*
X177744D03*
X178744D03*
X179744D03*
X180744D03*
X181744D03*
X182744D03*
X183744D03*
X184744D03*
X208743Y140381D03*
X207743D03*
X206743D03*
X205743D03*
X204743D03*
X203743D03*
X202743D03*
X201743D03*
X200743D03*
X214743D03*
X215743D03*
X216743D03*
X217743D03*
X218743D03*
X219743D03*
X220743D03*
X221743D03*
X222743D03*
X221743Y135381D03*
X220743D03*
X219743D03*
X218743D03*
X217743D03*
X216743D03*
X215743D03*
X214743D03*
X213743D03*
X208743D03*
X207743D03*
X206743D03*
X205743D03*
X204743D03*
X203743D03*
X202743D03*
X201743D03*
X200743D03*
X167744Y167380D03*
X168744D03*
X169744D03*
X170744D03*
X171744D03*
X172744D03*
X173744D03*
X174744D03*
X175744D03*
X165744Y155381D03*
X166744D03*
X167744D03*
X168744D03*
X169744D03*
X170744D03*
X171744D03*
X172744D03*
X173744D03*
X165744Y154381D03*
X166744D03*
X167744D03*
X168744D03*
X169744D03*
X170744D03*
X171744D03*
X172744D03*
X173744D03*
X176744Y155381D03*
X177744D03*
X178744D03*
X179744D03*
X180744D03*
X181744D03*
X182744D03*
X183744D03*
X184744D03*
X176744Y154381D03*
X177744D03*
X178744D03*
X179744D03*
X180744D03*
X181744D03*
X182744D03*
X183744D03*
X184744D03*
X165744Y138881D03*
X166744D03*
X167744D03*
X168744D03*
X169744D03*
X170744D03*
X171744D03*
X172744D03*
X173744D03*
X176744D03*
X177744D03*
X178744D03*
X179744D03*
X180744D03*
X181744D03*
X182744D03*
X183744D03*
X184744D03*
X225743Y165380D03*
X224743Y164380D03*
X225743Y158381D03*
X224743Y157381D03*
X222743Y164380D03*
X219743D03*
Y158381D03*
X222743Y170380D03*
X220743D03*
X179744Y143381D03*
X182744D03*
Y149381D03*
X194744Y160380D03*
X197744D03*
Y166380D03*
X168744Y174380D03*
Y171380D03*
X225743Y150381D03*
Y155381D03*
X189744Y137381D03*
X194744D03*
X206943Y183980D03*
X207943Y182980D03*
G54D23*
X172744Y169380D03*
X174744D03*
X170744D03*
X176744D03*
X196744Y136381D03*
X200743Y178380D03*
X224743Y133381D03*
X197744Y156381D03*
X171244Y146881D03*
X227743Y183380D03*
X171244Y150881D03*
X176744Y179880D03*
X171244Y142881D03*
Y144881D03*
X175244Y129881D03*
X171244Y148881D03*
X177744Y152481D03*
X216743Y180380D03*
X166744Y163380D03*
X166244Y169880D03*
X166744Y158131D03*
Y134131D03*
X199744Y131381D03*
X180744Y182380D03*
X219743Y183380D03*
X164744Y137881D03*
X175744D03*
X209743Y140381D03*
X213743D03*
X222743Y135381D03*
X209743D03*
X166744Y167380D03*
X164744Y155381D03*
Y154381D03*
X175744Y155381D03*
Y154381D03*
X164744Y138881D03*
X175744D03*
X224743Y166380D03*
Y159381D03*
X222743Y158381D03*
X179744Y149381D03*
X194744Y166380D03*
X205943Y182980D03*
G54D26*
X228243Y176630D03*
G54D30*
X164884Y181830D03*
G54D32*
X182244Y130381D03*
X184244D03*
X186244D03*
G54D33*
X180244D03*
G54D40*
X170744Y130881D03*
X224743Y184380D03*
Y129381D03*
X170744Y183380D03*
G54D44*
X228243Y154631D03*
Y132631D03*
M02*