G04 DipTrace 1.50*
%INTop Mask.gbr*%
%MOIN*%
%ADD10C,0.01*%
%ADD11C,0.005*%
%ADD12C,0.003*%
%ADD13C,0.008*%
%ADD14C,0.016*%
%ADD15C,0.039*%
%ADD16C,0.02*%
%ADD17C,0.032*%
%ADD18C,0.0098*%
%ADD19C,0.05*%
%ADD20C,0.06*%
%ADD21C,0.025*%
%ADD22C,0.015*%
%ADD23R,0.045X0.05*%
%ADD24R,0.05X0.045*%
%ADD25R,0.045X0.06*%
%ADD26R,0.06X0.045*%
%ADD27C,0.07*%
%ADD28R,0.07X0.07*%
%ADD29R,0.08X0.08*%
%ADD30C,0.0591*%
%ADD31R,0.032X0.032*%
%ADD32C,0.085*%
%ADD33C,0.2*%
%ADD34R,0.0335X0.0197*%
%ADD35R,0.11X0.085*%
%ADD36R,0.05X0.025*%
%ADD37R,0.06X0.025*%
%ADD38R,0.084X0.03*%
%ADD39R,0.0689X0.0197*%
%ADD40R,0.0787X0.0197*%
%ADD41R,0.0197X0.0689*%
%ADD42R,0.0197X0.0787*%
%ADD43C,0.045*%
%ADD44C,0.115*%
%ADD45C,0.035*%
%ADD46C,0.0354*%
%ADD47C,0.055*%
%ADD48R,0.0297X0.0887*%
%ADD49R,0.0097X0.0687*%
%ADD50R,0.0297X0.0789*%
%ADD51R,0.0097X0.0589*%
%ADD52R,0.0887X0.0297*%
%ADD53R,0.0687X0.0097*%
%ADD54R,0.0789X0.0297*%
%ADD55R,0.0589X0.0097*%
%ADD56R,0.094X0.04*%
%ADD57R,0.074X0.02*%
%ADD58R,0.07X0.035*%
%ADD59R,0.05X0.015*%
%ADD60R,0.06X0.035*%
%ADD61R,0.04X0.015*%
%ADD62R,0.12X0.095*%
%ADD63R,0.1X0.075*%
%ADD64R,0.0435X0.0297*%
%ADD65R,0.0235X0.0097*%
%ADD66C,0.21*%
%ADD67C,0.19*%
%ADD68C,0.095*%
%ADD69C,0.075*%
%ADD70R,0.042X0.042*%
%ADD71R,0.022X0.022*%
%ADD72C,0.07*%
%ADD73C,0.0691*%
%ADD74C,0.0491*%
%ADD75C,0.04*%
%ADD76R,0.09X0.09*%
%ADD77R,0.06X0.06*%
%ADD78C,0.08*%
%ADD79C,0.06*%
%ADD80R,0.07X0.055*%
%ADD81R,0.05X0.035*%
%ADD82R,0.055X0.07*%
%ADD83R,0.035X0.05*%
%ADD84R,0.06X0.055*%
%ADD85R,0.04X0.035*%
%ADD86R,0.055X0.06*%
%ADD87R,0.035X0.04*%
%ADD88C,0.0087*%
%FSLAX44Y44*%
%SFA1B1*%
%OFA0B0*%
G04*
G70*
G90*
G75*
G01*
%LNTopMask*%
%LPD*%
D47*
X22680Y14280D3*
Y17580D3*
X37941Y8060D3*
X30321Y9680D3*
X18400Y6640D3*
Y8980D3*
X12460Y19820D3*
X29181Y7440D3*
X15180Y20540D3*
X19220Y18740D3*
X37441Y16980D3*
Y11740D3*
X31061Y18060D3*
X31121Y18720D3*
X31861Y7280D3*
X33001D3*
X30321Y18720D3*
Y13200D3*
X29801Y15480D3*
X33261Y15720D3*
X24200Y18760D3*
X36681Y18080D3*
X17220Y24801D3*
X15200D3*
X22861Y21120D3*
X14680Y23141D3*
Y20020D3*
X23501Y14240D3*
X13200Y24961D3*
X15580Y15500D3*
X14680Y23681D3*
X12720Y24241D3*
X36621Y10080D3*
X36681Y18660D3*
X21640Y12540D3*
X30001Y12480D3*
X14820Y16160D3*
X32541Y17760D3*
X34741Y10900D3*
Y15720D3*
X12940Y21660D3*
X36681Y16800D3*
X34221Y16760D3*
X37841Y13240D3*
X30321Y8620D3*
X14760Y18760D3*
X15180Y17000D3*
X37761Y10500D3*
X30321Y6380D3*
X34221Y17400D3*
X37441Y11080D3*
X10720Y20340D3*
X16980Y23141D3*
X13400Y21000D3*
X16040Y21240D3*
X36621Y9540D3*
X35221Y17600D3*
X30420Y10320D3*
X30681Y17680D3*
X33221Y9740D3*
Y8640D3*
X9520Y7080D3*
Y14200D3*
X34541Y19860D3*
X40461Y22361D3*
X34861Y18220D3*
X40821Y16220D3*
X33441Y18300D3*
X39401Y19740D3*
X35121Y8500D3*
Y16140D3*
X18000Y14740D3*
X28440Y14540D3*
X29140Y14120D3*
X33040Y14180D3*
X36621Y9000D3*
X36681Y16180D3*
X31041Y15820D3*
X20640Y5720D3*
X9880Y7620D3*
D86*
X39680Y12520D3*
X39000D3*
D84*
X9750Y25500D3*
Y24820D3*
D86*
X10750Y22500D3*
X10070D3*
D82*
X7800Y7800D3*
X8382D3*
D80*
X15400Y11450D3*
Y12032D3*
X15950Y10000D3*
Y10582D3*
D82*
X20430Y12000D3*
X21012D3*
D84*
X15500Y18250D3*
Y18930D3*
D86*
X32000Y9750D3*
X32680D3*
D80*
X15950Y8500D3*
Y9082D3*
D86*
X12750Y19250D3*
X12070D3*
D84*
X29750Y6750D3*
Y7430D3*
D78*
X7000Y21000D3*
D29*
X10752D3*
D78*
X7000Y18250D3*
D29*
X10752D3*
D44*
X5000Y5000D3*
Y26500D3*
X41500D3*
Y5000D3*
D76*
X5000Y21750D3*
Y20750D3*
X8000Y5000D3*
X9000D3*
X10000D3*
X11000D3*
X12000D3*
X13000D3*
X14000D3*
X15000D3*
X16000D3*
X17000D3*
X18000D3*
X19000D3*
X20000D3*
X21000D3*
X22000D3*
X23000D3*
X5000Y19000D3*
Y18000D3*
D20*
X31500Y6000D3*
X32000Y6350D3*
X32500Y6000D3*
X33000Y6350D3*
X33500Y6000D3*
X34000Y6350D3*
D76*
X41250Y15500D3*
Y14500D3*
Y13500D3*
Y12500D3*
Y23750D3*
Y22750D3*
Y21750D3*
Y20750D3*
Y19750D3*
Y18750D3*
Y17750D3*
X5000Y11500D3*
Y10500D3*
Y9500D3*
Y23500D3*
Y24500D3*
Y7750D3*
Y6750D3*
Y16250D3*
Y15250D3*
Y14250D3*
Y13250D3*
D73*
X25040Y24280D3*
D72*
X15850Y6640D3*
X15970Y7860D3*
X13990Y8240D3*
X29300Y11500D3*
X23140Y11520D3*
X16740Y14520D3*
X12000Y13100D3*
X23240Y7860D3*
X38840Y6120D3*
X36780Y5860D3*
X10300Y13100D3*
D73*
X40160Y6160D3*
X36920Y4640D3*
X28800Y13040D3*
D72*
X7400Y13200D3*
Y15100D3*
X22400Y24200D3*
X38420Y13420D3*
X32820Y11500D3*
X13000Y16750D3*
X13990Y6640D3*
D70*
X20500Y20500D3*
X19700D3*
X20100Y19630D3*
X20500Y18750D3*
X19700D3*
X20100Y17880D3*
D68*
X21000Y24250D3*
Y25250D3*
Y23250D3*
D66*
X27260Y24250D3*
D86*
X32680Y8640D3*
X32000D3*
D84*
X14250Y21250D3*
Y20570D3*
D86*
X18100Y19700D3*
X18780D3*
X18750Y18000D3*
X18070D3*
X21750Y18750D3*
X22430D3*
X21750Y20500D3*
X22430D3*
D82*
X8600Y9100D3*
X8018D3*
D86*
X8500Y19750D3*
X9180D3*
X20940Y21520D3*
X20260D3*
D84*
X38000Y11750D3*
Y11070D3*
D86*
X8300Y15900D3*
X8980D3*
X8300Y14200D3*
X8980D3*
X23500Y20500D3*
X24180D3*
X39450Y7600D3*
X38770D3*
X25420Y14460D3*
X26100D3*
X27750Y15500D3*
X28430D3*
D84*
X18500Y21750D3*
Y22430D3*
D64*
X12000Y21250D3*
Y20876D3*
Y20541D3*
X12925D3*
Y21250D3*
D62*
X10800Y16900D3*
Y15150D3*
D84*
X18500Y24000D3*
Y24680D3*
D62*
X40850Y10700D3*
Y8950D3*
D60*
X17200Y12000D3*
Y11500D3*
Y11000D3*
Y10500D3*
Y10000D3*
Y9500D3*
Y9000D3*
Y8500D3*
X19200D3*
Y9000D3*
Y9500D3*
Y10000D3*
Y10500D3*
Y11000D3*
Y11500D3*
Y12000D3*
D58*
X36000Y10000D3*
Y9500D3*
Y9000D3*
Y8500D3*
X38000Y10000D3*
Y9500D3*
Y9000D3*
Y8500D3*
D56*
X13940Y24960D3*
Y24360D3*
Y23760D3*
Y23160D3*
X16240D3*
Y23760D3*
Y24360D3*
Y24960D3*
D54*
X31780Y18660D3*
D52*
X31829Y18345D3*
Y18030D3*
Y17715D3*
Y17400D3*
Y17085D3*
Y16770D3*
Y16455D3*
Y16140D3*
Y15825D3*
D54*
X31780Y15510D3*
D50*
X32321Y14969D3*
D48*
X32636Y15018D3*
X32951D3*
X33266D3*
X33581D3*
X33896D3*
X34211D3*
X34526D3*
X34841D3*
X35156D3*
D50*
X35471Y14969D3*
D54*
X36012Y15510D3*
D52*
X35963Y15825D3*
Y16140D3*
Y16455D3*
Y16770D3*
Y17085D3*
Y17400D3*
Y17715D3*
Y18030D3*
Y18345D3*
D54*
X36012Y18660D3*
D50*
X35471Y19201D3*
D48*
X35156Y19152D3*
X34841D3*
X34526D3*
X34211D3*
X33896D3*
X33581D3*
X33266D3*
X32951D3*
X32636D3*
D50*
X32321Y19201D3*
M02*
