G04 DipTrace 1.50*
%INTop.gbr*%
%MOIN*%
%ADD10C,0.01*%
%ADD11C,0.005*%
%ADD12C,0.003*%
%ADD13C,0.008*%
%ADD14C,0.016*%
%ADD15C,0.039*%
%ADD16C,0.02*%
%ADD17C,0.032*%
%ADD18C,0.0098*%
%ADD19C,0.05*%
%ADD20C,0.06*%
%ADD21C,0.025*%
%ADD22C,0.015*%
%ADD23R,0.045X0.05*%
%ADD24R,0.05X0.045*%
%ADD25R,0.045X0.06*%
%ADD26R,0.06X0.045*%
%ADD27C,0.07*%
%ADD28R,0.07X0.07*%
%ADD29R,0.08X0.08*%
%ADD30C,0.0591*%
%ADD31R,0.032X0.032*%
%ADD32C,0.085*%
%ADD33C,0.2*%
%ADD34R,0.0335X0.0197*%
%ADD35R,0.11X0.085*%
%ADD36R,0.05X0.025*%
%ADD37R,0.06X0.025*%
%ADD38R,0.084X0.03*%
%ADD39R,0.0689X0.0197*%
%ADD40R,0.0787X0.0197*%
%ADD41R,0.0197X0.0689*%
%ADD42R,0.0197X0.0787*%
%ADD43C,0.045*%
%ADD44C,0.115*%
%ADD45C,0.035*%
%ADD46C,0.0354*%
%ADD47C,0.055*%
%ADD48R,0.0297X0.0887*%
%ADD49R,0.0097X0.0687*%
%ADD50R,0.0297X0.0789*%
%ADD51R,0.0097X0.0589*%
%ADD52R,0.0887X0.0297*%
%ADD53R,0.0687X0.0097*%
%ADD54R,0.0789X0.0297*%
%ADD55R,0.0589X0.0097*%
%ADD56R,0.094X0.04*%
%ADD57R,0.074X0.02*%
%ADD58R,0.07X0.035*%
%ADD59R,0.05X0.015*%
%ADD60R,0.06X0.035*%
%ADD61R,0.04X0.015*%
%ADD62R,0.12X0.095*%
%ADD63R,0.1X0.075*%
%ADD64R,0.0435X0.0297*%
%ADD65R,0.0235X0.0097*%
%ADD66C,0.21*%
%ADD67C,0.19*%
%ADD68C,0.095*%
%ADD69C,0.075*%
%ADD70R,0.042X0.042*%
%ADD71R,0.022X0.022*%
%ADD72C,0.07*%
%ADD73C,0.0691*%
%ADD74C,0.0491*%
%ADD75C,0.04*%
%ADD76R,0.09X0.09*%
%ADD77R,0.06X0.06*%
%ADD78C,0.08*%
%ADD79C,0.06*%
%ADD80R,0.07X0.055*%
%ADD81R,0.05X0.035*%
%ADD82R,0.055X0.07*%
%ADD83R,0.035X0.05*%
%ADD84R,0.06X0.055*%
%ADD85R,0.04X0.035*%
%ADD86R,0.055X0.06*%
%ADD87R,0.035X0.04*%
%ADD88C,0.0087*%
%FSLAX44Y44*%
%SFA1B1*%
%OFA0B0*%
G04*
G70*
G90*
G75*
G01*
%LNTop*%
%LPD*%
X35221Y17600D2*
D13*
Y18180D1*
X35381Y18340D1*
X35961D1*
X36621Y9540D2*
X36581Y9500D1*
X36001D1*
X30421Y10320D2*
X32501D1*
X32681Y10140D1*
Y9750D1*
X33221Y8640D2*
X32681D1*
X30681Y17680D2*
X30711Y17710D1*
X31831D1*
X32681Y9750D2*
X33211D1*
X33221Y9740D1*
X8980Y15900D2*
D10*
X11760D1*
X12440Y15220D1*
Y14320D1*
X13680Y13080D1*
X22060D1*
X22240Y12900D1*
Y11500D1*
X22741Y11000D1*
X33851D1*
Y12120D1*
X38801D1*
X38981Y11940D1*
Y11040D1*
X40441D1*
X40781Y10700D1*
X40850D1*
X38771Y7600D2*
Y8670D1*
X38441Y9000D1*
X38601D1*
X38981Y9380D1*
Y11940D1*
X38441Y9000D2*
X38001D1*
X40850Y10700D2*
X40851D1*
Y8950D2*
X39641D1*
X39451Y8760D1*
Y7600D1*
X9520Y14200D2*
X8980D1*
X39451Y7600D2*
Y7040D1*
X37621D1*
X36861Y7800D1*
Y8000D1*
X28461D1*
X27541Y7080D1*
X9520D1*
X36861Y7800D2*
X37021Y7960D1*
Y9320D1*
X37201Y9500D1*
X38001D1*
X41251Y23751D2*
X40461Y22961D1*
Y22361D1*
X34541Y19860D2*
X34531Y19850D1*
Y19150D1*
X34861Y18220D2*
D14*
X34841Y18240D1*
Y19150D1*
X41251Y13500D2*
D10*
X40701Y14050D1*
Y16040D1*
X40821Y16220D1*
X40701Y16040D1*
X40821D1*
Y16220D1*
X40701Y16040D1*
X40821Y16220D1*
Y16860D1*
X39061D1*
X38001Y17920D1*
Y19560D1*
X37621Y19940D1*
X35341D1*
X35161Y19760D1*
Y19150D1*
X40821Y16220D2*
X40701Y16040D1*
X40821Y16220D1*
X32321Y19200D2*
Y20560D1*
X32511Y20750D1*
X41251D1*
X33441Y18300D2*
X32821D1*
X32641Y18480D1*
Y19150D1*
X39401Y19740D2*
X39411Y19750D1*
X41251D1*
X32951Y19150D2*
Y20220D1*
X33251Y20520D1*
X38301D1*
X38611Y20210D1*
Y19450D1*
X39311Y18750D1*
X41251D1*
X33271Y19150D2*
Y20040D1*
X33531Y20300D1*
X37721D1*
X38301Y19720D1*
Y18660D1*
X39211Y17750D1*
X41251D1*
X35121Y16140D2*
D13*
X35961D1*
X35121Y8500D2*
X36001D1*
X18000Y14740D2*
D14*
Y14980D1*
X31781D1*
Y15510D1*
X28441Y14540D2*
D13*
X32081D1*
X32321Y14780D1*
Y14970D1*
X29141Y14120D2*
D10*
X32261D1*
X32641Y14500D1*
Y15020D1*
X33041Y14180D2*
X32951Y14269D1*
Y15020D1*
X36621Y9000D2*
D13*
X36001D1*
X36681Y16180D2*
Y16230D1*
X36461Y16450D1*
X35961D1*
X31041Y15820D2*
D14*
X31831D1*
X20640Y5720D2*
Y5960D1*
X13320D1*
X13000Y5640D1*
Y5000D1*
X17200Y8500D2*
D15*
X17740D1*
X18380Y7860D1*
X23241D1*
X23140Y11520D2*
X29301Y11500D1*
X34001Y6350D2*
X35241D1*
X35731Y5860D1*
X36781D1*
X38841Y6120D2*
X40120D1*
X40160Y6160D1*
X9880Y7620D2*
X9700Y7800D1*
X8380D1*
X19700Y20500D2*
Y21520D1*
X20260D1*
X15180Y20540D2*
X15780D1*
X17580Y18740D1*
X19220D1*
X29181Y7440D2*
X29751D1*
X13990Y6640D2*
X15850D1*
X15970Y7860D2*
Y8500D1*
X12000Y13100D2*
X10300D1*
X38421Y13420D2*
X39681D1*
Y12520D1*
X12000Y20880D2*
D16*
X12460D1*
D15*
Y19820D1*
X29301Y11500D2*
X32821D1*
X10300Y13100D2*
X9000D1*
X8900Y13200D1*
X7400D1*
X8000Y5000D2*
Y5580D1*
X8460Y6040D1*
X10000D1*
Y5000D1*
X12070Y19250D2*
Y18250D1*
X15500D1*
X18400Y8980D2*
X17740D1*
Y8500D1*
X29301Y11500D2*
X28801Y12000D1*
Y13040D1*
X36920Y4640D2*
D3*
X36781Y5860D2*
Y4779D1*
X36920Y4640D1*
X40160Y6160D2*
D3*
X10000Y6040D2*
X12000D1*
Y5000D1*
X5000Y6750D2*
X5310D1*
X6040Y6020D1*
X7780D1*
X8000Y5800D1*
Y5000D1*
X8380Y7800D2*
Y6750D1*
X5000D1*
X25040Y24280D2*
D3*
X22401Y24201D2*
X24961D1*
X25040Y24280D1*
X21000Y24250D2*
X21049Y24201D1*
X22401D1*
X21000Y24251D2*
D3*
X20260Y21520D2*
Y23511D1*
X21000Y24251D1*
X19220Y18740D2*
D17*
X19700Y18750D1*
X15850Y6640D2*
D15*
X18400D1*
X30321Y9680D2*
X30391Y9750D1*
X32001D1*
X37941Y8060D2*
Y8230D1*
X38001Y8280D1*
Y8500D1*
X10300Y13100D2*
Y13680D1*
X10800Y14180D1*
Y15150D1*
X39681Y12520D2*
Y11900D1*
X40161Y11420D1*
X41251D1*
Y12500D1*
X10070Y22501D2*
X5000D1*
Y21750D1*
X10070Y22500D2*
D3*
X12070Y19250D2*
X10640D1*
X9860Y20030D1*
Y22500D1*
X10070D1*
X12460Y19820D2*
X12290D1*
X12070Y19600D1*
Y19250D1*
X7800Y7800D2*
D14*
Y8260D1*
X8340D1*
X8600Y8520D1*
Y9100D1*
X37441Y16980D2*
Y19480D1*
X37201Y19720D1*
X35471D1*
Y19200D1*
X37441Y11740D2*
X38001D1*
X8600Y9100D2*
X14980D1*
X15240Y8840D1*
Y7540D1*
X15480Y7300D1*
X26901D1*
X28841Y9240D1*
X34901D1*
X35141Y9480D1*
Y11500D1*
X35381Y11740D1*
X37441D1*
X31061Y18060D2*
D13*
Y18120D1*
X31281Y18340D1*
X31831D1*
X31861Y7280D2*
X33001D1*
X31121Y18720D2*
X31181Y18660D1*
X31781D1*
X30321Y13200D2*
X35311D1*
X35471Y13360D1*
Y14970D1*
X30321Y18720D2*
X28541Y20500D1*
X24181D1*
X33261Y15720D2*
X33271Y15020D1*
X29801Y15480D2*
X29781Y15500D1*
X28431D1*
X26101Y14460D2*
X26441D1*
X27161Y13740D1*
X33581D1*
Y15020D1*
X36681Y18080D2*
D10*
X36631Y18030D1*
X35963D1*
X24200Y18760D2*
X24210Y18750D1*
X22430D1*
X35963Y15825D2*
D18*
X36495D1*
X36700Y15620D1*
Y13060D1*
X36460Y12820D1*
X30120D1*
X29900Y13040D1*
Y13200D1*
X29580Y13520D1*
X23440D1*
X22680Y14280D1*
Y17580D2*
X23120Y18020D1*
X24280D1*
X24660Y18400D1*
Y19320D1*
X24380Y19600D1*
X22860D1*
X22460Y20000D1*
Y20470D1*
X22430Y20500D1*
X8300Y15900D2*
D13*
X6790D1*
X6140Y15250D1*
X5000D1*
Y24501D2*
D15*
Y25181D1*
X7460D1*
X7780Y25501D1*
X9750D1*
X17220Y24801D2*
X17340Y24681D1*
X18500D1*
X15200Y24801D2*
Y24521D1*
X15360Y24361D1*
X16240D1*
X9750Y25501D2*
X14500D1*
X15200Y24801D1*
X8300Y14200D2*
D13*
X5850D1*
X5800Y14250D1*
X5000D1*
X18500Y24001D2*
D15*
X17700D1*
Y23101D1*
X17220Y22621D1*
X12940D1*
X11700Y23861D1*
X9750D1*
Y24821D1*
X12940Y22621D2*
X16240D1*
Y23161D1*
X9750Y23861D2*
X9390Y23501D1*
X5000D1*
X12750Y19250D2*
D13*
D3*
X12925Y20541D2*
X12920D1*
X12750Y19250D2*
X12970D1*
Y20541D1*
X12925D1*
X15400Y12030D2*
X17200D1*
Y12000D1*
X15400Y11450D2*
Y11000D1*
X17200D1*
X15950Y10580D2*
X17200D1*
Y10500D1*
X15950Y10000D2*
X17200D1*
X21010Y12000D2*
Y10420D1*
X20840Y10250D1*
X18170D1*
X17740Y10680D1*
Y11500D1*
X17200D1*
X15950Y9080D2*
Y9500D1*
X17200D1*
X20430Y12000D2*
X19200D1*
Y11000D2*
D14*
X18760D1*
X18500Y11260D1*
Y12420D1*
X18100Y12820D1*
X13440D1*
X12120Y11500D1*
X5000D1*
X20940Y21520D2*
X22461D1*
X22861Y21120D1*
X23501D1*
Y20500D1*
X19200Y10500D2*
X18600D1*
X18060Y11040D1*
Y11900D1*
X17420Y12540D1*
X14840D1*
X12800Y10500D1*
X5000D1*
X18100Y19700D2*
Y20360D1*
X18920Y21180D1*
Y22431D1*
X18500D1*
Y23021D1*
X19160Y23681D1*
Y24961D1*
X18920Y25201D1*
X17060D1*
X16820Y24961D1*
X16240D1*
X14250Y20570D2*
X14680D1*
Y20020D1*
Y23141D2*
X14660Y23161D1*
X13940D1*
X14680Y20020D2*
X15260D1*
X17700Y17580D1*
X18750D1*
Y18000D1*
X20100Y19630D2*
D13*
X18780D1*
Y19700D1*
X20100Y17880D2*
X19600Y18380D1*
X18070D1*
Y18000D1*
X20500Y18750D2*
X21750D1*
X20500Y20500D2*
X21750D1*
X13200Y24961D2*
D14*
X13940D1*
X23501Y14240D2*
Y14460D1*
X25421D1*
X8020Y9100D2*
D13*
X7070D1*
X5720Y7750D1*
X5000D1*
X15580Y15500D2*
D14*
X27751D1*
X14680Y23681D2*
X14600Y23761D1*
X13940D1*
X12720Y24241D2*
D19*
X12840Y24361D1*
X13940D1*
X5000Y18000D2*
D13*
X6130D1*
X6380Y18250D1*
X7000D1*
X8330D1*
X8500Y18420D1*
Y19750D1*
X36681Y18660D2*
X36011D1*
X36621Y10080D2*
X36541Y10000D1*
X36001D1*
X30001Y12480D2*
D10*
X36861D1*
X37041Y12660D1*
Y17530D1*
X36861Y17710D1*
X35961D1*
X21640Y12540D2*
X21620D1*
Y10420D1*
X21200Y10000D1*
X19200D1*
X31829Y16140D2*
X31831D1*
X14820Y16160D2*
X14830Y16170D1*
X27091D1*
X27521Y16600D1*
X30921D1*
X31351Y16170D1*
X31829D1*
Y16140D1*
X32541Y17760D2*
D13*
Y17810D1*
X32321Y18030D1*
X31831D1*
X34741Y15720D2*
D10*
X35281D1*
X35491Y15510D1*
X36011D1*
X34741Y10900D2*
Y10740D1*
X29801D1*
X28561Y9500D1*
X19200D1*
X15180Y17000D2*
X30861D1*
X31261Y17400D1*
X31831D1*
X29751Y6750D2*
X30101D1*
X30321Y6530D1*
Y6380D1*
X35961Y17400D2*
X36621D1*
X36681Y17340D1*
Y16800D1*
X38001Y10000D2*
X38441D1*
Y10320D1*
X38261Y10500D1*
X37761D1*
X14760Y18760D2*
X14930Y18930D1*
X15500D1*
X37841Y13240D2*
X38181Y12900D1*
X39001D1*
Y12520D1*
X12940Y21660D2*
Y21250D1*
X12925D1*
X37441Y11080D2*
X37451Y11070D1*
X38001D1*
X34221Y17400D2*
X34211Y17410D1*
Y19150D1*
X31831Y17400D2*
X34221D1*
X32000Y6350D2*
D3*
X30321Y6380D2*
X31970D1*
X32000Y6350D1*
X34221Y16760D2*
X33901Y16440D1*
Y15020D1*
X35961Y16770D2*
X34771D1*
X34761Y16760D1*
X34221D1*
X36681Y16800D2*
X36651Y16770D1*
X35961D1*
X32001Y8640D2*
X30341D1*
X30321Y8620D1*
X37761Y10500D2*
X35541D1*
X35361Y10320D1*
Y9200D1*
X35181Y9020D1*
X32001D1*
Y8640D1*
X12925Y21250D2*
X12920D1*
X7000Y21000D2*
D20*
X6030D1*
X5780Y20750D1*
X5000D1*
X10750Y22501D2*
D15*
Y21000D1*
X13400D2*
X13650Y21250D1*
X14250D1*
X5000Y16250D2*
X5650Y16900D1*
X10800D1*
X16980Y23141D2*
Y23601D1*
X16820Y23761D1*
X16240D1*
X10800Y16900D2*
X11960D1*
X12110Y16750D1*
X13000D1*
X12000Y20540D2*
D16*
Y20160D1*
X10720D1*
Y20340D1*
X12000Y21250D2*
X11420D1*
Y20540D1*
X12000D1*
X10750Y21000D2*
X11000Y21250D1*
X12000D1*
X16040D2*
D15*
X16540Y21750D1*
X18500D1*
X14250Y21250D2*
X16040D1*
X10750Y18250D2*
X9350D1*
X9180Y18420D1*
Y19750D1*
X10752Y18250D2*
X10750D1*
X10800Y16900D2*
Y18202D1*
X10752Y18250D1*
D43*
X22680Y14280D3*
Y17580D3*
X37941Y8060D3*
X30321Y9680D3*
X18400Y6640D3*
Y8980D3*
X12460Y19820D3*
X29181Y7440D3*
X15180Y20540D3*
X19220Y18740D3*
X37441Y16980D3*
Y11740D3*
X31061Y18060D3*
X31121Y18720D3*
X31861Y7280D3*
X33001D3*
X30321Y18720D3*
Y13200D3*
X29801Y15480D3*
X33261Y15720D3*
X24200Y18760D3*
X36681Y18080D3*
X17220Y24801D3*
X15200D3*
X22861Y21120D3*
X14680Y23141D3*
Y20020D3*
X23501Y14240D3*
X13200Y24961D3*
X15580Y15500D3*
X14680Y23681D3*
X12720Y24241D3*
X36621Y10080D3*
X36681Y18660D3*
X21640Y12540D3*
X30001Y12480D3*
X14820Y16160D3*
X32541Y17760D3*
X34741Y10900D3*
Y15720D3*
X12940Y21660D3*
X36681Y16800D3*
X34221Y16760D3*
X37841Y13240D3*
X30321Y8620D3*
X14760Y18760D3*
X15180Y17000D3*
X37761Y10500D3*
X30321Y6380D3*
X34221Y17400D3*
X37441Y11080D3*
X10720Y20340D3*
X16980Y23141D3*
X13400Y21000D3*
X16040Y21240D3*
X36621Y9540D3*
X35221Y17600D3*
X30420Y10320D3*
X30681Y17680D3*
X33221Y9740D3*
Y8640D3*
X9520Y7080D3*
Y14200D3*
X34541Y19860D3*
X40461Y22361D3*
X34861Y18220D3*
X40821Y16220D3*
X33441Y18300D3*
X39401Y19740D3*
X35121Y8500D3*
Y16140D3*
X18000Y14740D3*
X28440Y14540D3*
X29140Y14120D3*
X33040Y14180D3*
X36621Y9000D3*
X36681Y16180D3*
X31041Y15820D3*
X20640Y5720D3*
X9880Y7620D3*
D23*
X39680Y12520D3*
X39000D3*
D24*
X9750Y25500D3*
Y24820D3*
D23*
X10750Y22500D3*
X10070D3*
D25*
X7800Y7800D3*
X8382D3*
D26*
X15400Y11450D3*
Y12032D3*
X15950Y10000D3*
Y10582D3*
D25*
X20430Y12000D3*
X21012D3*
D24*
X15500Y18250D3*
Y18930D3*
D23*
X32000Y9750D3*
X32680D3*
D26*
X15950Y8500D3*
Y9082D3*
D23*
X12750Y19250D3*
X12070D3*
D24*
X29750Y6750D3*
Y7430D3*
D27*
X7000Y21000D3*
D28*
X10752D3*
D27*
X7000Y18250D3*
D28*
X10752D3*
D29*
X5000Y21750D3*
Y20750D3*
X8000Y5000D3*
X9000D3*
X10000D3*
X11000D3*
X12000D3*
X13000D3*
X14000D3*
X15000D3*
X16000D3*
X17000D3*
X18000D3*
X19000D3*
X20000D3*
X21000D3*
X22000D3*
X23000D3*
X5000Y19000D3*
Y18000D3*
D19*
X31500Y6000D3*
X32000Y6350D3*
X32500Y6000D3*
X33000Y6350D3*
X33500Y6000D3*
X34000Y6350D3*
D29*
X41250Y15500D3*
Y14500D3*
Y13500D3*
Y12500D3*
Y23750D3*
Y22750D3*
Y21750D3*
Y20750D3*
Y19750D3*
Y18750D3*
Y17750D3*
X5000Y11500D3*
Y10500D3*
Y9500D3*
Y23500D3*
Y24500D3*
Y7750D3*
Y6750D3*
Y16250D3*
Y15250D3*
Y14250D3*
Y13250D3*
D30*
X25040Y24280D3*
D20*
X15850Y6640D3*
X15970Y7860D3*
X13990Y8240D3*
X29300Y11500D3*
X23140Y11520D3*
X16740Y14520D3*
X12000Y13100D3*
X23240Y7860D3*
X38840Y6120D3*
X36780Y5860D3*
X10300Y13100D3*
D30*
X40160Y6160D3*
X36920Y4640D3*
X28800Y13040D3*
D20*
X7400Y13200D3*
Y15100D3*
X22400Y24200D3*
X38420Y13420D3*
X32820Y11500D3*
X13000Y16750D3*
X13990Y6640D3*
D31*
X20500Y20500D3*
X19700D3*
X20100Y19630D3*
X20500Y18750D3*
X19700D3*
X20100Y17880D3*
D32*
X21000Y24250D3*
Y25250D3*
Y23250D3*
D33*
X27260Y24250D3*
D23*
X32680Y8640D3*
X32000D3*
D24*
X14250Y21250D3*
Y20570D3*
D23*
X18100Y19700D3*
X18780D3*
X18750Y18000D3*
X18070D3*
X21750Y18750D3*
X22430D3*
X21750Y20500D3*
X22430D3*
D25*
X8600Y9100D3*
X8018D3*
D23*
X8500Y19750D3*
X9180D3*
X20940Y21520D3*
X20260D3*
D24*
X38000Y11750D3*
Y11070D3*
D23*
X8300Y15900D3*
X8980D3*
X8300Y14200D3*
X8980D3*
X23500Y20500D3*
X24180D3*
X39450Y7600D3*
X38770D3*
X25420Y14460D3*
X26100D3*
X27750Y15500D3*
X28430D3*
D24*
X18500Y21750D3*
Y22430D3*
D34*
X12000Y21250D3*
Y20876D3*
Y20541D3*
X12925D3*
Y21250D3*
D35*
X10800Y16900D3*
Y15150D3*
D24*
X18500Y24000D3*
Y24680D3*
D35*
X40850Y10700D3*
Y8950D3*
D36*
X17200Y12000D3*
Y11500D3*
Y11000D3*
Y10500D3*
Y10000D3*
Y9500D3*
Y9000D3*
Y8500D3*
X19200D3*
Y9000D3*
Y9500D3*
Y10000D3*
Y10500D3*
Y11000D3*
Y11500D3*
Y12000D3*
D37*
X36000Y10000D3*
Y9500D3*
Y9000D3*
Y8500D3*
X38000Y10000D3*
Y9500D3*
Y9000D3*
Y8500D3*
D38*
X13940Y24960D3*
Y24360D3*
Y23760D3*
Y23160D3*
X16240D3*
Y23760D3*
Y24360D3*
Y24960D3*
D39*
X31780Y18660D3*
D40*
X31829Y18345D3*
Y18030D3*
Y17715D3*
Y17400D3*
Y17085D3*
Y16770D3*
Y16455D3*
Y16140D3*
Y15825D3*
D39*
X31780Y15510D3*
D41*
X32321Y14969D3*
D42*
X32636Y15018D3*
X32951D3*
X33266D3*
X33581D3*
X33896D3*
X34211D3*
X34526D3*
X34841D3*
X35156D3*
D41*
X35471Y14969D3*
D39*
X36012Y15510D3*
D40*
X35963Y15825D3*
Y16140D3*
Y16455D3*
Y16770D3*
Y17085D3*
Y17400D3*
Y17715D3*
Y18030D3*
Y18345D3*
D39*
X36012Y18660D3*
D41*
X35471Y19201D3*
D42*
X35156Y19152D3*
X34841D3*
X34526D3*
X34211D3*
X33896D3*
X33581D3*
X33266D3*
X32951D3*
X32636D3*
D41*
X32321Y19201D3*
M02*
