M48
INCH
T02C0.025
T03C0.035
T04C0.045
T06C0.115
%
T02
X031500Y006000
X032000Y006350
X032500Y006000
X033000Y006350
X033500Y006000
X034000Y006350
X033001Y007280
X031861Y007280
X030321Y006380
X029181Y007440
X030321Y008620
X030321Y009680
X030420Y010320
X030001Y012480
X030321Y013200
X029140Y014120
X028440Y014540
X029801Y015480
X031041Y015820
X030681Y017680
X031061Y018060
X031121Y018720
X030321Y018720
X032541Y017760
X033441Y018300
X034221Y017400
X034221Y016760
X035121Y016140
X034741Y015720
X033261Y015720
X033040Y014180
X034741Y010900
X033221Y009740
X033221Y008640
X035121Y008500
X036621Y009000
X036621Y009540
X036621Y010080
X037761Y010500
X037441Y011080
X037441Y011740
X037841Y013240
X036681Y016180
X036681Y016800
X037441Y016980
X036681Y018080
X036681Y018660
X035221Y017600
X034861Y018220
X034541Y019860
X039401Y019740
X040461Y022361
X040821Y016220
X037941Y008060
X023501Y014240
X022680Y014280
X021640Y012540
X018000Y014740
X015580Y015500
X014820Y016160
X015180Y017000
X014760Y018760
X014680Y020020
X015180Y020540
X016040Y021240
X016980Y023141
X017220Y024801
X015200Y024801
X014680Y023681
X014680Y023141
X012720Y024241
X013200Y024961
X012940Y021660
X013400Y021000
X012460Y019820
X010720Y020340
X009520Y014200
X009880Y007620
X009520Y007080
X018400Y006640
X018400Y008980
X020640Y005720
X022680Y017580
X024200Y018760
X022861Y021120
X019220Y018740
T03
X007000Y021000
X007000Y018250
X007400Y015100
X007400Y013200
X010300Y013100
X012000Y013100
X013000Y016750
X010752Y018250
X010752Y021000
X016740Y014520
X015970Y007860
X015850Y006640
X013990Y006640
X013990Y008240
X023240Y007860
X023140Y011520
X029300Y011500
X032820Y011500
X038420Y013420
X038840Y006120
X036780Y005860
X022400Y024200
X025040Y024280
X028800Y013040
X036920Y004640
X040160Y006160
T04
X005000Y021750
X005000Y020750
X005000Y019000
X005000Y018000
X005000Y016250
X005000Y015250
X005000Y014250
X005000Y013250
X005000Y011500
X005000Y010500
X005000Y009500
X005000Y007750
X005000Y006750
X008000Y005000
X009000Y005000
X010000Y005000
X011000Y005000
X012000Y005000
X013000Y005000
X014000Y005000
X015000Y005000
X016000Y005000
X017000Y005000
X018000Y005000
X019000Y005000
X020000Y005000
X021000Y005000
X022000Y005000
X023000Y005000
X021000Y023250
X021000Y024250
X021000Y025250
X005000Y024500
X005000Y023500
X041250Y023750
X041250Y022750
X041250Y021750
X041250Y020750
X041250Y019750
X041250Y018750
X041250Y017750
X041250Y015500
X041250Y014500
X041250Y013500
X041250Y012500
T06
X005000Y005000
X005000Y026500
X027260Y024250
X041500Y026500
X041500Y005000
T00
M30
