%FSLAX34Y34*%
%MOIN*%
%SFA1B1*%

%IPPOS*%
%LNGDS_layer_5_dt5-1*%
%LPD*%
%SRX1Y1I0J0*%
G36*
X1756Y57D02*
X1618Y195D01*
X1590*
Y234*
X1630*
X1775Y89*
X1886*
Y49*
X1846*
Y57*
G37*
G36*
X689Y53D02*
Y211D01*
X775*
Y89*
X1027*
Y93*
X1067*
Y89*
X1531*
Y93*
X1571*
Y53*
X1531*
Y57*
X1067*
Y53*
X1027*
Y57*
X775*
Y53*
G37*
G36*
X988Y179D02*
Y219D01*
X1027*
Y215*
X1098*
Y219*
X1138*
Y215*
X1271*
Y219*
X1311*
Y179*
X1271*
Y183*
X1138*
Y179*
X1098*
Y183*
X1027*
Y179*
G37*
G36*
X1787Y120D02*
X1638Y270D01*
X1590*
Y309*
X1645*
X1803Y152*
X2118*
Y215*
X2189*
Y37*
X2118*
Y-6*
X2079*
Y120*
G37*
G36*
X1831Y179D02*
Y219D01*
X1866*
X1870Y215*
X2043*
Y219*
X2082*
Y179*
X2043*
Y183*
X1870*
Y179*
G37*
G36*
X2232Y-10D02*
Y219D01*
X2271*
Y-10*
G37*
G36*
X118Y-671D02*
Y-632D01*
X157*
Y-671*
G37*
G36*
X106Y148D02*
Y203D01*
X-162*
Y557*
X43*
Y561*
X82*
Y522*
X43*
Y526*
X-122*
Y234*
X145*
Y148*
G37*
G36*
X165Y904D02*
Y1132D01*
X205*
Y904*
G37*
G36*
X27Y-529D02*
Y-490D01*
X67*
Y-529*
G37*
G36*
X27Y-211D02*
Y-120D01*
X59*
Y-211*
G37*
G36*
X-413Y-525D02*
Y-494D01*
X27*
Y-525*
G37*
G36*
X-32Y-671D02*
Y-632D01*
X82*
Y-671*
G37*
G36*
X-197Y-151D02*
Y-120D01*
X27*
Y-151*
G37*
G36*
X-1402Y-1041D02*
Y-994D01*
X-1366*
Y-1041*
G37*
G36*
X-1118Y-789D02*
Y-699D01*
X-1079*
Y-789*
G37*
G36*
X-1004Y-793D02*
Y-762D01*
X-953*
Y-793*
G37*
G36*
X-1043Y-797D02*
Y-758D01*
X-1004*
Y-797*
G37*
G36*
X-1382Y-151D02*
Y-112D01*
X-1335*
Y-151*
G37*
G36*
Y-120D01*
X-1095*
Y-151*
G37*
G36*
Y-112D01*
X-1047*
Y-151*
G37*
G36*
X-1173Y-478D02*
Y-439D01*
X-1134*
Y-478*
G37*
G36*
X-1445Y-994D02*
Y-955D01*
X-1366*
Y-994*
G37*
G36*
X-1492Y-474D02*
Y-443D01*
X-1173*
Y-474*
G37*
G36*
X-1122Y274D02*
Y809D01*
X-1209Y896*
X-1256*
Y1289*
X-862*
Y896*
X-988*
X-1075Y809*
Y683*
X-437*
Y636*
X-1075*
Y502*
X-350*
Y455*
X-1075*
Y321*
X-350*
Y274*
G37*
G36*
X-398Y593D02*
Y770D01*
X-350*
Y593*
G37*
G36*
X-614Y896D02*
Y967D01*
X-532*
Y896*
G37*
G36*
X-1036Y722D02*
Y770D01*
X-398*
Y722*
G37*
G36*
X-614Y967D02*
Y1289D01*
X-575*
Y967*
G37*
G36*
X-1036Y545D02*
Y593D01*
X-350*
Y545*
G37*
G36*
X-532Y896D02*
Y1289D01*
X-138*
Y896*
G37*
G36*
X-1532Y-506D02*
Y-443D01*
X-1492*
Y-506*
G37*
G36*
X-1532Y-856D02*
Y-817D01*
X-1492*
Y-856*
G37*
G36*
X-1528Y-348D02*
Y-309D01*
X-1488*
Y-348*
G37*
G36*
X-1520Y-214D02*
Y-175D01*
X-1480*
Y-214*
G37*
G36*
X-1528Y-281D02*
Y-242D01*
X-1488*
Y-281*
G37*
G36*
X-1528Y-415D02*
Y-376D01*
X-1488*
Y-415*
G37*
G36*
X-1528Y-1041D02*
Y-994D01*
X-1532*
Y-955*
X-1492*
Y-994*
X-1496*
Y-1041*
G37*
G36*
X-1469D02*
Y-1022D01*
X-1429*
Y-1041*
G37*
G36*
X-1528Y-817D02*
Y-506D01*
X-1496*
Y-817*
G37*
G36*
X-1898Y-1041D02*
Y-329D01*
X-1866*
Y-1041*
G37*
G36*
X-1835D02*
Y-797D01*
X-1803*
Y-1041*
G37*
G36*
X-1839Y-797D02*
Y-758D01*
X-1799*
Y-797*
G37*
G36*
X-1835Y-758D02*
Y-246D01*
X-1803*
Y-758*
G37*
G36*
X-1709Y-281D02*
Y-242D01*
X-1669*
Y-281*
G37*
G36*
X-1709Y-348D02*
Y-309D01*
X-1669*
Y-348*
G37*
G36*
X-1803Y-281D02*
Y-246D01*
X-1709*
Y-281*
G37*
G36*
X-1740Y-348D02*
Y-313D01*
X-1709*
Y-348*
G37*
G36*
X-1705Y-1041D02*
Y-415D01*
X-1669*
Y-1041*
G37*
G36*
X-1709Y-415D02*
Y-376D01*
X-1669*
Y-415*
G37*
G36*
X-1902Y-329D02*
Y-289D01*
X-1862*
Y-329*
G37*
G36*
X-1772Y-1041D02*
Y-313D01*
X-1740*
Y-1041*
G37*
G36*
X-1319Y-856D02*
Y-785D01*
X-1386*
Y-569*
X-1039*
Y-620*
X-728*
Y-577*
X-469*
Y-557*
X2287*
Y-604*
X-205*
Y-667*
X-1114*
Y-616*
X-1307*
Y-742*
X-1236*
Y-856*
G37*
G36*
X-890Y-793D02*
Y-762D01*
X2287*
Y-793*
G37*
G36*
X-1079Y-730D02*
Y-699D01*
X2287*
Y-730*
G37*
G36*
X157Y-667D02*
Y-636D01*
X334*
Y-667*
G37*
G36*
X67Y-525D02*
Y-494D01*
X2287*
Y-525*
G37*
G36*
X-295Y-337D02*
Y-305D01*
X1236*
Y-337*
G37*
G36*
X-295Y-462D02*
Y-431D01*
X2287*
Y-462*
G37*
G36*
X-335Y-400D02*
Y-368D01*
X1933*
Y-400*
G37*
G36*
X-63Y-274D02*
Y-242D01*
X496*
Y-274*
G37*
G36*
X59Y-211D02*
Y-179D01*
X740*
Y-211*
G37*
G36*
X-1634Y-1041D02*
Y-104D01*
X-1681Y-57*
X-1898*
Y337*
X-1504*
Y274*
X-1465Y234*
X-1437*
Y187*
X-1465*
X-1504Y148*
Y14*
X-1465Y-25*
X-1382*
Y26*
X-1319*
Y-25*
X12*
Y53*
X51*
Y-25*
X382*
Y53*
X421*
Y-37*
X1673*
Y37*
X1579Y132*
X1516*
Y171*
X1555*
Y167*
X1598*
X1712Y53*
Y-10*
X1823*
Y-37*
X1988*
Y89*
X2027*
Y-37*
X2287*
Y-85*
X-272*
Y-238*
X-185*
Y-277*
X-264*
Y-274*
X-311*
Y-85*
X-764*
Y-88*
X-803*
Y-73*
X-1563*
Y-1041*
G37*
G36*
X-24Y81D02*
Y120D01*
X16*
Y116*
X437*
Y301*
X476*
Y278*
X756*
Y282*
X795*
Y278*
X1197*
Y282*
X1236*
Y278*
X1311*
Y368*
X1783*
Y278*
X2287*
Y246*
X1756*
Y337*
X1342*
Y246*
X1236*
Y242*
X1197*
Y246*
X795*
Y242*
X756*
Y246*
X531*
Y85*
X16*
Y81*
G37*
G36*
X-1106Y89D02*
Y128D01*
X-232*
Y620*
X130*
Y687*
X441*
Y797*
X523*
Y758*
X476*
Y687*
X555*
Y770*
X905*
Y774*
X945*
Y770*
X2287*
Y738*
X945*
Y734*
X905*
Y738*
X594*
Y648*
X161*
Y589*
X-201*
Y89*
G37*
G36*
X287Y148D02*
Y309D01*
X-83*
Y494*
X114*
Y541*
X378*
Y545*
X417*
Y506*
X145*
Y463*
X-43*
Y341*
X327*
Y148*
G37*
G36*
X169Y372D02*
Y411D01*
X177*
Y470*
X437*
X460Y494*
X563*
Y616*
X988*
Y577*
X594*
Y463*
X476*
X449Y435*
X362*
Y431*
X323*
Y435*
X208*
Y372*
G37*
G36*
X-1437Y187D02*
Y234D01*
X-311*
Y364*
X-1036*
Y411*
X-311*
Y699*
X51*
Y1219*
X1169*
Y1222*
X1216*
Y1219*
X2287*
Y1171*
X909*
Y1069*
X870*
Y1171*
X98*
Y652*
X-264*
Y187*
G37*
G36*
X205Y1045D02*
Y1077D01*
X708*
Y1045*
G37*
G36*
X240Y368D02*
Y407D01*
X279*
Y404*
X382*
Y407*
X421*
Y404*
X464*
X488Y427*
X634*
Y537*
X988*
Y498*
X665*
Y396*
X504*
X480Y372*
X421*
Y368*
X382*
Y372*
X279*
Y368*
G37*
G36*
X220Y569D02*
Y608D01*
X260*
Y569*
G37*
G36*
X815Y120D02*
Y159D01*
X854*
Y152*
X1201*
Y156*
X1240*
Y152*
X1374*
Y156*
X1413*
Y116*
X1374*
Y120*
X1240*
Y116*
X1201*
Y120*
G37*
G36*
X677Y-10D02*
Y30D01*
X716*
Y26*
X1453*
Y30*
X1492*
Y26*
X1586*
Y30*
X1630*
Y-10*
X1590*
Y-6*
X1492*
Y-10*
X1453*
Y-6*
X716*
Y-10*
G37*
G36*
X634Y-151D02*
Y-112D01*
X673*
Y-116*
X2287*
Y-148*
X890*
Y-214*
X850*
Y-207*
X799*
Y-148*
X673*
Y-151*
G37*
G36*
X1453Y-337D02*
Y-242D01*
X1492*
Y-337*
G37*
G36*
X1547Y-277D02*
Y-238D01*
X1586*
Y-277*
G37*
G36*
Y-274D02*
Y-242D01*
X1728*
Y-274*
G37*
G36*
Y-277D02*
Y-238D01*
X1768*
Y-277*
G37*
G36*
X1492Y-337D02*
Y-305D01*
X2271*
Y-337*
G37*
G36*
X1933Y-403D02*
Y-364D01*
X1972*
Y-403*
G37*
G36*
X2232Y-305D02*
Y-238D01*
X2271*
Y-305*
G37*
G36*
X901Y-671D02*
Y-632D01*
X941*
Y-671*
G37*
G36*
X736D02*
Y-632D01*
X775*
Y-671*
G37*
G36*
X496D02*
Y-632D01*
X535*
Y-671*
G37*
G36*
X334D02*
Y-632D01*
X374*
Y-671*
G37*
G36*
Y-667D02*
Y-636D01*
X496*
Y-667*
G37*
G36*
X535D02*
Y-636D01*
X736*
Y-667*
G37*
G36*
X638Y-277D02*
Y-238D01*
X677*
Y-277*
G37*
G36*
X740Y-274D02*
Y-179D01*
X771*
Y-274*
G37*
G36*
Y-242D01*
X953*
Y-274*
G37*
G36*
X535D02*
Y-242D01*
X638*
Y-274*
G37*
G36*
X496Y-277D02*
Y-238D01*
X535*
Y-277*
G37*
G36*
X1236Y-337D02*
Y-297D01*
X1275*
Y-337*
G37*
G36*
X1236Y-671D02*
Y-632D01*
X1275*
Y-671*
G37*
G36*
X775Y-667D02*
Y-636D01*
X901*
Y-667*
G37*
G36*
X953Y-274D02*
Y-175D01*
X992*
Y-179*
X2287*
Y-211*
X1082*
Y-274*
G37*
G36*
X1275Y-667D02*
Y-636D01*
X2287*
Y-667*
G37*
G36*
X708Y935D02*
Y1077D01*
X748*
Y935*
G37*
G36*
X779Y1006D02*
Y1140D01*
X819*
Y1006*
G37*
G36*
Y1037D01*
X1000*
Y1006*
G37*
G36*
X1098Y1093D02*
Y1124D01*
X2004*
Y1093*
G37*
G36*
X1453Y1124D02*
Y1132D01*
X1492*
Y1124*
G37*
G36*
X1972Y1022D02*
Y1061D01*
X2012*
Y1022*
G37*
G36*
X2004Y1093D02*
Y1132D01*
X2051*
Y1093*
G37*
G36*
X1453Y1026D02*
Y1057D01*
X1972*
Y1026*
G37*
G36*
X1413Y1022D02*
Y1061D01*
X1453*
Y1022*
G37*
G36*
X1185Y1026D02*
Y1057D01*
X1413*
Y1026*
G37*
G36*
X1145Y1022D02*
Y1061D01*
X1185*
Y1022*
G37*
G36*
X1059Y1033D02*
Y1124D01*
X1098*
Y1033*
G37*
G36*
X960Y1037D02*
Y1140D01*
X1000*
Y1037*
G37*
G36*
X752Y407D02*
Y447D01*
X1177*
Y407*
G37*
G36*
X362Y722D02*
Y935D01*
X401*
Y722*
G37*
G36*
X260Y573D02*
Y608D01*
X437*
Y573*
G37*
G36*
Y569D02*
Y608D01*
X476*
Y569*
G37*
G36*
X748Y935D02*
Y974D01*
X831*
Y935*
G37*
G36*
X638Y904D02*
Y967D01*
X677*
Y904*
G37*
G36*
X453Y833D02*
Y967D01*
X496*
Y833*
G37*
G36*
X307Y967D02*
Y1006D01*
X677*
Y967*
G37*
G36*
X268Y754D02*
Y1006D01*
X307*
Y754*
G37*
G36*
X527Y833D02*
Y935D01*
X594*
Y833*
X708*
Y837*
X748*
Y797*
X708*
Y801*
X555*
Y833*
G37*
G36*
X638Y864D02*
Y904D01*
X1106*
Y864*
G37*
G36*
X1000Y797D02*
Y837D01*
X1039*
Y797*
G37*
G36*
X1216Y860D02*
Y900D01*
X1256*
Y860*
G37*
G36*
X559Y309D02*
Y356D01*
X1232*
Y447*
X1886*
Y356*
X2287*
Y309*
X1831*
Y400*
X1279*
Y309*
G37*
G36*
X752Y667D02*
Y707D01*
X1350*
Y667*
G37*
G36*
X1059Y549D02*
Y589D01*
X1413*
Y549*
G37*
G36*
X1098Y478D02*
Y518D01*
X1453*
Y478*
G37*
G36*
X1059Y943D02*
Y982D01*
X1319*
X1331Y994*
X2185*
Y978*
X2287*
Y931*
X2122*
Y955*
X1354*
X1342Y943*
X1185*
Y931*
X1145*
Y943*
G37*
G36*
X1039Y801D02*
Y833D01*
X1708*
Y801*
G37*
G36*
X1256Y864D02*
Y896D01*
X1417*
Y864*
G37*
G36*
X1480Y478D02*
Y573D01*
X1531*
X1586Y518*
X2051*
Y427*
X2287*
Y396*
X2012*
Y478*
G37*
G36*
X1602Y549D02*
X1504Y648D01*
Y711*
X1543*
Y656*
X1618Y581*
X1775*
Y585*
X1815*
Y581*
X2240*
Y644*
X2287*
Y612*
X2271*
Y459*
X2090*
Y549*
X1815*
Y545*
X1775*
Y549*
G37*
G36*
X1582Y667D02*
Y707D01*
X1685*
Y612*
X1645*
Y667*
G37*
G36*
X1720Y612D02*
Y652D01*
X1760*
Y644*
X1992*
Y648*
X2031*
Y608*
X1988*
Y612*
G37*
G36*
X2067D02*
Y675D01*
X1953*
Y671*
X1913*
Y675*
X1882*
Y671*
X1842*
Y711*
X1882*
Y707*
X1913*
Y711*
X1953*
Y707*
X2287*
Y675*
X2208*
Y612*
G37*
G36*
X1708Y797D02*
Y837D01*
X1752*
Y797*
G37*
G36*
X1496Y888D02*
Y927D01*
X1535*
Y888*
G37*
G36*
X1929D02*
Y927D01*
X1968*
Y888*
G37*
G36*
X1417Y860D02*
Y900D01*
X1457*
Y860*
G37*
G36*
X1535Y892D02*
Y923D01*
X1929*
Y892*
G37*
G36*
X1752Y801D02*
Y833D01*
X2287*
Y801*
G37*
G36*
X-1366Y-856D02*
X-1457D01*
Y-506*
X-894*
Y-502*
X-847*
Y-588*
X-1000*
Y-537*
X-1417*
Y-817*
X-1366*
G37*
G36*
X-953Y-797D02*
Y-758D01*
X-890*
Y-797*
G37*
G36*
X-1158Y-856D02*
X-1193Y-821D01*
Y-711*
X-1276*
Y-648*
X-1154*
Y-809*
X-1138Y-825*
X-642*
Y-856*
G37*
G36*
X-1331Y-1041D02*
Y-955D01*
X-642*
Y-994*
X-1252*
Y-1041*
G37*
G36*
X-1563Y-923D02*
Y-888D01*
X-642*
Y-923*
G37*
G36*
X-1488Y-344D02*
Y-313D01*
X-610*
Y-344*
G37*
G36*
X-1134Y-474D02*
Y-443D01*
X-764*
Y-474*
G37*
G36*
X-1488Y-411D02*
Y-380D01*
X-610*
Y-411*
G37*
G36*
X-1480Y-214D02*
Y-183D01*
X-532*
Y-214*
G37*
G36*
X-1488Y-277D02*
Y-246D01*
X-610*
Y-277*
G37*
G36*
X-866Y-1041D02*
Y-1022D01*
X-827*
Y-1025*
X-725*
Y-1022*
X-685*
Y-1061*
X-689*
Y-1041*
X-721*
Y-1061*
X-725*
Y-1041*
G37*
G36*
X-764Y-541D02*
Y-443D01*
X-634*
Y-541*
G37*
G36*
X-374Y-462D02*
Y-431D01*
X-335*
Y-462*
G37*
G36*
Y-466D02*
Y-427D01*
X-295*
Y-466*
G37*
G36*
X-610Y-411D02*
Y-380D01*
X-555*
X-441Y-494*
X-413*
Y-525*
X-457*
X-571Y-411*
G37*
G36*
X-610Y-344D02*
Y-313D01*
X-528*
X-410Y-431*
X-374*
Y-462*
X-425*
X-543Y-344*
G37*
G36*
X-610Y-277D02*
Y-246D01*
X-500*
X-378Y-368*
X-335*
Y-400*
X-394*
X-516Y-277*
G37*
G36*
X-102D02*
Y-238D01*
X-63*
Y-277*
G37*
G36*
X-236Y-155D02*
Y-116D01*
X-197*
Y-155*
G37*
G36*
X-532Y-214D02*
Y-183D01*
X-465*
X-343Y-305*
X-295*
Y-337*
X-362*
X-484Y-214*
G37*
M02*