%FSLAX34Y34*%
%MOIN*%
%SFA1B1*%

%IPPOS*%
%LNGDS_layer_7_dt7-1*%
%LPD*%
%SRX1Y1I0J0*%
G36*
X-162Y-502D02*
Y-455D01*
X-110*
Y-502*
G37*
G36*
X-571Y-525D02*
Y-470D01*
X-524*
Y-525*
G37*
G36*
X-1177Y-191D02*
Y-144D01*
X-1126*
Y-191*
G37*
G36*
X-197Y-22D02*
Y30D01*
X-146*
Y-22*
G37*
G36*
X-1008Y-33D02*
Y18D01*
X-957*
Y-33*
G37*
G36*
X-1331Y-124D02*
Y-73D01*
X-1284*
Y-124*
G37*
G36*
X-516Y136D02*
Y183D01*
X-461*
Y136*
G37*
G36*
X149Y262D02*
Y313D01*
X201*
Y262*
G37*
G36*
X303Y-565D02*
Y-518D01*
X354*
Y-565*
G37*
G36*
X1492Y-376D02*
Y-329D01*
X1543*
Y-376*
G37*
G36*
X1130Y-124D02*
Y-73D01*
X1181*
Y-124*
G37*
G36*
X1823D02*
Y-73D01*
X1874*
Y-124*
G37*
G36*
X1331D02*
Y-73D01*
X1382*
Y-124*
G37*
G36*
X582Y-22D02*
Y30D01*
X634*
Y-22*
G37*
G36*
X232Y262D02*
Y313D01*
X279*
Y262*
G37*
G36*
X2079Y356D02*
Y404D01*
X2130*
Y356*
G37*
G36*
X2157Y270D02*
Y317D01*
X2208*
Y270*
G37*
G36*
X1779Y301D02*
Y352D01*
X1831*
Y301*
G37*
G36*
X2071Y762D02*
Y809D01*
X2122*
Y762*
G37*
G36*
X2126Y837D02*
Y888D01*
X2177*
Y837*
G37*
G36*
X472Y687D02*
Y738D01*
X527*
Y687*
G37*
G36*
X1516Y1049D02*
Y1100D01*
X1559*
X1567Y1093*
Y1049*
G37*
G36*
X1897D02*
Y1093D01*
X1905Y1100*
X1949*
Y1049*
G37*
G36*
X1039Y1132D02*
Y1179D01*
X1090*
Y1132*
G37*
M02*