%FSLAX34Y34*%
%MOIN*%
%SFA1B1*%

%IPPOS*%
%AMTHERMAL18*
1,1,0.085000,0,0*
1,0,0.063700,0,0*
20,0,0.010650,-0.043350,-0.043350,0.043350,0.043350,0*
20,0,0.010650,-0.043350,0.043350,0.043350,-0.043350,0*
%
%AMTHERMAL19*
1,1,0.110000,0,0*
1,0,0.082500,0,0*
20,0,0.013750,-0.056100,-0.056100,0.056100,0.056100,0*
20,0,0.013750,-0.056100,0.056100,0.056100,-0.056100,0*
%
%AMTHERMAL50*
1,1,0.080000,0,0*
1,0,0.060000,0,0*
20,0,0.010000,-0.040800,-0.040800,0.040800,0.040800,0*
20,0,0.010000,-0.040800,0.040800,0.040800,-0.040800,0*
%
%AMTHERMAL51*
1,1,0.090000,0,0*
1,0,0.067500,0,0*
20,0,0.011250,-0.045900,-0.045900,0.045900,0.045900,0*
20,0,0.011250,-0.045900,0.045900,0.045900,-0.045900,0*
%
%AMTHERMAL52*
1,1,0.160000,0,0*
1,0,0.120000,0,0*
20,0,0.020000,-0.081600,-0.081600,0.081600,0.081600,0*
20,0,0.020000,-0.081600,0.081600,0.081600,-0.081600,0*
%
%ADD10R,0.011800X0.011800*%
%ADD11C,0.010000*%
%ADD12C,0.012000*%
%ADD13R,0.024000X0.024000*%
%ADD14C,0.008000*%
%ADD15C,0.055000*%
%ADD16C,0.033000*%
%ADD17C,0.085000*%
%ADD18THERMAL18*%
%ADD19THERMAL19*%
%ADD20C,0.050000*%
%ADD21R,0.050000X0.050000*%
%ADD22C,0.060000*%
%ADD23R,0.060000X0.060000*%
%ADD24C,0.120000*%
%ADD25R,0.021800X0.021800*%
%ADD26C,0.080000*%
%ADD27R,0.034000X0.034000*%
%ADD28C,0.090000*%
%ADD29C,0.070000*%
%ADD30C,0.110000*%
%ADD31R,0.070000X0.070000*%
%ADD32C,0.130000*%
%ADD33R,0.130000X0.130000*%
%ADD34C,0.140000*%
%ADD35R,0.140000X0.140000*%
%ADD36C,0.160000*%
%ADD37C,0.009800*%
%ADD38C,0.200000*%
%ADD39C,0.020000*%
%ADD40C,0.300000*%
%ADD41R,0.106000X0.020000*%
%ADD42C,0.310000*%
%ADD43R,0.020000X0.107000*%
%ADD44C,0.100000*%
%ADD45R,0.107000X0.020000*%
%ADD46R,0.020000X0.106000*%
%ADD47R,0.020000X0.071000*%
%ADD48R,0.072000X0.020000*%
%ADD49R,0.071000X0.020000*%
%ADD50THERMAL50*%
%ADD51THERMAL51*%
%ADD52THERMAL52*%
%ADD53R,0.080000X0.034000*%
%LNPGP2529-1*%
%LPD*%
%SRX1Y1I0J0*%
G54D17*
X187744Y165180D03*
X192444Y139581D03*
X192444Y148581D03*
X192644Y144231D03*
X189744Y146281D03*
X184844Y142181D03*
Y140781D03*
X187444Y139481D03*
X189044Y139581D03*
X190714Y139681D03*
X193934Y143181D03*
X192844Y153481D03*
X189744Y155381D03*
X186494Y151281D03*
X186644Y148781D03*
X188094Y146581D03*
X190694Y148581D03*
X193944Y152181D03*
X165744Y141681D03*
Y146881D03*
X188044Y164280D03*
X187744Y165980D03*
X189844Y165080D03*
X174544Y147081D03*
X172844Y142381D03*
X210343Y167980D03*
X213943Y168280D03*
X214143Y165680D03*
X213743Y162280D03*
X214143Y159881D03*
X212143Y160180D03*
X207943D03*
X206043Y164680D03*
G54D12*
X231043Y128381D02*
Y185380D01*
X163744*
Y128381*
X231043*
G54D18*
X189844Y165980D03*
X205743Y163920D03*
Y167500D03*
X209843Y168580D03*
X214943Y165880D03*
X213543Y168980D03*
X214543Y163280D03*
X214693Y159281D03*
X214543Y160590D03*
X207943Y159381D03*
X212143D03*
X176644Y147381D03*
X178244Y142281D03*
X172944Y145881D03*
X172744Y150181D03*
X168644Y142381D03*
X166544Y146081D03*
X168544Y147381D03*
X165744Y151581D03*
X184894Y151331D03*
X193944Y150581D03*
X186644Y142781D03*
X193944Y141581D03*
G54D22*
X210743Y168980D03*
X214333D03*
X220543Y164580D03*
X215343Y158681D03*
X217643Y169880D03*
X220843Y156981D03*
X221943Y156681D03*
X223643Y169080D03*
X207743Y158681D03*
X203143Y163780D03*
X227343Y158381D03*
X230243Y165380D03*
X229943Y165880D03*
X229743Y166380D03*
X201943Y179680D03*
X209143Y178680D03*
X183094Y151931D03*
X182744Y150781D03*
X183394Y152431D03*
X182044Y150481D03*
X184044Y152581D03*
X183344Y150181D03*
X183544Y152881D03*
X183844Y150131D03*
X184044Y153181D03*
X184344Y150081D03*
X184444Y153381D03*
X184844Y150081D03*
Y153581D03*
Y150681D03*
X185444Y153881D03*
X186444Y150491D03*
Y149981D03*
X188644Y150981D03*
X187544Y148581D03*
X187344Y155681D03*
X185544Y155281D03*
X188044Y148581D03*
X188844Y151381D03*
X186794Y149481D03*
X188194Y149381D03*
X185844Y155681D03*
X187844Y151381D03*
X188394Y149781D03*
X186844Y155681D03*
X187494Y149581D03*
X187344Y149181D03*
X187444Y150181D03*
X186144Y154781D03*
X188044Y150781D03*
X186344Y155681D03*
X174744Y165280D03*
X175744Y165480D03*
X176744Y165680D03*
X177744D03*
X178744Y169080D03*
X181644Y168380D03*
X179744Y166480D03*
X180744Y166880D03*
X181744Y165680D03*
X170444Y144381D03*
X184944Y142981D03*
X185594Y138381D03*
X170444Y143881D03*
X184544Y143281D03*
X184244Y139681D03*
X170444Y143381D03*
X184944Y143581D03*
X184994Y139831D03*
X170444Y142181D03*
X166944Y143381D03*
X186694Y140491D03*
X186644Y143981D03*
X166644Y143881D03*
X187144Y140881D03*
X186644Y144481D03*
X166944Y144381D03*
X185734Y144981D03*
X186844Y141181D03*
X166644Y144881D03*
X187144Y141491D03*
X185944Y145491D03*
X166944Y145381D03*
X178744Y142881D03*
X186344Y136581D03*
X189644Y139881D03*
X187644Y140081D03*
X174644Y144881D03*
X189844Y140281D03*
X187844Y140481D03*
X178744Y143881D03*
X189444Y140481D03*
X188344Y140581D03*
X187344Y136971D03*
X174944Y144381D03*
Y143381D03*
X178444D03*
Y144381D03*
X174944Y145381D03*
X174644Y143881D03*
X199744Y142281D03*
Y140381D03*
X197744Y170580D03*
X211843Y151281D03*
X197944Y149281D03*
X203743Y143981D03*
X210743Y143881D03*
X198744Y174380D03*
X198344Y146981D03*
X204743Y149281D03*
X209743Y149481D03*
X200743Y175580D03*
X201843Y152181D03*
X204743D03*
X199244Y179980D03*
X200243Y145981D03*
X209643Y144481D03*
X208743Y146381D03*
X198944Y159781D03*
X200843D03*
X200343Y149081D03*
X205743Y148581D03*
X211243Y145381D03*
Y152881D03*
X207193Y143931D03*
X211343Y143881D03*
X208143Y143731D03*
X203743Y152481D03*
X202843D03*
X201643Y152581D03*
X200743Y152681D03*
X188744Y165880D03*
X185344Y170280D03*
X195144Y174080D03*
Y176980D03*
X193964Y148831D03*
X193244Y161980D03*
X195844Y148081D03*
X196244Y139981D03*
X188744Y165380D03*
X184844Y170280D03*
X194344Y174580D03*
Y178380D03*
X194144Y149231D03*
X193644Y161780D03*
X196044Y149181D03*
X196544Y140481D03*
X188744Y164880D03*
X184344Y170280D03*
X193644Y175280D03*
X193844Y179880D03*
X194094Y149751D03*
X193644Y161280D03*
X196544Y149681D03*
X196744Y140981D03*
X201343Y170480D03*
X211543Y141981D03*
X210643Y135581D03*
X212543D03*
X209143Y134781D03*
X212443Y135181D03*
X204743Y147981D03*
Y148681D03*
X199344Y147981D03*
X199344Y155781D03*
X190044Y155981D03*
X183844Y170280D03*
X192644Y175780D03*
X208243Y142081D03*
X218043Y165580D03*
Y165080D03*
Y166180D03*
X217643Y165880D03*
X210343Y160680D03*
X202743Y159681D03*
X202793Y162480D03*
X197744Y168480D03*
X198944Y176380D03*
X206643Y159781D03*
X208943Y161080D03*
X196244Y167680D03*
X199324Y162160D03*
X198364Y162220D03*
X212343Y140281D03*
X212443Y165180D03*
X192144Y144581D03*
X195844Y138981D03*
X192444Y155981D03*
X192944Y164480D03*
X192244Y153581D03*
X212643Y141281D03*
X213443Y164780D03*
X191844Y144181D03*
X196244Y138681D03*
X192144Y156381D03*
X192744Y164880D03*
X191944Y153181D03*
X214143Y138781D03*
X212993Y164280D03*
X191544Y144581D03*
X195844Y138381D03*
X191844Y155981D03*
X192544Y165280D03*
X191644Y153581D03*
X214643Y138281D03*
X213493Y163980D03*
X191244Y144181D03*
X196244Y138081D03*
X191544Y156381D03*
X192344Y165680D03*
X191344Y153181D03*
X213443Y138281D03*
X212743Y163380D03*
X190944Y144581D03*
X195844Y137781D03*
X191244Y155981D03*
X192244Y166080D03*
X191044Y153581D03*
X203243Y142981D03*
X212843Y142781D03*
X211743Y162680D03*
X190644Y144181D03*
X196244Y137481D03*
X190944Y156381D03*
X192044Y166480D03*
X190744Y153181D03*
X202143Y143631D03*
X211943Y142981D03*
X210943Y162280D03*
X190644Y155981D03*
X191844Y166880D03*
X190444Y153581D03*
X190344Y144581D03*
X190344Y156381D03*
X189844Y166680D03*
X201343Y143831D03*
X211343Y142981D03*
X210743Y161830D03*
X190144Y153181D03*
X190044Y144181D03*
X217523Y161660D03*
X215643Y149981D03*
X189844Y153581D03*
X189744Y144581D03*
X217893Y161380D03*
X215943Y150381D03*
X189544Y153181D03*
X189444Y144181D03*
X217593Y160980D03*
X216143Y150881D03*
X189144Y144581D03*
X189244Y153581D03*
X217893Y160630D03*
X216443Y151281D03*
X188944Y153181D03*
X188844Y144181D03*
X217593Y160280D03*
X216643Y152081D03*
X188644Y153581D03*
X188544Y144581D03*
X217893Y159931D03*
X216943Y151781D03*
X188344Y153181D03*
X188244Y144181D03*
X217593Y159581D03*
X217443Y151981D03*
X188044Y153581D03*
X187944Y144581D03*
X217843Y159231D03*
X217643Y152381D03*
X187744Y153181D03*
X187644Y144181D03*
X215243Y168980D03*
X203543Y173280D03*
X193344Y169380D03*
X191044Y163330D03*
X205943Y161080D03*
X203343Y156441D03*
X201943Y157681D03*
X201243Y144981D03*
X205743Y143931D03*
X218093Y164530D03*
X215243Y168480D03*
X202593Y161180D03*
X199344Y162600D03*
X198344Y162680D03*
X219543Y167780D03*
X215143Y130181D03*
X212843Y130481D03*
X208143Y130681D03*
X211943Y168880D03*
X221443Y184180D03*
X203943Y174780D03*
X200343Y138381D03*
X198744Y170530D03*
X199944Y137881D03*
X208943Y144381D03*
X171244Y168080D03*
X187544Y180380D03*
X187244Y171880D03*
X186944Y169880D03*
X187944Y169180D03*
X222643Y148581D03*
X215343Y159281D03*
Y161180D03*
X205643Y156781D03*
X202793Y162930D03*
X198144Y168580D03*
X198444Y169780D03*
X205243Y137181D03*
X206393Y156681D03*
X186444Y170080D03*
X189624Y164080D03*
X206043Y150481D03*
X194594Y147931D03*
X194344Y162580D03*
X193944Y139681D03*
X206143Y156281D03*
X206243Y137181D03*
X206843Y156581D03*
X202793Y163430D03*
X201043Y166180D03*
X199944Y172280D03*
X185844Y170280D03*
X190044Y164080D03*
X193904Y155881D03*
X193344Y162780D03*
X193544Y144681D03*
X194044Y148381D03*
X193544Y139981D03*
X196744Y167680D03*
X203143Y161580D03*
X193544Y168980D03*
X190744Y167980D03*
X196044Y168480D03*
X182644Y171880D03*
X206753Y159081D03*
X205243Y162630D03*
X205343Y166780D03*
X206243Y167080D03*
X206843Y168080D03*
X205243Y168180D03*
X205843Y168380D03*
X206543Y168480D03*
X207543Y168380D03*
X218043Y166780D03*
X217643Y166480D03*
X202943Y158981D03*
X193594Y148531D03*
X193144Y160180D03*
X193244Y139681D03*
X182644Y170980D03*
X193544Y170580D03*
X203943Y174280D03*
X211043Y168080D03*
X192544Y150301D03*
Y152481D03*
X200243Y174780D03*
X192844Y139981D03*
X196844Y159681D03*
X201443Y159781D03*
X205943Y162280D03*
X203443Y158281D03*
X174144Y153281D03*
X176844Y150881D03*
X206383Y162220D03*
X203843Y157981D03*
X175944Y156281D03*
X178644Y150981D03*
X216743Y170180D03*
X203143Y172980D03*
X193544Y169780D03*
X189744Y168680D03*
X175644Y146681D03*
X211363Y168380D03*
X203943Y173680D03*
X193344Y170180D03*
X182644Y170380D03*
X204343Y178380D03*
X206243Y171680D03*
X208543Y171480D03*
X212843Y170980D03*
X213413D03*
X209143Y171680D03*
X206843D03*
X203543Y178880D03*
X202943Y178380D03*
X204443Y170580D03*
X202943Y178880D03*
X204043Y170180D03*
X203743Y178380D03*
X205743Y171680D03*
X203743Y177780D03*
X205243Y171380D03*
X204843Y170980D03*
X203743Y177280D03*
X220643Y171580D03*
X218643Y179080D03*
X221143Y170980D03*
X219143Y179580D03*
X221643Y171580D03*
X219643Y180080D03*
X222143Y170980D03*
X220643Y179580D03*
X206543Y143981D03*
X208743Y137081D03*
X216243D03*
X199544Y143081D03*
X199144Y136781D03*
X215043Y137381D03*
X195744Y148581D03*
X195844Y139681D03*
X195144Y177580D03*
X194934Y154381D03*
X194934Y145181D03*
X194244Y156281D03*
X193844Y181580D03*
X197344Y146181D03*
X195644Y181680D03*
X186744Y139881D03*
X196344Y150181D03*
X196544Y141481D03*
X196744Y150511D03*
X196844Y142181D03*
X203443Y175580D03*
X211543Y166780D03*
X204243Y158281D03*
X205243Y161580D03*
X201343Y149381D03*
X208843Y149481D03*
X195744Y140781D03*
X195644Y149781D03*
X195044Y181680D03*
G54D26*
X166744Y158131D03*
Y134131D03*
X209743Y139381D03*
X208743D03*
X207743D03*
X206743D03*
X205743D03*
X204743D03*
X203743D03*
X202743D03*
X201743D03*
X200743D03*
Y136381D03*
X201743D03*
X202743D03*
X203743D03*
X204743D03*
X205743D03*
X206743D03*
X207743D03*
X208743D03*
X191744Y183380D03*
Y182380D03*
X190744D03*
X189744Y183380D03*
Y182380D03*
X188744Y183380D03*
Y182380D03*
X187744Y183380D03*
Y182380D03*
X186744Y183380D03*
X185744Y182380D03*
Y181380D03*
X186744D03*
X185744Y180380D03*
X186744D03*
X185744Y179380D03*
X186744D03*
X185744Y178380D03*
X186744D03*
X185744Y177380D03*
X186744D03*
X185744Y176380D03*
X186744D03*
Y175380D03*
X185744Y174380D03*
X186744D03*
X185744Y173380D03*
X186744D03*
X185744Y172380D03*
X186744Y171380D03*
Y172380D03*
X187744Y171380D03*
Y172380D03*
X188744Y171380D03*
X189744D03*
Y172380D03*
X190744Y171380D03*
Y172380D03*
X191744D03*
X192744Y171380D03*
Y172380D03*
X193744Y171380D03*
Y172380D03*
X194744Y171380D03*
Y172380D03*
X195744Y171380D03*
Y172380D03*
X197744D03*
X196744D03*
X197744Y173380D03*
X196744D03*
X197744Y174380D03*
X196744D03*
X197744Y175380D03*
X196744D03*
X197744Y176380D03*
X196744D03*
X197744Y177380D03*
X196744D03*
Y178380D03*
X197744Y179380D03*
X196744D03*
X197744Y180380D03*
X196744D03*
X197744Y181380D03*
X196744D03*
X197744Y182380D03*
X196744Y183380D03*
Y182380D03*
X195744Y183380D03*
X194744D03*
Y182380D03*
X193744Y183380D03*
Y182380D03*
X192744Y183380D03*
Y182380D03*
X228743Y173380D03*
X227743Y172880D03*
X228743Y172380D03*
X227743Y171880D03*
X228743Y171380D03*
X227743Y170880D03*
X228743Y170380D03*
X227743Y169880D03*
X228743Y169380D03*
Y168380D03*
X227743Y167880D03*
X228743Y167380D03*
X227743Y166880D03*
X228743Y166380D03*
X227743Y165880D03*
X228743Y165380D03*
X227743Y164880D03*
X228743Y164380D03*
X227743Y163880D03*
X228743Y163380D03*
X227743Y162880D03*
X228743Y162380D03*
X227743Y161880D03*
X228743Y161380D03*
X227743Y160880D03*
X228743Y160380D03*
X227743Y159881D03*
X228743Y159381D03*
Y158381D03*
X227743Y157881D03*
X228743Y157381D03*
X227743Y156881D03*
X228743Y156381D03*
X227743Y155881D03*
X228743Y153381D03*
X227743Y152881D03*
X228743Y152381D03*
X227743Y151881D03*
X228743Y151381D03*
X227743Y150881D03*
X228743Y150381D03*
X227743Y149881D03*
X228743Y149381D03*
X227743Y148881D03*
X228743Y148381D03*
X227743Y147881D03*
X228743Y147381D03*
X227743Y146881D03*
X228743Y146381D03*
X227743Y145881D03*
X228743Y145381D03*
X227743Y144881D03*
X228743Y144381D03*
X227743Y143881D03*
X228743Y143381D03*
X227743Y142881D03*
Y141881D03*
X228743Y141381D03*
X227743Y140881D03*
X228743Y140381D03*
X227743Y139881D03*
X228743Y139381D03*
X227743Y138881D03*
X228743Y138381D03*
X227743Y137881D03*
X228743Y137381D03*
X227743Y136881D03*
X228743Y136381D03*
X227743Y135881D03*
X228243Y176630D03*
X200743Y142381D03*
X201743D03*
X202743D03*
X203743D03*
X204743D03*
X205743D03*
X206743D03*
X207743D03*
X208743D03*
X209743D03*
Y145381D03*
X208743D03*
X207743D03*
X206743D03*
X205743D03*
X204743D03*
X203743D03*
X202743D03*
X201743D03*
X200743Y147381D03*
X201743D03*
X202743D03*
X203743D03*
X204743D03*
X205743D03*
X206743D03*
X207743D03*
X208743D03*
X209743D03*
X210743D03*
X211743D03*
X212743D03*
X213743D03*
X214743D03*
X215743Y147381D03*
Y153381D03*
X214743D03*
X213743D03*
X212743D03*
X211743D03*
X210743D03*
X209743D03*
X208743D03*
X207743D03*
X206743D03*
X205743Y153381D03*
X204743D03*
X203743D03*
X202743D03*
X201743D03*
X170744Y171380D03*
X171744D03*
X172744D03*
X173744D03*
X174744D03*
X175744D03*
X176744D03*
X177744Y171380D03*
Y174380D03*
X176744Y174380D03*
X175744D03*
X174744D03*
X173744D03*
X172744D03*
X171744D03*
X222743Y139381D03*
X221743D03*
X220743D03*
X219743D03*
X218743D03*
X217743D03*
X216743D03*
X215743D03*
X214743Y139381D03*
X213743D03*
Y136381D03*
X214743D03*
X215743D03*
X216743D03*
X217743D03*
X218743D03*
X219743D03*
X220743D03*
X221743D03*
X168744Y175380D03*
X169744D03*
X170744D03*
X171744D03*
X172744D03*
X173744D03*
X174744D03*
X175744D03*
X176744D03*
X177744Y175380D03*
Y178380D03*
X176744Y178380D03*
X175744D03*
X174744D03*
X173744D03*
X172744D03*
X171744D03*
X170744D03*
X169744D03*
G54D28*
X166244Y176630D03*
Y177630D03*
X167744Y169380D03*
Y174380D03*
X224743Y170380D03*
Y167380D03*
X226743Y178380D03*
Y181380D03*
X227743Y178380D03*
Y181380D03*
X228743Y178380D03*
Y181380D03*
X172744Y169380D03*
Y170380D03*
X174744Y169380D03*
Y170380D03*
X170744D03*
X176744Y169380D03*
Y170380D03*
X196744Y135381D03*
X201743Y178380D03*
X224743Y132381D03*
X218743Y171380D03*
Y168380D03*
X197744Y155381D03*
X172244Y146881D03*
X228743Y183380D03*
X172744Y152881D03*
X174244Y131381D03*
X173244Y140381D03*
X198744Y142381D03*
X210743Y172380D03*
X182744Y141381D03*
X198744Y153381D03*
X220743Y178380D03*
Y181380D03*
X194744Y158381D03*
X200743Y176380D03*
X194744Y169380D03*
X224743Y163380D03*
X219743Y181380D03*
X211743Y139381D03*
X182744Y151381D03*
X211743Y155381D03*
X179744Y167380D03*
X171244Y150881D03*
X172244D03*
X202243Y181380D03*
Y184380D03*
X177744Y179880D03*
X171244Y142881D03*
X172244D03*
X171244Y144881D03*
X172244D03*
X176244Y129881D03*
X171244Y148881D03*
X172244D03*
X221743Y178380D03*
Y181380D03*
X222743Y178380D03*
Y181380D03*
X223743Y178380D03*
Y181380D03*
X224743Y178380D03*
Y181380D03*
X225743Y178380D03*
Y181380D03*
X177744Y152481D03*
X216743Y180380D03*
X215743D03*
X214743D03*
X213743D03*
X212743D03*
X211743D03*
X210743D03*
X209743D03*
X208743D03*
X207743D03*
X206743D03*
X205743D03*
X204743D03*
X216743Y179380D03*
X215743D03*
X214743D03*
X213743D03*
X212743D03*
X211743D03*
X210743D03*
X209743D03*
X208743D03*
X207743D03*
X206743D03*
X205743D03*
X204743D03*
X166744Y163380D03*
Y164380D03*
X167744Y163380D03*
Y164380D03*
X168744Y163380D03*
Y164380D03*
X169744Y163380D03*
Y164380D03*
X170744Y163380D03*
Y164380D03*
X171744Y163380D03*
Y164380D03*
X172744Y163380D03*
Y164380D03*
X173744Y163380D03*
Y164380D03*
X174744Y163380D03*
Y164380D03*
X175744Y163380D03*
Y164380D03*
X176744Y163380D03*
Y164380D03*
X177744Y163380D03*
Y164380D03*
X178744Y163380D03*
Y164380D03*
X179744Y163380D03*
Y164380D03*
X180744Y163380D03*
Y164380D03*
X181744Y163380D03*
Y164380D03*
X182744Y163380D03*
Y164380D03*
X166244Y169880D03*
Y170880D03*
Y171880D03*
Y172880D03*
Y173880D03*
Y174880D03*
X166744Y159131D03*
X167744Y158131D03*
Y159131D03*
X168744Y158131D03*
Y159131D03*
X169744Y158131D03*
Y159131D03*
X170744Y158131D03*
Y159131D03*
X171744Y158131D03*
Y159131D03*
X172744Y158131D03*
Y159131D03*
X173744Y158131D03*
Y159131D03*
X174744Y158131D03*
Y159131D03*
X175744Y158131D03*
Y159131D03*
X176744Y158131D03*
Y159131D03*
X177744Y158131D03*
Y159131D03*
X178744Y158131D03*
Y159131D03*
X179744Y158131D03*
Y159131D03*
X180744Y158131D03*
Y159131D03*
X181744Y158131D03*
Y159131D03*
X182744Y158131D03*
Y159131D03*
X183744Y158131D03*
Y159131D03*
X184744Y158131D03*
Y159131D03*
X185744Y158131D03*
Y159131D03*
X186744Y158131D03*
Y159131D03*
X187744Y158131D03*
Y159131D03*
X188744Y158131D03*
Y159131D03*
X189744Y158131D03*
Y159131D03*
X190744Y158131D03*
Y159131D03*
X218743Y167380D03*
Y166380D03*
X166744Y135131D03*
X167744Y134131D03*
Y135131D03*
X168744Y134131D03*
Y135131D03*
X169744Y134131D03*
Y135131D03*
X170744Y134131D03*
Y135131D03*
X171744Y134131D03*
Y135131D03*
X172744Y134131D03*
Y135131D03*
X173744Y134131D03*
Y135131D03*
X174744Y134131D03*
Y135131D03*
X175744Y134131D03*
Y135131D03*
X176744Y134131D03*
Y135131D03*
X177744Y134131D03*
Y135131D03*
X178744Y134131D03*
Y135131D03*
X179744Y134131D03*
Y135131D03*
X180744Y134131D03*
Y135131D03*
X181744Y134131D03*
Y135131D03*
X182744Y134131D03*
Y135131D03*
X183744Y134131D03*
Y135131D03*
X184744Y134131D03*
Y135131D03*
X185744Y134131D03*
Y135131D03*
X186744Y134131D03*
Y135131D03*
X187744Y134131D03*
Y135131D03*
X188744Y134131D03*
Y135131D03*
X189744Y134131D03*
Y135131D03*
X190744Y134131D03*
Y135131D03*
X199744Y131381D03*
Y132381D03*
X200743Y131381D03*
Y132381D03*
X201743Y131381D03*
Y132381D03*
X202743Y131381D03*
Y132381D03*
X203743Y131381D03*
Y132381D03*
X204743Y131381D03*
Y132381D03*
X205743Y131381D03*
Y132381D03*
X206743Y131381D03*
Y132381D03*
X207743Y131381D03*
Y132381D03*
X208743Y131381D03*
Y132381D03*
X209743Y131381D03*
Y132381D03*
X210743Y131381D03*
Y132381D03*
X211743Y131381D03*
Y132381D03*
X212743Y131381D03*
Y132381D03*
X213743Y131381D03*
Y132381D03*
X214743Y131381D03*
Y132381D03*
X215743Y131381D03*
Y132381D03*
X216743Y131381D03*
Y132381D03*
X217743Y131381D03*
Y132381D03*
X218743Y131381D03*
Y132381D03*
X180744Y182380D03*
Y181380D03*
X181744D03*
X180744Y180380D03*
X181744D03*
X180744Y179380D03*
X181744D03*
X180744Y178380D03*
X181744D03*
X180744Y177380D03*
X181744D03*
X180744Y176380D03*
X181744D03*
X180744Y175380D03*
X181744D03*
X180744Y174380D03*
X181744D03*
X180744Y173380D03*
X181744D03*
X180744Y172380D03*
X181744D03*
Y171380D03*
Y170380D03*
X166744Y182340D03*
Y181320D03*
Y183360D03*
Y180290D03*
X167764Y183360D03*
Y180290D03*
X219743Y142381D03*
X224743D03*
X219743Y143381D03*
X224743D03*
X219743Y144381D03*
X224743D03*
X219743Y145381D03*
X224743D03*
X219743Y146381D03*
X224743D03*
X219743Y147381D03*
X224743D03*
X219743Y148381D03*
X224743D03*
X219743Y149381D03*
X224743D03*
X219743Y150381D03*
X224743D03*
X219743Y152381D03*
X224743D03*
X219743Y151381D03*
X224743D03*
X219743Y153381D03*
X224743D03*
X219743Y154381D03*
X224743D03*
X219743Y155381D03*
X224743D03*
X219743Y173380D03*
X224743D03*
X219743Y174380D03*
X224743D03*
X219743Y175380D03*
X224743D03*
X219743Y176380D03*
X224743D03*
X218743Y173380D03*
X213743D03*
X218743Y174380D03*
X213743D03*
X218743Y175380D03*
X213743D03*
X218743Y176380D03*
X213743D03*
X212743Y174380D03*
X207743D03*
X212743Y175380D03*
X207743D03*
X206743Y176380D03*
X201743D03*
X212743D03*
X207743D03*
X212743Y173380D03*
X207743D03*
X206743D03*
X201743D03*
X201243Y179380D03*
Y184380D03*
X206743Y174380D03*
X201743D03*
X206743Y175380D03*
X201743D03*
X173244Y183880D03*
X178244D03*
X200243Y179380D03*
X200743Y163380D03*
X200743Y168380D03*
X218743Y150381D03*
X194744Y130381D03*
Y131381D03*
X199744Y156381D03*
X194744Y129381D03*
X174744Y180380D03*
X178244Y182880D03*
Y181880D03*
X169744Y179380D03*
X200743Y161380D03*
X213743Y142381D03*
X218743Y142381D03*
X224743Y171380D03*
X219743D03*
X213743Y143381D03*
X218743Y143381D03*
X213743Y144381D03*
X218743Y144381D03*
X217743Y155381D03*
X213743Y145381D03*
X218743Y145381D03*
Y183380D03*
X217743D03*
X216743D03*
X215743D03*
X214743D03*
X213743D03*
X212743D03*
X211743D03*
X210743D03*
X164744Y137881D03*
X165744D03*
X166744D03*
X167744D03*
X168744D03*
X169744D03*
X170744D03*
X171744D03*
X172744D03*
X173744D03*
X175744D03*
X176744D03*
X177744D03*
X178744D03*
X179744D03*
X180744D03*
X181744D03*
X182744D03*
X183744D03*
X184744D03*
X208743Y140381D03*
X207743D03*
X206743D03*
X205743D03*
X204743D03*
X203743D03*
X202743D03*
X201743D03*
X200743D03*
X214743D03*
X215743Y140381D03*
X216743D03*
X217743D03*
X218743D03*
X219743D03*
X220743D03*
X221743D03*
X222743D03*
Y135381D03*
X221743D03*
X220743D03*
X219743D03*
X218743D03*
X217743D03*
X216743D03*
X215743D03*
X214743D03*
X213743D03*
X209743D03*
X208743D03*
X207743D03*
X206743D03*
X205743D03*
X204743D03*
X203743D03*
X202743D03*
X201743D03*
X200743D03*
X167744Y167380D03*
X168744D03*
X169744D03*
X170744D03*
X171744D03*
X172744D03*
X173744D03*
X174744D03*
X175744D03*
X165744Y155381D03*
X166744D03*
X167744D03*
X168744D03*
X169744D03*
X170744D03*
X171744D03*
X172744D03*
X173744D03*
X164744Y154381D03*
X165744D03*
X166744D03*
X167744D03*
X168744D03*
X169744D03*
X170744D03*
X171744D03*
X172744D03*
X173744D03*
X176744Y155381D03*
X177744D03*
X178744D03*
X179744D03*
X180744D03*
X181744D03*
X182744D03*
X183744D03*
X184744D03*
X175744Y154381D03*
X176744D03*
X177744D03*
X178744D03*
X179744D03*
X180744D03*
X181744D03*
X182744D03*
X183744D03*
X184744D03*
X165744Y138881D03*
X166744D03*
X167744D03*
X168744D03*
X169744D03*
X170744D03*
X171744D03*
X172744D03*
X173744D03*
X176744D03*
X177744D03*
X178744D03*
X179744D03*
X180744D03*
X181744D03*
X182744D03*
X183744D03*
X184744D03*
X224743Y166380D03*
X225743Y165380D03*
X224743Y159381D03*
X225743Y158381D03*
X224743Y157381D03*
X222743Y158381D03*
Y164380D03*
X219743D03*
X222743Y170380D03*
X220743D03*
X179744Y149381D03*
Y143381D03*
X182744D03*
X194744Y166380D03*
Y160380D03*
X197744D03*
X168744Y171380D03*
X225743Y155381D03*
X194744Y137381D03*
X205943Y182980D03*
X206943Y183980D03*
G54D30*
X164884Y181830D03*
G54D36*
X180244Y130381D03*
X182244D03*
X184244D03*
G54D38*
X170744Y130881D03*
X224743Y184380D03*
Y129381D03*
X170744Y183380D03*
G54D44*
X228243Y154631D03*
Y132631D03*
G54D50*
X200743Y153381D03*
X196744Y171380D03*
X191744D03*
X188744Y172380D03*
X185744Y175380D03*
X170744Y174380D03*
X197744Y178380D03*
X195744Y182380D03*
X190744Y183380D03*
X186744Y182380D03*
X227743Y158881D03*
Y168880D03*
X209743Y136381D03*
X222743D03*
X228743Y142381D03*
X168744Y178380D03*
X200743Y145381D03*
G54D51*
X189744Y130381D03*
Y131381D03*
Y129381D03*
X198744Y139381D03*
X196744Y136381D03*
X209743Y140381D03*
X197744Y156381D03*
X197744Y158381D03*
X200743Y156381D03*
X199744Y161380D03*
X197744Y166380D03*
X200743Y173380D03*
X191744Y169380D03*
X182744Y167380D03*
X180744Y170380D03*
Y171380D03*
X169744Y180380D03*
X174744Y179380D03*
X200743Y178380D03*
X200243Y184380D03*
X173244Y181880D03*
X170744Y169380D03*
X173244Y182880D03*
X176744Y179880D03*
X166744Y167380D03*
X181744Y182380D03*
X182744Y149381D03*
X179744Y151381D03*
X175744Y155381D03*
X213743Y172380D03*
X219743Y178380D03*
Y158381D03*
X208743Y155381D03*
X218743D03*
X224743Y160380D03*
X217743Y150381D03*
X224743Y164380D03*
X182744Y152481D03*
X175744Y138881D03*
X179744Y141381D03*
X177244Y131381D03*
X171244Y146881D03*
X169744Y152881D03*
X170244Y140381D03*
X164744Y138881D03*
Y155381D03*
X175244Y129881D03*
X213743Y140381D03*
X211743Y136381D03*
X224743Y133381D03*
X219743Y183380D03*
X227743D03*
X225743Y150381D03*
X198744Y150381D03*
X189744Y137381D03*
X168744Y174380D03*
X207943Y182980D03*
G54D52*
X186244Y130381D03*
M02*